%TF.GenerationSoftware,KiCad,Pcbnew,9.0.0*%
%TF.CreationDate,2025-11-29T16:16:49+09:00*%
%TF.ProjectId,ESP32_BLEKeyBorad,45535033-325f-4424-9c45-4b6579426f72,rev?*%
%TF.SameCoordinates,Original*%
%TF.FileFunction,Legend,Bot*%
%TF.FilePolarity,Positive*%
%FSLAX46Y46*%
G04 Gerber Fmt 4.6, Leading zero omitted, Abs format (unit mm)*
G04 Created by KiCad (PCBNEW 9.0.0) date 2025-11-29 16:16:49*
%MOMM*%
%LPD*%
G01*
G04 APERTURE LIST*
%ADD10C,0.150000*%
%ADD11C,0.254000*%
%ADD12C,0.120000*%
%ADD13C,0.152400*%
%ADD14C,0.100000*%
%ADD15C,0.200000*%
%ADD16C,0.375000*%
G04 APERTURE END LIST*
D10*
G36*
X91375936Y-101579077D02*
G01*
X91447878Y-101651019D01*
X91488220Y-101812386D01*
X91488220Y-102127251D01*
X91447878Y-102288617D01*
X91375935Y-102360561D01*
X91307420Y-102394819D01*
X91152354Y-102394819D01*
X91083838Y-102360561D01*
X91011895Y-102288617D01*
X90971554Y-102127251D01*
X90971554Y-101812386D01*
X91011895Y-101651019D01*
X91083838Y-101579077D01*
X91152354Y-101544819D01*
X91307420Y-101544819D01*
X91375936Y-101579077D01*
G37*
G36*
X92423555Y-101579077D02*
G01*
X92495497Y-101651019D01*
X92535839Y-101812386D01*
X92535839Y-102127251D01*
X92495497Y-102288617D01*
X92423554Y-102360561D01*
X92355039Y-102394819D01*
X92199973Y-102394819D01*
X92131457Y-102360561D01*
X92059514Y-102288617D01*
X92019173Y-102127251D01*
X92019173Y-101812386D01*
X92059514Y-101651019D01*
X92131457Y-101579077D01*
X92199973Y-101544819D01*
X92355039Y-101544819D01*
X92423555Y-101579077D01*
G37*
G36*
X93488220Y-102394819D02*
G01*
X93199973Y-102394819D01*
X93131457Y-102360561D01*
X93101050Y-102330153D01*
X93066792Y-102261637D01*
X93066792Y-102154190D01*
X93101050Y-102085674D01*
X93127544Y-102059180D01*
X93242057Y-102021009D01*
X93488220Y-102021009D01*
X93488220Y-102394819D01*
G37*
G36*
X93488220Y-101871009D02*
G01*
X93247592Y-101871009D01*
X93179076Y-101836751D01*
X93148669Y-101806344D01*
X93114411Y-101737828D01*
X93114411Y-101678000D01*
X93148669Y-101609484D01*
X93179076Y-101579077D01*
X93247592Y-101544819D01*
X93488220Y-101544819D01*
X93488220Y-101871009D01*
G37*
G36*
X93749331Y-102655930D02*
G01*
X89854741Y-102655930D01*
X89854741Y-101455187D01*
X89965852Y-101455187D01*
X89965852Y-101484451D01*
X89977051Y-101511487D01*
X89997743Y-101532179D01*
X90024779Y-101543378D01*
X90039411Y-101544819D01*
X90250125Y-101544819D01*
X90250125Y-102469819D01*
X90251566Y-102484451D01*
X90262765Y-102511487D01*
X90283457Y-102532179D01*
X90310493Y-102543378D01*
X90339757Y-102543378D01*
X90366793Y-102532179D01*
X90387485Y-102511487D01*
X90398684Y-102484451D01*
X90400125Y-102469819D01*
X90400125Y-101803152D01*
X90821554Y-101803152D01*
X90821554Y-102136485D01*
X90821805Y-102139038D01*
X90821643Y-102140131D01*
X90822452Y-102145604D01*
X90822995Y-102151117D01*
X90823417Y-102152138D01*
X90823793Y-102154675D01*
X90871412Y-102345151D01*
X90876359Y-102358997D01*
X90879678Y-102363476D01*
X90881812Y-102368628D01*
X90891140Y-102379994D01*
X90986378Y-102475233D01*
X90992128Y-102479953D01*
X90993427Y-102481450D01*
X90995681Y-102482869D01*
X90997743Y-102484561D01*
X90999575Y-102485319D01*
X91005870Y-102489282D01*
X91101108Y-102536901D01*
X91114839Y-102542156D01*
X91117528Y-102542347D01*
X91120017Y-102543378D01*
X91134649Y-102544819D01*
X91325125Y-102544819D01*
X91339757Y-102543378D01*
X91342246Y-102542346D01*
X91344934Y-102542156D01*
X91358666Y-102536901D01*
X91453904Y-102489282D01*
X91460203Y-102485317D01*
X91462031Y-102484560D01*
X91464087Y-102482871D01*
X91466347Y-102481450D01*
X91467646Y-102479951D01*
X91473396Y-102475233D01*
X91568635Y-102379993D01*
X91577962Y-102368628D01*
X91580095Y-102363476D01*
X91583415Y-102358997D01*
X91588362Y-102345151D01*
X91635981Y-102154675D01*
X91636356Y-102152138D01*
X91636779Y-102151117D01*
X91637321Y-102145604D01*
X91638131Y-102140131D01*
X91637968Y-102139038D01*
X91638220Y-102136485D01*
X91638220Y-101803152D01*
X91869173Y-101803152D01*
X91869173Y-102136485D01*
X91869424Y-102139038D01*
X91869262Y-102140131D01*
X91870071Y-102145604D01*
X91870614Y-102151117D01*
X91871036Y-102152138D01*
X91871412Y-102154675D01*
X91919031Y-102345151D01*
X91923978Y-102358997D01*
X91927297Y-102363476D01*
X91929431Y-102368628D01*
X91938759Y-102379994D01*
X92033997Y-102475233D01*
X92039747Y-102479953D01*
X92041046Y-102481450D01*
X92043300Y-102482869D01*
X92045362Y-102484561D01*
X92047194Y-102485319D01*
X92053489Y-102489282D01*
X92148727Y-102536901D01*
X92162458Y-102542156D01*
X92165147Y-102542347D01*
X92167636Y-102543378D01*
X92182268Y-102544819D01*
X92372744Y-102544819D01*
X92387376Y-102543378D01*
X92389865Y-102542346D01*
X92392553Y-102542156D01*
X92406285Y-102536901D01*
X92501523Y-102489282D01*
X92507822Y-102485317D01*
X92509650Y-102484560D01*
X92511706Y-102482871D01*
X92513966Y-102481450D01*
X92515265Y-102479951D01*
X92521015Y-102475233D01*
X92616254Y-102379993D01*
X92625581Y-102368628D01*
X92627714Y-102363476D01*
X92631034Y-102358997D01*
X92635981Y-102345151D01*
X92683600Y-102154675D01*
X92683975Y-102152138D01*
X92684398Y-102151117D01*
X92684940Y-102145604D01*
X92685750Y-102140131D01*
X92685587Y-102139038D01*
X92685839Y-102136485D01*
X92916792Y-102136485D01*
X92916792Y-102279342D01*
X92918233Y-102293974D01*
X92919264Y-102296463D01*
X92919455Y-102299151D01*
X92924710Y-102312883D01*
X92972329Y-102408121D01*
X92976292Y-102414417D01*
X92977050Y-102416247D01*
X92978739Y-102418305D01*
X92980161Y-102420564D01*
X92981659Y-102421863D01*
X92986377Y-102427612D01*
X93033996Y-102475232D01*
X93039745Y-102479950D01*
X93041046Y-102481450D01*
X93043305Y-102482872D01*
X93045362Y-102484560D01*
X93047189Y-102485317D01*
X93053489Y-102489282D01*
X93148727Y-102536901D01*
X93162458Y-102542156D01*
X93165147Y-102542347D01*
X93167636Y-102543378D01*
X93182268Y-102544819D01*
X93563220Y-102544819D01*
X93577852Y-102543378D01*
X93604888Y-102532179D01*
X93625580Y-102511487D01*
X93636779Y-102484451D01*
X93638220Y-102469819D01*
X93638220Y-101469819D01*
X93636779Y-101455187D01*
X93625580Y-101428151D01*
X93604888Y-101407459D01*
X93577852Y-101396260D01*
X93563220Y-101394819D01*
X93229887Y-101394819D01*
X93215255Y-101396260D01*
X93212766Y-101397290D01*
X93210077Y-101397482D01*
X93196346Y-101402737D01*
X93101108Y-101450356D01*
X93094808Y-101454320D01*
X93092981Y-101455078D01*
X93090924Y-101456766D01*
X93088665Y-101458188D01*
X93087365Y-101459686D01*
X93081616Y-101464405D01*
X93033997Y-101512024D01*
X93029278Y-101517773D01*
X93027780Y-101519073D01*
X93026358Y-101521332D01*
X93024670Y-101523389D01*
X93023912Y-101525216D01*
X93019948Y-101531516D01*
X92972329Y-101626754D01*
X92967074Y-101640486D01*
X92966883Y-101643173D01*
X92965852Y-101645663D01*
X92964411Y-101660295D01*
X92964411Y-101755533D01*
X92965852Y-101770165D01*
X92966883Y-101772654D01*
X92967074Y-101775342D01*
X92972329Y-101789074D01*
X93019948Y-101884312D01*
X93023912Y-101890611D01*
X93024670Y-101892439D01*
X93026358Y-101894495D01*
X93027780Y-101896755D01*
X93029278Y-101898054D01*
X93033997Y-101903804D01*
X93055954Y-101925761D01*
X93049887Y-101928471D01*
X93047850Y-101930237D01*
X93045362Y-101931268D01*
X93033997Y-101940595D01*
X92986378Y-101988214D01*
X92981659Y-101993963D01*
X92980161Y-101995263D01*
X92978739Y-101997522D01*
X92977051Y-101999579D01*
X92976293Y-102001406D01*
X92972329Y-102007706D01*
X92924710Y-102102944D01*
X92919455Y-102116676D01*
X92919264Y-102119363D01*
X92918233Y-102121853D01*
X92916792Y-102136485D01*
X92685839Y-102136485D01*
X92685839Y-101803152D01*
X92685587Y-101800598D01*
X92685750Y-101799506D01*
X92684940Y-101794032D01*
X92684398Y-101788520D01*
X92683975Y-101787498D01*
X92683600Y-101784962D01*
X92635981Y-101594486D01*
X92631034Y-101580640D01*
X92627715Y-101576161D01*
X92625581Y-101571008D01*
X92616253Y-101559643D01*
X92521015Y-101464405D01*
X92515265Y-101459686D01*
X92513966Y-101458188D01*
X92511706Y-101456766D01*
X92509650Y-101455078D01*
X92507822Y-101454320D01*
X92501523Y-101450356D01*
X92406285Y-101402737D01*
X92392553Y-101397482D01*
X92389865Y-101397291D01*
X92387376Y-101396260D01*
X92372744Y-101394819D01*
X92182268Y-101394819D01*
X92167636Y-101396260D01*
X92165147Y-101397290D01*
X92162458Y-101397482D01*
X92148727Y-101402737D01*
X92053489Y-101450356D01*
X92047194Y-101454318D01*
X92045362Y-101455077D01*
X92043300Y-101456768D01*
X92041046Y-101458188D01*
X92039747Y-101459684D01*
X92033997Y-101464405D01*
X91938759Y-101559643D01*
X91929432Y-101571008D01*
X91927298Y-101576158D01*
X91923978Y-101580640D01*
X91919031Y-101594486D01*
X91871412Y-101784962D01*
X91871036Y-101787498D01*
X91870614Y-101788520D01*
X91870071Y-101794032D01*
X91869262Y-101799506D01*
X91869424Y-101800598D01*
X91869173Y-101803152D01*
X91638220Y-101803152D01*
X91637968Y-101800598D01*
X91638131Y-101799506D01*
X91637321Y-101794032D01*
X91636779Y-101788520D01*
X91636356Y-101787498D01*
X91635981Y-101784962D01*
X91588362Y-101594486D01*
X91583415Y-101580640D01*
X91580096Y-101576161D01*
X91577962Y-101571008D01*
X91568634Y-101559643D01*
X91473396Y-101464405D01*
X91467646Y-101459686D01*
X91466347Y-101458188D01*
X91464087Y-101456766D01*
X91462031Y-101455078D01*
X91460203Y-101454320D01*
X91453904Y-101450356D01*
X91358666Y-101402737D01*
X91344934Y-101397482D01*
X91342246Y-101397291D01*
X91339757Y-101396260D01*
X91325125Y-101394819D01*
X91134649Y-101394819D01*
X91120017Y-101396260D01*
X91117528Y-101397290D01*
X91114839Y-101397482D01*
X91101108Y-101402737D01*
X91005870Y-101450356D01*
X90999575Y-101454318D01*
X90997743Y-101455077D01*
X90995681Y-101456768D01*
X90993427Y-101458188D01*
X90992128Y-101459684D01*
X90986378Y-101464405D01*
X90891140Y-101559643D01*
X90881813Y-101571008D01*
X90879679Y-101576158D01*
X90876359Y-101580640D01*
X90871412Y-101594486D01*
X90823793Y-101784962D01*
X90823417Y-101787498D01*
X90822995Y-101788520D01*
X90822452Y-101794032D01*
X90821643Y-101799506D01*
X90821805Y-101800598D01*
X90821554Y-101803152D01*
X90400125Y-101803152D01*
X90400125Y-101544819D01*
X90610839Y-101544819D01*
X90625471Y-101543378D01*
X90652507Y-101532179D01*
X90673199Y-101511487D01*
X90684398Y-101484451D01*
X90684398Y-101455187D01*
X90673199Y-101428151D01*
X90652507Y-101407459D01*
X90625471Y-101396260D01*
X90610839Y-101394819D01*
X90039411Y-101394819D01*
X90024779Y-101396260D01*
X89997743Y-101407459D01*
X89977051Y-101428151D01*
X89965852Y-101455187D01*
X89854741Y-101455187D01*
X89854741Y-101283708D01*
X93749331Y-101283708D01*
X93749331Y-102655930D01*
G37*
G36*
X88788220Y-101918628D02*
G01*
X88499973Y-101918628D01*
X88431457Y-101884370D01*
X88401050Y-101853963D01*
X88366792Y-101785447D01*
X88366792Y-101678000D01*
X88401050Y-101609484D01*
X88431457Y-101579077D01*
X88499973Y-101544819D01*
X88788220Y-101544819D01*
X88788220Y-101918628D01*
G37*
G36*
X89049331Y-102655930D02*
G01*
X84488074Y-102655930D01*
X84488074Y-101455187D01*
X84599185Y-101455187D01*
X84599185Y-101484451D01*
X84610384Y-101511487D01*
X84631076Y-101532179D01*
X84658112Y-101543378D01*
X84672744Y-101544819D01*
X84883458Y-101544819D01*
X84883458Y-102469819D01*
X84884899Y-102484451D01*
X84896098Y-102511487D01*
X84916790Y-102532179D01*
X84943826Y-102543378D01*
X84973090Y-102543378D01*
X85000126Y-102532179D01*
X85020818Y-102511487D01*
X85032017Y-102484451D01*
X85033458Y-102469819D01*
X85033458Y-101544819D01*
X85244172Y-101544819D01*
X85258804Y-101543378D01*
X85285840Y-101532179D01*
X85306532Y-101511487D01*
X85317731Y-101484451D01*
X85317731Y-101455187D01*
X85456328Y-101455187D01*
X85456328Y-101484451D01*
X85467527Y-101511487D01*
X85488219Y-101532179D01*
X85515255Y-101543378D01*
X85529887Y-101544819D01*
X85931077Y-101544819D01*
X85931077Y-101871009D01*
X85672744Y-101871009D01*
X85658112Y-101872450D01*
X85631076Y-101883649D01*
X85610384Y-101904341D01*
X85599185Y-101931377D01*
X85599185Y-101960641D01*
X85610384Y-101987677D01*
X85631076Y-102008369D01*
X85658112Y-102019568D01*
X85672744Y-102021009D01*
X85931077Y-102021009D01*
X85931077Y-102394819D01*
X85529887Y-102394819D01*
X85515255Y-102396260D01*
X85488219Y-102407459D01*
X85467527Y-102428151D01*
X85456328Y-102455187D01*
X85456328Y-102484451D01*
X85467527Y-102511487D01*
X85488219Y-102532179D01*
X85515255Y-102543378D01*
X85529887Y-102544819D01*
X86006077Y-102544819D01*
X86020709Y-102543378D01*
X86047745Y-102532179D01*
X86068437Y-102511487D01*
X86079636Y-102484451D01*
X86081077Y-102469819D01*
X86081077Y-102184104D01*
X86359649Y-102184104D01*
X86359649Y-102279342D01*
X86361090Y-102293974D01*
X86362121Y-102296463D01*
X86362312Y-102299151D01*
X86367567Y-102312883D01*
X86415186Y-102408121D01*
X86419149Y-102414417D01*
X86419907Y-102416247D01*
X86421596Y-102418305D01*
X86423018Y-102420564D01*
X86424516Y-102421863D01*
X86429234Y-102427612D01*
X86476853Y-102475232D01*
X86482602Y-102479950D01*
X86483903Y-102481450D01*
X86486162Y-102482872D01*
X86488219Y-102484560D01*
X86490046Y-102485317D01*
X86496346Y-102489282D01*
X86591584Y-102536901D01*
X86605315Y-102542156D01*
X86608004Y-102542347D01*
X86610493Y-102543378D01*
X86625125Y-102544819D01*
X86863220Y-102544819D01*
X86870625Y-102544089D01*
X86872600Y-102544230D01*
X86875197Y-102543639D01*
X86877852Y-102543378D01*
X86879683Y-102542619D01*
X86886937Y-102540970D01*
X87029794Y-102493351D01*
X87043219Y-102487357D01*
X87065326Y-102468183D01*
X87078413Y-102442010D01*
X87080488Y-102412820D01*
X87071234Y-102385058D01*
X87052060Y-102362950D01*
X87025886Y-102349864D01*
X86996696Y-102347789D01*
X86982359Y-102351049D01*
X86851050Y-102394819D01*
X86642830Y-102394819D01*
X86574314Y-102360561D01*
X86543907Y-102330153D01*
X86509649Y-102261637D01*
X86509649Y-102201809D01*
X86543907Y-102133293D01*
X86574314Y-102102886D01*
X86651301Y-102064392D01*
X86833791Y-102018770D01*
X86834870Y-102018384D01*
X86835410Y-102018346D01*
X86841491Y-102016018D01*
X86847637Y-102013823D01*
X86848072Y-102013500D01*
X86849142Y-102013091D01*
X86944380Y-101965472D01*
X86950679Y-101961507D01*
X86952507Y-101960750D01*
X86954563Y-101959061D01*
X86956823Y-101957640D01*
X86958122Y-101956141D01*
X86963872Y-101951423D01*
X87011491Y-101903804D01*
X87016209Y-101898054D01*
X87017708Y-101896755D01*
X87019129Y-101894495D01*
X87020818Y-101892439D01*
X87021575Y-101890611D01*
X87025540Y-101884312D01*
X87073159Y-101789074D01*
X87078414Y-101775343D01*
X87078605Y-101772653D01*
X87079636Y-101770165D01*
X87081077Y-101755533D01*
X87081077Y-101660295D01*
X87079636Y-101645663D01*
X87078605Y-101643174D01*
X87078414Y-101640485D01*
X87073159Y-101626754D01*
X87025540Y-101531516D01*
X87021575Y-101525216D01*
X87020818Y-101523389D01*
X87019129Y-101521332D01*
X87017708Y-101519073D01*
X87016209Y-101517773D01*
X87011491Y-101512024D01*
X86963872Y-101464405D01*
X86958122Y-101459686D01*
X86956823Y-101458188D01*
X86954563Y-101456766D01*
X86952640Y-101455187D01*
X87313471Y-101455187D01*
X87313471Y-101484451D01*
X87324670Y-101511487D01*
X87345362Y-101532179D01*
X87372398Y-101543378D01*
X87387030Y-101544819D01*
X87788220Y-101544819D01*
X87788220Y-101871009D01*
X87529887Y-101871009D01*
X87515255Y-101872450D01*
X87488219Y-101883649D01*
X87467527Y-101904341D01*
X87456328Y-101931377D01*
X87456328Y-101960641D01*
X87467527Y-101987677D01*
X87488219Y-102008369D01*
X87515255Y-102019568D01*
X87529887Y-102021009D01*
X87788220Y-102021009D01*
X87788220Y-102394819D01*
X87387030Y-102394819D01*
X87372398Y-102396260D01*
X87345362Y-102407459D01*
X87324670Y-102428151D01*
X87313471Y-102455187D01*
X87313471Y-102484451D01*
X87324670Y-102511487D01*
X87345362Y-102532179D01*
X87372398Y-102543378D01*
X87387030Y-102544819D01*
X87863220Y-102544819D01*
X87877852Y-102543378D01*
X87904888Y-102532179D01*
X87925580Y-102511487D01*
X87936779Y-102484451D01*
X87938220Y-102469819D01*
X87938220Y-101660295D01*
X88216792Y-101660295D01*
X88216792Y-101803152D01*
X88218233Y-101817784D01*
X88219264Y-101820273D01*
X88219455Y-101822961D01*
X88224710Y-101836693D01*
X88272329Y-101931931D01*
X88276293Y-101938230D01*
X88277051Y-101940058D01*
X88278739Y-101942114D01*
X88280161Y-101944374D01*
X88281659Y-101945673D01*
X88286378Y-101951423D01*
X88333997Y-101999042D01*
X88339746Y-102003760D01*
X88341046Y-102005259D01*
X88343305Y-102006680D01*
X88345362Y-102008369D01*
X88347189Y-102009126D01*
X88353489Y-102013091D01*
X88448727Y-102060710D01*
X88462458Y-102065965D01*
X88465147Y-102066156D01*
X88467636Y-102067187D01*
X88481153Y-102068518D01*
X88230350Y-102426809D01*
X88223139Y-102439623D01*
X88216810Y-102468194D01*
X88221895Y-102497011D01*
X88237622Y-102521690D01*
X88261596Y-102538472D01*
X88290167Y-102544801D01*
X88318984Y-102539716D01*
X88343663Y-102523989D01*
X88353234Y-102512829D01*
X88664174Y-102068628D01*
X88788220Y-102068628D01*
X88788220Y-102469819D01*
X88789661Y-102484451D01*
X88800860Y-102511487D01*
X88821552Y-102532179D01*
X88848588Y-102543378D01*
X88877852Y-102543378D01*
X88904888Y-102532179D01*
X88925580Y-102511487D01*
X88936779Y-102484451D01*
X88938220Y-102469819D01*
X88938220Y-101469819D01*
X88936779Y-101455187D01*
X88925580Y-101428151D01*
X88904888Y-101407459D01*
X88877852Y-101396260D01*
X88863220Y-101394819D01*
X88482268Y-101394819D01*
X88467636Y-101396260D01*
X88465147Y-101397290D01*
X88462458Y-101397482D01*
X88448727Y-101402737D01*
X88353489Y-101450356D01*
X88347189Y-101454320D01*
X88345362Y-101455078D01*
X88343305Y-101456766D01*
X88341046Y-101458188D01*
X88339746Y-101459686D01*
X88333997Y-101464405D01*
X88286378Y-101512024D01*
X88281659Y-101517773D01*
X88280161Y-101519073D01*
X88278739Y-101521332D01*
X88277051Y-101523389D01*
X88276293Y-101525216D01*
X88272329Y-101531516D01*
X88224710Y-101626754D01*
X88219455Y-101640486D01*
X88219264Y-101643173D01*
X88218233Y-101645663D01*
X88216792Y-101660295D01*
X87938220Y-101660295D01*
X87938220Y-101469819D01*
X87936779Y-101455187D01*
X87925580Y-101428151D01*
X87904888Y-101407459D01*
X87877852Y-101396260D01*
X87863220Y-101394819D01*
X87387030Y-101394819D01*
X87372398Y-101396260D01*
X87345362Y-101407459D01*
X87324670Y-101428151D01*
X87313471Y-101455187D01*
X86952640Y-101455187D01*
X86952507Y-101455078D01*
X86950679Y-101454320D01*
X86944380Y-101450356D01*
X86849142Y-101402737D01*
X86835410Y-101397482D01*
X86832722Y-101397291D01*
X86830233Y-101396260D01*
X86815601Y-101394819D01*
X86577506Y-101394819D01*
X86570099Y-101395548D01*
X86568125Y-101395408D01*
X86565527Y-101395998D01*
X86562874Y-101396260D01*
X86561043Y-101397018D01*
X86553788Y-101398668D01*
X86410932Y-101446287D01*
X86397506Y-101452281D01*
X86375399Y-101471455D01*
X86362313Y-101497628D01*
X86360238Y-101526818D01*
X86369492Y-101554581D01*
X86388666Y-101576688D01*
X86414839Y-101589774D01*
X86444029Y-101591849D01*
X86458366Y-101588589D01*
X86589676Y-101544819D01*
X86797896Y-101544819D01*
X86866412Y-101579077D01*
X86896819Y-101609484D01*
X86931077Y-101678000D01*
X86931077Y-101737828D01*
X86896819Y-101806344D01*
X86866412Y-101836751D01*
X86789425Y-101875244D01*
X86606935Y-101920867D01*
X86605855Y-101921252D01*
X86605315Y-101921291D01*
X86599225Y-101923621D01*
X86593089Y-101925814D01*
X86592653Y-101926136D01*
X86591584Y-101926546D01*
X86496346Y-101974165D01*
X86490046Y-101978129D01*
X86488219Y-101978887D01*
X86486162Y-101980575D01*
X86483903Y-101981997D01*
X86482603Y-101983495D01*
X86476854Y-101988214D01*
X86429235Y-102035833D01*
X86424516Y-102041582D01*
X86423018Y-102042882D01*
X86421596Y-102045141D01*
X86419908Y-102047198D01*
X86419150Y-102049025D01*
X86415186Y-102055325D01*
X86367567Y-102150563D01*
X86362312Y-102164295D01*
X86362121Y-102166982D01*
X86361090Y-102169472D01*
X86359649Y-102184104D01*
X86081077Y-102184104D01*
X86081077Y-101469819D01*
X86079636Y-101455187D01*
X86068437Y-101428151D01*
X86047745Y-101407459D01*
X86020709Y-101396260D01*
X86006077Y-101394819D01*
X85529887Y-101394819D01*
X85515255Y-101396260D01*
X85488219Y-101407459D01*
X85467527Y-101428151D01*
X85456328Y-101455187D01*
X85317731Y-101455187D01*
X85306532Y-101428151D01*
X85285840Y-101407459D01*
X85258804Y-101396260D01*
X85244172Y-101394819D01*
X84672744Y-101394819D01*
X84658112Y-101396260D01*
X84631076Y-101407459D01*
X84610384Y-101428151D01*
X84599185Y-101455187D01*
X84488074Y-101455187D01*
X84488074Y-101283708D01*
X89049331Y-101283708D01*
X89049331Y-102655930D01*
G37*
X90566666Y-88084819D02*
X90899999Y-87608628D01*
X91138094Y-88084819D02*
X91138094Y-87084819D01*
X91138094Y-87084819D02*
X90757142Y-87084819D01*
X90757142Y-87084819D02*
X90661904Y-87132438D01*
X90661904Y-87132438D02*
X90614285Y-87180057D01*
X90614285Y-87180057D02*
X90566666Y-87275295D01*
X90566666Y-87275295D02*
X90566666Y-87418152D01*
X90566666Y-87418152D02*
X90614285Y-87513390D01*
X90614285Y-87513390D02*
X90661904Y-87561009D01*
X90661904Y-87561009D02*
X90757142Y-87608628D01*
X90757142Y-87608628D02*
X91138094Y-87608628D01*
X89661904Y-87084819D02*
X90138094Y-87084819D01*
X90138094Y-87084819D02*
X90185713Y-87561009D01*
X90185713Y-87561009D02*
X90138094Y-87513390D01*
X90138094Y-87513390D02*
X90042856Y-87465771D01*
X90042856Y-87465771D02*
X89804761Y-87465771D01*
X89804761Y-87465771D02*
X89709523Y-87513390D01*
X89709523Y-87513390D02*
X89661904Y-87561009D01*
X89661904Y-87561009D02*
X89614285Y-87656247D01*
X89614285Y-87656247D02*
X89614285Y-87894342D01*
X89614285Y-87894342D02*
X89661904Y-87989580D01*
X89661904Y-87989580D02*
X89709523Y-88037200D01*
X89709523Y-88037200D02*
X89804761Y-88084819D01*
X89804761Y-88084819D02*
X90042856Y-88084819D01*
X90042856Y-88084819D02*
X90138094Y-88037200D01*
X90138094Y-88037200D02*
X90185713Y-87989580D01*
X100654819Y-104057142D02*
X100178628Y-103723809D01*
X100654819Y-103485714D02*
X99654819Y-103485714D01*
X99654819Y-103485714D02*
X99654819Y-103866666D01*
X99654819Y-103866666D02*
X99702438Y-103961904D01*
X99702438Y-103961904D02*
X99750057Y-104009523D01*
X99750057Y-104009523D02*
X99845295Y-104057142D01*
X99845295Y-104057142D02*
X99988152Y-104057142D01*
X99988152Y-104057142D02*
X100083390Y-104009523D01*
X100083390Y-104009523D02*
X100131009Y-103961904D01*
X100131009Y-103961904D02*
X100178628Y-103866666D01*
X100178628Y-103866666D02*
X100178628Y-103485714D01*
X100654819Y-105009523D02*
X100654819Y-104438095D01*
X100654819Y-104723809D02*
X99654819Y-104723809D01*
X99654819Y-104723809D02*
X99797676Y-104628571D01*
X99797676Y-104628571D02*
X99892914Y-104533333D01*
X99892914Y-104533333D02*
X99940533Y-104438095D01*
X99654819Y-105914285D02*
X99654819Y-105438095D01*
X99654819Y-105438095D02*
X100131009Y-105390476D01*
X100131009Y-105390476D02*
X100083390Y-105438095D01*
X100083390Y-105438095D02*
X100035771Y-105533333D01*
X100035771Y-105533333D02*
X100035771Y-105771428D01*
X100035771Y-105771428D02*
X100083390Y-105866666D01*
X100083390Y-105866666D02*
X100131009Y-105914285D01*
X100131009Y-105914285D02*
X100226247Y-105961904D01*
X100226247Y-105961904D02*
X100464342Y-105961904D01*
X100464342Y-105961904D02*
X100559580Y-105914285D01*
X100559580Y-105914285D02*
X100607200Y-105866666D01*
X100607200Y-105866666D02*
X100654819Y-105771428D01*
X100654819Y-105771428D02*
X100654819Y-105533333D01*
X100654819Y-105533333D02*
X100607200Y-105438095D01*
X100607200Y-105438095D02*
X100559580Y-105390476D01*
X86442857Y-110059580D02*
X86490476Y-110107200D01*
X86490476Y-110107200D02*
X86633333Y-110154819D01*
X86633333Y-110154819D02*
X86728571Y-110154819D01*
X86728571Y-110154819D02*
X86871428Y-110107200D01*
X86871428Y-110107200D02*
X86966666Y-110011961D01*
X86966666Y-110011961D02*
X87014285Y-109916723D01*
X87014285Y-109916723D02*
X87061904Y-109726247D01*
X87061904Y-109726247D02*
X87061904Y-109583390D01*
X87061904Y-109583390D02*
X87014285Y-109392914D01*
X87014285Y-109392914D02*
X86966666Y-109297676D01*
X86966666Y-109297676D02*
X86871428Y-109202438D01*
X86871428Y-109202438D02*
X86728571Y-109154819D01*
X86728571Y-109154819D02*
X86633333Y-109154819D01*
X86633333Y-109154819D02*
X86490476Y-109202438D01*
X86490476Y-109202438D02*
X86442857Y-109250057D01*
X85490476Y-110154819D02*
X86061904Y-110154819D01*
X85776190Y-110154819D02*
X85776190Y-109154819D01*
X85776190Y-109154819D02*
X85871428Y-109297676D01*
X85871428Y-109297676D02*
X85966666Y-109392914D01*
X85966666Y-109392914D02*
X86061904Y-109440533D01*
X84871428Y-109154819D02*
X84776190Y-109154819D01*
X84776190Y-109154819D02*
X84680952Y-109202438D01*
X84680952Y-109202438D02*
X84633333Y-109250057D01*
X84633333Y-109250057D02*
X84585714Y-109345295D01*
X84585714Y-109345295D02*
X84538095Y-109535771D01*
X84538095Y-109535771D02*
X84538095Y-109773866D01*
X84538095Y-109773866D02*
X84585714Y-109964342D01*
X84585714Y-109964342D02*
X84633333Y-110059580D01*
X84633333Y-110059580D02*
X84680952Y-110107200D01*
X84680952Y-110107200D02*
X84776190Y-110154819D01*
X84776190Y-110154819D02*
X84871428Y-110154819D01*
X84871428Y-110154819D02*
X84966666Y-110107200D01*
X84966666Y-110107200D02*
X85014285Y-110059580D01*
X85014285Y-110059580D02*
X85061904Y-109964342D01*
X85061904Y-109964342D02*
X85109523Y-109773866D01*
X85109523Y-109773866D02*
X85109523Y-109535771D01*
X85109523Y-109535771D02*
X85061904Y-109345295D01*
X85061904Y-109345295D02*
X85014285Y-109250057D01*
X85014285Y-109250057D02*
X84966666Y-109202438D01*
X84966666Y-109202438D02*
X84871428Y-109154819D01*
X93242857Y-110154819D02*
X93576190Y-109678628D01*
X93814285Y-110154819D02*
X93814285Y-109154819D01*
X93814285Y-109154819D02*
X93433333Y-109154819D01*
X93433333Y-109154819D02*
X93338095Y-109202438D01*
X93338095Y-109202438D02*
X93290476Y-109250057D01*
X93290476Y-109250057D02*
X93242857Y-109345295D01*
X93242857Y-109345295D02*
X93242857Y-109488152D01*
X93242857Y-109488152D02*
X93290476Y-109583390D01*
X93290476Y-109583390D02*
X93338095Y-109631009D01*
X93338095Y-109631009D02*
X93433333Y-109678628D01*
X93433333Y-109678628D02*
X93814285Y-109678628D01*
X92290476Y-110154819D02*
X92861904Y-110154819D01*
X92576190Y-110154819D02*
X92576190Y-109154819D01*
X92576190Y-109154819D02*
X92671428Y-109297676D01*
X92671428Y-109297676D02*
X92766666Y-109392914D01*
X92766666Y-109392914D02*
X92861904Y-109440533D01*
X91671428Y-109154819D02*
X91576190Y-109154819D01*
X91576190Y-109154819D02*
X91480952Y-109202438D01*
X91480952Y-109202438D02*
X91433333Y-109250057D01*
X91433333Y-109250057D02*
X91385714Y-109345295D01*
X91385714Y-109345295D02*
X91338095Y-109535771D01*
X91338095Y-109535771D02*
X91338095Y-109773866D01*
X91338095Y-109773866D02*
X91385714Y-109964342D01*
X91385714Y-109964342D02*
X91433333Y-110059580D01*
X91433333Y-110059580D02*
X91480952Y-110107200D01*
X91480952Y-110107200D02*
X91576190Y-110154819D01*
X91576190Y-110154819D02*
X91671428Y-110154819D01*
X91671428Y-110154819D02*
X91766666Y-110107200D01*
X91766666Y-110107200D02*
X91814285Y-110059580D01*
X91814285Y-110059580D02*
X91861904Y-109964342D01*
X91861904Y-109964342D02*
X91909523Y-109773866D01*
X91909523Y-109773866D02*
X91909523Y-109535771D01*
X91909523Y-109535771D02*
X91861904Y-109345295D01*
X91861904Y-109345295D02*
X91814285Y-109250057D01*
X91814285Y-109250057D02*
X91766666Y-109202438D01*
X91766666Y-109202438D02*
X91671428Y-109154819D01*
X98049942Y-100618238D02*
X98097561Y-100713476D01*
X98097561Y-100713476D02*
X98192800Y-100808714D01*
X98192800Y-100808714D02*
X98335657Y-100951571D01*
X98335657Y-100951571D02*
X98383276Y-101046809D01*
X98383276Y-101046809D02*
X98383276Y-101142047D01*
X98145180Y-101094428D02*
X98192800Y-101189666D01*
X98192800Y-101189666D02*
X98288038Y-101284904D01*
X98288038Y-101284904D02*
X98478514Y-101332523D01*
X98478514Y-101332523D02*
X98811847Y-101332523D01*
X98811847Y-101332523D02*
X99002323Y-101284904D01*
X99002323Y-101284904D02*
X99097561Y-101189666D01*
X99097561Y-101189666D02*
X99145180Y-101094428D01*
X99145180Y-101094428D02*
X99145180Y-100903952D01*
X99145180Y-100903952D02*
X99097561Y-100808714D01*
X99097561Y-100808714D02*
X99002323Y-100713476D01*
X99002323Y-100713476D02*
X98811847Y-100665857D01*
X98811847Y-100665857D02*
X98478514Y-100665857D01*
X98478514Y-100665857D02*
X98288038Y-100713476D01*
X98288038Y-100713476D02*
X98192800Y-100808714D01*
X98192800Y-100808714D02*
X98145180Y-100903952D01*
X98145180Y-100903952D02*
X98145180Y-101094428D01*
X99145180Y-100332523D02*
X99145180Y-99713476D01*
X99145180Y-99713476D02*
X98764228Y-100046809D01*
X98764228Y-100046809D02*
X98764228Y-99903952D01*
X98764228Y-99903952D02*
X98716609Y-99808714D01*
X98716609Y-99808714D02*
X98668990Y-99761095D01*
X98668990Y-99761095D02*
X98573752Y-99713476D01*
X98573752Y-99713476D02*
X98335657Y-99713476D01*
X98335657Y-99713476D02*
X98240419Y-99761095D01*
X98240419Y-99761095D02*
X98192800Y-99808714D01*
X98192800Y-99808714D02*
X98145180Y-99903952D01*
X98145180Y-99903952D02*
X98145180Y-100189666D01*
X98145180Y-100189666D02*
X98192800Y-100284904D01*
X98192800Y-100284904D02*
X98240419Y-100332523D01*
D11*
X103695270Y-85529047D02*
X103634794Y-85408095D01*
X103634794Y-85408095D02*
X103513842Y-85287142D01*
X103513842Y-85287142D02*
X103332413Y-85105714D01*
X103332413Y-85105714D02*
X103271937Y-84984761D01*
X103271937Y-84984761D02*
X103271937Y-84863809D01*
X103574318Y-84924285D02*
X103513842Y-84803333D01*
X103513842Y-84803333D02*
X103392889Y-84682380D01*
X103392889Y-84682380D02*
X103150984Y-84621904D01*
X103150984Y-84621904D02*
X102727651Y-84621904D01*
X102727651Y-84621904D02*
X102485746Y-84682380D01*
X102485746Y-84682380D02*
X102364794Y-84803333D01*
X102364794Y-84803333D02*
X102304318Y-84924285D01*
X102304318Y-84924285D02*
X102304318Y-85166190D01*
X102304318Y-85166190D02*
X102364794Y-85287142D01*
X102364794Y-85287142D02*
X102485746Y-85408095D01*
X102485746Y-85408095D02*
X102727651Y-85468571D01*
X102727651Y-85468571D02*
X103150984Y-85468571D01*
X103150984Y-85468571D02*
X103392889Y-85408095D01*
X103392889Y-85408095D02*
X103513842Y-85287142D01*
X103513842Y-85287142D02*
X103574318Y-85166190D01*
X103574318Y-85166190D02*
X103574318Y-84924285D01*
X102425270Y-85952380D02*
X102364794Y-86012856D01*
X102364794Y-86012856D02*
X102304318Y-86133809D01*
X102304318Y-86133809D02*
X102304318Y-86436190D01*
X102304318Y-86436190D02*
X102364794Y-86557142D01*
X102364794Y-86557142D02*
X102425270Y-86617618D01*
X102425270Y-86617618D02*
X102546222Y-86678095D01*
X102546222Y-86678095D02*
X102667175Y-86678095D01*
X102667175Y-86678095D02*
X102848603Y-86617618D01*
X102848603Y-86617618D02*
X103574318Y-85891904D01*
X103574318Y-85891904D02*
X103574318Y-86678095D01*
D10*
X85966666Y-114359580D02*
X86014285Y-114407200D01*
X86014285Y-114407200D02*
X86157142Y-114454819D01*
X86157142Y-114454819D02*
X86252380Y-114454819D01*
X86252380Y-114454819D02*
X86395237Y-114407200D01*
X86395237Y-114407200D02*
X86490475Y-114311961D01*
X86490475Y-114311961D02*
X86538094Y-114216723D01*
X86538094Y-114216723D02*
X86585713Y-114026247D01*
X86585713Y-114026247D02*
X86585713Y-113883390D01*
X86585713Y-113883390D02*
X86538094Y-113692914D01*
X86538094Y-113692914D02*
X86490475Y-113597676D01*
X86490475Y-113597676D02*
X86395237Y-113502438D01*
X86395237Y-113502438D02*
X86252380Y-113454819D01*
X86252380Y-113454819D02*
X86157142Y-113454819D01*
X86157142Y-113454819D02*
X86014285Y-113502438D01*
X86014285Y-113502438D02*
X85966666Y-113550057D01*
X85109523Y-113788152D02*
X85109523Y-114454819D01*
X85347618Y-113407200D02*
X85585713Y-114121485D01*
X85585713Y-114121485D02*
X84966666Y-114121485D01*
X92579580Y-98833333D02*
X92627200Y-98785714D01*
X92627200Y-98785714D02*
X92674819Y-98642857D01*
X92674819Y-98642857D02*
X92674819Y-98547619D01*
X92674819Y-98547619D02*
X92627200Y-98404762D01*
X92627200Y-98404762D02*
X92531961Y-98309524D01*
X92531961Y-98309524D02*
X92436723Y-98261905D01*
X92436723Y-98261905D02*
X92246247Y-98214286D01*
X92246247Y-98214286D02*
X92103390Y-98214286D01*
X92103390Y-98214286D02*
X91912914Y-98261905D01*
X91912914Y-98261905D02*
X91817676Y-98309524D01*
X91817676Y-98309524D02*
X91722438Y-98404762D01*
X91722438Y-98404762D02*
X91674819Y-98547619D01*
X91674819Y-98547619D02*
X91674819Y-98642857D01*
X91674819Y-98642857D02*
X91722438Y-98785714D01*
X91722438Y-98785714D02*
X91770057Y-98833333D01*
X92674819Y-99785714D02*
X92674819Y-99214286D01*
X92674819Y-99500000D02*
X91674819Y-99500000D01*
X91674819Y-99500000D02*
X91817676Y-99404762D01*
X91817676Y-99404762D02*
X91912914Y-99309524D01*
X91912914Y-99309524D02*
X91960533Y-99214286D01*
X89166666Y-114454819D02*
X89499999Y-113978628D01*
X89738094Y-114454819D02*
X89738094Y-113454819D01*
X89738094Y-113454819D02*
X89357142Y-113454819D01*
X89357142Y-113454819D02*
X89261904Y-113502438D01*
X89261904Y-113502438D02*
X89214285Y-113550057D01*
X89214285Y-113550057D02*
X89166666Y-113645295D01*
X89166666Y-113645295D02*
X89166666Y-113788152D01*
X89166666Y-113788152D02*
X89214285Y-113883390D01*
X89214285Y-113883390D02*
X89261904Y-113931009D01*
X89261904Y-113931009D02*
X89357142Y-113978628D01*
X89357142Y-113978628D02*
X89738094Y-113978628D01*
X88595237Y-113883390D02*
X88690475Y-113835771D01*
X88690475Y-113835771D02*
X88738094Y-113788152D01*
X88738094Y-113788152D02*
X88785713Y-113692914D01*
X88785713Y-113692914D02*
X88785713Y-113645295D01*
X88785713Y-113645295D02*
X88738094Y-113550057D01*
X88738094Y-113550057D02*
X88690475Y-113502438D01*
X88690475Y-113502438D02*
X88595237Y-113454819D01*
X88595237Y-113454819D02*
X88404761Y-113454819D01*
X88404761Y-113454819D02*
X88309523Y-113502438D01*
X88309523Y-113502438D02*
X88261904Y-113550057D01*
X88261904Y-113550057D02*
X88214285Y-113645295D01*
X88214285Y-113645295D02*
X88214285Y-113692914D01*
X88214285Y-113692914D02*
X88261904Y-113788152D01*
X88261904Y-113788152D02*
X88309523Y-113835771D01*
X88309523Y-113835771D02*
X88404761Y-113883390D01*
X88404761Y-113883390D02*
X88595237Y-113883390D01*
X88595237Y-113883390D02*
X88690475Y-113931009D01*
X88690475Y-113931009D02*
X88738094Y-113978628D01*
X88738094Y-113978628D02*
X88785713Y-114073866D01*
X88785713Y-114073866D02*
X88785713Y-114264342D01*
X88785713Y-114264342D02*
X88738094Y-114359580D01*
X88738094Y-114359580D02*
X88690475Y-114407200D01*
X88690475Y-114407200D02*
X88595237Y-114454819D01*
X88595237Y-114454819D02*
X88404761Y-114454819D01*
X88404761Y-114454819D02*
X88309523Y-114407200D01*
X88309523Y-114407200D02*
X88261904Y-114359580D01*
X88261904Y-114359580D02*
X88214285Y-114264342D01*
X88214285Y-114264342D02*
X88214285Y-114073866D01*
X88214285Y-114073866D02*
X88261904Y-113978628D01*
X88261904Y-113978628D02*
X88309523Y-113931009D01*
X88309523Y-113931009D02*
X88404761Y-113883390D01*
D11*
X93337381Y-83374318D02*
X93337381Y-82104318D01*
X93337381Y-82104318D02*
X93035000Y-82104318D01*
X93035000Y-82104318D02*
X92853571Y-82164794D01*
X92853571Y-82164794D02*
X92732619Y-82285746D01*
X92732619Y-82285746D02*
X92672142Y-82406699D01*
X92672142Y-82406699D02*
X92611666Y-82648603D01*
X92611666Y-82648603D02*
X92611666Y-82830032D01*
X92611666Y-82830032D02*
X92672142Y-83071937D01*
X92672142Y-83071937D02*
X92732619Y-83192889D01*
X92732619Y-83192889D02*
X92853571Y-83313842D01*
X92853571Y-83313842D02*
X93035000Y-83374318D01*
X93035000Y-83374318D02*
X93337381Y-83374318D01*
X91523095Y-82527651D02*
X91523095Y-83374318D01*
X91825476Y-82043842D02*
X92127857Y-82950984D01*
X92127857Y-82950984D02*
X91341666Y-82950984D01*
X94237381Y-88774318D02*
X94237381Y-87504318D01*
X94237381Y-87504318D02*
X93935000Y-87504318D01*
X93935000Y-87504318D02*
X93753571Y-87564794D01*
X93753571Y-87564794D02*
X93632619Y-87685746D01*
X93632619Y-87685746D02*
X93572142Y-87806699D01*
X93572142Y-87806699D02*
X93511666Y-88048603D01*
X93511666Y-88048603D02*
X93511666Y-88230032D01*
X93511666Y-88230032D02*
X93572142Y-88471937D01*
X93572142Y-88471937D02*
X93632619Y-88592889D01*
X93632619Y-88592889D02*
X93753571Y-88713842D01*
X93753571Y-88713842D02*
X93935000Y-88774318D01*
X93935000Y-88774318D02*
X94237381Y-88774318D01*
X93027857Y-87625270D02*
X92967381Y-87564794D01*
X92967381Y-87564794D02*
X92846428Y-87504318D01*
X92846428Y-87504318D02*
X92544047Y-87504318D01*
X92544047Y-87504318D02*
X92423095Y-87564794D01*
X92423095Y-87564794D02*
X92362619Y-87625270D01*
X92362619Y-87625270D02*
X92302142Y-87746222D01*
X92302142Y-87746222D02*
X92302142Y-87867175D01*
X92302142Y-87867175D02*
X92362619Y-88048603D01*
X92362619Y-88048603D02*
X93088333Y-88774318D01*
X93088333Y-88774318D02*
X92302142Y-88774318D01*
D10*
X89866666Y-83654819D02*
X90199999Y-83178628D01*
X90438094Y-83654819D02*
X90438094Y-82654819D01*
X90438094Y-82654819D02*
X90057142Y-82654819D01*
X90057142Y-82654819D02*
X89961904Y-82702438D01*
X89961904Y-82702438D02*
X89914285Y-82750057D01*
X89914285Y-82750057D02*
X89866666Y-82845295D01*
X89866666Y-82845295D02*
X89866666Y-82988152D01*
X89866666Y-82988152D02*
X89914285Y-83083390D01*
X89914285Y-83083390D02*
X89961904Y-83131009D01*
X89961904Y-83131009D02*
X90057142Y-83178628D01*
X90057142Y-83178628D02*
X90438094Y-83178628D01*
X89533332Y-82654819D02*
X88866666Y-82654819D01*
X88866666Y-82654819D02*
X89295237Y-83654819D01*
X96249942Y-110795238D02*
X96297561Y-110890476D01*
X96297561Y-110890476D02*
X96392800Y-110985714D01*
X96392800Y-110985714D02*
X96535657Y-111128571D01*
X96535657Y-111128571D02*
X96583276Y-111223809D01*
X96583276Y-111223809D02*
X96583276Y-111319047D01*
X96345180Y-111271428D02*
X96392800Y-111366666D01*
X96392800Y-111366666D02*
X96488038Y-111461904D01*
X96488038Y-111461904D02*
X96678514Y-111509523D01*
X96678514Y-111509523D02*
X97011847Y-111509523D01*
X97011847Y-111509523D02*
X97202323Y-111461904D01*
X97202323Y-111461904D02*
X97297561Y-111366666D01*
X97297561Y-111366666D02*
X97345180Y-111271428D01*
X97345180Y-111271428D02*
X97345180Y-111080952D01*
X97345180Y-111080952D02*
X97297561Y-110985714D01*
X97297561Y-110985714D02*
X97202323Y-110890476D01*
X97202323Y-110890476D02*
X97011847Y-110842857D01*
X97011847Y-110842857D02*
X96678514Y-110842857D01*
X96678514Y-110842857D02*
X96488038Y-110890476D01*
X96488038Y-110890476D02*
X96392800Y-110985714D01*
X96392800Y-110985714D02*
X96345180Y-111080952D01*
X96345180Y-111080952D02*
X96345180Y-111271428D01*
X97011847Y-109985714D02*
X96345180Y-109985714D01*
X97392800Y-110223809D02*
X96678514Y-110461904D01*
X96678514Y-110461904D02*
X96678514Y-109842857D01*
D11*
X94713842Y-104506666D02*
X94774318Y-104688095D01*
X94774318Y-104688095D02*
X94774318Y-104990476D01*
X94774318Y-104990476D02*
X94713842Y-105111428D01*
X94713842Y-105111428D02*
X94653365Y-105171904D01*
X94653365Y-105171904D02*
X94532413Y-105232381D01*
X94532413Y-105232381D02*
X94411461Y-105232381D01*
X94411461Y-105232381D02*
X94290508Y-105171904D01*
X94290508Y-105171904D02*
X94230032Y-105111428D01*
X94230032Y-105111428D02*
X94169556Y-104990476D01*
X94169556Y-104990476D02*
X94109080Y-104748571D01*
X94109080Y-104748571D02*
X94048603Y-104627619D01*
X94048603Y-104627619D02*
X93988127Y-104567142D01*
X93988127Y-104567142D02*
X93867175Y-104506666D01*
X93867175Y-104506666D02*
X93746222Y-104506666D01*
X93746222Y-104506666D02*
X93625270Y-104567142D01*
X93625270Y-104567142D02*
X93564794Y-104627619D01*
X93564794Y-104627619D02*
X93504318Y-104748571D01*
X93504318Y-104748571D02*
X93504318Y-105050952D01*
X93504318Y-105050952D02*
X93564794Y-105232381D01*
X93504318Y-105655714D02*
X94774318Y-105958095D01*
X94774318Y-105958095D02*
X93867175Y-106200000D01*
X93867175Y-106200000D02*
X94774318Y-106441905D01*
X94774318Y-106441905D02*
X93504318Y-106744286D01*
X93625270Y-107167619D02*
X93564794Y-107228095D01*
X93564794Y-107228095D02*
X93504318Y-107349048D01*
X93504318Y-107349048D02*
X93504318Y-107651429D01*
X93504318Y-107651429D02*
X93564794Y-107772381D01*
X93564794Y-107772381D02*
X93625270Y-107832857D01*
X93625270Y-107832857D02*
X93746222Y-107893334D01*
X93746222Y-107893334D02*
X93867175Y-107893334D01*
X93867175Y-107893334D02*
X94048603Y-107832857D01*
X94048603Y-107832857D02*
X94774318Y-107107143D01*
X94774318Y-107107143D02*
X94774318Y-107893334D01*
X97987381Y-89274318D02*
X97987381Y-88004318D01*
X97987381Y-88004318D02*
X97685000Y-88004318D01*
X97685000Y-88004318D02*
X97503571Y-88064794D01*
X97503571Y-88064794D02*
X97382619Y-88185746D01*
X97382619Y-88185746D02*
X97322142Y-88306699D01*
X97322142Y-88306699D02*
X97261666Y-88548603D01*
X97261666Y-88548603D02*
X97261666Y-88730032D01*
X97261666Y-88730032D02*
X97322142Y-88971937D01*
X97322142Y-88971937D02*
X97382619Y-89092889D01*
X97382619Y-89092889D02*
X97503571Y-89213842D01*
X97503571Y-89213842D02*
X97685000Y-89274318D01*
X97685000Y-89274318D02*
X97987381Y-89274318D01*
X96173095Y-88004318D02*
X96415000Y-88004318D01*
X96415000Y-88004318D02*
X96535952Y-88064794D01*
X96535952Y-88064794D02*
X96596428Y-88125270D01*
X96596428Y-88125270D02*
X96717381Y-88306699D01*
X96717381Y-88306699D02*
X96777857Y-88548603D01*
X96777857Y-88548603D02*
X96777857Y-89032413D01*
X96777857Y-89032413D02*
X96717381Y-89153365D01*
X96717381Y-89153365D02*
X96656904Y-89213842D01*
X96656904Y-89213842D02*
X96535952Y-89274318D01*
X96535952Y-89274318D02*
X96294047Y-89274318D01*
X96294047Y-89274318D02*
X96173095Y-89213842D01*
X96173095Y-89213842D02*
X96112619Y-89153365D01*
X96112619Y-89153365D02*
X96052142Y-89032413D01*
X96052142Y-89032413D02*
X96052142Y-88730032D01*
X96052142Y-88730032D02*
X96112619Y-88609080D01*
X96112619Y-88609080D02*
X96173095Y-88548603D01*
X96173095Y-88548603D02*
X96294047Y-88488127D01*
X96294047Y-88488127D02*
X96535952Y-88488127D01*
X96535952Y-88488127D02*
X96656904Y-88548603D01*
X96656904Y-88548603D02*
X96717381Y-88609080D01*
X96717381Y-88609080D02*
X96777857Y-88730032D01*
X89913842Y-104506666D02*
X89974318Y-104688095D01*
X89974318Y-104688095D02*
X89974318Y-104990476D01*
X89974318Y-104990476D02*
X89913842Y-105111428D01*
X89913842Y-105111428D02*
X89853365Y-105171904D01*
X89853365Y-105171904D02*
X89732413Y-105232381D01*
X89732413Y-105232381D02*
X89611461Y-105232381D01*
X89611461Y-105232381D02*
X89490508Y-105171904D01*
X89490508Y-105171904D02*
X89430032Y-105111428D01*
X89430032Y-105111428D02*
X89369556Y-104990476D01*
X89369556Y-104990476D02*
X89309080Y-104748571D01*
X89309080Y-104748571D02*
X89248603Y-104627619D01*
X89248603Y-104627619D02*
X89188127Y-104567142D01*
X89188127Y-104567142D02*
X89067175Y-104506666D01*
X89067175Y-104506666D02*
X88946222Y-104506666D01*
X88946222Y-104506666D02*
X88825270Y-104567142D01*
X88825270Y-104567142D02*
X88764794Y-104627619D01*
X88764794Y-104627619D02*
X88704318Y-104748571D01*
X88704318Y-104748571D02*
X88704318Y-105050952D01*
X88704318Y-105050952D02*
X88764794Y-105232381D01*
X88704318Y-105655714D02*
X89974318Y-105958095D01*
X89974318Y-105958095D02*
X89067175Y-106200000D01*
X89067175Y-106200000D02*
X89974318Y-106441905D01*
X89974318Y-106441905D02*
X88704318Y-106744286D01*
X89974318Y-107893334D02*
X89974318Y-107167619D01*
X89974318Y-107530476D02*
X88704318Y-107530476D01*
X88704318Y-107530476D02*
X88885746Y-107409524D01*
X88885746Y-107409524D02*
X89006699Y-107288572D01*
X89006699Y-107288572D02*
X89067175Y-107167619D01*
D10*
X89166666Y-110059580D02*
X89214285Y-110107200D01*
X89214285Y-110107200D02*
X89357142Y-110154819D01*
X89357142Y-110154819D02*
X89452380Y-110154819D01*
X89452380Y-110154819D02*
X89595237Y-110107200D01*
X89595237Y-110107200D02*
X89690475Y-110011961D01*
X89690475Y-110011961D02*
X89738094Y-109916723D01*
X89738094Y-109916723D02*
X89785713Y-109726247D01*
X89785713Y-109726247D02*
X89785713Y-109583390D01*
X89785713Y-109583390D02*
X89738094Y-109392914D01*
X89738094Y-109392914D02*
X89690475Y-109297676D01*
X89690475Y-109297676D02*
X89595237Y-109202438D01*
X89595237Y-109202438D02*
X89452380Y-109154819D01*
X89452380Y-109154819D02*
X89357142Y-109154819D01*
X89357142Y-109154819D02*
X89214285Y-109202438D01*
X89214285Y-109202438D02*
X89166666Y-109250057D01*
X88261904Y-109154819D02*
X88738094Y-109154819D01*
X88738094Y-109154819D02*
X88785713Y-109631009D01*
X88785713Y-109631009D02*
X88738094Y-109583390D01*
X88738094Y-109583390D02*
X88642856Y-109535771D01*
X88642856Y-109535771D02*
X88404761Y-109535771D01*
X88404761Y-109535771D02*
X88309523Y-109583390D01*
X88309523Y-109583390D02*
X88261904Y-109631009D01*
X88261904Y-109631009D02*
X88214285Y-109726247D01*
X88214285Y-109726247D02*
X88214285Y-109964342D01*
X88214285Y-109964342D02*
X88261904Y-110059580D01*
X88261904Y-110059580D02*
X88309523Y-110107200D01*
X88309523Y-110107200D02*
X88404761Y-110154819D01*
X88404761Y-110154819D02*
X88642856Y-110154819D01*
X88642856Y-110154819D02*
X88738094Y-110107200D01*
X88738094Y-110107200D02*
X88785713Y-110059580D01*
X103666666Y-103259580D02*
X103714285Y-103307200D01*
X103714285Y-103307200D02*
X103857142Y-103354819D01*
X103857142Y-103354819D02*
X103952380Y-103354819D01*
X103952380Y-103354819D02*
X104095237Y-103307200D01*
X104095237Y-103307200D02*
X104190475Y-103211961D01*
X104190475Y-103211961D02*
X104238094Y-103116723D01*
X104238094Y-103116723D02*
X104285713Y-102926247D01*
X104285713Y-102926247D02*
X104285713Y-102783390D01*
X104285713Y-102783390D02*
X104238094Y-102592914D01*
X104238094Y-102592914D02*
X104190475Y-102497676D01*
X104190475Y-102497676D02*
X104095237Y-102402438D01*
X104095237Y-102402438D02*
X103952380Y-102354819D01*
X103952380Y-102354819D02*
X103857142Y-102354819D01*
X103857142Y-102354819D02*
X103714285Y-102402438D01*
X103714285Y-102402438D02*
X103666666Y-102450057D01*
X102809523Y-102354819D02*
X102999999Y-102354819D01*
X102999999Y-102354819D02*
X103095237Y-102402438D01*
X103095237Y-102402438D02*
X103142856Y-102450057D01*
X103142856Y-102450057D02*
X103238094Y-102592914D01*
X103238094Y-102592914D02*
X103285713Y-102783390D01*
X103285713Y-102783390D02*
X103285713Y-103164342D01*
X103285713Y-103164342D02*
X103238094Y-103259580D01*
X103238094Y-103259580D02*
X103190475Y-103307200D01*
X103190475Y-103307200D02*
X103095237Y-103354819D01*
X103095237Y-103354819D02*
X102904761Y-103354819D01*
X102904761Y-103354819D02*
X102809523Y-103307200D01*
X102809523Y-103307200D02*
X102761904Y-103259580D01*
X102761904Y-103259580D02*
X102714285Y-103164342D01*
X102714285Y-103164342D02*
X102714285Y-102926247D01*
X102714285Y-102926247D02*
X102761904Y-102831009D01*
X102761904Y-102831009D02*
X102809523Y-102783390D01*
X102809523Y-102783390D02*
X102904761Y-102735771D01*
X102904761Y-102735771D02*
X103095237Y-102735771D01*
X103095237Y-102735771D02*
X103190475Y-102783390D01*
X103190475Y-102783390D02*
X103238094Y-102831009D01*
X103238094Y-102831009D02*
X103285713Y-102926247D01*
X100142857Y-107254819D02*
X100476190Y-106778628D01*
X100714285Y-107254819D02*
X100714285Y-106254819D01*
X100714285Y-106254819D02*
X100333333Y-106254819D01*
X100333333Y-106254819D02*
X100238095Y-106302438D01*
X100238095Y-106302438D02*
X100190476Y-106350057D01*
X100190476Y-106350057D02*
X100142857Y-106445295D01*
X100142857Y-106445295D02*
X100142857Y-106588152D01*
X100142857Y-106588152D02*
X100190476Y-106683390D01*
X100190476Y-106683390D02*
X100238095Y-106731009D01*
X100238095Y-106731009D02*
X100333333Y-106778628D01*
X100333333Y-106778628D02*
X100714285Y-106778628D01*
X99190476Y-107254819D02*
X99761904Y-107254819D01*
X99476190Y-107254819D02*
X99476190Y-106254819D01*
X99476190Y-106254819D02*
X99571428Y-106397676D01*
X99571428Y-106397676D02*
X99666666Y-106492914D01*
X99666666Y-106492914D02*
X99761904Y-106540533D01*
X98333333Y-106588152D02*
X98333333Y-107254819D01*
X98571428Y-106207200D02*
X98809523Y-106921485D01*
X98809523Y-106921485D02*
X98190476Y-106921485D01*
X101161904Y-88754819D02*
X101161904Y-89564342D01*
X101161904Y-89564342D02*
X101114285Y-89659580D01*
X101114285Y-89659580D02*
X101066666Y-89707200D01*
X101066666Y-89707200D02*
X100971428Y-89754819D01*
X100971428Y-89754819D02*
X100780952Y-89754819D01*
X100780952Y-89754819D02*
X100685714Y-89707200D01*
X100685714Y-89707200D02*
X100638095Y-89659580D01*
X100638095Y-89659580D02*
X100590476Y-89564342D01*
X100590476Y-89564342D02*
X100590476Y-88754819D01*
X100161904Y-88850057D02*
X100114285Y-88802438D01*
X100114285Y-88802438D02*
X100019047Y-88754819D01*
X100019047Y-88754819D02*
X99780952Y-88754819D01*
X99780952Y-88754819D02*
X99685714Y-88802438D01*
X99685714Y-88802438D02*
X99638095Y-88850057D01*
X99638095Y-88850057D02*
X99590476Y-88945295D01*
X99590476Y-88945295D02*
X99590476Y-89040533D01*
X99590476Y-89040533D02*
X99638095Y-89183390D01*
X99638095Y-89183390D02*
X100209523Y-89754819D01*
X100209523Y-89754819D02*
X99590476Y-89754819D01*
X119054819Y-90838095D02*
X119864342Y-90838095D01*
X119864342Y-90838095D02*
X119959580Y-90885714D01*
X119959580Y-90885714D02*
X120007200Y-90933333D01*
X120007200Y-90933333D02*
X120054819Y-91028571D01*
X120054819Y-91028571D02*
X120054819Y-91219047D01*
X120054819Y-91219047D02*
X120007200Y-91314285D01*
X120007200Y-91314285D02*
X119959580Y-91361904D01*
X119959580Y-91361904D02*
X119864342Y-91409523D01*
X119864342Y-91409523D02*
X119054819Y-91409523D01*
X119054819Y-92314285D02*
X119054819Y-92123809D01*
X119054819Y-92123809D02*
X119102438Y-92028571D01*
X119102438Y-92028571D02*
X119150057Y-91980952D01*
X119150057Y-91980952D02*
X119292914Y-91885714D01*
X119292914Y-91885714D02*
X119483390Y-91838095D01*
X119483390Y-91838095D02*
X119864342Y-91838095D01*
X119864342Y-91838095D02*
X119959580Y-91885714D01*
X119959580Y-91885714D02*
X120007200Y-91933333D01*
X120007200Y-91933333D02*
X120054819Y-92028571D01*
X120054819Y-92028571D02*
X120054819Y-92219047D01*
X120054819Y-92219047D02*
X120007200Y-92314285D01*
X120007200Y-92314285D02*
X119959580Y-92361904D01*
X119959580Y-92361904D02*
X119864342Y-92409523D01*
X119864342Y-92409523D02*
X119626247Y-92409523D01*
X119626247Y-92409523D02*
X119531009Y-92361904D01*
X119531009Y-92361904D02*
X119483390Y-92314285D01*
X119483390Y-92314285D02*
X119435771Y-92219047D01*
X119435771Y-92219047D02*
X119435771Y-92028571D01*
X119435771Y-92028571D02*
X119483390Y-91933333D01*
X119483390Y-91933333D02*
X119531009Y-91885714D01*
X119531009Y-91885714D02*
X119626247Y-91838095D01*
X92379580Y-91533333D02*
X92427200Y-91485714D01*
X92427200Y-91485714D02*
X92474819Y-91342857D01*
X92474819Y-91342857D02*
X92474819Y-91247619D01*
X92474819Y-91247619D02*
X92427200Y-91104762D01*
X92427200Y-91104762D02*
X92331961Y-91009524D01*
X92331961Y-91009524D02*
X92236723Y-90961905D01*
X92236723Y-90961905D02*
X92046247Y-90914286D01*
X92046247Y-90914286D02*
X91903390Y-90914286D01*
X91903390Y-90914286D02*
X91712914Y-90961905D01*
X91712914Y-90961905D02*
X91617676Y-91009524D01*
X91617676Y-91009524D02*
X91522438Y-91104762D01*
X91522438Y-91104762D02*
X91474819Y-91247619D01*
X91474819Y-91247619D02*
X91474819Y-91342857D01*
X91474819Y-91342857D02*
X91522438Y-91485714D01*
X91522438Y-91485714D02*
X91570057Y-91533333D01*
X91474819Y-91866667D02*
X91474819Y-92485714D01*
X91474819Y-92485714D02*
X91855771Y-92152381D01*
X91855771Y-92152381D02*
X91855771Y-92295238D01*
X91855771Y-92295238D02*
X91903390Y-92390476D01*
X91903390Y-92390476D02*
X91951009Y-92438095D01*
X91951009Y-92438095D02*
X92046247Y-92485714D01*
X92046247Y-92485714D02*
X92284342Y-92485714D01*
X92284342Y-92485714D02*
X92379580Y-92438095D01*
X92379580Y-92438095D02*
X92427200Y-92390476D01*
X92427200Y-92390476D02*
X92474819Y-92295238D01*
X92474819Y-92295238D02*
X92474819Y-92009524D01*
X92474819Y-92009524D02*
X92427200Y-91914286D01*
X92427200Y-91914286D02*
X92379580Y-91866667D01*
D12*
%TO.C,R5*%
X90162742Y-85677500D02*
X90637258Y-85677500D01*
X90162742Y-86722500D02*
X90637258Y-86722500D01*
%TO.C,R15*%
X98077500Y-104462742D02*
X98077500Y-104937258D01*
X99122500Y-104462742D02*
X99122500Y-104937258D01*
%TO.C,C10*%
X85940580Y-110390000D02*
X85659420Y-110390000D01*
X85940580Y-111410000D02*
X85659420Y-111410000D01*
%TO.C,R10*%
X92837258Y-110377500D02*
X92362742Y-110377500D01*
X92837258Y-111422500D02*
X92362742Y-111422500D01*
D13*
%TO.C,Q3*%
X95898000Y-100523000D02*
X97702000Y-100523000D01*
X95898000Y-102441861D02*
X95898000Y-101758139D01*
X97702000Y-100523000D02*
X97702000Y-101491860D01*
X97702000Y-102708140D02*
X97702000Y-103677000D01*
X97702000Y-103677000D02*
X95898000Y-103677000D01*
D14*
%TO.C,Q2*%
X98250000Y-86600000D02*
X98250000Y-86600000D01*
X98350000Y-86600000D02*
X98350000Y-86600000D01*
D15*
X101250000Y-84200000D02*
X99950000Y-84200000D01*
X101250000Y-84950000D02*
X101250000Y-84200000D01*
X101250000Y-86350000D02*
X101250000Y-87100000D01*
X101250000Y-87100000D02*
X99950000Y-87100000D01*
D14*
X98250000Y-86600000D02*
G75*
G02*
X98350000Y-86600000I50000J0D01*
G01*
X98350000Y-86600000D02*
G75*
G02*
X98250000Y-86600000I-50000J0D01*
G01*
D12*
%TO.C,C4*%
X85940580Y-111990000D02*
X85659420Y-111990000D01*
X85940580Y-113010000D02*
X85659420Y-113010000D01*
%TO.C,C1*%
X93140000Y-98859420D02*
X93140000Y-99140580D01*
X94160000Y-98859420D02*
X94160000Y-99140580D01*
%TO.C,R8*%
X89237258Y-111977500D02*
X88762742Y-111977500D01*
X89237258Y-113022500D02*
X88762742Y-113022500D01*
D15*
%TO.C,D4*%
X92400000Y-83775000D02*
X94900000Y-83775000D01*
X94900000Y-83775000D02*
X94900000Y-85425000D01*
X94900000Y-85425000D02*
X92400000Y-85425000D01*
%TO.C,D2*%
X92400000Y-85375000D02*
X94900000Y-85375000D01*
X94900000Y-85375000D02*
X94900000Y-87025000D01*
X94900000Y-87025000D02*
X92400000Y-87025000D01*
D12*
%TO.C,R7*%
X90162742Y-84077500D02*
X90637258Y-84077500D01*
X90162742Y-85122500D02*
X90637258Y-85122500D01*
D13*
%TO.C,Q4*%
X95898000Y-106323000D02*
X97702000Y-106323000D01*
X95898000Y-108241861D02*
X95898000Y-107558139D01*
X97702000Y-106323000D02*
X97702000Y-107291860D01*
X97702000Y-108508140D02*
X97702000Y-109477000D01*
X97702000Y-109477000D02*
X95898000Y-109477000D01*
D15*
%TO.C,SW2*%
X90350000Y-104250000D02*
X90350000Y-105400000D01*
X90350000Y-107000000D02*
X90350000Y-108150000D01*
X90350000Y-108150000D02*
X90600000Y-108150000D01*
X90600000Y-104250000D02*
X90350000Y-104250000D01*
X91800000Y-102900000D02*
X91800000Y-102900000D01*
X91800000Y-102900000D02*
X91800000Y-102900000D01*
X91800000Y-103000000D02*
X91800000Y-103000000D01*
X93000000Y-104250000D02*
X93250000Y-104250000D01*
X93000000Y-108150000D02*
X93250000Y-108150000D01*
X93250000Y-104250000D02*
X93250000Y-105400000D01*
X93250000Y-108150000D02*
X93250000Y-107000000D01*
X91800000Y-102900000D02*
G75*
G02*
X91800000Y-103000000I0J-50000D01*
G01*
X91800000Y-102900000D02*
G75*
G02*
X91800000Y-103000000I0J-50000D01*
G01*
X91800000Y-103000000D02*
G75*
G02*
X91800000Y-102900000I0J50000D01*
G01*
D14*
%TO.C,D6*%
X97050000Y-87800000D02*
X97050000Y-87800000D01*
X97050000Y-87900000D02*
X97050000Y-87900000D01*
X97050000Y-87800000D02*
G75*
G02*
X97050000Y-87900000I0J-50000D01*
G01*
X97050000Y-87900000D02*
G75*
G02*
X97050000Y-87800000I0J50000D01*
G01*
D15*
%TO.C,SW1*%
X85350000Y-104250000D02*
X85350000Y-105400000D01*
X85350000Y-107000000D02*
X85350000Y-108150000D01*
X85350000Y-108150000D02*
X85600000Y-108150000D01*
X85600000Y-104250000D02*
X85350000Y-104250000D01*
X86800000Y-102900000D02*
X86800000Y-102900000D01*
X86800000Y-102900000D02*
X86800000Y-102900000D01*
X86800000Y-103000000D02*
X86800000Y-103000000D01*
X88000000Y-104250000D02*
X88250000Y-104250000D01*
X88000000Y-108150000D02*
X88250000Y-108150000D01*
X88250000Y-104250000D02*
X88250000Y-105400000D01*
X88250000Y-108150000D02*
X88250000Y-107000000D01*
X86800000Y-102900000D02*
G75*
G02*
X86800000Y-103000000I0J-50000D01*
G01*
X86800000Y-102900000D02*
G75*
G02*
X86800000Y-103000000I0J-50000D01*
G01*
X86800000Y-103000000D02*
G75*
G02*
X86800000Y-102900000I0J50000D01*
G01*
D12*
%TO.C,C5*%
X89140580Y-110390000D02*
X88859420Y-110390000D01*
X89140580Y-111410000D02*
X88859420Y-111410000D01*
%TO.C,C6*%
X102190000Y-105440580D02*
X102190000Y-105159420D01*
X103210000Y-105440580D02*
X103210000Y-105159420D01*
%TO.C,R14*%
X96062742Y-104377500D02*
X96537258Y-104377500D01*
X96062742Y-105422500D02*
X96537258Y-105422500D01*
D10*
%TO.C,U2*%
X96425000Y-90050000D02*
X96425000Y-91160000D01*
X96425000Y-99000000D02*
X96425000Y-97890000D01*
X100575000Y-90050000D02*
X96425000Y-90050000D01*
X100575000Y-91160000D02*
X100575000Y-90050000D01*
X100575000Y-99000000D02*
X96425000Y-99000000D01*
X100575000Y-99000000D02*
X100575000Y-97890000D01*
D12*
X101137500Y-91160000D02*
X100897500Y-90830000D01*
X101377500Y-90830000D01*
X101137500Y-91160000D01*
G36*
X101137500Y-91160000D02*
G01*
X100897500Y-90830000D01*
X101377500Y-90830000D01*
X101137500Y-91160000D01*
G37*
%TO.C,U6*%
X105490000Y-93040000D02*
X123710000Y-93040000D01*
X105490000Y-93340000D02*
X105490000Y-93040000D01*
X105490000Y-113260000D02*
X105490000Y-107450000D01*
X105490000Y-113260000D02*
X123710000Y-113260000D01*
X123710000Y-93340000D02*
X123710000Y-93040000D01*
X123710000Y-113260000D02*
X123710000Y-106760000D01*
X105500000Y-107250000D02*
X105000000Y-106750000D01*
X105500000Y-106750000D01*
X105500000Y-107250000D01*
G36*
X105500000Y-107250000D02*
G01*
X105000000Y-106750000D01*
X105500000Y-106750000D01*
X105500000Y-107250000D01*
G37*
%TO.C,C3*%
X92940000Y-91359420D02*
X92940000Y-91640580D01*
X93960000Y-91359420D02*
X93960000Y-91640580D01*
%TD*%
D16*
%TO.C,SW2*%
X90900000Y-106200000D03*
X92700000Y-106200000D03*
%TD*%
%TO.C,SW1*%
X85900000Y-106200000D03*
X87700000Y-106200000D03*
%TD*%
M02*
