M48
; DRILL file {KiCad 9.0.0} date 2025-11-29T16:16:46+0900
; FORMAT={-:-/ absolute / metric / decimal}
; #@! TF.CreationDate,2025-11-29T16:16:46+09:00
; #@! TF.GenerationSoftware,Kicad,Pcbnew,9.0.0
; #@! TF.FileFunction,MixedPlating,1,2
FMAT,2
METRIC
; #@! TA.AperFunction,Plated,PTH,ComponentDrill
T1C0.200
; #@! TA.AperFunction,Plated,PTH,ViaDrill
T2C0.300
; #@! TA.AperFunction,Plated,PTH,ComponentDrill
T3C0.600
; #@! TA.AperFunction,Plated,PTH,ComponentDrill
T4C0.750
; #@! TA.AperFunction,Plated,PTH,ComponentDrill
T5C0.800
; #@! TA.AperFunction,Plated,PTH,ComponentDrill
T6C1.000
; #@! TA.AperFunction,Plated,PTH,ComponentDrill
T7C1.500
; #@! TA.AperFunction,Plated,PTH,ComponentDrill
T8C2.000
; #@! TA.AperFunction,NonPlated,NPTH,ComponentDrill
T9C0.650
; #@! TA.AperFunction,NonPlated,NPTH,ComponentDrill
T10C1.700
; #@! TA.AperFunction,NonPlated,NPTH,ComponentDrill
T11C3.200
; #@! TA.AperFunction,NonPlated,NPTH,ComponentDrill
T12C3.988
%
G90
G05
T1
X114.46Y-99.3
X114.46Y-100.4
X115.01Y-98.75
X115.01Y-99.85
X115.01Y-100.95
X115.56Y-99.3
X115.56Y-100.4
X116.11Y-98.75
X116.11Y-99.85
X116.11Y-100.95
X116.66Y-99.3
X116.66Y-100.4
T2
X87.1Y-85.8
X87.1Y-86.6
X87.1Y-87.4
X88.0Y-85.8
X88.0Y-86.6
X88.0Y-87.4
X93.0Y-114.0
X93.127Y-94.252
X93.3Y-95.8
X93.65Y-101.0
X96.0Y-114.0
X96.65Y-102.15
X97.1Y-106.1
X99.0Y-114.0
X99.976Y-99.45
X100.5Y-102.6
X100.506Y-87.929
X100.9Y-98.3
X101.7Y-98.3
X101.8Y-102.6
X101.8Y-103.5
X102.2Y-90.1
X104.0Y-95.7
X104.0Y-98.95
X104.15Y-104.6
X106.8Y-81.2
X108.0Y-102.0
X108.8Y-85.8
X108.8Y-86.45
X109.6Y-85.8
X109.6Y-86.45
X110.4Y-85.8
X110.4Y-86.45
X111.2Y-85.8
X111.2Y-103.5
X111.2Y-105.0
X114.0Y-90.7
X114.0Y-92.0
X114.8Y-95.6
X126.05Y-95.15
X126.25Y-93.45
T4
X85.9Y-106.2
X87.7Y-106.2
X90.9Y-106.2
X92.7Y-106.2
T5
X94.3Y-81.5
X96.8Y-81.5
X99.3Y-81.5
T6
X129.3Y-82.92
X129.3Y-99.0
X136.92Y-82.92
X136.92Y-99.0
T7
X130.6Y-93.08
X130.6Y-109.16
X136.92Y-90.54
X136.92Y-106.62
T8
X91.7Y-78.2
X103.1Y-78.5
T9
X90.0Y-92.11
X90.0Y-97.89
T10
X128.11Y-88.0
X128.11Y-104.08
X138.11Y-88.0
X138.11Y-104.08
T11
X87.0Y-77.0
X87.0Y-119.0
X147.0Y-77.0
X147.0Y-119.0
T12
X133.11Y-88.0
X133.11Y-104.08
T3
G00X86.72Y-90.68
M15
G01X85.92Y-90.68
M16
G05
G00X86.72Y-99.32
M15
G01X85.92Y-99.32
M16
G05
G00X91.05Y-90.68
M15
G01X89.95Y-90.68
M16
G05
G00X91.05Y-99.32
M15
G01X89.95Y-99.32
M16
G05
M30
