%TF.GenerationSoftware,KiCad,Pcbnew,9.0.0*%
%TF.CreationDate,2025-11-29T16:16:48+09:00*%
%TF.ProjectId,ESP32_BLEKeyBorad,45535033-325f-4424-9c45-4b6579426f72,rev?*%
%TF.SameCoordinates,Original*%
%TF.FileFunction,Copper,L1,Top*%
%TF.FilePolarity,Positive*%
%FSLAX46Y46*%
G04 Gerber Fmt 4.6, Leading zero omitted, Abs format (unit mm)*
G04 Created by KiCad (PCBNEW 9.0.0) date 2025-11-29 16:16:48*
%MOMM*%
%LPD*%
G01*
G04 APERTURE LIST*
G04 Aperture macros list*
%AMRoundRect*
0 Rectangle with rounded corners*
0 $1 Rounding radius*
0 $2 $3 $4 $5 $6 $7 $8 $9 X,Y pos of 4 corners*
0 Add a 4 corners polygon primitive as box body*
4,1,4,$2,$3,$4,$5,$6,$7,$8,$9,$2,$3,0*
0 Add four circle primitives for the rounded corners*
1,1,$1+$1,$2,$3*
1,1,$1+$1,$4,$5*
1,1,$1+$1,$6,$7*
1,1,$1+$1,$8,$9*
0 Add four rect primitives between the rounded corners*
20,1,$1+$1,$2,$3,$4,$5,0*
20,1,$1+$1,$4,$5,$6,$7,0*
20,1,$1+$1,$6,$7,$8,$9,0*
20,1,$1+$1,$8,$9,$2,$3,0*%
G04 Aperture macros list end*
%TA.AperFunction,ComponentPad*%
%ADD10C,1.600000*%
%TD*%
%TA.AperFunction,ComponentPad*%
%ADD11C,3.000000*%
%TD*%
%TA.AperFunction,SMDPad,CuDef*%
%ADD12R,0.700000X0.950000*%
%TD*%
%TA.AperFunction,SMDPad,CuDef*%
%ADD13RoundRect,0.200000X0.200000X0.275000X-0.200000X0.275000X-0.200000X-0.275000X0.200000X-0.275000X0*%
%TD*%
%TA.AperFunction,ComponentPad*%
%ADD14C,1.508000*%
%TD*%
%TA.AperFunction,ComponentPad*%
%ADD15C,2.250000*%
%TD*%
%TA.AperFunction,SMDPad,CuDef*%
%ADD16RoundRect,0.225000X-0.250000X0.225000X-0.250000X-0.225000X0.250000X-0.225000X0.250000X0.225000X0*%
%TD*%
%TA.AperFunction,SMDPad,CuDef*%
%ADD17RoundRect,0.200000X-0.275000X0.200000X-0.275000X-0.200000X0.275000X-0.200000X0.275000X0.200000X0*%
%TD*%
%TA.AperFunction,SMDPad,CuDef*%
%ADD18R,2.050000X0.600000*%
%TD*%
%TA.AperFunction,SMDPad,CuDef*%
%ADD19R,2.050000X0.300000*%
%TD*%
%TA.AperFunction,ComponentPad*%
%ADD20O,1.800000X1.000000*%
%TD*%
%TA.AperFunction,ComponentPad*%
%ADD21O,2.100000X1.000000*%
%TD*%
%TA.AperFunction,SMDPad,CuDef*%
%ADD22RoundRect,0.200000X-0.200000X-0.275000X0.200000X-0.275000X0.200000X0.275000X-0.200000X0.275000X0*%
%TD*%
%TA.AperFunction,SMDPad,CuDef*%
%ADD23R,0.590000X1.210000*%
%TD*%
%TA.AperFunction,SMDPad,CuDef*%
%ADD24RoundRect,0.225000X0.225000X0.250000X-0.225000X0.250000X-0.225000X-0.250000X0.225000X-0.250000X0*%
%TD*%
%TA.AperFunction,SMDPad,CuDef*%
%ADD25R,0.800000X0.800000*%
%TD*%
%TA.AperFunction,SMDPad,CuDef*%
%ADD26R,2.000000X1.100000*%
%TD*%
%TA.AperFunction,SMDPad,CuDef*%
%ADD27RoundRect,0.075000X0.225000X-0.910000X0.225000X0.910000X-0.225000X0.910000X-0.225000X-0.910000X0*%
%TD*%
%TA.AperFunction,SMDPad,CuDef*%
%ADD28R,3.302000X2.413000*%
%TD*%
%TA.AperFunction,SMDPad,CuDef*%
%ADD29RoundRect,0.050000X-0.150000X0.730000X-0.150000X-0.730000X0.150000X-0.730000X0.150000X0.730000X0*%
%TD*%
%TA.AperFunction,SMDPad,CuDef*%
%ADD30RoundRect,0.115200X0.364800X0.834800X-0.364800X0.834800X-0.364800X-0.834800X0.364800X-0.834800X0*%
%TD*%
%TA.AperFunction,SMDPad,CuDef*%
%ADD31RoundRect,0.675600X2.139400X2.744400X-2.139400X2.744400X-2.139400X-2.744400X2.139400X-2.744400X0*%
%TD*%
%TA.AperFunction,ComponentPad*%
%ADD32C,0.375000*%
%TD*%
%TA.AperFunction,HeatsinkPad*%
%ADD33C,0.600000*%
%TD*%
%TA.AperFunction,ViaPad*%
%ADD34C,0.600000*%
%TD*%
%TA.AperFunction,Conductor*%
%ADD35C,0.200000*%
%TD*%
%TA.AperFunction,Conductor*%
%ADD36C,0.600000*%
%TD*%
%TA.AperFunction,Conductor*%
%ADD37C,0.400000*%
%TD*%
G04 APERTURE END LIST*
D10*
%TO.P,SW3,1,A*%
%TO.N,Net-(SW3-A)*%
X99300000Y-81500000D03*
%TO.P,SW3,2,B*%
%TO.N,BAT+*%
X96800000Y-81500000D03*
%TO.P,SW3,3,C*%
%TO.N,unconnected-(SW3-C-Pad3)*%
X94300000Y-81500000D03*
%TD*%
D11*
%TO.P,BAT-,1*%
%TO.N,BAT-*%
X103100000Y-78500000D03*
%TD*%
%TO.P,BAT+,1*%
%TO.N,BAT+*%
X91700000Y-78200000D03*
%TD*%
D12*
%TO.P,D3,1,K*%
%TO.N,Net-(D3-K)*%
X97875000Y-86000000D03*
%TO.P,D3,2,A*%
%TO.N,Net-(D3-A)*%
X96075000Y-86000000D03*
%TD*%
D13*
%TO.P,R13,1*%
%TO.N,VBUS*%
X89850000Y-89000000D03*
%TO.P,R13,2*%
%TO.N,GND*%
X88200000Y-89000000D03*
%TD*%
D14*
%TO.P,U4,BR1*%
%TO.N,N/C*%
X136920000Y-99000000D03*
%TO.P,U4,BR2*%
X129300000Y-99000000D03*
D15*
%TO.P,U4,P$1*%
%TO.N,GND*%
X130600000Y-109160000D03*
%TO.P,U4,P$2*%
%TO.N,Net-(U6-IO1)*%
X136920000Y-106620000D03*
%TD*%
D16*
%TO.P,C8,1*%
%TO.N,BAT+*%
X100200000Y-91725000D03*
%TO.P,C8,2*%
%TO.N,GND*%
X100200000Y-93275000D03*
%TD*%
%TO.P,C9,1*%
%TO.N,Net-(D6-K)*%
X112050000Y-86775000D03*
%TO.P,C9,2*%
%TO.N,GND*%
X112050000Y-88325000D03*
%TD*%
D17*
%TO.P,R9,1*%
%TO.N,Net-(U3-CS)*%
X101100000Y-99375000D03*
%TO.P,R9,2*%
%TO.N,GND*%
X101100000Y-101025000D03*
%TD*%
D16*
%TO.P,C11,1*%
%TO.N,3.3V*%
X105500000Y-84225000D03*
%TO.P,C11,2*%
%TO.N,GND*%
X105500000Y-85775000D03*
%TD*%
D18*
%TO.P,J1,A1_B12,GND*%
%TO.N,GND*%
X91515000Y-91800000D03*
%TO.P,J1,A4_B9,VBUS*%
%TO.N,VBUS*%
X91515000Y-92600000D03*
D19*
%TO.P,J1,A5,CC1*%
%TO.N,Net-(J1-CC1)*%
X91515000Y-93750000D03*
%TO.P,J1,A6,DP1*%
%TO.N,DP*%
X91515000Y-94750000D03*
%TO.P,J1,A7,DN1*%
%TO.N,DN*%
X91515000Y-95250000D03*
%TO.P,J1,A8,SBU1*%
%TO.N,unconnected-(J1-SBU1-PadA8)*%
X91515000Y-96250000D03*
D18*
%TO.P,J1,B1_A12,GND*%
%TO.N,GND*%
X91515000Y-98200000D03*
%TO.P,J1,B4_A9,VBUS*%
%TO.N,VBUS*%
X91515000Y-97400000D03*
D19*
%TO.P,J1,B5,CC2*%
%TO.N,Net-(J1-CC2)*%
X91515000Y-96750000D03*
%TO.P,J1,B6,DP2*%
%TO.N,DP*%
X91515000Y-95750000D03*
%TO.P,J1,B7,DN2*%
%TO.N,DN*%
X91515000Y-94250000D03*
%TO.P,J1,B8,SBU2*%
%TO.N,unconnected-(J1-SBU2-PadB8)*%
X91515000Y-93250000D03*
D20*
%TO.P,J1,S1,SHIELD*%
%TO.N,GND*%
X86320000Y-90680000D03*
%TO.P,J1,S2,SHIELD*%
X86320000Y-99320000D03*
D21*
%TO.P,J1,S3,SHIELD*%
X90500000Y-90680000D03*
%TO.P,J1,S4,SHIELD*%
X90500000Y-99320000D03*
%TD*%
D13*
%TO.P,R2,1*%
%TO.N,Net-(U1-PROG)*%
X96425000Y-99600000D03*
%TO.P,R2,2*%
%TO.N,GND*%
X94775000Y-99600000D03*
%TD*%
D22*
%TO.P,R4,1*%
%TO.N,VBUS*%
X92775000Y-87500000D03*
%TO.P,R4,2*%
%TO.N,Net-(D1-A)*%
X94425000Y-87500000D03*
%TD*%
D23*
%TO.P,U3,1,OD*%
%TO.N,OD*%
X103050000Y-92255000D03*
%TO.P,U3,2,CS*%
%TO.N,Net-(U3-CS)*%
X104000000Y-92255000D03*
%TO.P,U3,3,OC*%
%TO.N,OC*%
X104950000Y-92255000D03*
%TO.P,U3,4,TD*%
%TO.N,unconnected-(U3-TD-Pad4)*%
X104950000Y-89745000D03*
%TO.P,U3,5,VCC*%
%TO.N,Net-(U3-VCC)*%
X104000000Y-89745000D03*
%TO.P,U3,6,GND*%
%TO.N,BAT-*%
X103050000Y-89745000D03*
%TD*%
D24*
%TO.P,C2,1*%
%TO.N,VBUS*%
X92775000Y-89000000D03*
%TO.P,C2,2*%
%TO.N,GND*%
X91225000Y-89000000D03*
%TD*%
D14*
%TO.P,U5,BR1*%
%TO.N,N/C*%
X136920000Y-82920000D03*
%TO.P,U5,BR2*%
X129300000Y-82920000D03*
D15*
%TO.P,U5,P$1*%
%TO.N,GND*%
X130600000Y-93080000D03*
%TO.P,U5,P$2*%
%TO.N,unconnected-(U5-PadP$2)*%
X136920000Y-90540000D03*
%TD*%
D24*
%TO.P,C7,1*%
%TO.N,Net-(U3-VCC)*%
X103775000Y-88300000D03*
%TO.P,C7,2*%
%TO.N,BAT-*%
X102225000Y-88300000D03*
%TD*%
D25*
%TO.P,D7,1,A*%
%TO.N,3.3V*%
X107650000Y-87500000D03*
D26*
%TO.P,D7,2,K*%
%TO.N,Net-(D6-K)*%
X109550000Y-87500000D03*
%TD*%
D12*
%TO.P,D5,1,K*%
%TO.N,GND*%
X111525000Y-82400000D03*
%TO.P,D5,2,A*%
%TO.N,Net-(D5-A)*%
X109725000Y-82400000D03*
%TD*%
D27*
%TO.P,U1,1,TEMP*%
%TO.N,GND*%
X95090000Y-97350000D03*
%TO.P,U1,2,PROG*%
%TO.N,Net-(U1-PROG)*%
X96360000Y-97350000D03*
%TO.P,U1,3,GND*%
%TO.N,GND*%
X97630000Y-97350000D03*
%TO.P,U1,4,VCC*%
%TO.N,VBUS*%
X98900000Y-97350000D03*
%TO.P,U1,5,BAT*%
%TO.N,BAT+*%
X98900000Y-92400000D03*
%TO.P,U1,6,~{STDBY}*%
%TO.N,Net-(D1-K)*%
X97630000Y-92400000D03*
%TO.P,U1,7,~{CHRG}*%
%TO.N,Net-(D3-K)*%
X96360000Y-92400000D03*
%TO.P,U1,8,CE*%
%TO.N,VBUS*%
X95090000Y-92400000D03*
D28*
%TO.P,U1,9,EP*%
%TO.N,GND*%
X96995000Y-94875000D03*
%TD*%
D29*
%TO.P,Q1,1*%
%TO.N,unconnected-(Q1-Pad1)*%
X104975000Y-97172500D03*
%TO.P,Q1,2*%
%TO.N,BAT-*%
X104325000Y-97172500D03*
%TO.P,Q1,3*%
X103675000Y-97172500D03*
%TO.P,Q1,4*%
%TO.N,OD*%
X103025000Y-97172500D03*
%TO.P,Q1,5*%
%TO.N,OC*%
X103025000Y-102932500D03*
%TO.P,Q1,6*%
%TO.N,GND*%
X103675000Y-102932500D03*
%TO.P,Q1,7*%
X104325000Y-102932500D03*
%TO.P,Q1,8*%
%TO.N,unconnected-(Q1-Pad1)_1*%
X104975000Y-102932500D03*
%TD*%
D22*
%TO.P,R18,1*%
%TO.N,3.3V*%
X107975000Y-103500000D03*
%TO.P,R18,2*%
%TO.N,GPOI8*%
X109625000Y-103500000D03*
%TD*%
D12*
%TO.P,D1,1,K*%
%TO.N,Net-(D1-K)*%
X97875000Y-87500000D03*
%TO.P,D1,2,A*%
%TO.N,Net-(D1-A)*%
X96075000Y-87500000D03*
%TD*%
D22*
%TO.P,R6,1*%
%TO.N,VBUS*%
X92775000Y-86000000D03*
%TO.P,R6,2*%
%TO.N,Net-(D3-A)*%
X94425000Y-86000000D03*
%TD*%
D30*
%TO.P,U7,1,VIN*%
%TO.N,Net-(D6-K)*%
X112400000Y-90400000D03*
D31*
%TO.P,U7,2,GND*%
%TO.N,GND*%
X110120000Y-97110000D03*
D30*
%TO.P,U7,3,VOUT*%
%TO.N,3.3V*%
X107840000Y-90400000D03*
%TD*%
D12*
%TO.P,D8,1,K*%
%TO.N,GND*%
X111525000Y-84400000D03*
%TO.P,D8,2,A*%
%TO.N,Net-(D8-A)*%
X109725000Y-84400000D03*
%TD*%
D22*
%TO.P,R17,1*%
%TO.N,3.3V*%
X107975000Y-105000000D03*
%TO.P,R17,2*%
%TO.N,GPIO2*%
X109625000Y-105000000D03*
%TD*%
%TO.P,R16,1*%
%TO.N,3.3V*%
X106800000Y-84400000D03*
%TO.P,R16,2*%
%TO.N,Net-(D8-A)*%
X108450000Y-84400000D03*
%TD*%
%TO.P,R3,1*%
%TO.N,Net-(J1-CC2)*%
X85175000Y-101000000D03*
%TO.P,R3,2*%
%TO.N,GND*%
X86825000Y-101000000D03*
%TD*%
%TO.P,R12,1*%
%TO.N,Net-(SW3-A)*%
X106800000Y-82400000D03*
%TO.P,R12,2*%
%TO.N,Net-(D5-A)*%
X108450000Y-82400000D03*
%TD*%
%TO.P,R11,1*%
%TO.N,BAT+*%
X99400000Y-86900000D03*
%TO.P,R11,2*%
%TO.N,Net-(U3-VCC)*%
X101050000Y-86900000D03*
%TD*%
%TO.P,R1,1*%
%TO.N,Net-(J1-CC1)*%
X85175000Y-89000000D03*
%TO.P,R1,2*%
%TO.N,GND*%
X86825000Y-89000000D03*
%TD*%
D32*
%TO.P,SW2,MH1*%
%TO.N,N/C*%
X90900000Y-106200000D03*
%TO.P,SW2,MH2*%
X92700000Y-106200000D03*
%TD*%
%TO.P,SW1,MH1*%
%TO.N,N/C*%
X85900000Y-106200000D03*
%TO.P,SW1,MH2*%
X87700000Y-106200000D03*
%TD*%
D33*
%TO.P,U6,19,GND*%
%TO.N,GND*%
X114460000Y-99300000D03*
X114460000Y-100400000D03*
X115010000Y-98750000D03*
X115010000Y-99850000D03*
X115010000Y-100950000D03*
X115560000Y-99300000D03*
X115560000Y-100400000D03*
X116110000Y-98750000D03*
X116110000Y-99850000D03*
X116110000Y-100950000D03*
X116660000Y-99300000D03*
X116660000Y-100400000D03*
%TD*%
D34*
%TO.N,VBUS*%
X87100000Y-86600000D03*
X87100000Y-85800000D03*
X88000000Y-85800000D03*
X88000000Y-87400000D03*
X87100000Y-87400000D03*
X88000000Y-86600000D03*
%TO.N,Net-(U2-3V3OUT)*%
X99976000Y-99450000D03*
X93650000Y-101000000D03*
%TO.N,GND*%
X101800000Y-102600000D03*
X101700000Y-98300000D03*
X93000000Y-114000000D03*
X96000000Y-114000000D03*
X100900000Y-98300000D03*
X101800000Y-103500000D03*
X99000000Y-114000000D03*
X100500000Y-102600000D03*
%TO.N,Net-(U3-VCC)*%
X102200000Y-90100000D03*
X100505716Y-87928953D03*
%TO.N,3.3V*%
X108000000Y-102000000D03*
%TO.N,BOOT*%
X114800000Y-95600000D03*
X97100000Y-106100000D03*
%TO.N,RESET*%
X96650000Y-102150000D03*
X104150000Y-104600000D03*
%TO.N,Net-(SW3-A)*%
X106800000Y-81200000D03*
%TO.N,Net-(U3-CS)*%
X104000000Y-95700000D03*
X104000000Y-98950000D03*
%TO.N,Net-(D6-K)*%
X109600000Y-85800000D03*
X108800000Y-86450000D03*
X108800000Y-85800000D03*
X110400000Y-86450000D03*
X111200000Y-85800000D03*
X109600000Y-86450000D03*
X110400000Y-85800000D03*
%TO.N,DN*%
X93126990Y-94252223D03*
%TO.N,TX*%
X126250000Y-93450000D03*
X114000000Y-90700000D03*
%TO.N,DP*%
X93300000Y-95800000D03*
%TO.N,RX*%
X114000000Y-92000000D03*
X126050000Y-95150000D03*
%TO.N,GPIO2*%
X111200000Y-105000000D03*
%TO.N,GPOI8*%
X111200000Y-103500000D03*
%TD*%
D35*
%TO.N,VBUS*%
X89149000Y-99651785D02*
X89149000Y-97784992D01*
D36*
X95090000Y-92400000D02*
X95090000Y-91315000D01*
X91515000Y-97400000D02*
X92832786Y-97400000D01*
D35*
X89149000Y-97784992D02*
X89719992Y-97214000D01*
X98900000Y-97350000D02*
X98900000Y-98334999D01*
D36*
X94790001Y-95442785D02*
X94790001Y-92699999D01*
X91515000Y-92600000D02*
X94890000Y-92600000D01*
D35*
X89719992Y-97214000D02*
X91329000Y-97214000D01*
D36*
X95090000Y-91315000D02*
X92775000Y-89000000D01*
D35*
X89873215Y-100376000D02*
X89149000Y-99651785D01*
D36*
X94790001Y-92699999D02*
X95090000Y-92400000D01*
D35*
X98900000Y-98334999D02*
X96858999Y-100376000D01*
D36*
X94890000Y-92600000D02*
X95090000Y-92400000D01*
X92832786Y-97400000D02*
X94790001Y-95442785D01*
D35*
X96858999Y-100376000D02*
X89873215Y-100376000D01*
X91329000Y-97214000D02*
X91515000Y-97400000D01*
%TO.N,Net-(U2-3V3OUT)*%
X98426000Y-101000000D02*
X93650000Y-101000000D01*
X99976000Y-99450000D02*
X98426000Y-101000000D01*
D37*
%TO.N,Net-(D5-A)*%
X108450000Y-82400000D02*
X109725000Y-82400000D01*
D36*
%TO.N,GND*%
X90500000Y-90680000D02*
X90500000Y-90785000D01*
X90500000Y-90785000D02*
X91515000Y-91800000D01*
D35*
X103675000Y-103712500D02*
X103374000Y-104013500D01*
D36*
X97630000Y-97350000D02*
X97630000Y-95510000D01*
X95090000Y-99285000D02*
X94775000Y-99600000D01*
X95090000Y-96365001D02*
X96580001Y-94875000D01*
X91225000Y-89000000D02*
X91225000Y-89955000D01*
D35*
X104100000Y-104000000D02*
X103387500Y-104000000D01*
D36*
X95090000Y-97350000D02*
X95090000Y-96365001D01*
D35*
X103387500Y-104000000D02*
X103374000Y-104013500D01*
X104325000Y-103775000D02*
X104100000Y-104000000D01*
X104325000Y-102932500D02*
X104325000Y-103775000D01*
D36*
X97630000Y-95510000D02*
X96995000Y-94875000D01*
X91225000Y-89955000D02*
X90500000Y-90680000D01*
D35*
X102728226Y-104013500D02*
X101100000Y-102385274D01*
X101100000Y-102385274D02*
X101100000Y-101025000D01*
X103675000Y-102932500D02*
X103675000Y-103712500D01*
D36*
X96580001Y-94875000D02*
X96995000Y-94875000D01*
D35*
X103374000Y-104013500D02*
X102728226Y-104013500D01*
D36*
X95090000Y-97350000D02*
X95090000Y-99285000D01*
D37*
%TO.N,Net-(U3-VCC)*%
X104000000Y-90497000D02*
X103746000Y-90751000D01*
X103746000Y-90751000D02*
X102354000Y-90751000D01*
X102200000Y-90597000D02*
X102200000Y-90100000D01*
X102354000Y-90751000D02*
X102200000Y-90597000D01*
X104000000Y-89745000D02*
X104000000Y-90497000D01*
D36*
X104000000Y-88525000D02*
X104000000Y-89745000D01*
D37*
X100505716Y-87928953D02*
X100505716Y-87444284D01*
X100505716Y-87444284D02*
X101050000Y-86900000D01*
D36*
X103775000Y-88300000D02*
X104000000Y-88525000D01*
D35*
%TO.N,Net-(J1-CC2)*%
X91515000Y-96750000D02*
X87357215Y-96750000D01*
X85119000Y-100944000D02*
X85175000Y-101000000D01*
X85119000Y-98988215D02*
X85119000Y-100944000D01*
X87357215Y-96750000D02*
X85119000Y-98988215D01*
D37*
%TO.N,Net-(D3-A)*%
X94425000Y-86000000D02*
X96075000Y-86000000D01*
D36*
%TO.N,BAT+*%
X98900000Y-92400000D02*
X98900000Y-92525000D01*
D37*
%TO.N,Net-(D1-A)*%
X94425000Y-87500000D02*
X96075000Y-87500000D01*
D36*
%TO.N,Net-(U1-PROG)*%
X96360000Y-97350000D02*
X96360000Y-99535000D01*
X96360000Y-99535000D02*
X96425000Y-99600000D01*
D35*
%TO.N,Net-(J1-CC1)*%
X87857215Y-93750000D02*
X85119000Y-91011785D01*
X85119000Y-89056000D02*
X85175000Y-89000000D01*
X91515000Y-93750000D02*
X87857215Y-93750000D01*
X85119000Y-91011785D02*
X85119000Y-89056000D01*
D36*
%TO.N,3.3V*%
X108000000Y-103475000D02*
X107975000Y-103500000D01*
X107975000Y-103500000D02*
X107975000Y-105000000D01*
X107840000Y-90400000D02*
X106300000Y-91940000D01*
X108000000Y-102000000D02*
X108000000Y-103475000D01*
X107632236Y-102000000D02*
X108000000Y-102000000D01*
X106300000Y-100667764D02*
X107632236Y-102000000D01*
X106300000Y-91940000D02*
X106300000Y-100667764D01*
D35*
%TO.N,BOOT*%
X117261000Y-100648943D02*
X117261000Y-98061000D01*
X97100000Y-106100000D02*
X111809943Y-106100000D01*
X111809943Y-106100000D02*
X117261000Y-100648943D01*
X117261000Y-98061000D02*
X114800000Y-95600000D01*
%TO.N,RESET*%
X96650000Y-102150000D02*
X99100000Y-104600000D01*
X99100000Y-104600000D02*
X104150000Y-104600000D01*
D37*
%TO.N,Net-(D8-A)*%
X108450000Y-84400000D02*
X109725000Y-84400000D01*
%TO.N,Net-(SW3-A)*%
X106800000Y-81200000D02*
X106800000Y-82400000D01*
%TO.N,BAT-*%
X102400000Y-97700000D02*
X102000000Y-97300000D01*
D36*
X103050000Y-89125000D02*
X102225000Y-88300000D01*
D37*
X102686804Y-98353500D02*
X102400000Y-98066696D01*
X104325000Y-97391696D02*
X103363196Y-98353500D01*
X104325000Y-97172500D02*
X104325000Y-97391696D01*
D36*
X103050000Y-89745000D02*
X103050000Y-89125000D01*
D37*
X103675000Y-97172500D02*
X103675000Y-98041696D01*
X103363196Y-98353500D02*
X102686804Y-98353500D01*
X103675000Y-98041696D02*
X103363196Y-98353500D01*
X102400000Y-98066696D02*
X102400000Y-97700000D01*
%TO.N,Net-(D3-K)*%
X96900000Y-88300000D02*
X96900000Y-87000000D01*
X97875000Y-86025000D02*
X97875000Y-86000000D01*
X96360000Y-92400000D02*
X96360000Y-88840000D01*
X96900000Y-87000000D02*
X97875000Y-86025000D01*
X96360000Y-88840000D02*
X96900000Y-88300000D01*
%TO.N,Net-(D1-K)*%
X97630000Y-92400000D02*
X97630000Y-87745000D01*
X97630000Y-87745000D02*
X97875000Y-87500000D01*
D35*
%TO.N,Net-(U3-CS)*%
X103575000Y-99375000D02*
X104000000Y-98950000D01*
X104000000Y-94500000D02*
X104000000Y-95700000D01*
X104000000Y-94500000D02*
X104000000Y-92255000D01*
X101100000Y-99375000D02*
X103575000Y-99375000D01*
%TO.N,DN*%
X90189000Y-95190000D02*
X90249000Y-95250000D01*
X90238000Y-94250000D02*
X90189000Y-94299000D01*
X90189000Y-94299000D02*
X90189000Y-95190000D01*
X93124767Y-94250000D02*
X93126990Y-94252223D01*
X90249000Y-95250000D02*
X91515000Y-95250000D01*
X91515000Y-94250000D02*
X90238000Y-94250000D01*
X91515000Y-94250000D02*
X93124767Y-94250000D01*
%TO.N,TX*%
X123500000Y-90700000D02*
X126250000Y-93450000D01*
X114000000Y-90700000D02*
X123500000Y-90700000D01*
%TO.N,DP*%
X93250000Y-95750000D02*
X93300000Y-95800000D01*
X92841000Y-95660000D02*
X92751000Y-95750000D01*
X92792000Y-94750000D02*
X92841000Y-94799000D01*
X91515000Y-95750000D02*
X93250000Y-95750000D01*
X91515000Y-94750000D02*
X92792000Y-94750000D01*
X92841000Y-94799000D02*
X92841000Y-95660000D01*
X92751000Y-95750000D02*
X91515000Y-95750000D01*
%TO.N,RX*%
X114000000Y-92000000D02*
X122900000Y-92000000D01*
X125474265Y-94574265D02*
X126050000Y-95150000D01*
X122900000Y-92000000D02*
X125474265Y-94574265D01*
%TO.N,OC*%
X103025000Y-102204726D02*
X103025000Y-102932500D01*
X105476000Y-92781000D02*
X105476000Y-99753726D01*
X105476000Y-99753726D02*
X103025000Y-102204726D01*
X104950000Y-92255000D02*
X105476000Y-92781000D01*
D37*
%TO.N,OD*%
X103050000Y-92255000D02*
X103050000Y-97147500D01*
X103050000Y-97147500D02*
X103025000Y-97172500D01*
D36*
%TO.N,GPIO2*%
X109625000Y-105000000D02*
X111200000Y-105000000D01*
%TO.N,GPOI8*%
X109625000Y-103500000D02*
X111200000Y-103500000D01*
%TD*%
%TA.AperFunction,Conductor*%
%TO.N,BAT-*%
G36*
X104743039Y-76919685D02*
G01*
X104788794Y-76972489D01*
X104800000Y-77024000D01*
X104800000Y-80476000D01*
X104780315Y-80543039D01*
X104727511Y-80588794D01*
X104676000Y-80600000D01*
X102900000Y-80600000D01*
X102900000Y-87600000D01*
X101811629Y-87600000D01*
X101893478Y-87464606D01*
X101944086Y-87302196D01*
X101950500Y-87231616D01*
X101950500Y-86568384D01*
X101944086Y-86497804D01*
X101893478Y-86335394D01*
X101805472Y-86189815D01*
X101805470Y-86189813D01*
X101805469Y-86189811D01*
X101736319Y-86120661D01*
X101702834Y-86059338D01*
X101700000Y-86032980D01*
X101700000Y-85900000D01*
X101124000Y-85900000D01*
X101056961Y-85880315D01*
X101011206Y-85827511D01*
X101000000Y-85776000D01*
X101000000Y-77024000D01*
X101019685Y-76956961D01*
X101072489Y-76911206D01*
X101124000Y-76900000D01*
X104676000Y-76900000D01*
X104743039Y-76919685D01*
G37*
%TD.AperFunction*%
%TD*%
%TA.AperFunction,Conductor*%
%TO.N,VBUS*%
G36*
X94289500Y-96286154D02*
G01*
X94289500Y-97476000D01*
X94269815Y-97543039D01*
X94217011Y-97588794D01*
X94165500Y-97600000D01*
X93600000Y-97600000D01*
X93024000Y-97600000D01*
X93015314Y-97597449D01*
X93006353Y-97598738D01*
X92982312Y-97587759D01*
X92956961Y-97580315D01*
X92951033Y-97573474D01*
X92942797Y-97569713D01*
X92928507Y-97547478D01*
X92911206Y-97527511D01*
X92908918Y-97516996D01*
X92905023Y-97510935D01*
X92900000Y-97476000D01*
X92900000Y-97295537D01*
X92919685Y-97228498D01*
X92924709Y-97221260D01*
X92983796Y-97142331D01*
X93034091Y-97007483D01*
X93040500Y-96947873D01*
X93040499Y-96715658D01*
X93060183Y-96648620D01*
X93112987Y-96602865D01*
X93182146Y-96592921D01*
X93188691Y-96594042D01*
X93221156Y-96600500D01*
X93221158Y-96600500D01*
X93378844Y-96600500D01*
X93378845Y-96600499D01*
X93533497Y-96569737D01*
X93679179Y-96509394D01*
X93810289Y-96421789D01*
X93921789Y-96310289D01*
X93995482Y-96200000D01*
X94306637Y-96200000D01*
X94289500Y-96286154D01*
G37*
%TD.AperFunction*%
%TD*%
%TA.AperFunction,Conductor*%
%TO.N,3.3V*%
G36*
X107543039Y-83669685D02*
G01*
X107588794Y-83722489D01*
X107600000Y-83774000D01*
X107600000Y-83837450D01*
X107594386Y-83874339D01*
X107555914Y-83997805D01*
X107549500Y-84068386D01*
X107549500Y-84731613D01*
X107555913Y-84802192D01*
X107555913Y-84802194D01*
X107555914Y-84802196D01*
X107582855Y-84888653D01*
X107606522Y-84964606D01*
X107694530Y-85110188D01*
X107717587Y-85133245D01*
X107751072Y-85194568D01*
X107746088Y-85264260D01*
X107742702Y-85272433D01*
X107734666Y-85290029D01*
X107734662Y-85290039D01*
X107714976Y-85357082D01*
X107694500Y-85499501D01*
X107694500Y-86535676D01*
X107694822Y-86553711D01*
X107695138Y-86562552D01*
X107696102Y-86580542D01*
X107726677Y-86721138D01*
X107726678Y-86721141D01*
X107751050Y-86786496D01*
X107751089Y-86786601D01*
X107751091Y-86786606D01*
X107751093Y-86786610D01*
X107781451Y-86842212D01*
X107820042Y-86912895D01*
X107921767Y-87014629D01*
X107921782Y-87014642D01*
X107936388Y-87025576D01*
X107950313Y-87036002D01*
X107992183Y-87091935D01*
X108000000Y-87135266D01*
X108000000Y-87864170D01*
X107980315Y-87931209D01*
X107944865Y-87966658D01*
X107945006Y-87966846D01*
X107943704Y-87967820D01*
X107943041Y-87968484D01*
X107941466Y-87969496D01*
X107941451Y-87969507D01*
X107888659Y-88015251D01*
X107794433Y-88123992D01*
X107794430Y-88123996D01*
X107734664Y-88254862D01*
X107714976Y-88321910D01*
X107694500Y-88464329D01*
X107694500Y-88476001D01*
X107699645Y-88547943D01*
X107704667Y-88582877D01*
X107716986Y-88639500D01*
X107719997Y-88653341D01*
X107732447Y-88680604D01*
X107751384Y-88737497D01*
X107775720Y-88775366D01*
X107779406Y-88783437D01*
X107779408Y-88783441D01*
X107779768Y-88784231D01*
X107779770Y-88784234D01*
X107814246Y-88837879D01*
X107814256Y-88837893D01*
X107817547Y-88843013D01*
X107817550Y-88843018D01*
X107821162Y-88847186D01*
X107823932Y-88850914D01*
X107824315Y-88851953D01*
X107828719Y-88857836D01*
X107829167Y-88858534D01*
X107829172Y-88858541D01*
X107835382Y-88865707D01*
X107835384Y-88865710D01*
X107843322Y-88874872D01*
X107845685Y-88877599D01*
X107845690Y-88877604D01*
X107874930Y-88911349D01*
X107874933Y-88911351D01*
X107874936Y-88911355D01*
X107875578Y-88911911D01*
X107888091Y-88924423D01*
X107911772Y-88951751D01*
X107911774Y-88951752D01*
X107911775Y-88951753D01*
X107942182Y-88971293D01*
X107956253Y-88981816D01*
X107956611Y-88982126D01*
X107957112Y-88982559D01*
X107994943Y-89041299D01*
X108000000Y-89076350D01*
X108000000Y-89400000D01*
X109170500Y-89400000D01*
X109237539Y-89419685D01*
X109283294Y-89472489D01*
X109294500Y-89524000D01*
X109294500Y-93065500D01*
X109274815Y-93132539D01*
X109222011Y-93178294D01*
X109170500Y-93189500D01*
X107908002Y-93189500D01*
X107817415Y-93195787D01*
X107605253Y-93245687D01*
X107605235Y-93245693D01*
X107405864Y-93333724D01*
X107404783Y-93334327D01*
X107404096Y-93334505D01*
X107400607Y-93336046D01*
X107400355Y-93335476D01*
X107344439Y-93350000D01*
X106200500Y-93350000D01*
X106133461Y-93330315D01*
X106087706Y-93277511D01*
X106076500Y-93226000D01*
X106076500Y-92701945D01*
X106076500Y-92701943D01*
X106035577Y-92549216D01*
X106035573Y-92549209D01*
X105956524Y-92412290D01*
X105956521Y-92412287D01*
X105956520Y-92412284D01*
X105956517Y-92412281D01*
X105951574Y-92405839D01*
X105952138Y-92405405D01*
X105937476Y-92384382D01*
X105863232Y-92236832D01*
X105850000Y-92181096D01*
X105850000Y-87500000D01*
X105124000Y-87500000D01*
X105056961Y-87480315D01*
X105011206Y-87427511D01*
X105000000Y-87376000D01*
X105000000Y-86842212D01*
X105019685Y-86775173D01*
X105072489Y-86729418D01*
X105136602Y-86718854D01*
X105201655Y-86725500D01*
X105798344Y-86725499D01*
X105798352Y-86725498D01*
X105798355Y-86725498D01*
X105852760Y-86719940D01*
X105897708Y-86715349D01*
X106058697Y-86662003D01*
X106203044Y-86572968D01*
X106322968Y-86453044D01*
X106412003Y-86308697D01*
X106465349Y-86147708D01*
X106475500Y-86048345D01*
X106475499Y-85501656D01*
X106465349Y-85402292D01*
X106412003Y-85241303D01*
X106411999Y-85241297D01*
X106411998Y-85241294D01*
X106322970Y-85096959D01*
X106322967Y-85096955D01*
X106203044Y-84977032D01*
X106203040Y-84977029D01*
X106058705Y-84888001D01*
X106058699Y-84887998D01*
X106058697Y-84887997D01*
X106004382Y-84869999D01*
X105897709Y-84834651D01*
X105798346Y-84824500D01*
X105201662Y-84824500D01*
X105201644Y-84824501D01*
X105136601Y-84831146D01*
X105067908Y-84818376D01*
X105017024Y-84770495D01*
X105000000Y-84707788D01*
X105000000Y-83774000D01*
X105019685Y-83706961D01*
X105072489Y-83661206D01*
X105124000Y-83650000D01*
X107476000Y-83650000D01*
X107543039Y-83669685D01*
G37*
%TD.AperFunction*%
%TD*%
%TA.AperFunction,Conductor*%
%TO.N,BAT-*%
G36*
X102900000Y-89509981D02*
G01*
X102880315Y-89577020D01*
X102827511Y-89622775D01*
X102758353Y-89632719D01*
X102694797Y-89603694D01*
X102688319Y-89597662D01*
X102646545Y-89555888D01*
X102646541Y-89555885D01*
X102531817Y-89479228D01*
X102531804Y-89479221D01*
X102404332Y-89426421D01*
X102404322Y-89426418D01*
X102268995Y-89399500D01*
X102268993Y-89399500D01*
X102131007Y-89399500D01*
X102131005Y-89399500D01*
X101995677Y-89426418D01*
X101995667Y-89426421D01*
X101868195Y-89479221D01*
X101868182Y-89479228D01*
X101753458Y-89555885D01*
X101753454Y-89555888D01*
X101655888Y-89653454D01*
X101655885Y-89653458D01*
X101579228Y-89768182D01*
X101579221Y-89768195D01*
X101526421Y-89895667D01*
X101526418Y-89895677D01*
X101499500Y-90031004D01*
X101499500Y-90031007D01*
X101499500Y-90168993D01*
X101499500Y-90168995D01*
X101499499Y-90168995D01*
X101526419Y-90304325D01*
X101526422Y-90304335D01*
X101528580Y-90309545D01*
X101531359Y-90316906D01*
X101592842Y-90496897D01*
X101599499Y-90536978D01*
X101599499Y-90676054D01*
X101599498Y-90676054D01*
X101599499Y-90676057D01*
X101640423Y-90828785D01*
X101666817Y-90874500D01*
X101719480Y-90965716D01*
X101770670Y-91016906D01*
X101776459Y-91024906D01*
X101784967Y-91048901D01*
X101797166Y-91071240D01*
X101799026Y-91088546D01*
X101799811Y-91090758D01*
X101799436Y-91092355D01*
X101800000Y-91097598D01*
X101800000Y-91400000D01*
X102243918Y-91400000D01*
X102310957Y-91419685D01*
X102356712Y-91472489D01*
X102366656Y-91541647D01*
X102366391Y-91543398D01*
X102354500Y-91618475D01*
X102354500Y-91618481D01*
X102354500Y-92818806D01*
X102352569Y-92827142D01*
X102351953Y-92835845D01*
X102350942Y-92863416D01*
X102354500Y-92886271D01*
X102354500Y-92891517D01*
X102369358Y-92985330D01*
X102370457Y-92988744D01*
X102370462Y-92988774D01*
X102394033Y-93061967D01*
X102394033Y-93061980D01*
X102400000Y-93099970D01*
X102400000Y-97576000D01*
X102380315Y-97643039D01*
X102327511Y-97688794D01*
X102276000Y-97700000D01*
X102100519Y-97700000D01*
X102037506Y-97681497D01*
X102037186Y-97682098D01*
X102034301Y-97680556D01*
X102033480Y-97680315D01*
X102031835Y-97679238D01*
X102031804Y-97679221D01*
X101904332Y-97626421D01*
X101904322Y-97626418D01*
X101768995Y-97599500D01*
X101768993Y-97599500D01*
X101631007Y-97599500D01*
X101631005Y-97599500D01*
X101495677Y-97626418D01*
X101495667Y-97626421D01*
X101368195Y-97679221D01*
X101362814Y-97682098D01*
X101362155Y-97680865D01*
X101302208Y-97699633D01*
X101249510Y-97688908D01*
X101239872Y-97684611D01*
X101231811Y-97679225D01*
X101175061Y-97655718D01*
X101173510Y-97655027D01*
X101148116Y-97633422D01*
X101122143Y-97612491D01*
X101121601Y-97610863D01*
X101120295Y-97609752D01*
X101110611Y-97577842D01*
X101100079Y-97546197D01*
X101100020Y-97542945D01*
X101100005Y-97542893D01*
X101100019Y-97542843D01*
X101100000Y-97541772D01*
X101100000Y-88338025D01*
X101119685Y-88270986D01*
X101120898Y-88269134D01*
X101126491Y-88260764D01*
X101179296Y-88133281D01*
X101206216Y-87997946D01*
X101206216Y-87895190D01*
X101225901Y-87828151D01*
X101278705Y-87782396D01*
X101314033Y-87772251D01*
X101406762Y-87760044D01*
X101552841Y-87699536D01*
X101678282Y-87603282D01*
X101680800Y-87600000D01*
X101700000Y-87600000D01*
X102900000Y-87600000D01*
X102900000Y-89509981D01*
G37*
%TD.AperFunction*%
%TD*%
%TA.AperFunction,Conductor*%
%TO.N,GND*%
G36*
X85650173Y-75520185D02*
G01*
X85695928Y-75572989D01*
X85705872Y-75642147D01*
X85676847Y-75705703D01*
X85670815Y-75712181D01*
X85605739Y-75777256D01*
X85605733Y-75777263D01*
X85458067Y-75969706D01*
X85336777Y-76179785D01*
X85336773Y-76179794D01*
X85243947Y-76403895D01*
X85181161Y-76638214D01*
X85149500Y-76878711D01*
X85149500Y-77121288D01*
X85181161Y-77361785D01*
X85243947Y-77596104D01*
X85336773Y-77820205D01*
X85336776Y-77820212D01*
X85458064Y-78030289D01*
X85458066Y-78030292D01*
X85458067Y-78030293D01*
X85605733Y-78222736D01*
X85605739Y-78222743D01*
X85777256Y-78394260D01*
X85777262Y-78394265D01*
X85969711Y-78541936D01*
X86179788Y-78663224D01*
X86403900Y-78756054D01*
X86638211Y-78818838D01*
X86818586Y-78842584D01*
X86878711Y-78850500D01*
X86878712Y-78850500D01*
X87121289Y-78850500D01*
X87169388Y-78844167D01*
X87361789Y-78818838D01*
X87596100Y-78756054D01*
X87820212Y-78663224D01*
X88030289Y-78541936D01*
X88222738Y-78394265D01*
X88394265Y-78222738D01*
X88541936Y-78030289D01*
X88663224Y-77820212D01*
X88756054Y-77596100D01*
X88818838Y-77361789D01*
X88850500Y-77121288D01*
X88850500Y-76878712D01*
X88818838Y-76638211D01*
X88756054Y-76403900D01*
X88663224Y-76179788D01*
X88541936Y-75969711D01*
X88394265Y-75777262D01*
X88394260Y-75777256D01*
X88329185Y-75712181D01*
X88295700Y-75650858D01*
X88300684Y-75581166D01*
X88342556Y-75525233D01*
X88408020Y-75500816D01*
X88416866Y-75500500D01*
X141876000Y-75500500D01*
X141943039Y-75520185D01*
X141988794Y-75572989D01*
X142000000Y-75624500D01*
X142000000Y-114876000D01*
X141980315Y-114943039D01*
X141927511Y-114988794D01*
X141876000Y-115000000D01*
X128724000Y-115000000D01*
X128656961Y-114980315D01*
X128611206Y-114927511D01*
X128600000Y-114876000D01*
X128600000Y-109032110D01*
X128975000Y-109032110D01*
X128975000Y-109287889D01*
X129015013Y-109540523D01*
X129094051Y-109783781D01*
X129094052Y-109783784D01*
X129210175Y-110011686D01*
X129287850Y-110118595D01*
X129287850Y-110118596D01*
X129922421Y-109484024D01*
X129935359Y-109515258D01*
X130017437Y-109638097D01*
X130121903Y-109742563D01*
X130244742Y-109824641D01*
X130275974Y-109837577D01*
X129641402Y-110472148D01*
X129748313Y-110549824D01*
X129976215Y-110665947D01*
X129976218Y-110665948D01*
X130219476Y-110744986D01*
X130472111Y-110785000D01*
X130727889Y-110785000D01*
X130980523Y-110744986D01*
X131223781Y-110665948D01*
X131223784Y-110665947D01*
X131451685Y-110549825D01*
X131558595Y-110472148D01*
X131558596Y-110472148D01*
X130924025Y-109837578D01*
X130955258Y-109824641D01*
X131078097Y-109742563D01*
X131182563Y-109638097D01*
X131264641Y-109515258D01*
X131277578Y-109484025D01*
X131912148Y-110118596D01*
X131912148Y-110118595D01*
X131989825Y-110011685D01*
X132105947Y-109783784D01*
X132105948Y-109783781D01*
X132184986Y-109540523D01*
X132225000Y-109287889D01*
X132225000Y-109032110D01*
X132184986Y-108779476D01*
X132105948Y-108536218D01*
X132105947Y-108536215D01*
X131989824Y-108308313D01*
X131912148Y-108201403D01*
X131912148Y-108201402D01*
X131277577Y-108835973D01*
X131264641Y-108804742D01*
X131182563Y-108681903D01*
X131078097Y-108577437D01*
X130955258Y-108495359D01*
X130924024Y-108482421D01*
X131558596Y-107847850D01*
X131451686Y-107770175D01*
X131223784Y-107654052D01*
X131223781Y-107654051D01*
X130980523Y-107575013D01*
X130727889Y-107535000D01*
X130472111Y-107535000D01*
X130219476Y-107575013D01*
X129976218Y-107654051D01*
X129976215Y-107654052D01*
X129748310Y-107770177D01*
X129641403Y-107847849D01*
X129641402Y-107847850D01*
X130275974Y-108482421D01*
X130244742Y-108495359D01*
X130121903Y-108577437D01*
X130017437Y-108681903D01*
X129935359Y-108804742D01*
X129922421Y-108835974D01*
X129287850Y-108201402D01*
X129287849Y-108201403D01*
X129210177Y-108308310D01*
X129094052Y-108536215D01*
X129094051Y-108536218D01*
X129015013Y-108779476D01*
X128975000Y-109032110D01*
X128600000Y-109032110D01*
X128600000Y-107150000D01*
X100600000Y-107150000D01*
X100600000Y-114876000D01*
X100580315Y-114943039D01*
X100527511Y-114988794D01*
X100476000Y-115000000D01*
X84624500Y-115000000D01*
X84557461Y-114980315D01*
X84511706Y-114927511D01*
X84500500Y-114876000D01*
X84500500Y-106123615D01*
X85124500Y-106123615D01*
X85124500Y-106276384D01*
X85154300Y-106426197D01*
X85154302Y-106426205D01*
X85212759Y-106567334D01*
X85212764Y-106567343D01*
X85297629Y-106694351D01*
X85297632Y-106694355D01*
X85405644Y-106802367D01*
X85405648Y-106802370D01*
X85532656Y-106887235D01*
X85532662Y-106887238D01*
X85532663Y-106887239D01*
X85673795Y-106945698D01*
X85823615Y-106975499D01*
X85823619Y-106975500D01*
X85823620Y-106975500D01*
X85976381Y-106975500D01*
X85976382Y-106975499D01*
X86126205Y-106945698D01*
X86267337Y-106887239D01*
X86394352Y-106802370D01*
X86502370Y-106694352D01*
X86587239Y-106567337D01*
X86645698Y-106426205D01*
X86675500Y-106276380D01*
X86675500Y-106123620D01*
X86675499Y-106123615D01*
X86924500Y-106123615D01*
X86924500Y-106276384D01*
X86954300Y-106426197D01*
X86954302Y-106426205D01*
X87012759Y-106567334D01*
X87012764Y-106567343D01*
X87097629Y-106694351D01*
X87097632Y-106694355D01*
X87205644Y-106802367D01*
X87205648Y-106802370D01*
X87332656Y-106887235D01*
X87332662Y-106887238D01*
X87332663Y-106887239D01*
X87473795Y-106945698D01*
X87623615Y-106975499D01*
X87623619Y-106975500D01*
X87623620Y-106975500D01*
X87776381Y-106975500D01*
X87776382Y-106975499D01*
X87926205Y-106945698D01*
X88067337Y-106887239D01*
X88194352Y-106802370D01*
X88302370Y-106694352D01*
X88387239Y-106567337D01*
X88445698Y-106426205D01*
X88475500Y-106276380D01*
X88475500Y-106123620D01*
X88475499Y-106123615D01*
X90124500Y-106123615D01*
X90124500Y-106276384D01*
X90154300Y-106426197D01*
X90154302Y-106426205D01*
X90212759Y-106567334D01*
X90212764Y-106567343D01*
X90297629Y-106694351D01*
X90297632Y-106694355D01*
X90405644Y-106802367D01*
X90405648Y-106802370D01*
X90532656Y-106887235D01*
X90532662Y-106887238D01*
X90532663Y-106887239D01*
X90673795Y-106945698D01*
X90823615Y-106975499D01*
X90823619Y-106975500D01*
X90823620Y-106975500D01*
X90976381Y-106975500D01*
X90976382Y-106975499D01*
X91126205Y-106945698D01*
X91267337Y-106887239D01*
X91394352Y-106802370D01*
X91502370Y-106694352D01*
X91587239Y-106567337D01*
X91645698Y-106426205D01*
X91675500Y-106276380D01*
X91675500Y-106123620D01*
X91675499Y-106123615D01*
X91924500Y-106123615D01*
X91924500Y-106276384D01*
X91954300Y-106426197D01*
X91954302Y-106426205D01*
X92012759Y-106567334D01*
X92012764Y-106567343D01*
X92097629Y-106694351D01*
X92097632Y-106694355D01*
X92205644Y-106802367D01*
X92205648Y-106802370D01*
X92332656Y-106887235D01*
X92332662Y-106887238D01*
X92332663Y-106887239D01*
X92473795Y-106945698D01*
X92623615Y-106975499D01*
X92623619Y-106975500D01*
X92623620Y-106975500D01*
X92776381Y-106975500D01*
X92776382Y-106975499D01*
X92926205Y-106945698D01*
X93067337Y-106887239D01*
X93194352Y-106802370D01*
X93302370Y-106694352D01*
X93387239Y-106567337D01*
X93445698Y-106426205D01*
X93475500Y-106276380D01*
X93475500Y-106123620D01*
X93445698Y-105973795D01*
X93387239Y-105832663D01*
X93387238Y-105832662D01*
X93387235Y-105832656D01*
X93302370Y-105705648D01*
X93302367Y-105705644D01*
X93194355Y-105597632D01*
X93194351Y-105597629D01*
X93067343Y-105512764D01*
X93067334Y-105512759D01*
X92926205Y-105454302D01*
X92926197Y-105454300D01*
X92776384Y-105424500D01*
X92776380Y-105424500D01*
X92623620Y-105424500D01*
X92623615Y-105424500D01*
X92473802Y-105454300D01*
X92473794Y-105454302D01*
X92332665Y-105512759D01*
X92332656Y-105512764D01*
X92205648Y-105597629D01*
X92205644Y-105597632D01*
X92097632Y-105705644D01*
X92097629Y-105705648D01*
X92012764Y-105832656D01*
X92012759Y-105832665D01*
X91954302Y-105973794D01*
X91954300Y-105973802D01*
X91924500Y-106123615D01*
X91675499Y-106123615D01*
X91645698Y-105973795D01*
X91587239Y-105832663D01*
X91587238Y-105832662D01*
X91587235Y-105832656D01*
X91502370Y-105705648D01*
X91502367Y-105705644D01*
X91394355Y-105597632D01*
X91394351Y-105597629D01*
X91267343Y-105512764D01*
X91267334Y-105512759D01*
X91126205Y-105454302D01*
X91126197Y-105454300D01*
X90976384Y-105424500D01*
X90976380Y-105424500D01*
X90823620Y-105424500D01*
X90823615Y-105424500D01*
X90673802Y-105454300D01*
X90673794Y-105454302D01*
X90532665Y-105512759D01*
X90532656Y-105512764D01*
X90405648Y-105597629D01*
X90405644Y-105597632D01*
X90297632Y-105705644D01*
X90297629Y-105705648D01*
X90212764Y-105832656D01*
X90212759Y-105832665D01*
X90154302Y-105973794D01*
X90154300Y-105973802D01*
X90124500Y-106123615D01*
X88475499Y-106123615D01*
X88445698Y-105973795D01*
X88387239Y-105832663D01*
X88387238Y-105832662D01*
X88387235Y-105832656D01*
X88302370Y-105705648D01*
X88302367Y-105705644D01*
X88194355Y-105597632D01*
X88194351Y-105597629D01*
X88067343Y-105512764D01*
X88067334Y-105512759D01*
X87926205Y-105454302D01*
X87926197Y-105454300D01*
X87776384Y-105424500D01*
X87776380Y-105424500D01*
X87623620Y-105424500D01*
X87623615Y-105424500D01*
X87473802Y-105454300D01*
X87473794Y-105454302D01*
X87332665Y-105512759D01*
X87332656Y-105512764D01*
X87205648Y-105597629D01*
X87205644Y-105597632D01*
X87097632Y-105705644D01*
X87097629Y-105705648D01*
X87012764Y-105832656D01*
X87012759Y-105832665D01*
X86954302Y-105973794D01*
X86954300Y-105973802D01*
X86924500Y-106123615D01*
X86675499Y-106123615D01*
X86645698Y-105973795D01*
X86587239Y-105832663D01*
X86587238Y-105832662D01*
X86587235Y-105832656D01*
X86502370Y-105705648D01*
X86502367Y-105705644D01*
X86394355Y-105597632D01*
X86394351Y-105597629D01*
X86267343Y-105512764D01*
X86267334Y-105512759D01*
X86126205Y-105454302D01*
X86126197Y-105454300D01*
X85976384Y-105424500D01*
X85976380Y-105424500D01*
X85823620Y-105424500D01*
X85823615Y-105424500D01*
X85673802Y-105454300D01*
X85673794Y-105454302D01*
X85532665Y-105512759D01*
X85532656Y-105512764D01*
X85405648Y-105597629D01*
X85405644Y-105597632D01*
X85297632Y-105705644D01*
X85297629Y-105705648D01*
X85212764Y-105832656D01*
X85212759Y-105832665D01*
X85154302Y-105973794D01*
X85154300Y-105973802D01*
X85124500Y-106123615D01*
X84500500Y-106123615D01*
X84500500Y-101914011D01*
X84520185Y-101846972D01*
X84572989Y-101801217D01*
X84642147Y-101791273D01*
X84671953Y-101799450D01*
X84672157Y-101799534D01*
X84672159Y-101799536D01*
X84818238Y-101860044D01*
X84935639Y-101875500D01*
X85414360Y-101875499D01*
X85414363Y-101875499D01*
X85531753Y-101860046D01*
X85531757Y-101860044D01*
X85531762Y-101860044D01*
X85677841Y-101799536D01*
X85803282Y-101703282D01*
X85839649Y-101655886D01*
X85896077Y-101614684D01*
X85965823Y-101610529D01*
X86026743Y-101644741D01*
X86044142Y-101667223D01*
X86069927Y-101709877D01*
X86190122Y-101830072D01*
X86335604Y-101918019D01*
X86335603Y-101918019D01*
X86497894Y-101968590D01*
X86497893Y-101968590D01*
X86568408Y-101974998D01*
X86568426Y-101974999D01*
X87075000Y-101974999D01*
X87081581Y-101974999D01*
X87152102Y-101968591D01*
X87152107Y-101968590D01*
X87314396Y-101918018D01*
X87459877Y-101830072D01*
X87580072Y-101709877D01*
X87668019Y-101564395D01*
X87718590Y-101402106D01*
X87725000Y-101331572D01*
X87725000Y-101250000D01*
X87075000Y-101250000D01*
X87075000Y-101974999D01*
X86568426Y-101974999D01*
X86574999Y-101974998D01*
X86575000Y-101974998D01*
X86575000Y-101124000D01*
X86594685Y-101056961D01*
X86647489Y-101011206D01*
X86699000Y-101000000D01*
X86825000Y-101000000D01*
X86825000Y-100874000D01*
X86844685Y-100806961D01*
X86897489Y-100761206D01*
X86949000Y-100750000D01*
X87724999Y-100750000D01*
X87724999Y-100668417D01*
X87718591Y-100597897D01*
X87718590Y-100597892D01*
X87668018Y-100435603D01*
X87580072Y-100290122D01*
X87459763Y-100169813D01*
X87426278Y-100108490D01*
X87431262Y-100038798D01*
X87459764Y-99994450D01*
X87496748Y-99957466D01*
X87496751Y-99957462D01*
X87606185Y-99793684D01*
X87606192Y-99793671D01*
X87681569Y-99611692D01*
X87681569Y-99611690D01*
X87689862Y-99570000D01*
X86886988Y-99570000D01*
X86904205Y-99560060D01*
X86960060Y-99504205D01*
X86999556Y-99435796D01*
X87020000Y-99359496D01*
X87020000Y-99280504D01*
X86999556Y-99204204D01*
X86960060Y-99135795D01*
X86904205Y-99079940D01*
X86886988Y-99070000D01*
X87689862Y-99070000D01*
X87681569Y-99028309D01*
X87681569Y-99028307D01*
X87606192Y-98846328D01*
X87606185Y-98846315D01*
X87496751Y-98682537D01*
X87496748Y-98682533D01*
X87357466Y-98543251D01*
X87357462Y-98543248D01*
X87193684Y-98433814D01*
X87193671Y-98433807D01*
X87011693Y-98358430D01*
X87011681Y-98358427D01*
X86818495Y-98320000D01*
X86794391Y-98320000D01*
X86727352Y-98300315D01*
X86681597Y-98247511D01*
X86671653Y-98178353D01*
X86700678Y-98114797D01*
X86706710Y-98108319D01*
X87528210Y-97286819D01*
X87589533Y-97253334D01*
X87615891Y-97250500D01*
X88676316Y-97250500D01*
X88743355Y-97270185D01*
X88789110Y-97322989D01*
X88799054Y-97392147D01*
X88770029Y-97455703D01*
X88763997Y-97462181D01*
X88748502Y-97477675D01*
X88748500Y-97477678D01*
X88682608Y-97591804D01*
X88657514Y-97685459D01*
X88648500Y-97719100D01*
X88648500Y-99585893D01*
X88648500Y-99717677D01*
X88657726Y-99752108D01*
X88682608Y-99844972D01*
X88715554Y-99902035D01*
X88748500Y-99959099D01*
X89472715Y-100683314D01*
X89565901Y-100776500D01*
X89680029Y-100842392D01*
X89807323Y-100876500D01*
X92825500Y-100876500D01*
X92892539Y-100896185D01*
X92938294Y-100948989D01*
X92949500Y-101000500D01*
X92949500Y-101068993D01*
X92949500Y-101068995D01*
X92949499Y-101068995D01*
X92976418Y-101204322D01*
X92976421Y-101204332D01*
X93029221Y-101331804D01*
X93029228Y-101331817D01*
X93105885Y-101446541D01*
X93105888Y-101446545D01*
X93203454Y-101544111D01*
X93203458Y-101544114D01*
X93318182Y-101620771D01*
X93318195Y-101620778D01*
X93431264Y-101667612D01*
X93445672Y-101673580D01*
X93445676Y-101673580D01*
X93445677Y-101673581D01*
X93581004Y-101700500D01*
X93581007Y-101700500D01*
X93718995Y-101700500D01*
X93718996Y-101700499D01*
X93854328Y-101673580D01*
X93868771Y-101667596D01*
X93873889Y-101665609D01*
X94308789Y-101507926D01*
X94351056Y-101500500D01*
X96010273Y-101500500D01*
X96077312Y-101520185D01*
X96123067Y-101572989D01*
X96133011Y-101642147D01*
X96108465Y-101697855D01*
X96109270Y-101698393D01*
X96106213Y-101702966D01*
X96106127Y-101703164D01*
X96105885Y-101703458D01*
X96029228Y-101818182D01*
X96029221Y-101818195D01*
X95976421Y-101945667D01*
X95976418Y-101945677D01*
X95949500Y-102081004D01*
X95949500Y-102081007D01*
X95949500Y-102218993D01*
X95949500Y-102218995D01*
X95949499Y-102218995D01*
X95976418Y-102354322D01*
X95976421Y-102354332D01*
X96029221Y-102481804D01*
X96029228Y-102481817D01*
X96105885Y-102596541D01*
X96105888Y-102596545D01*
X96203454Y-102694111D01*
X96203458Y-102694114D01*
X96318185Y-102770773D01*
X96318187Y-102770773D01*
X96318189Y-102770775D01*
X96329911Y-102775630D01*
X96332597Y-102776743D01*
X96337688Y-102778986D01*
X96756677Y-102974991D01*
X96791814Y-102999628D01*
X98695159Y-104902972D01*
X98695169Y-104902983D01*
X98699499Y-104907313D01*
X98699500Y-104907314D01*
X98792686Y-105000500D01*
X98872431Y-105046541D01*
X98872433Y-105046542D01*
X98872434Y-105046543D01*
X98906808Y-105066389D01*
X98906809Y-105066389D01*
X98906814Y-105066392D01*
X99034107Y-105100500D01*
X99034108Y-105100500D01*
X103448944Y-105100500D01*
X103491211Y-105107926D01*
X103928691Y-105266546D01*
X103945672Y-105273580D01*
X103954572Y-105275350D01*
X103968949Y-105279971D01*
X103970617Y-105280440D01*
X104031435Y-105292613D01*
X104031444Y-105292612D01*
X104038663Y-105293197D01*
X104038606Y-105293900D01*
X104054038Y-105295135D01*
X104081004Y-105300500D01*
X104081007Y-105300500D01*
X104218995Y-105300500D01*
X104310041Y-105282389D01*
X104354328Y-105273580D01*
X104481811Y-105220775D01*
X104596542Y-105144114D01*
X104694114Y-105046542D01*
X104770775Y-104931811D01*
X104823580Y-104804328D01*
X104840156Y-104720994D01*
X104850500Y-104668995D01*
X104850500Y-104531004D01*
X104823581Y-104395677D01*
X104823580Y-104395676D01*
X104823580Y-104395672D01*
X104816769Y-104379228D01*
X104777512Y-104284452D01*
X104770043Y-104214983D01*
X104801318Y-104152504D01*
X104861408Y-104116852D01*
X104892073Y-104113000D01*
X105179270Y-104113000D01*
X105209699Y-104110146D01*
X105209701Y-104110146D01*
X105273790Y-104087719D01*
X105337882Y-104065293D01*
X105447150Y-103984650D01*
X105527793Y-103875382D01*
X105550219Y-103811290D01*
X105572646Y-103747201D01*
X105572646Y-103747199D01*
X105575500Y-103716769D01*
X105575500Y-102148230D01*
X105572646Y-102117800D01*
X105572646Y-102117798D01*
X105527793Y-101989619D01*
X105527792Y-101989617D01*
X105447150Y-101880350D01*
X105337882Y-101799707D01*
X105337880Y-101799706D01*
X105209700Y-101754853D01*
X105179270Y-101752000D01*
X105179266Y-101752000D01*
X104832867Y-101752000D01*
X104765828Y-101732315D01*
X104757943Y-101726805D01*
X104747096Y-101718580D01*
X104606439Y-101663112D01*
X104563300Y-101657932D01*
X104499085Y-101630395D01*
X104459953Y-101572513D01*
X104458326Y-101502662D01*
X104490401Y-101447138D01*
X105387819Y-100549721D01*
X105449142Y-100516236D01*
X105518834Y-100521220D01*
X105574767Y-100563092D01*
X105599184Y-100628556D01*
X105599500Y-100637402D01*
X105599500Y-100736758D01*
X105599500Y-100736760D01*
X105599499Y-100736760D01*
X105626418Y-100872086D01*
X105626421Y-100872096D01*
X105679222Y-100999571D01*
X105755887Y-101114309D01*
X107185689Y-102544111D01*
X107185694Y-102544115D01*
X107218599Y-102566101D01*
X107263405Y-102619712D01*
X107272114Y-102689037D01*
X107271070Y-102694655D01*
X107197940Y-103043373D01*
X107191147Y-103065361D01*
X107189956Y-103068236D01*
X107189954Y-103068242D01*
X107174500Y-103185638D01*
X107174500Y-103814364D01*
X107174501Y-103814367D01*
X107175057Y-103818593D01*
X107176053Y-103826156D01*
X107176238Y-103848992D01*
X107189663Y-103929546D01*
X107189933Y-103931594D01*
X107189939Y-103931632D01*
X107190354Y-103934782D01*
X107191139Y-103938404D01*
X107239674Y-104229614D01*
X107239674Y-104270384D01*
X107191138Y-104561604D01*
X107190083Y-104567927D01*
X107189956Y-104568238D01*
X107189666Y-104570434D01*
X107189319Y-104572517D01*
X107176237Y-104651013D01*
X107170734Y-104720988D01*
X107170768Y-104725023D01*
X107173387Y-104744441D01*
X107174500Y-104761016D01*
X107174500Y-105314363D01*
X107189953Y-105431753D01*
X107192059Y-105439608D01*
X107189725Y-105440233D01*
X107195889Y-105497504D01*
X107164621Y-105559986D01*
X107104536Y-105595645D01*
X107073857Y-105599500D01*
X97801056Y-105599500D01*
X97758789Y-105592074D01*
X97325170Y-105434853D01*
X97325135Y-105434841D01*
X97321312Y-105433455D01*
X97304328Y-105426420D01*
X97295435Y-105424651D01*
X97287820Y-105422203D01*
X97287734Y-105422174D01*
X97281110Y-105420045D01*
X97279445Y-105419577D01*
X97279441Y-105419576D01*
X97279437Y-105419575D01*
X97218564Y-105407386D01*
X97218560Y-105407386D01*
X97218555Y-105407385D01*
X97211331Y-105406800D01*
X97211387Y-105406107D01*
X97195972Y-105404865D01*
X97168997Y-105399500D01*
X97168993Y-105399500D01*
X97031007Y-105399500D01*
X97031005Y-105399500D01*
X96895677Y-105426418D01*
X96895667Y-105426421D01*
X96768195Y-105479221D01*
X96768182Y-105479228D01*
X96653458Y-105555885D01*
X96653454Y-105555888D01*
X96555888Y-105653454D01*
X96555885Y-105653458D01*
X96479228Y-105768182D01*
X96479221Y-105768195D01*
X96426421Y-105895667D01*
X96426418Y-105895677D01*
X96399500Y-106031004D01*
X96399500Y-106031007D01*
X96399500Y-106168993D01*
X96399500Y-106168995D01*
X96399499Y-106168995D01*
X96426418Y-106304322D01*
X96426421Y-106304332D01*
X96479221Y-106431804D01*
X96479228Y-106431817D01*
X96555885Y-106546541D01*
X96555888Y-106546545D01*
X96653454Y-106644111D01*
X96653458Y-106644114D01*
X96768182Y-106720771D01*
X96768195Y-106720778D01*
X96876394Y-106765595D01*
X96895672Y-106773580D01*
X96895676Y-106773580D01*
X96895677Y-106773581D01*
X97031004Y-106800500D01*
X97031007Y-106800500D01*
X97168995Y-106800500D01*
X97168996Y-106800499D01*
X97304328Y-106773580D01*
X97318771Y-106767596D01*
X97323889Y-106765609D01*
X97758789Y-106607926D01*
X97801056Y-106600500D01*
X111875833Y-106600500D01*
X111875835Y-106600500D01*
X112003129Y-106566392D01*
X112117257Y-106500500D01*
X112117816Y-106499941D01*
X135394500Y-106499941D01*
X135394500Y-106740059D01*
X135399810Y-106773582D01*
X135432063Y-106977222D01*
X135506265Y-107205593D01*
X135615276Y-107419536D01*
X135756414Y-107613796D01*
X135926204Y-107783586D01*
X136120464Y-107924724D01*
X136221543Y-107976226D01*
X136334406Y-108033734D01*
X136334408Y-108033734D01*
X136334411Y-108033736D01*
X136562778Y-108107937D01*
X136799941Y-108145500D01*
X136799942Y-108145500D01*
X137040058Y-108145500D01*
X137040059Y-108145500D01*
X137277222Y-108107937D01*
X137505589Y-108033736D01*
X137719536Y-107924724D01*
X137913796Y-107783586D01*
X138083586Y-107613796D01*
X138224724Y-107419536D01*
X138333736Y-107205589D01*
X138407937Y-106977222D01*
X138445500Y-106740059D01*
X138445500Y-106499941D01*
X138407937Y-106262778D01*
X138333736Y-106034411D01*
X138333734Y-106034408D01*
X138333734Y-106034406D01*
X138263047Y-105895677D01*
X138224724Y-105820464D01*
X138083586Y-105626204D01*
X137913796Y-105456414D01*
X137879865Y-105431762D01*
X137815470Y-105384976D01*
X137772804Y-105329646D01*
X137766825Y-105260033D01*
X137799431Y-105198238D01*
X137860269Y-105163881D01*
X137907753Y-105162185D01*
X138023389Y-105180500D01*
X138023390Y-105180500D01*
X138196610Y-105180500D01*
X138196611Y-105180500D01*
X138367701Y-105153402D01*
X138532445Y-105099873D01*
X138686788Y-105021232D01*
X138826928Y-104919414D01*
X138949414Y-104796928D01*
X139051232Y-104656788D01*
X139129873Y-104502445D01*
X139183402Y-104337701D01*
X139210500Y-104166611D01*
X139210500Y-103993389D01*
X139183402Y-103822299D01*
X139129873Y-103657555D01*
X139051232Y-103503212D01*
X138949414Y-103363072D01*
X138826928Y-103240586D01*
X138686788Y-103138768D01*
X138532445Y-103060127D01*
X138367701Y-103006598D01*
X138367699Y-103006597D01*
X138367698Y-103006597D01*
X138236271Y-102985781D01*
X138196611Y-102979500D01*
X138023389Y-102979500D01*
X137983728Y-102985781D01*
X137852302Y-103006597D01*
X137687552Y-103060128D01*
X137533211Y-103138768D01*
X137492709Y-103168195D01*
X137393072Y-103240586D01*
X137393070Y-103240588D01*
X137393069Y-103240588D01*
X137270588Y-103363069D01*
X137270588Y-103363070D01*
X137270586Y-103363072D01*
X137226859Y-103423256D01*
X137168768Y-103503211D01*
X137090128Y-103657552D01*
X137036597Y-103822302D01*
X137018993Y-103933451D01*
X137009500Y-103993389D01*
X137009500Y-104166611D01*
X137015308Y-104203282D01*
X137030547Y-104299500D01*
X137036598Y-104337701D01*
X137090127Y-104502445D01*
X137168768Y-104656788D01*
X137270586Y-104796928D01*
X137270588Y-104796930D01*
X137396517Y-104922859D01*
X137395514Y-104923861D01*
X137430228Y-104977026D01*
X137430732Y-105046894D01*
X137393384Y-105105944D01*
X137330039Y-105135427D01*
X137282370Y-105131528D01*
X137281969Y-105133202D01*
X137277223Y-105132063D01*
X137077941Y-105100500D01*
X137040059Y-105094500D01*
X136799941Y-105094500D01*
X136762059Y-105100500D01*
X136562777Y-105132063D01*
X136334406Y-105206265D01*
X136120463Y-105315276D01*
X135926201Y-105456416D01*
X135756416Y-105626201D01*
X135615276Y-105820463D01*
X135506265Y-106034406D01*
X135462535Y-106168995D01*
X135432063Y-106262778D01*
X135394500Y-106499941D01*
X112117816Y-106499941D01*
X114624368Y-103993389D01*
X127009500Y-103993389D01*
X127009500Y-104166611D01*
X127015308Y-104203282D01*
X127030547Y-104299500D01*
X127036598Y-104337701D01*
X127090127Y-104502445D01*
X127168768Y-104656788D01*
X127270586Y-104796928D01*
X127393072Y-104919414D01*
X127533212Y-105021232D01*
X127687555Y-105099873D01*
X127852299Y-105153402D01*
X128023389Y-105180500D01*
X128023390Y-105180500D01*
X128196610Y-105180500D01*
X128196611Y-105180500D01*
X128367701Y-105153402D01*
X128532445Y-105099873D01*
X128686788Y-105021232D01*
X128826928Y-104919414D01*
X128949414Y-104796928D01*
X129051232Y-104656788D01*
X129129873Y-104502445D01*
X129183402Y-104337701D01*
X129210500Y-104166611D01*
X129210500Y-103993389D01*
X129200919Y-103932900D01*
X130865600Y-103932900D01*
X130865600Y-104227099D01*
X130865601Y-104227116D01*
X130901848Y-104502445D01*
X130904002Y-104518800D01*
X130978526Y-104796928D01*
X130980152Y-104802994D01*
X131092734Y-105074794D01*
X131092742Y-105074810D01*
X131239840Y-105329589D01*
X131239851Y-105329605D01*
X131418948Y-105563009D01*
X131418954Y-105563016D01*
X131626983Y-105771045D01*
X131626990Y-105771051D01*
X131707287Y-105832665D01*
X131860403Y-105950155D01*
X131860410Y-105950159D01*
X132115189Y-106097257D01*
X132115205Y-106097265D01*
X132387005Y-106209847D01*
X132387007Y-106209847D01*
X132387013Y-106209850D01*
X132671200Y-106285998D01*
X132962894Y-106324400D01*
X132962901Y-106324400D01*
X133257099Y-106324400D01*
X133257106Y-106324400D01*
X133548800Y-106285998D01*
X133832987Y-106209850D01*
X133906318Y-106179475D01*
X134104794Y-106097265D01*
X134104797Y-106097263D01*
X134104803Y-106097261D01*
X134359597Y-105950155D01*
X134593011Y-105771050D01*
X134801050Y-105563011D01*
X134980155Y-105329597D01*
X135127261Y-105074803D01*
X135138968Y-105046541D01*
X135239293Y-104804332D01*
X135239850Y-104802987D01*
X135315998Y-104518800D01*
X135354400Y-104227106D01*
X135354400Y-103932894D01*
X135315998Y-103641200D01*
X135239850Y-103357013D01*
X135173930Y-103197866D01*
X135127265Y-103085205D01*
X135127257Y-103085189D01*
X134980159Y-102830410D01*
X134980155Y-102830403D01*
X134880449Y-102700464D01*
X134801051Y-102596990D01*
X134801045Y-102596983D01*
X134593016Y-102388954D01*
X134593009Y-102388948D01*
X134359605Y-102209851D01*
X134359603Y-102209849D01*
X134359597Y-102209845D01*
X134359592Y-102209842D01*
X134359589Y-102209840D01*
X134104810Y-102062742D01*
X134104794Y-102062734D01*
X133832994Y-101950152D01*
X133816293Y-101945677D01*
X133548800Y-101874002D01*
X133548799Y-101874001D01*
X133548796Y-101874001D01*
X133257116Y-101835601D01*
X133257111Y-101835600D01*
X133257106Y-101835600D01*
X132962894Y-101835600D01*
X132962888Y-101835600D01*
X132962883Y-101835601D01*
X132671203Y-101874001D01*
X132387005Y-101950152D01*
X132115205Y-102062734D01*
X132115189Y-102062742D01*
X131860410Y-102209840D01*
X131860394Y-102209851D01*
X131626990Y-102388948D01*
X131626983Y-102388954D01*
X131418954Y-102596983D01*
X131418948Y-102596990D01*
X131239851Y-102830394D01*
X131239840Y-102830410D01*
X131092742Y-103085189D01*
X131092734Y-103085205D01*
X130980152Y-103357005D01*
X130904001Y-103641203D01*
X130865601Y-103932883D01*
X130865600Y-103932900D01*
X129200919Y-103932900D01*
X129183402Y-103822299D01*
X129129873Y-103657555D01*
X129051232Y-103503212D01*
X128949414Y-103363072D01*
X128826928Y-103240586D01*
X128686788Y-103138768D01*
X128532445Y-103060127D01*
X128367701Y-103006598D01*
X128367699Y-103006597D01*
X128367698Y-103006597D01*
X128236271Y-102985781D01*
X128196611Y-102979500D01*
X128023389Y-102979500D01*
X127983728Y-102985781D01*
X127852302Y-103006597D01*
X127687552Y-103060128D01*
X127533211Y-103138768D01*
X127492709Y-103168195D01*
X127393072Y-103240586D01*
X127393070Y-103240588D01*
X127393069Y-103240588D01*
X127270588Y-103363069D01*
X127270588Y-103363070D01*
X127270586Y-103363072D01*
X127226859Y-103423256D01*
X127168768Y-103503211D01*
X127090128Y-103657552D01*
X127036597Y-103822302D01*
X127018993Y-103933451D01*
X127009500Y-103993389D01*
X114624368Y-103993389D01*
X117661500Y-100956257D01*
X117727392Y-100842129D01*
X117761500Y-100714835D01*
X117761500Y-100583050D01*
X117761500Y-98909139D01*
X128145500Y-98909139D01*
X128145500Y-99090860D01*
X128173928Y-99270347D01*
X128173928Y-99270350D01*
X128230081Y-99443171D01*
X128230083Y-99443174D01*
X128312583Y-99605090D01*
X128419397Y-99752106D01*
X128547894Y-99880603D01*
X128694910Y-99987417D01*
X128856826Y-100069917D01*
X128856828Y-100069918D01*
X128947984Y-100099536D01*
X129029654Y-100126072D01*
X129209139Y-100154500D01*
X129209140Y-100154500D01*
X129390860Y-100154500D01*
X129390861Y-100154500D01*
X129570346Y-100126072D01*
X129570349Y-100126071D01*
X129570350Y-100126071D01*
X129743171Y-100069918D01*
X129743171Y-100069917D01*
X129743174Y-100069917D01*
X129905090Y-99987417D01*
X130052106Y-99880603D01*
X130180603Y-99752106D01*
X130287417Y-99605090D01*
X130369917Y-99443174D01*
X130401441Y-99346152D01*
X130426071Y-99270350D01*
X130426071Y-99270349D01*
X130426072Y-99270346D01*
X130454500Y-99090861D01*
X130454500Y-98909139D01*
X135765500Y-98909139D01*
X135765500Y-99090860D01*
X135793928Y-99270347D01*
X135793928Y-99270350D01*
X135850081Y-99443171D01*
X135850083Y-99443174D01*
X135932583Y-99605090D01*
X136039397Y-99752106D01*
X136167894Y-99880603D01*
X136314910Y-99987417D01*
X136476826Y-100069917D01*
X136476828Y-100069918D01*
X136567984Y-100099536D01*
X136649654Y-100126072D01*
X136829139Y-100154500D01*
X136829140Y-100154500D01*
X137010860Y-100154500D01*
X137010861Y-100154500D01*
X137190346Y-100126072D01*
X137190349Y-100126071D01*
X137190350Y-100126071D01*
X137363171Y-100069918D01*
X137363171Y-100069917D01*
X137363174Y-100069917D01*
X137525090Y-99987417D01*
X137672106Y-99880603D01*
X137800603Y-99752106D01*
X137907417Y-99605090D01*
X137989917Y-99443174D01*
X138021441Y-99346152D01*
X138046071Y-99270350D01*
X138046071Y-99270349D01*
X138046072Y-99270346D01*
X138074500Y-99090861D01*
X138074500Y-98909139D01*
X138046072Y-98729654D01*
X138046071Y-98729653D01*
X138046071Y-98729648D01*
X137989918Y-98556828D01*
X137989916Y-98556825D01*
X137988623Y-98554286D01*
X137907417Y-98394910D01*
X137800603Y-98247894D01*
X137672106Y-98119397D01*
X137525090Y-98012583D01*
X137363174Y-97930083D01*
X137363171Y-97930081D01*
X137190348Y-97873928D01*
X137070689Y-97854976D01*
X137010861Y-97845500D01*
X136829139Y-97845500D01*
X136769310Y-97854976D01*
X136649652Y-97873928D01*
X136649649Y-97873928D01*
X136476828Y-97930081D01*
X136476825Y-97930083D01*
X136314909Y-98012583D01*
X136238470Y-98068120D01*
X136167894Y-98119397D01*
X136167892Y-98119399D01*
X136167891Y-98119399D01*
X136039399Y-98247891D01*
X136039399Y-98247892D01*
X136039397Y-98247894D01*
X136002642Y-98298483D01*
X135932583Y-98394909D01*
X135850083Y-98556825D01*
X135850081Y-98556828D01*
X135793929Y-98729648D01*
X135793928Y-98729653D01*
X135793928Y-98729654D01*
X135773728Y-98857190D01*
X135765500Y-98909139D01*
X130454500Y-98909139D01*
X130426072Y-98729654D01*
X130426071Y-98729653D01*
X130426071Y-98729648D01*
X130369918Y-98556828D01*
X130369916Y-98556825D01*
X130368623Y-98554286D01*
X130287417Y-98394910D01*
X130180603Y-98247894D01*
X130052106Y-98119397D01*
X129905090Y-98012583D01*
X129743174Y-97930083D01*
X129743171Y-97930081D01*
X129570348Y-97873928D01*
X129450689Y-97854976D01*
X129390861Y-97845500D01*
X129209139Y-97845500D01*
X129149310Y-97854976D01*
X129029652Y-97873928D01*
X129029649Y-97873928D01*
X128856828Y-97930081D01*
X128856825Y-97930083D01*
X128694909Y-98012583D01*
X128618470Y-98068120D01*
X128547894Y-98119397D01*
X128547892Y-98119399D01*
X128547891Y-98119399D01*
X128419399Y-98247891D01*
X128419399Y-98247892D01*
X128419397Y-98247894D01*
X128382642Y-98298483D01*
X128312583Y-98394909D01*
X128230083Y-98556825D01*
X128230081Y-98556828D01*
X128173929Y-98729648D01*
X128173928Y-98729653D01*
X128173928Y-98729654D01*
X128153728Y-98857190D01*
X128145500Y-98909139D01*
X117761500Y-98909139D01*
X117761500Y-97995108D01*
X117727392Y-97867814D01*
X117661500Y-97753686D01*
X117568314Y-97660500D01*
X115649628Y-95741814D01*
X115624991Y-95706676D01*
X115619114Y-95694114D01*
X115427814Y-95285183D01*
X115420775Y-95268189D01*
X115415695Y-95260586D01*
X115408654Y-95246892D01*
X115407805Y-95245382D01*
X115373630Y-95194142D01*
X115373627Y-95194139D01*
X115368946Y-95188635D01*
X115369475Y-95188184D01*
X115359432Y-95176382D01*
X115354176Y-95168517D01*
X115344114Y-95153458D01*
X115344110Y-95153454D01*
X115344109Y-95153452D01*
X115246545Y-95055888D01*
X115246541Y-95055885D01*
X115131817Y-94979228D01*
X115131804Y-94979221D01*
X115004332Y-94926421D01*
X115004322Y-94926418D01*
X114868995Y-94899500D01*
X114868993Y-94899500D01*
X114731007Y-94899500D01*
X114731005Y-94899500D01*
X114595677Y-94926418D01*
X114595667Y-94926421D01*
X114468195Y-94979221D01*
X114468182Y-94979228D01*
X114353458Y-95055885D01*
X114353454Y-95055888D01*
X114255888Y-95153454D01*
X114255885Y-95153458D01*
X114179228Y-95268182D01*
X114179221Y-95268195D01*
X114126421Y-95395667D01*
X114126418Y-95395677D01*
X114099500Y-95531004D01*
X114099500Y-95531007D01*
X114099500Y-95668993D01*
X114099500Y-95668995D01*
X114099499Y-95668995D01*
X114126418Y-95804322D01*
X114126421Y-95804332D01*
X114179221Y-95931804D01*
X114179228Y-95931817D01*
X114255885Y-96046541D01*
X114255888Y-96046545D01*
X114353454Y-96144111D01*
X114353458Y-96144114D01*
X114468185Y-96220773D01*
X114468187Y-96220773D01*
X114468189Y-96220775D01*
X114479911Y-96225630D01*
X114482597Y-96226743D01*
X114487688Y-96228986D01*
X114906677Y-96424991D01*
X114941814Y-96449628D01*
X116724181Y-98231995D01*
X116757666Y-98293318D01*
X116760500Y-98319676D01*
X116760500Y-100390267D01*
X116740815Y-100457306D01*
X116724181Y-100477948D01*
X112112181Y-105089948D01*
X112050858Y-105123433D01*
X111981166Y-105118449D01*
X111925233Y-105076577D01*
X111900816Y-105011113D01*
X111900500Y-105002267D01*
X111900500Y-104931004D01*
X111873581Y-104795677D01*
X111873580Y-104795676D01*
X111873580Y-104795672D01*
X111859225Y-104761016D01*
X111820778Y-104668195D01*
X111820771Y-104668182D01*
X111744114Y-104553458D01*
X111744111Y-104553454D01*
X111646545Y-104455888D01*
X111646541Y-104455885D01*
X111531817Y-104379228D01*
X111531804Y-104379221D01*
X111496410Y-104364561D01*
X111442006Y-104320720D01*
X111419941Y-104254426D01*
X111437220Y-104186727D01*
X111488357Y-104139116D01*
X111496410Y-104135439D01*
X111531804Y-104120778D01*
X111531804Y-104120777D01*
X111531811Y-104120775D01*
X111646542Y-104044114D01*
X111744114Y-103946542D01*
X111820775Y-103831811D01*
X111873580Y-103704328D01*
X111882884Y-103657552D01*
X111900500Y-103568995D01*
X111900500Y-103431004D01*
X111873581Y-103295677D01*
X111873580Y-103295676D01*
X111873580Y-103295672D01*
X111828003Y-103185638D01*
X111820778Y-103168195D01*
X111820771Y-103168182D01*
X111744114Y-103053458D01*
X111744111Y-103053454D01*
X111646545Y-102955888D01*
X111646541Y-102955885D01*
X111531817Y-102879228D01*
X111531804Y-102879221D01*
X111404332Y-102826421D01*
X111404322Y-102826418D01*
X111268995Y-102799500D01*
X111268993Y-102799500D01*
X110505811Y-102799500D01*
X110478774Y-102796517D01*
X110187015Y-102731334D01*
X110138567Y-102708694D01*
X110127841Y-102700464D01*
X109981762Y-102639956D01*
X109981760Y-102639955D01*
X109864361Y-102624500D01*
X109385636Y-102624500D01*
X109268246Y-102639953D01*
X109268237Y-102639956D01*
X109122160Y-102700463D01*
X109122159Y-102700464D01*
X108996718Y-102796718D01*
X108996717Y-102796719D01*
X108996716Y-102796720D01*
X108951406Y-102855769D01*
X108933272Y-102869009D01*
X108918281Y-102885726D01*
X108905598Y-102889215D01*
X108894978Y-102896971D01*
X108872566Y-102898306D01*
X108850916Y-102904264D01*
X108838361Y-102900343D01*
X108825232Y-102901126D01*
X108805654Y-102890131D01*
X108784222Y-102883439D01*
X108775779Y-102873353D01*
X108764312Y-102866913D01*
X108753787Y-102847080D01*
X108739374Y-102829862D01*
X108733724Y-102809274D01*
X108731560Y-102805196D01*
X108730010Y-102795833D01*
X108703650Y-102584953D01*
X108702770Y-102578354D01*
X108702343Y-102576963D01*
X108701479Y-102570127D01*
X108701898Y-102567524D01*
X108700500Y-102554576D01*
X108700500Y-101931004D01*
X108673581Y-101795677D01*
X108673580Y-101795676D01*
X108673580Y-101795672D01*
X108665726Y-101776711D01*
X108620778Y-101668195D01*
X108620771Y-101668182D01*
X108544114Y-101553458D01*
X108544111Y-101553454D01*
X108446545Y-101455888D01*
X108446541Y-101455885D01*
X108331817Y-101379228D01*
X108331804Y-101379221D01*
X108204332Y-101326421D01*
X108204322Y-101326418D01*
X108068995Y-101299500D01*
X108068993Y-101299500D01*
X107973755Y-101299500D01*
X107944314Y-101290855D01*
X107914328Y-101284332D01*
X107909312Y-101280577D01*
X107906716Y-101279815D01*
X107886074Y-101263181D01*
X107864574Y-101241681D01*
X107831089Y-101180358D01*
X107836073Y-101110666D01*
X107877945Y-101054733D01*
X107943409Y-101030316D01*
X107952255Y-101030000D01*
X109870000Y-101030000D01*
X110370000Y-101030000D01*
X112331956Y-101030000D01*
X112422513Y-101023714D01*
X112634588Y-100973835D01*
X112634604Y-100973829D01*
X112833894Y-100885834D01*
X113013645Y-100762703D01*
X113013651Y-100762698D01*
X113167698Y-100608651D01*
X113167703Y-100608645D01*
X113290834Y-100428894D01*
X113378829Y-100229604D01*
X113378835Y-100229588D01*
X113428714Y-100017513D01*
X113435000Y-99926955D01*
X113435000Y-97360000D01*
X110370000Y-97360000D01*
X110370000Y-101030000D01*
X109870000Y-101030000D01*
X109870000Y-97234000D01*
X109889685Y-97166961D01*
X109942489Y-97121206D01*
X109994000Y-97110000D01*
X110120000Y-97110000D01*
X110120000Y-96984000D01*
X110139685Y-96916961D01*
X110192489Y-96871206D01*
X110244000Y-96860000D01*
X113435000Y-96860000D01*
X113435000Y-94293044D01*
X113428714Y-94202486D01*
X113378835Y-93990411D01*
X113378829Y-93990395D01*
X113307575Y-93829019D01*
X113304224Y-93803435D01*
X113297009Y-93778655D01*
X113299762Y-93769356D01*
X113298503Y-93759741D01*
X113309517Y-93736405D01*
X113316844Y-93711660D01*
X113325662Y-93702200D01*
X113328327Y-93696556D01*
X113340017Y-93685038D01*
X113343017Y-93682449D01*
X113343037Y-93682437D01*
X113343904Y-93681685D01*
X113343993Y-93681645D01*
X113357862Y-93671262D01*
X113358549Y-93670821D01*
X113378516Y-93653519D01*
X113378515Y-93653518D01*
X113404482Y-93631018D01*
X113411323Y-93625091D01*
X113411347Y-93625070D01*
X113413344Y-93622765D01*
X113414794Y-93621205D01*
X113415609Y-93620720D01*
X113424420Y-93611908D01*
X113443853Y-93595067D01*
X113451768Y-93588208D01*
X113476097Y-93550345D01*
X113505569Y-93516333D01*
X113524281Y-93475356D01*
X113529072Y-93467901D01*
X113529074Y-93467898D01*
X113529081Y-93467887D01*
X113529547Y-93467162D01*
X113533308Y-93458925D01*
X113533567Y-93458358D01*
X113533571Y-93458349D01*
X113547575Y-93427683D01*
X113547576Y-93427684D01*
X113558555Y-93403644D01*
X113558568Y-93403616D01*
X113560027Y-93398644D01*
X113561526Y-93394603D01*
X113562203Y-93393694D01*
X113564996Y-93386204D01*
X113565339Y-93385454D01*
X113572783Y-93360102D01*
X113572782Y-93360101D01*
X113582460Y-93327145D01*
X113585011Y-93318460D01*
X113585012Y-93318456D01*
X113585014Y-93318456D01*
X113585019Y-93318430D01*
X113585024Y-93318416D01*
X113585146Y-93317564D01*
X113588908Y-93300265D01*
X113599096Y-93265562D01*
X113599095Y-93249500D01*
X113599093Y-93229425D01*
X113600356Y-93211773D01*
X113605499Y-93176005D01*
X113605500Y-93176000D01*
X113605500Y-92780387D01*
X113625185Y-92713348D01*
X113677989Y-92667593D01*
X113747147Y-92657649D01*
X113776950Y-92665825D01*
X113795672Y-92673580D01*
X113795676Y-92673580D01*
X113795677Y-92673581D01*
X113931004Y-92700500D01*
X113931007Y-92700500D01*
X114068995Y-92700500D01*
X114068996Y-92700499D01*
X114204328Y-92673580D01*
X114218771Y-92667596D01*
X114223889Y-92665609D01*
X114658789Y-92507926D01*
X114701056Y-92500500D01*
X122641324Y-92500500D01*
X122708363Y-92520185D01*
X122729005Y-92536819D01*
X125073765Y-94881579D01*
X125313181Y-95120994D01*
X125346666Y-95182317D01*
X125349500Y-95208675D01*
X125349500Y-95218993D01*
X125349500Y-95218995D01*
X125349499Y-95218995D01*
X125376418Y-95354322D01*
X125376421Y-95354332D01*
X125429221Y-95481804D01*
X125429228Y-95481817D01*
X125505885Y-95596541D01*
X125505888Y-95596545D01*
X125603454Y-95694111D01*
X125603458Y-95694114D01*
X125718182Y-95770771D01*
X125718195Y-95770778D01*
X125845667Y-95823578D01*
X125845672Y-95823580D01*
X125845676Y-95823580D01*
X125845677Y-95823581D01*
X125981004Y-95850500D01*
X125981007Y-95850500D01*
X126118995Y-95850500D01*
X126210041Y-95832389D01*
X126254328Y-95823580D01*
X126381811Y-95770775D01*
X126496542Y-95694114D01*
X126594114Y-95596542D01*
X126670775Y-95481811D01*
X126723580Y-95354328D01*
X126742227Y-95260586D01*
X126750500Y-95218995D01*
X126750500Y-95081004D01*
X126723581Y-94945677D01*
X126723580Y-94945676D01*
X126723580Y-94945672D01*
X126697032Y-94881579D01*
X126670778Y-94818195D01*
X126670771Y-94818182D01*
X126594114Y-94703458D01*
X126594111Y-94703454D01*
X126496545Y-94605888D01*
X126496541Y-94605885D01*
X126381817Y-94529228D01*
X126381804Y-94529221D01*
X126254332Y-94476421D01*
X126254320Y-94476418D01*
X126206712Y-94466948D01*
X126206698Y-94466945D01*
X126118993Y-94449500D01*
X126098720Y-94449500D01*
X126088898Y-94447913D01*
X126065989Y-94436965D01*
X126041637Y-94429815D01*
X126027956Y-94418790D01*
X126025856Y-94417787D01*
X126025007Y-94416414D01*
X126020995Y-94413181D01*
X125942403Y-94334589D01*
X125908918Y-94273266D01*
X125913902Y-94203574D01*
X125955774Y-94147641D01*
X126021238Y-94123224D01*
X126054272Y-94125290D01*
X126109058Y-94136188D01*
X126181004Y-94150500D01*
X126181007Y-94150500D01*
X126318995Y-94150500D01*
X126445726Y-94125291D01*
X126454328Y-94123580D01*
X126552924Y-94082740D01*
X126581804Y-94070778D01*
X126581804Y-94070777D01*
X126581811Y-94070775D01*
X126696542Y-93994114D01*
X126794114Y-93896542D01*
X126870775Y-93781811D01*
X126875464Y-93770492D01*
X126906008Y-93696751D01*
X126923580Y-93654328D01*
X126944264Y-93550345D01*
X126950500Y-93518995D01*
X126950500Y-93381004D01*
X126923581Y-93245677D01*
X126923580Y-93245676D01*
X126923580Y-93245672D01*
X126885554Y-93153869D01*
X126870778Y-93118195D01*
X126870771Y-93118182D01*
X126802581Y-93016129D01*
X126794114Y-93003458D01*
X126794111Y-93003454D01*
X126742767Y-92952110D01*
X128975000Y-92952110D01*
X128975000Y-93207889D01*
X129015013Y-93460523D01*
X129094051Y-93703781D01*
X129094052Y-93703784D01*
X129210175Y-93931686D01*
X129287850Y-94038595D01*
X129287850Y-94038596D01*
X129922421Y-93404024D01*
X129935359Y-93435258D01*
X130017437Y-93558097D01*
X130121903Y-93662563D01*
X130244742Y-93744641D01*
X130275974Y-93757577D01*
X129641402Y-94392148D01*
X129748313Y-94469824D01*
X129976215Y-94585947D01*
X129976218Y-94585948D01*
X130219476Y-94664986D01*
X130472111Y-94705000D01*
X130727889Y-94705000D01*
X130980523Y-94664986D01*
X131223781Y-94585948D01*
X131223784Y-94585947D01*
X131451685Y-94469825D01*
X131558595Y-94392148D01*
X131558596Y-94392148D01*
X130924025Y-93757578D01*
X130955258Y-93744641D01*
X131078097Y-93662563D01*
X131182563Y-93558097D01*
X131264641Y-93435258D01*
X131277578Y-93404025D01*
X131912148Y-94038596D01*
X131912148Y-94038595D01*
X131989825Y-93931685D01*
X132105947Y-93703784D01*
X132105948Y-93703781D01*
X132184986Y-93460523D01*
X132225000Y-93207889D01*
X132225000Y-92952110D01*
X132184986Y-92699476D01*
X132105948Y-92456218D01*
X132105947Y-92456215D01*
X131989824Y-92228313D01*
X131912148Y-92121403D01*
X131912148Y-92121402D01*
X131277577Y-92755973D01*
X131264641Y-92724742D01*
X131182563Y-92601903D01*
X131078097Y-92497437D01*
X130955258Y-92415359D01*
X130924024Y-92402421D01*
X131558596Y-91767850D01*
X131451686Y-91690175D01*
X131223784Y-91574052D01*
X131223781Y-91574051D01*
X130980523Y-91495013D01*
X130727889Y-91455000D01*
X130472111Y-91455000D01*
X130219476Y-91495013D01*
X129976218Y-91574051D01*
X129976215Y-91574052D01*
X129748310Y-91690177D01*
X129641403Y-91767849D01*
X129641402Y-91767850D01*
X130275974Y-92402421D01*
X130244742Y-92415359D01*
X130121903Y-92497437D01*
X130017437Y-92601903D01*
X129935359Y-92724742D01*
X129922421Y-92755974D01*
X129287850Y-92121402D01*
X129287849Y-92121403D01*
X129210177Y-92228310D01*
X129094052Y-92456215D01*
X129094051Y-92456218D01*
X129015013Y-92699476D01*
X128975000Y-92952110D01*
X126742767Y-92952110D01*
X126696545Y-92905888D01*
X126696541Y-92905885D01*
X126581817Y-92829228D01*
X126581804Y-92829221D01*
X126454332Y-92776421D01*
X126454322Y-92776418D01*
X126318995Y-92749500D01*
X126318993Y-92749500D01*
X126308675Y-92749500D01*
X126241636Y-92729815D01*
X126220994Y-92713181D01*
X125410604Y-91902791D01*
X125011282Y-91503469D01*
X123927755Y-90419941D01*
X135394500Y-90419941D01*
X135394500Y-90660059D01*
X135422345Y-90835863D01*
X135432063Y-90897222D01*
X135506265Y-91125593D01*
X135602109Y-91313695D01*
X135615276Y-91339536D01*
X135756414Y-91533796D01*
X135926204Y-91703586D01*
X136120464Y-91844724D01*
X136205129Y-91887863D01*
X136334406Y-91953734D01*
X136334408Y-91953734D01*
X136334411Y-91953736D01*
X136562778Y-92027937D01*
X136799941Y-92065500D01*
X136799942Y-92065500D01*
X137040058Y-92065500D01*
X137040059Y-92065500D01*
X137277222Y-92027937D01*
X137505589Y-91953736D01*
X137719536Y-91844724D01*
X137913796Y-91703586D01*
X138083586Y-91533796D01*
X138224724Y-91339536D01*
X138333736Y-91125589D01*
X138407937Y-90897222D01*
X138445500Y-90660059D01*
X138445500Y-90419941D01*
X138407937Y-90182778D01*
X138333736Y-89954411D01*
X138333734Y-89954408D01*
X138333734Y-89954406D01*
X138224723Y-89740463D01*
X138220103Y-89734104D01*
X138083586Y-89546204D01*
X137913796Y-89376414D01*
X137853693Y-89332747D01*
X137815470Y-89304976D01*
X137772804Y-89249646D01*
X137766825Y-89180033D01*
X137799431Y-89118238D01*
X137860269Y-89083881D01*
X137907753Y-89082185D01*
X138023389Y-89100500D01*
X138023390Y-89100500D01*
X138196610Y-89100500D01*
X138196611Y-89100500D01*
X138367701Y-89073402D01*
X138532445Y-89019873D01*
X138686788Y-88941232D01*
X138826928Y-88839414D01*
X138949414Y-88716928D01*
X139051232Y-88576788D01*
X139129873Y-88422445D01*
X139183402Y-88257701D01*
X139210500Y-88086611D01*
X139210500Y-87913389D01*
X139183402Y-87742299D01*
X139129873Y-87577555D01*
X139051232Y-87423212D01*
X138949414Y-87283072D01*
X138826928Y-87160586D01*
X138686788Y-87058768D01*
X138532445Y-86980127D01*
X138367701Y-86926598D01*
X138367699Y-86926597D01*
X138367698Y-86926597D01*
X138236271Y-86905781D01*
X138196611Y-86899500D01*
X138023389Y-86899500D01*
X137983728Y-86905781D01*
X137852302Y-86926597D01*
X137687552Y-86980128D01*
X137533211Y-87058768D01*
X137453256Y-87116859D01*
X137393072Y-87160586D01*
X137393070Y-87160588D01*
X137393069Y-87160588D01*
X137270588Y-87283069D01*
X137270588Y-87283070D01*
X137270586Y-87283072D01*
X137257924Y-87300500D01*
X137168768Y-87423211D01*
X137090128Y-87577552D01*
X137036597Y-87742302D01*
X137009500Y-87913389D01*
X137009500Y-88086610D01*
X137033948Y-88240973D01*
X137036598Y-88257701D01*
X137090127Y-88422445D01*
X137168768Y-88576788D01*
X137270586Y-88716928D01*
X137270588Y-88716930D01*
X137396517Y-88842859D01*
X137395514Y-88843861D01*
X137430228Y-88897026D01*
X137430732Y-88966894D01*
X137393384Y-89025944D01*
X137330039Y-89055427D01*
X137282370Y-89051528D01*
X137281969Y-89053202D01*
X137277223Y-89052063D01*
X137112313Y-89025944D01*
X137040059Y-89014500D01*
X136799941Y-89014500D01*
X136727687Y-89025944D01*
X136562777Y-89052063D01*
X136334406Y-89126265D01*
X136120463Y-89235276D01*
X135926201Y-89376416D01*
X135756416Y-89546201D01*
X135615276Y-89740463D01*
X135506265Y-89954406D01*
X135432063Y-90182777D01*
X135432063Y-90182778D01*
X135394500Y-90419941D01*
X123927755Y-90419941D01*
X123807314Y-90299500D01*
X123750250Y-90266554D01*
X123693187Y-90233608D01*
X123629539Y-90216554D01*
X123565892Y-90199500D01*
X123565891Y-90199500D01*
X114701056Y-90199500D01*
X114658789Y-90192074D01*
X114225170Y-90034853D01*
X114225135Y-90034841D01*
X114221312Y-90033455D01*
X114204328Y-90026420D01*
X114195435Y-90024651D01*
X114187820Y-90022203D01*
X114187734Y-90022174D01*
X114181110Y-90020045D01*
X114179445Y-90019577D01*
X114179441Y-90019576D01*
X114179437Y-90019575D01*
X114118564Y-90007386D01*
X114118560Y-90007386D01*
X114118555Y-90007385D01*
X114111331Y-90006800D01*
X114111387Y-90006107D01*
X114095972Y-90004865D01*
X114068997Y-89999500D01*
X114068993Y-89999500D01*
X113931007Y-89999500D01*
X113931005Y-89999500D01*
X113795677Y-90026418D01*
X113795663Y-90026422D01*
X113776949Y-90034174D01*
X113707480Y-90041641D01*
X113645001Y-90010364D01*
X113609351Y-89950274D01*
X113605500Y-89919612D01*
X113605500Y-89324010D01*
X113605500Y-89324000D01*
X113593947Y-89216544D01*
X113582741Y-89165033D01*
X113569838Y-89126265D01*
X113548616Y-89062502D01*
X113548613Y-89062496D01*
X113525122Y-89025944D01*
X113470825Y-88941457D01*
X113460082Y-88929059D01*
X113425076Y-88888659D01*
X113425072Y-88888656D01*
X113425070Y-88888653D01*
X113316336Y-88794433D01*
X113316333Y-88794431D01*
X113316331Y-88794430D01*
X113185465Y-88734664D01*
X113185460Y-88734662D01*
X113185459Y-88734662D01*
X113118420Y-88714977D01*
X113118419Y-88714976D01*
X113116002Y-88714267D01*
X113116221Y-88713520D01*
X113058652Y-88679735D01*
X113027077Y-88617407D01*
X113025000Y-88594805D01*
X113025000Y-88575000D01*
X112174000Y-88575000D01*
X112106961Y-88555315D01*
X112061206Y-88502511D01*
X112050000Y-88451000D01*
X112050000Y-88199000D01*
X112069685Y-88131961D01*
X112122489Y-88086206D01*
X112174000Y-88075000D01*
X113024999Y-88075000D01*
X113024999Y-88051692D01*
X113024998Y-88051677D01*
X113014855Y-87952390D01*
X113013635Y-87948706D01*
X113001135Y-87913389D01*
X127009500Y-87913389D01*
X127009500Y-88086610D01*
X127033948Y-88240973D01*
X127036598Y-88257701D01*
X127090127Y-88422445D01*
X127168768Y-88576788D01*
X127270586Y-88716928D01*
X127393072Y-88839414D01*
X127533212Y-88941232D01*
X127687555Y-89019873D01*
X127852299Y-89073402D01*
X128023389Y-89100500D01*
X128023390Y-89100500D01*
X128196610Y-89100500D01*
X128196611Y-89100500D01*
X128367701Y-89073402D01*
X128532445Y-89019873D01*
X128686788Y-88941232D01*
X128826928Y-88839414D01*
X128949414Y-88716928D01*
X129051232Y-88576788D01*
X129129873Y-88422445D01*
X129183402Y-88257701D01*
X129210500Y-88086611D01*
X129210500Y-87913389D01*
X129200919Y-87852900D01*
X130865600Y-87852900D01*
X130865600Y-88147099D01*
X130865601Y-88147116D01*
X130901848Y-88422445D01*
X130904002Y-88438800D01*
X130978526Y-88716928D01*
X130980152Y-88722994D01*
X131092734Y-88994794D01*
X131092742Y-88994810D01*
X131239840Y-89249589D01*
X131239851Y-89249605D01*
X131418948Y-89483009D01*
X131418954Y-89483016D01*
X131626983Y-89691045D01*
X131626990Y-89691051D01*
X131793205Y-89818592D01*
X131860403Y-89870155D01*
X131860410Y-89870159D01*
X132115189Y-90017257D01*
X132115205Y-90017265D01*
X132387005Y-90129847D01*
X132387007Y-90129847D01*
X132387013Y-90129850D01*
X132671200Y-90205998D01*
X132962894Y-90244400D01*
X132962901Y-90244400D01*
X133257099Y-90244400D01*
X133257106Y-90244400D01*
X133548800Y-90205998D01*
X133832987Y-90129850D01*
X133908205Y-90098694D01*
X134104794Y-90017265D01*
X134104797Y-90017263D01*
X134104803Y-90017261D01*
X134359597Y-89870155D01*
X134593011Y-89691050D01*
X134801050Y-89483011D01*
X134980155Y-89249597D01*
X135118018Y-89010811D01*
X135127257Y-88994810D01*
X135127265Y-88994794D01*
X135236313Y-88731526D01*
X135239850Y-88722987D01*
X135315998Y-88438800D01*
X135354400Y-88147106D01*
X135354400Y-87852894D01*
X135315998Y-87561200D01*
X135239850Y-87277013D01*
X135239847Y-87277005D01*
X135127265Y-87005205D01*
X135127257Y-87005189D01*
X134980159Y-86750410D01*
X134980155Y-86750403D01*
X134801050Y-86516989D01*
X134801045Y-86516983D01*
X134593016Y-86308954D01*
X134593009Y-86308948D01*
X134359605Y-86129851D01*
X134359603Y-86129849D01*
X134359597Y-86129845D01*
X134359592Y-86129842D01*
X134359589Y-86129840D01*
X134104810Y-85982742D01*
X134104794Y-85982734D01*
X133832994Y-85870152D01*
X133548796Y-85794001D01*
X133257116Y-85755601D01*
X133257111Y-85755600D01*
X133257106Y-85755600D01*
X132962894Y-85755600D01*
X132962888Y-85755600D01*
X132962883Y-85755601D01*
X132671203Y-85794001D01*
X132387005Y-85870152D01*
X132115205Y-85982734D01*
X132115189Y-85982742D01*
X131860410Y-86129840D01*
X131860394Y-86129851D01*
X131626990Y-86308948D01*
X131626983Y-86308954D01*
X131418954Y-86516983D01*
X131418948Y-86516990D01*
X131239851Y-86750394D01*
X131239840Y-86750410D01*
X131092742Y-87005189D01*
X131092734Y-87005205D01*
X130980152Y-87277005D01*
X130904001Y-87561203D01*
X130865601Y-87852883D01*
X130865600Y-87852900D01*
X129200919Y-87852900D01*
X129183402Y-87742299D01*
X129129873Y-87577555D01*
X129051232Y-87423212D01*
X128949414Y-87283072D01*
X128826928Y-87160586D01*
X128686788Y-87058768D01*
X128532445Y-86980127D01*
X128367701Y-86926598D01*
X128367699Y-86926597D01*
X128367698Y-86926597D01*
X128236271Y-86905781D01*
X128196611Y-86899500D01*
X128023389Y-86899500D01*
X127983728Y-86905781D01*
X127852302Y-86926597D01*
X127687552Y-86980128D01*
X127533211Y-87058768D01*
X127453256Y-87116859D01*
X127393072Y-87160586D01*
X127393070Y-87160588D01*
X127393069Y-87160588D01*
X127270588Y-87283069D01*
X127270588Y-87283070D01*
X127270586Y-87283072D01*
X127257924Y-87300500D01*
X127168768Y-87423211D01*
X127090128Y-87577552D01*
X127036597Y-87742302D01*
X127009500Y-87913389D01*
X113001135Y-87913389D01*
X112948811Y-87765554D01*
X112947597Y-87743343D01*
X112941726Y-87721886D01*
X112945728Y-87709133D01*
X112944999Y-87695788D01*
X112955987Y-87676445D01*
X112962648Y-87655223D01*
X112971983Y-87642990D01*
X113005567Y-87604233D01*
X113065338Y-87473356D01*
X113085023Y-87406317D01*
X113085024Y-87406313D01*
X113105500Y-87263897D01*
X113105500Y-85324000D01*
X113093947Y-85216544D01*
X113082741Y-85165033D01*
X113078283Y-85151638D01*
X113048616Y-85062502D01*
X113048613Y-85062496D01*
X113045230Y-85057232D01*
X112970825Y-84941457D01*
X112960179Y-84929171D01*
X112925076Y-84888659D01*
X112925072Y-84888656D01*
X112925070Y-84888653D01*
X112816336Y-84794433D01*
X112816333Y-84794431D01*
X112816331Y-84794430D01*
X112685465Y-84734664D01*
X112685460Y-84734662D01*
X112685459Y-84734662D01*
X112618420Y-84714977D01*
X112618422Y-84714977D01*
X112618417Y-84714976D01*
X112481353Y-84695269D01*
X112417797Y-84666244D01*
X112380023Y-84607465D01*
X112375000Y-84572531D01*
X112375000Y-83903552D01*
X112374999Y-83903551D01*
X111789456Y-84489094D01*
X111728133Y-84522579D01*
X111658441Y-84517595D01*
X111614094Y-84489094D01*
X111525000Y-84400000D01*
X111435905Y-84489095D01*
X111374582Y-84522579D01*
X111304890Y-84517595D01*
X111260543Y-84489094D01*
X110675000Y-83903551D01*
X110634598Y-83920286D01*
X110565129Y-83927755D01*
X110502650Y-83896479D01*
X110466998Y-83836390D01*
X110464672Y-83825120D01*
X110460789Y-83800603D01*
X110460646Y-83799696D01*
X110403050Y-83686658D01*
X110403046Y-83686654D01*
X110403045Y-83686652D01*
X110313347Y-83596954D01*
X110313344Y-83596952D01*
X110313342Y-83596950D01*
X110236517Y-83557805D01*
X110200301Y-83539352D01*
X110106524Y-83524500D01*
X109343482Y-83524500D01*
X109262519Y-83537323D01*
X109249696Y-83539354D01*
X109248515Y-83539956D01*
X109136657Y-83596950D01*
X109131752Y-83601856D01*
X109112315Y-83612467D01*
X109095585Y-83626965D01*
X109082251Y-83628882D01*
X109070427Y-83635338D01*
X109048343Y-83633757D01*
X109026427Y-83636909D01*
X109012929Y-83631223D01*
X109000736Y-83630351D01*
X108987715Y-83620603D01*
X108968587Y-83612546D01*
X108952842Y-83600464D01*
X108806762Y-83539956D01*
X108806760Y-83539955D01*
X108689361Y-83524500D01*
X108210643Y-83524500D01*
X108146340Y-83532965D01*
X108129442Y-83530329D01*
X108112516Y-83532764D01*
X108095637Y-83525056D01*
X108077305Y-83522197D01*
X108064191Y-83510696D01*
X108048959Y-83503741D01*
X108025845Y-83477068D01*
X108019047Y-83466491D01*
X108011766Y-83455162D01*
X107992080Y-83388126D01*
X108010388Y-83325765D01*
X110952784Y-83325765D01*
X110963200Y-83373644D01*
X110963200Y-83426359D01*
X110952785Y-83474234D01*
X111525000Y-84046448D01*
X111525001Y-84046448D01*
X112097213Y-83474234D01*
X112086798Y-83426357D01*
X112086798Y-83373640D01*
X112097213Y-83325764D01*
X111525001Y-82753552D01*
X111525000Y-82753552D01*
X110952784Y-83325765D01*
X108010388Y-83325765D01*
X108011762Y-83321085D01*
X108064564Y-83275329D01*
X108132265Y-83265182D01*
X108210639Y-83275500D01*
X108689360Y-83275499D01*
X108689363Y-83275499D01*
X108806753Y-83260046D01*
X108806757Y-83260044D01*
X108806762Y-83260044D01*
X108952841Y-83199536D01*
X108968587Y-83187452D01*
X108981832Y-83182332D01*
X108992563Y-83173034D01*
X109013767Y-83169985D01*
X109033753Y-83162258D01*
X109047664Y-83165111D01*
X109061721Y-83163090D01*
X109081210Y-83171990D01*
X109102199Y-83176295D01*
X109120880Y-83190107D01*
X109125277Y-83192115D01*
X109126798Y-83194482D01*
X109131755Y-83198147D01*
X109136658Y-83203050D01*
X109248511Y-83260042D01*
X109249698Y-83260647D01*
X109337116Y-83274491D01*
X109342401Y-83275329D01*
X109343475Y-83275499D01*
X109343481Y-83275500D01*
X110106518Y-83275499D01*
X110200304Y-83260646D01*
X110313342Y-83203050D01*
X110315009Y-83201383D01*
X110318113Y-83198280D01*
X110403045Y-83113347D01*
X110403050Y-83113342D01*
X110460646Y-83000304D01*
X110460646Y-83000302D01*
X110460647Y-83000301D01*
X110464674Y-82974876D01*
X110494603Y-82911742D01*
X110553914Y-82874810D01*
X110623777Y-82875808D01*
X110634600Y-82879713D01*
X110675001Y-82896447D01*
X111171448Y-82400000D01*
X111171448Y-82399999D01*
X111878552Y-82399999D01*
X111878552Y-82400000D01*
X112374999Y-82896448D01*
X112375000Y-82896447D01*
X112375000Y-82829139D01*
X128145500Y-82829139D01*
X128145500Y-83010860D01*
X128173928Y-83190347D01*
X128173928Y-83190350D01*
X128230081Y-83363171D01*
X128230083Y-83363174D01*
X128312583Y-83525090D01*
X128419397Y-83672106D01*
X128547894Y-83800603D01*
X128694910Y-83907417D01*
X128856826Y-83989917D01*
X128856828Y-83989918D01*
X129018029Y-84042294D01*
X129029654Y-84046072D01*
X129209139Y-84074500D01*
X129209140Y-84074500D01*
X129390860Y-84074500D01*
X129390861Y-84074500D01*
X129570346Y-84046072D01*
X129570349Y-84046071D01*
X129570350Y-84046071D01*
X129743171Y-83989918D01*
X129743171Y-83989917D01*
X129743174Y-83989917D01*
X129905090Y-83907417D01*
X130052106Y-83800603D01*
X130180603Y-83672106D01*
X130287417Y-83525090D01*
X130369917Y-83363174D01*
X130382343Y-83324930D01*
X130426071Y-83190350D01*
X130426071Y-83190349D01*
X130426072Y-83190346D01*
X130454500Y-83010861D01*
X130454500Y-82829139D01*
X135765500Y-82829139D01*
X135765500Y-83010860D01*
X135793928Y-83190347D01*
X135793928Y-83190350D01*
X135850081Y-83363171D01*
X135850083Y-83363174D01*
X135932583Y-83525090D01*
X136039397Y-83672106D01*
X136167894Y-83800603D01*
X136314910Y-83907417D01*
X136476826Y-83989917D01*
X136476828Y-83989918D01*
X136638029Y-84042294D01*
X136649654Y-84046072D01*
X136829139Y-84074500D01*
X136829140Y-84074500D01*
X137010860Y-84074500D01*
X137010861Y-84074500D01*
X137190346Y-84046072D01*
X137190349Y-84046071D01*
X137190350Y-84046071D01*
X137363171Y-83989918D01*
X137363171Y-83989917D01*
X137363174Y-83989917D01*
X137525090Y-83907417D01*
X137672106Y-83800603D01*
X137800603Y-83672106D01*
X137907417Y-83525090D01*
X137989917Y-83363174D01*
X138002343Y-83324930D01*
X138046071Y-83190350D01*
X138046071Y-83190349D01*
X138046072Y-83190346D01*
X138074500Y-83010861D01*
X138074500Y-82829139D01*
X138046072Y-82649654D01*
X138046071Y-82649650D01*
X138046071Y-82649649D01*
X137989918Y-82476828D01*
X137989916Y-82476825D01*
X137980685Y-82458707D01*
X137907417Y-82314910D01*
X137800603Y-82167894D01*
X137672106Y-82039397D01*
X137525090Y-81932583D01*
X137363174Y-81850083D01*
X137363171Y-81850081D01*
X137190348Y-81793928D01*
X137070689Y-81774976D01*
X137010861Y-81765500D01*
X136829139Y-81765500D01*
X136769310Y-81774976D01*
X136649652Y-81793928D01*
X136649649Y-81793928D01*
X136476828Y-81850081D01*
X136476825Y-81850083D01*
X136314909Y-81932583D01*
X136231030Y-81993525D01*
X136167894Y-82039397D01*
X136167892Y-82039399D01*
X136167891Y-82039399D01*
X136039399Y-82167891D01*
X136039399Y-82167892D01*
X136039397Y-82167894D01*
X136010933Y-82207071D01*
X135932583Y-82314909D01*
X135850083Y-82476825D01*
X135850081Y-82476828D01*
X135793928Y-82649649D01*
X135793928Y-82649652D01*
X135765500Y-82829139D01*
X130454500Y-82829139D01*
X130426072Y-82649654D01*
X130426071Y-82649650D01*
X130426071Y-82649649D01*
X130369918Y-82476828D01*
X130369916Y-82476825D01*
X130360685Y-82458707D01*
X130287417Y-82314910D01*
X130180603Y-82167894D01*
X130052106Y-82039397D01*
X129905090Y-81932583D01*
X129743174Y-81850083D01*
X129743171Y-81850081D01*
X129570348Y-81793928D01*
X129450689Y-81774976D01*
X129390861Y-81765500D01*
X129209139Y-81765500D01*
X129149310Y-81774976D01*
X129029652Y-81793928D01*
X129029649Y-81793928D01*
X128856828Y-81850081D01*
X128856825Y-81850083D01*
X128694909Y-81932583D01*
X128611030Y-81993525D01*
X128547894Y-82039397D01*
X128547892Y-82039399D01*
X128547891Y-82039399D01*
X128419399Y-82167891D01*
X128419399Y-82167892D01*
X128419397Y-82167894D01*
X128390933Y-82207071D01*
X128312583Y-82314909D01*
X128230083Y-82476825D01*
X128230081Y-82476828D01*
X128173928Y-82649649D01*
X128173928Y-82649652D01*
X128145500Y-82829139D01*
X112375000Y-82829139D01*
X112375000Y-81903552D01*
X112374999Y-81903551D01*
X111878552Y-82399999D01*
X111171448Y-82399999D01*
X110675000Y-81903551D01*
X110634598Y-81920286D01*
X110565129Y-81927755D01*
X110502650Y-81896479D01*
X110466998Y-81836390D01*
X110464672Y-81825120D01*
X110460646Y-81799697D01*
X110460646Y-81799696D01*
X110403050Y-81686658D01*
X110403046Y-81686654D01*
X110403045Y-81686652D01*
X110313347Y-81596954D01*
X110313344Y-81596952D01*
X110313342Y-81596950D01*
X110236517Y-81557805D01*
X110200301Y-81539352D01*
X110106524Y-81524500D01*
X109343482Y-81524500D01*
X109262519Y-81537323D01*
X109249696Y-81539354D01*
X109228771Y-81550016D01*
X109136657Y-81596950D01*
X109131752Y-81601856D01*
X109070427Y-81635338D01*
X109000736Y-81630351D01*
X108968587Y-81612546D01*
X108952842Y-81600464D01*
X108806762Y-81539956D01*
X108806760Y-81539955D01*
X108689361Y-81524500D01*
X108210636Y-81524500D01*
X108093246Y-81539953D01*
X108093237Y-81539956D01*
X107947160Y-81600463D01*
X107821715Y-81696720D01*
X107734146Y-81810842D01*
X107726545Y-81816391D01*
X107721890Y-81824571D01*
X107698782Y-81836663D01*
X107677718Y-81852045D01*
X107668322Y-81852604D01*
X107659985Y-81856968D01*
X107634009Y-81854648D01*
X107607972Y-81856199D01*
X107599765Y-81851590D01*
X107590392Y-81850753D01*
X107569794Y-81834758D01*
X107547052Y-81821986D01*
X107541172Y-81812532D01*
X107535207Y-81807900D01*
X107518842Y-81776629D01*
X107490634Y-81696718D01*
X107460253Y-81610649D01*
X107455058Y-81547897D01*
X107468016Y-81474234D01*
X110952786Y-81474234D01*
X111525000Y-82046448D01*
X111525001Y-82046448D01*
X112097213Y-81474234D01*
X111982376Y-81431401D01*
X111922844Y-81425000D01*
X111127155Y-81425000D01*
X111067627Y-81431401D01*
X111067623Y-81431402D01*
X110952786Y-81474234D01*
X107468016Y-81474234D01*
X107491627Y-81340011D01*
X107495384Y-81313585D01*
X107495384Y-81313582D01*
X107495657Y-81307693D01*
X107495832Y-81307701D01*
X107497625Y-81283444D01*
X107500500Y-81268994D01*
X107500500Y-81131004D01*
X107473581Y-80995677D01*
X107473580Y-80995676D01*
X107473580Y-80995672D01*
X107463286Y-80970820D01*
X107420778Y-80868195D01*
X107420771Y-80868182D01*
X107344114Y-80753458D01*
X107344111Y-80753454D01*
X107246545Y-80655888D01*
X107246541Y-80655885D01*
X107131817Y-80579228D01*
X107131804Y-80579221D01*
X107004332Y-80526421D01*
X107004322Y-80526418D01*
X106868995Y-80499500D01*
X106868993Y-80499500D01*
X106731007Y-80499500D01*
X106731005Y-80499500D01*
X106595677Y-80526418D01*
X106595667Y-80526421D01*
X106468195Y-80579221D01*
X106468182Y-80579228D01*
X106353458Y-80655885D01*
X106353454Y-80655888D01*
X106255888Y-80753454D01*
X106255885Y-80753458D01*
X106179228Y-80868182D01*
X106179221Y-80868195D01*
X106126421Y-80995667D01*
X106126418Y-80995677D01*
X106099500Y-81131004D01*
X106099500Y-81268994D01*
X106105704Y-81300183D01*
X106106566Y-81305014D01*
X106107921Y-81313585D01*
X106108372Y-81340012D01*
X106145121Y-81548924D01*
X106145294Y-81550016D01*
X106143826Y-81561347D01*
X106139744Y-81610651D01*
X106035425Y-81906181D01*
X106035415Y-81906214D01*
X106029803Y-81928796D01*
X106024029Y-81946332D01*
X106014956Y-81968238D01*
X106014955Y-81968240D01*
X105999500Y-82085638D01*
X105999500Y-82714363D01*
X106014953Y-82831753D01*
X106014957Y-82831765D01*
X106073478Y-82973048D01*
X106080947Y-83042517D01*
X106049672Y-83104996D01*
X105989583Y-83140648D01*
X105958917Y-83144500D01*
X105124000Y-83144500D01*
X105123991Y-83144500D01*
X105123990Y-83144501D01*
X105016549Y-83156052D01*
X105016537Y-83156054D01*
X104965027Y-83167260D01*
X104862502Y-83201383D01*
X104862496Y-83201386D01*
X104741462Y-83279171D01*
X104741451Y-83279179D01*
X104688659Y-83324923D01*
X104594433Y-83433664D01*
X104594430Y-83433668D01*
X104534664Y-83564534D01*
X104514976Y-83631582D01*
X104494500Y-83774001D01*
X104494500Y-84707793D01*
X104512157Y-84840228D01*
X104526872Y-84894430D01*
X104529182Y-84902937D01*
X104580925Y-85026127D01*
X104580926Y-85026129D01*
X104580927Y-85026130D01*
X104605719Y-85057232D01*
X104632113Y-85121924D01*
X104619342Y-85190617D01*
X104614295Y-85199618D01*
X104588456Y-85241511D01*
X104588452Y-85241518D01*
X104535144Y-85402393D01*
X104525000Y-85501677D01*
X104525000Y-85525000D01*
X105376000Y-85525000D01*
X105443039Y-85544685D01*
X105488794Y-85597489D01*
X105500000Y-85649000D01*
X105500000Y-85901000D01*
X105480315Y-85968039D01*
X105427511Y-86013794D01*
X105376000Y-86025000D01*
X104525001Y-86025000D01*
X104525001Y-86048322D01*
X104535144Y-86147607D01*
X104588452Y-86308481D01*
X104588455Y-86308488D01*
X104612825Y-86347996D01*
X104631266Y-86415388D01*
X104610344Y-86482052D01*
X104601002Y-86494295D01*
X104594434Y-86501874D01*
X104594432Y-86501877D01*
X104534663Y-86632749D01*
X104514976Y-86699794D01*
X104494500Y-86842213D01*
X104494500Y-87375990D01*
X104494501Y-87376011D01*
X104495593Y-87386173D01*
X104483183Y-87454931D01*
X104435570Y-87506066D01*
X104367869Y-87523341D01*
X104309183Y-87506152D01*
X104250390Y-87471382D01*
X104250385Y-87471380D01*
X104098633Y-87427292D01*
X104098620Y-87427290D01*
X104063170Y-87424500D01*
X103529500Y-87424500D01*
X103462461Y-87404815D01*
X103416706Y-87352011D01*
X103405500Y-87300500D01*
X103405500Y-81229500D01*
X103425185Y-81162461D01*
X103477989Y-81116706D01*
X103529500Y-81105500D01*
X104675990Y-81105500D01*
X104676000Y-81105500D01*
X104783456Y-81093947D01*
X104834967Y-81082741D01*
X104869197Y-81071347D01*
X104937497Y-81048616D01*
X104937501Y-81048613D01*
X104937504Y-81048613D01*
X105058543Y-80970825D01*
X105111347Y-80925070D01*
X105205567Y-80816336D01*
X105265338Y-80685459D01*
X105285023Y-80618420D01*
X105285024Y-80618416D01*
X105305500Y-80476000D01*
X105305500Y-77024000D01*
X105293947Y-76916544D01*
X105282741Y-76865033D01*
X105269084Y-76824000D01*
X105248616Y-76762502D01*
X105248613Y-76762496D01*
X105219081Y-76716544D01*
X105170825Y-76641457D01*
X105168015Y-76638214D01*
X105125076Y-76588659D01*
X105125072Y-76588656D01*
X105125070Y-76588653D01*
X105016336Y-76494433D01*
X105016333Y-76494431D01*
X105016331Y-76494430D01*
X104885465Y-76434664D01*
X104885460Y-76434662D01*
X104885459Y-76434662D01*
X104818420Y-76414977D01*
X104818422Y-76414977D01*
X104818417Y-76414976D01*
X104741379Y-76403900D01*
X104676000Y-76394500D01*
X101124000Y-76394500D01*
X101123991Y-76394500D01*
X101123990Y-76394501D01*
X101016549Y-76406052D01*
X101016537Y-76406054D01*
X100965027Y-76417260D01*
X100862502Y-76451383D01*
X100862496Y-76451386D01*
X100741462Y-76529171D01*
X100741451Y-76529179D01*
X100688659Y-76574923D01*
X100594433Y-76683664D01*
X100594430Y-76683668D01*
X100534664Y-76814534D01*
X100514976Y-76881582D01*
X100509949Y-76916549D01*
X100494502Y-77023990D01*
X100494500Y-77024001D01*
X100494500Y-80720042D01*
X100474815Y-80787081D01*
X100422011Y-80832836D01*
X100352853Y-80842780D01*
X100289297Y-80813755D01*
X100270183Y-80792928D01*
X100227350Y-80733976D01*
X100215690Y-80717927D01*
X100082073Y-80584310D01*
X99929199Y-80473240D01*
X99760836Y-80387454D01*
X99581118Y-80329059D01*
X99394486Y-80299500D01*
X99394481Y-80299500D01*
X99205519Y-80299500D01*
X99205514Y-80299500D01*
X99018881Y-80329059D01*
X98839163Y-80387454D01*
X98670800Y-80473240D01*
X98605500Y-80520684D01*
X98517927Y-80584310D01*
X98517925Y-80584312D01*
X98517924Y-80584312D01*
X98517181Y-80585056D01*
X98516829Y-80585248D01*
X98514223Y-80587474D01*
X98513755Y-80586926D01*
X98455858Y-80618541D01*
X98386166Y-80613557D01*
X98330233Y-80571685D01*
X98305816Y-80506221D01*
X98305500Y-80497375D01*
X98305500Y-76824010D01*
X98305500Y-76824000D01*
X98293947Y-76716544D01*
X98282741Y-76665033D01*
X98273814Y-76638211D01*
X98248616Y-76562502D01*
X98248613Y-76562496D01*
X98170828Y-76441462D01*
X98170825Y-76441457D01*
X98164937Y-76434662D01*
X98125076Y-76388659D01*
X98125072Y-76388656D01*
X98125070Y-76388653D01*
X98016336Y-76294433D01*
X98016333Y-76294431D01*
X98016331Y-76294430D01*
X97885465Y-76234664D01*
X97885460Y-76234662D01*
X97885459Y-76234662D01*
X97818420Y-76214977D01*
X97818422Y-76214977D01*
X97818417Y-76214976D01*
X97756347Y-76206052D01*
X97676000Y-76194500D01*
X90324000Y-76194500D01*
X90323991Y-76194500D01*
X90323990Y-76194501D01*
X90216549Y-76206052D01*
X90216537Y-76206054D01*
X90165027Y-76217260D01*
X90062502Y-76251383D01*
X90062496Y-76251386D01*
X89941462Y-76329171D01*
X89941451Y-76329179D01*
X89888659Y-76374923D01*
X89794433Y-76483664D01*
X89794430Y-76483668D01*
X89734664Y-76614534D01*
X89714976Y-76681582D01*
X89709949Y-76716549D01*
X89694500Y-76824000D01*
X89694500Y-79676000D01*
X89694501Y-79676009D01*
X89706052Y-79783450D01*
X89706054Y-79783462D01*
X89717260Y-79834972D01*
X89751383Y-79937497D01*
X89751386Y-79937503D01*
X89829171Y-80058537D01*
X89829179Y-80058548D01*
X89874923Y-80111340D01*
X89874926Y-80111343D01*
X89874930Y-80111347D01*
X89983664Y-80205567D01*
X90114541Y-80265338D01*
X90181580Y-80285023D01*
X90181584Y-80285024D01*
X90324000Y-80305500D01*
X93520043Y-80305500D01*
X93587082Y-80325185D01*
X93632837Y-80377989D01*
X93642781Y-80447147D01*
X93613756Y-80510703D01*
X93592931Y-80529816D01*
X93517927Y-80584310D01*
X93517925Y-80584312D01*
X93517924Y-80584312D01*
X93384312Y-80717924D01*
X93384312Y-80717925D01*
X93384310Y-80717927D01*
X93358498Y-80753454D01*
X93273240Y-80870800D01*
X93187454Y-81039163D01*
X93129059Y-81218881D01*
X93099500Y-81405513D01*
X93099500Y-81594486D01*
X93129059Y-81781118D01*
X93187454Y-81960836D01*
X93273240Y-82129199D01*
X93384310Y-82282073D01*
X93517927Y-82415690D01*
X93670801Y-82526760D01*
X93730649Y-82557254D01*
X93839163Y-82612545D01*
X93839165Y-82612545D01*
X93839168Y-82612547D01*
X93876162Y-82624567D01*
X94018881Y-82670940D01*
X94205514Y-82700500D01*
X94205519Y-82700500D01*
X94394486Y-82700500D01*
X94581118Y-82670940D01*
X94760832Y-82612547D01*
X94814205Y-82585351D01*
X94882874Y-82572456D01*
X94947614Y-82598732D01*
X94987872Y-82655838D01*
X94994500Y-82695837D01*
X94994500Y-83000002D01*
X94999644Y-83071940D01*
X95029329Y-83173034D01*
X95040181Y-83209992D01*
X95074816Y-83263884D01*
X95094500Y-83330920D01*
X95094500Y-85009959D01*
X95094511Y-85012939D01*
X95094523Y-85014608D01*
X95094524Y-85014713D01*
X95102936Y-85069045D01*
X95093740Y-85138307D01*
X95048558Y-85191602D01*
X94981735Y-85212009D01*
X94932944Y-85202577D01*
X94781765Y-85139957D01*
X94781760Y-85139955D01*
X94664361Y-85124500D01*
X94185636Y-85124500D01*
X94068241Y-85139954D01*
X94068238Y-85139955D01*
X94058061Y-85144171D01*
X93988591Y-85151638D01*
X93926113Y-85120362D01*
X93906296Y-85096650D01*
X93870825Y-85041457D01*
X93857544Y-85026130D01*
X93825076Y-84988659D01*
X93825072Y-84988656D01*
X93825070Y-84988653D01*
X93716336Y-84894433D01*
X93716333Y-84894431D01*
X93716331Y-84894430D01*
X93585465Y-84834664D01*
X93585460Y-84834662D01*
X93585459Y-84834662D01*
X93518420Y-84814977D01*
X93518422Y-84814977D01*
X93518417Y-84814976D01*
X93456347Y-84806052D01*
X93376000Y-84794500D01*
X89000000Y-84794500D01*
X86624000Y-84794500D01*
X86623991Y-84794500D01*
X86623990Y-84794501D01*
X86516549Y-84806052D01*
X86516537Y-84806054D01*
X86465027Y-84817260D01*
X86362502Y-84851383D01*
X86362496Y-84851386D01*
X86241462Y-84929171D01*
X86241451Y-84929179D01*
X86188659Y-84974923D01*
X86094433Y-85083664D01*
X86094430Y-85083668D01*
X86034664Y-85214534D01*
X86014976Y-85281582D01*
X86003662Y-85360277D01*
X85994500Y-85424000D01*
X85994500Y-87900500D01*
X85994501Y-87900509D01*
X86006052Y-88007950D01*
X86006054Y-88007962D01*
X86017260Y-88059472D01*
X86051383Y-88161997D01*
X86051387Y-88162004D01*
X86059054Y-88173934D01*
X86063607Y-88189439D01*
X86072713Y-88202788D01*
X86073248Y-88222270D01*
X86078740Y-88240973D01*
X86074208Y-88257229D01*
X86074631Y-88272631D01*
X86060856Y-88305126D01*
X86044140Y-88332777D01*
X85992612Y-88379964D01*
X85923752Y-88391802D01*
X85859424Y-88364532D01*
X85839650Y-88344114D01*
X85805446Y-88299538D01*
X85803283Y-88296719D01*
X85771891Y-88272631D01*
X85677841Y-88200464D01*
X85651224Y-88189439D01*
X85531762Y-88139956D01*
X85531760Y-88139955D01*
X85414361Y-88124500D01*
X84935636Y-88124500D01*
X84818246Y-88139953D01*
X84818234Y-88139957D01*
X84671952Y-88200549D01*
X84602483Y-88208018D01*
X84540004Y-88176743D01*
X84504352Y-88116654D01*
X84500500Y-88085988D01*
X84500500Y-76258676D01*
X84520185Y-76191637D01*
X84536819Y-76170995D01*
X85170995Y-75536819D01*
X85232318Y-75503334D01*
X85258676Y-75500500D01*
X85583134Y-75500500D01*
X85650173Y-75520185D01*
G37*
%TD.AperFunction*%
%TA.AperFunction,Conductor*%
G36*
X104700704Y-98336290D02*
G01*
X104740301Y-98350146D01*
X104740309Y-98350146D01*
X104740310Y-98350147D01*
X104770730Y-98353000D01*
X104770734Y-98353000D01*
X104851500Y-98353000D01*
X104918539Y-98372685D01*
X104964294Y-98425489D01*
X104975500Y-98477000D01*
X104975500Y-99495049D01*
X104955815Y-99562088D01*
X104939181Y-99582730D01*
X102774559Y-101747351D01*
X102727834Y-101776711D01*
X102662118Y-101799706D01*
X102552850Y-101880350D01*
X102472207Y-101989617D01*
X102472206Y-101989619D01*
X102427353Y-102117798D01*
X102427353Y-102117800D01*
X102424500Y-102148230D01*
X102424500Y-103716769D01*
X102427353Y-103747199D01*
X102427353Y-103747201D01*
X102462973Y-103848994D01*
X102472207Y-103875382D01*
X102490007Y-103899500D01*
X102491754Y-103901867D01*
X102515724Y-103967496D01*
X102500408Y-104035666D01*
X102450668Y-104084734D01*
X102391983Y-104099500D01*
X99358675Y-104099500D01*
X99291636Y-104079815D01*
X99270994Y-104063181D01*
X98393452Y-103185639D01*
X97499629Y-102291815D01*
X97474992Y-102256677D01*
X97453086Y-102209851D01*
X97277814Y-101835183D01*
X97270775Y-101818189D01*
X97265695Y-101810586D01*
X97258654Y-101796892D01*
X97257968Y-101795672D01*
X97257806Y-101795383D01*
X97223632Y-101744145D01*
X97223630Y-101744142D01*
X97223627Y-101744139D01*
X97218946Y-101738635D01*
X97219396Y-101738252D01*
X97210534Y-101728003D01*
X97209959Y-101727172D01*
X97194114Y-101703458D01*
X97192337Y-101701681D01*
X97187728Y-101695014D01*
X97178300Y-101666496D01*
X97166560Y-101638852D01*
X97167447Y-101633668D01*
X97165797Y-101628675D01*
X97173285Y-101599582D01*
X97178354Y-101569984D01*
X97181901Y-101566104D01*
X97183213Y-101561011D01*
X97205239Y-101540586D01*
X97225507Y-101518426D01*
X97230703Y-101516975D01*
X97234447Y-101513504D01*
X97258517Y-101509211D01*
X97289727Y-101500500D01*
X98491890Y-101500500D01*
X98491892Y-101500500D01*
X98619186Y-101466392D01*
X98733314Y-101400500D01*
X98852232Y-101281582D01*
X100125001Y-101281582D01*
X100131408Y-101352102D01*
X100131409Y-101352107D01*
X100181981Y-101514396D01*
X100269927Y-101659877D01*
X100390122Y-101780072D01*
X100535604Y-101868019D01*
X100535603Y-101868019D01*
X100697894Y-101918590D01*
X100697892Y-101918590D01*
X100768418Y-101924999D01*
X101350000Y-101924999D01*
X101431581Y-101924999D01*
X101502102Y-101918591D01*
X101502107Y-101918590D01*
X101664396Y-101868018D01*
X101809877Y-101780072D01*
X101930072Y-101659877D01*
X102018019Y-101514395D01*
X102068590Y-101352106D01*
X102075000Y-101281572D01*
X102075000Y-101275000D01*
X101350000Y-101275000D01*
X101350000Y-101924999D01*
X100768418Y-101924999D01*
X100849999Y-101924998D01*
X100850000Y-101924998D01*
X100850000Y-101275000D01*
X100125001Y-101275000D01*
X100125001Y-101281582D01*
X98852232Y-101281582D01*
X99834187Y-100299625D01*
X99869319Y-100274993D01*
X100199117Y-100120710D01*
X100268179Y-100110135D01*
X100331998Y-100138576D01*
X100370310Y-100197005D01*
X100370950Y-100266872D01*
X100339340Y-100320710D01*
X100269926Y-100390124D01*
X100181980Y-100535604D01*
X100131409Y-100697893D01*
X100125000Y-100768427D01*
X100125000Y-100775000D01*
X102074999Y-100775000D01*
X102074999Y-100768417D01*
X102068591Y-100697897D01*
X102068590Y-100697892D01*
X102018018Y-100535603D01*
X101930072Y-100390122D01*
X101809877Y-100269927D01*
X101782802Y-100253560D01*
X101735615Y-100202032D01*
X101723776Y-100133173D01*
X101751045Y-100068844D01*
X101787692Y-100038520D01*
X102059641Y-99890575D01*
X102118898Y-99875500D01*
X103640890Y-99875500D01*
X103640892Y-99875500D01*
X103768186Y-99841392D01*
X103835320Y-99802631D01*
X103844774Y-99797703D01*
X104284883Y-99591816D01*
X104314808Y-99577817D01*
X104331811Y-99570775D01*
X104339416Y-99565692D01*
X104353107Y-99558654D01*
X104354617Y-99557805D01*
X104405857Y-99523630D01*
X104405861Y-99523625D01*
X104411371Y-99518940D01*
X104411825Y-99519474D01*
X104423628Y-99509424D01*
X104431439Y-99504205D01*
X104446542Y-99494114D01*
X104544114Y-99396542D01*
X104620775Y-99281811D01*
X104673580Y-99154328D01*
X104682624Y-99108860D01*
X104700500Y-99018995D01*
X104700500Y-98881004D01*
X104673581Y-98745677D01*
X104673580Y-98745676D01*
X104673580Y-98745672D01*
X104661461Y-98716413D01*
X104620778Y-98618195D01*
X104620776Y-98618191D01*
X104620775Y-98618189D01*
X104556652Y-98522223D01*
X104535775Y-98455547D01*
X104554259Y-98388167D01*
X104606238Y-98341476D01*
X104675208Y-98330300D01*
X104700704Y-98336290D01*
G37*
%TD.AperFunction*%
%TA.AperFunction,Conductor*%
G36*
X100393039Y-93294685D02*
G01*
X100438794Y-93347489D01*
X100450000Y-93399000D01*
X100450000Y-94224999D01*
X100498308Y-94224999D01*
X100498322Y-94224998D01*
X100557898Y-94218912D01*
X100626591Y-94231681D01*
X100677475Y-94279562D01*
X100694500Y-94342270D01*
X100694500Y-97541772D01*
X100694564Y-97548965D01*
X100694583Y-97550036D01*
X100694624Y-97550035D01*
X100694624Y-97550300D01*
X100694587Y-97550301D01*
X100694630Y-97552710D01*
X100694631Y-97552827D01*
X100695015Y-97574454D01*
X100699258Y-97581905D01*
X100700801Y-97589480D01*
X100705442Y-97616565D01*
X100706274Y-97622196D01*
X100710340Y-97654871D01*
X100710391Y-97655282D01*
X100710406Y-97655334D01*
X100710406Y-97655333D01*
X100712637Y-97663068D01*
X100712636Y-97663068D01*
X100714547Y-97669695D01*
X100715328Y-97674249D01*
X100719328Y-97686270D01*
X100720028Y-97688695D01*
X100720033Y-97688709D01*
X100722769Y-97698194D01*
X100724988Y-97703518D01*
X100732270Y-97727509D01*
X100737350Y-97738789D01*
X100736863Y-97738952D01*
X100737405Y-97740580D01*
X100748590Y-97763744D01*
X100749281Y-97765278D01*
X100774968Y-97822309D01*
X100779025Y-97828694D01*
X100779551Y-97829639D01*
X100782582Y-97834140D01*
X100782585Y-97834146D01*
X100831162Y-97887840D01*
X100857550Y-97918613D01*
X100858856Y-97919724D01*
X100859413Y-97919067D01*
X100867692Y-97928218D01*
X100867698Y-97928224D01*
X100867700Y-97928226D01*
X100888158Y-97944712D01*
X100890694Y-97946812D01*
X100910747Y-97963873D01*
X101008489Y-98025430D01*
X101010040Y-98026121D01*
X101019881Y-98030350D01*
X101054616Y-98044737D01*
X101067059Y-98050725D01*
X101074752Y-98054970D01*
X101084390Y-98059267D01*
X101084395Y-98059268D01*
X101084396Y-98059269D01*
X101168631Y-98086259D01*
X101168632Y-98086259D01*
X101168641Y-98086262D01*
X101221339Y-98096987D01*
X101297849Y-98105110D01*
X101423362Y-98086611D01*
X101483309Y-98067843D01*
X101483308Y-98067842D01*
X101514361Y-98058121D01*
X101514363Y-98058120D01*
X101514366Y-98058120D01*
X101515079Y-98057896D01*
X101523138Y-98053951D01*
X101523371Y-98053854D01*
X101523372Y-98053855D01*
X101602674Y-98021006D01*
X101625925Y-98013954D01*
X101651311Y-98008905D01*
X101720903Y-98015135D01*
X101776079Y-98057999D01*
X101799321Y-98123890D01*
X101799499Y-98130523D01*
X101799499Y-98145750D01*
X101799498Y-98145750D01*
X101840423Y-98298482D01*
X101840424Y-98298483D01*
X101858173Y-98329225D01*
X101918557Y-98433814D01*
X101919481Y-98435413D01*
X102038349Y-98554281D01*
X102038355Y-98554286D01*
X102075669Y-98591600D01*
X102109154Y-98652923D01*
X102104170Y-98722615D01*
X102062298Y-98778548D01*
X101996834Y-98802965D01*
X101928731Y-98788206D01*
X101691978Y-98659407D01*
X101681222Y-98652414D01*
X101677850Y-98650468D01*
X101677841Y-98650464D01*
X101674243Y-98648973D01*
X101662441Y-98643338D01*
X101653353Y-98638394D01*
X101599537Y-98617969D01*
X101596085Y-98616599D01*
X101531765Y-98589957D01*
X101531760Y-98589955D01*
X101414361Y-98574500D01*
X100785636Y-98574500D01*
X100668246Y-98589953D01*
X100668237Y-98589956D01*
X100522160Y-98650463D01*
X100510504Y-98659407D01*
X100396718Y-98746718D01*
X100396716Y-98746719D01*
X100396715Y-98746721D01*
X100385155Y-98761786D01*
X100328726Y-98802987D01*
X100258980Y-98807140D01*
X100239329Y-98800859D01*
X100225254Y-98795029D01*
X100180328Y-98776420D01*
X100180323Y-98776419D01*
X100180322Y-98776418D01*
X100044995Y-98749500D01*
X100044993Y-98749500D01*
X99907007Y-98749500D01*
X99907005Y-98749500D01*
X99771677Y-98776418D01*
X99771667Y-98776421D01*
X99644195Y-98829221D01*
X99644182Y-98829228D01*
X99529458Y-98905885D01*
X99529454Y-98905888D01*
X99431888Y-99003454D01*
X99431885Y-99003458D01*
X99355228Y-99118182D01*
X99355223Y-99118191D01*
X99349263Y-99132581D01*
X99348166Y-99133941D01*
X99347021Y-99137668D01*
X99151005Y-99556678D01*
X99126368Y-99591816D01*
X98255005Y-100463181D01*
X98193682Y-100496666D01*
X98167324Y-100499500D01*
X97742675Y-100499500D01*
X97675636Y-100479815D01*
X97629881Y-100427011D01*
X97619937Y-100357853D01*
X97648962Y-100294297D01*
X97654994Y-100287819D01*
X98337722Y-99605090D01*
X99025974Y-98916836D01*
X99038762Y-98905691D01*
X99059290Y-98890137D01*
X99186577Y-98757621D01*
X99232667Y-98727340D01*
X99355226Y-98681628D01*
X99464687Y-98599687D01*
X99546628Y-98490226D01*
X99594412Y-98362114D01*
X99598023Y-98328526D01*
X99600499Y-98305501D01*
X99600499Y-98305494D01*
X99600500Y-98305485D01*
X99600499Y-96394516D01*
X99594412Y-96337886D01*
X99546628Y-96209774D01*
X99464687Y-96100313D01*
X99355226Y-96018372D01*
X99292173Y-95994854D01*
X99226665Y-95970420D01*
X99170732Y-95928548D01*
X99146316Y-95863084D01*
X99146000Y-95854239D01*
X99146000Y-95125000D01*
X97119000Y-95125000D01*
X97051961Y-95105315D01*
X97006206Y-95052511D01*
X96995000Y-95001000D01*
X96995000Y-94749000D01*
X97014685Y-94681961D01*
X97067489Y-94636206D01*
X97119000Y-94625000D01*
X99146000Y-94625000D01*
X99146000Y-94014767D01*
X99165685Y-93947728D01*
X99218489Y-93901973D01*
X99287647Y-93892029D01*
X99351203Y-93921054D01*
X99375539Y-93949672D01*
X99377423Y-93952727D01*
X99377427Y-93952732D01*
X99497267Y-94072572D01*
X99497271Y-94072575D01*
X99641507Y-94161542D01*
X99641518Y-94161547D01*
X99802393Y-94214855D01*
X99901683Y-94224999D01*
X99949999Y-94224998D01*
X99950000Y-94224998D01*
X99950000Y-93399000D01*
X99969685Y-93331961D01*
X100022489Y-93286206D01*
X100074000Y-93275000D01*
X100326000Y-93275000D01*
X100393039Y-93294685D01*
G37*
%TD.AperFunction*%
%TA.AperFunction,Conductor*%
G36*
X92933423Y-98098796D02*
G01*
X92934446Y-98099097D01*
X92971122Y-98099094D01*
X92971559Y-98099098D01*
X92988216Y-98100355D01*
X93024000Y-98105500D01*
X93024003Y-98105500D01*
X94166000Y-98105500D01*
X94233039Y-98125185D01*
X94278794Y-98177989D01*
X94290000Y-98229500D01*
X94290000Y-98297697D01*
X94304800Y-98410104D01*
X94304801Y-98410108D01*
X94350662Y-98520828D01*
X94358131Y-98590297D01*
X94326855Y-98652776D01*
X94291872Y-98677858D01*
X94292020Y-98678102D01*
X94288910Y-98679981D01*
X94286998Y-98681353D01*
X94285604Y-98681980D01*
X94140122Y-98769927D01*
X94019927Y-98890122D01*
X93931980Y-99035604D01*
X93881409Y-99197893D01*
X93875000Y-99268427D01*
X93875000Y-99350000D01*
X94651000Y-99350000D01*
X94718039Y-99369685D01*
X94763794Y-99422489D01*
X94775000Y-99474000D01*
X94775000Y-99726000D01*
X94755315Y-99793039D01*
X94702511Y-99838794D01*
X94651000Y-99850000D01*
X93866007Y-99850000D01*
X93824497Y-99872666D01*
X93798139Y-99875500D01*
X92087876Y-99875500D01*
X92020837Y-99855815D01*
X91975082Y-99803011D01*
X91965138Y-99733853D01*
X91973315Y-99704048D01*
X92011569Y-99611692D01*
X92011569Y-99611690D01*
X92019862Y-99570000D01*
X91216988Y-99570000D01*
X91234205Y-99560060D01*
X91290060Y-99504205D01*
X91329556Y-99435796D01*
X91350000Y-99359496D01*
X91350000Y-99280504D01*
X91329556Y-99204204D01*
X91290060Y-99135795D01*
X91234205Y-99079940D01*
X91216988Y-99070000D01*
X92019864Y-99070000D01*
X92040107Y-99045334D01*
X92097853Y-99006000D01*
X92135959Y-99000000D01*
X92587828Y-99000000D01*
X92587844Y-98999999D01*
X92647372Y-98993598D01*
X92647379Y-98993596D01*
X92782086Y-98943354D01*
X92782093Y-98943350D01*
X92897187Y-98857190D01*
X92897190Y-98857187D01*
X92983350Y-98742093D01*
X92983354Y-98742086D01*
X93033596Y-98607379D01*
X93033598Y-98607372D01*
X93039999Y-98547844D01*
X93040000Y-98547827D01*
X93040000Y-98450000D01*
X91639000Y-98450000D01*
X91630314Y-98447449D01*
X91621353Y-98448738D01*
X91597312Y-98437759D01*
X91571961Y-98430315D01*
X91566033Y-98423474D01*
X91557797Y-98419713D01*
X91543507Y-98397478D01*
X91526206Y-98377511D01*
X91523918Y-98366996D01*
X91520023Y-98360935D01*
X91515000Y-98326000D01*
X91515000Y-98224500D01*
X91534685Y-98157461D01*
X91587489Y-98111706D01*
X91639000Y-98100500D01*
X92901784Y-98100500D01*
X92907847Y-98099903D01*
X92907941Y-98100862D01*
X92908212Y-98100854D01*
X92923927Y-98098722D01*
X92933423Y-98098796D01*
G37*
%TD.AperFunction*%
%TA.AperFunction,Conductor*%
G36*
X88143039Y-88769685D02*
G01*
X88188794Y-88822489D01*
X88200000Y-88874000D01*
X88200000Y-89000000D01*
X88326000Y-89000000D01*
X88393039Y-89019685D01*
X88438794Y-89072489D01*
X88450000Y-89124000D01*
X88450000Y-89974999D01*
X88456581Y-89974999D01*
X88527097Y-89968592D01*
X88572928Y-89954310D01*
X88642789Y-89953158D01*
X88702182Y-89989957D01*
X88703535Y-89991494D01*
X88720732Y-90011341D01*
X88720735Y-90011343D01*
X88720738Y-90011347D01*
X88829472Y-90105567D01*
X88952791Y-90161886D01*
X89005595Y-90207641D01*
X89025279Y-90274680D01*
X89015841Y-90322131D01*
X88988429Y-90388310D01*
X88980138Y-90430000D01*
X89783012Y-90430000D01*
X89765795Y-90439940D01*
X89709940Y-90495795D01*
X89670444Y-90564204D01*
X89650000Y-90640504D01*
X89650000Y-90719496D01*
X89670444Y-90795796D01*
X89709940Y-90864205D01*
X89765795Y-90920060D01*
X89783012Y-90930000D01*
X88980138Y-90930000D01*
X88988430Y-90971690D01*
X88988430Y-90971692D01*
X89063807Y-91153671D01*
X89063814Y-91153684D01*
X89173248Y-91317462D01*
X89173251Y-91317466D01*
X89312533Y-91456748D01*
X89312537Y-91456751D01*
X89476315Y-91566185D01*
X89476328Y-91566192D01*
X89485838Y-91570131D01*
X89540243Y-91613970D01*
X89562310Y-91680264D01*
X89545033Y-91747963D01*
X89541350Y-91753405D01*
X89463719Y-91887863D01*
X89446069Y-91953736D01*
X89424500Y-92034234D01*
X89424500Y-92185766D01*
X89435900Y-92228313D01*
X89463719Y-92332136D01*
X89501602Y-92397750D01*
X89539485Y-92463365D01*
X89646635Y-92570515D01*
X89777865Y-92646281D01*
X89924234Y-92685500D01*
X89924236Y-92685500D01*
X89965501Y-92685500D01*
X89971255Y-92687189D01*
X89977143Y-92686048D01*
X90004394Y-92696920D01*
X90032540Y-92705185D01*
X90036466Y-92709716D01*
X90042038Y-92711939D01*
X90059086Y-92735821D01*
X90078295Y-92757989D01*
X90080043Y-92765179D01*
X90082633Y-92768806D01*
X90086501Y-92791725D01*
X90089354Y-92803454D01*
X90089500Y-92806455D01*
X90089501Y-92931518D01*
X90098325Y-92987238D01*
X90098653Y-92993954D01*
X90097273Y-92999669D01*
X90097273Y-93019397D01*
X90089500Y-93068475D01*
X90089500Y-93125500D01*
X90069815Y-93192539D01*
X90017011Y-93238294D01*
X89965500Y-93249500D01*
X88115891Y-93249500D01*
X88048852Y-93229815D01*
X88028210Y-93213181D01*
X86706710Y-91891681D01*
X86673225Y-91830358D01*
X86678209Y-91760666D01*
X86720081Y-91704733D01*
X86785545Y-91680316D01*
X86794391Y-91680000D01*
X86818492Y-91680000D01*
X86818495Y-91679999D01*
X87011681Y-91641572D01*
X87011693Y-91641569D01*
X87193671Y-91566192D01*
X87193684Y-91566185D01*
X87357462Y-91456751D01*
X87357466Y-91456748D01*
X87496748Y-91317466D01*
X87496751Y-91317462D01*
X87606185Y-91153684D01*
X87606192Y-91153671D01*
X87681569Y-90971692D01*
X87681569Y-90971690D01*
X87689862Y-90930000D01*
X86886988Y-90930000D01*
X86904205Y-90920060D01*
X86960060Y-90864205D01*
X86999556Y-90795796D01*
X87020000Y-90719496D01*
X87020000Y-90640504D01*
X86999556Y-90564204D01*
X86960060Y-90495795D01*
X86904205Y-90439940D01*
X86886988Y-90430000D01*
X87689862Y-90430000D01*
X87681569Y-90388309D01*
X87681569Y-90388307D01*
X87606192Y-90206328D01*
X87606185Y-90206316D01*
X87521770Y-90079981D01*
X87500892Y-90013304D01*
X87519376Y-89945924D01*
X87571355Y-89899233D01*
X87640325Y-89888057D01*
X87689021Y-89904972D01*
X87710605Y-89918019D01*
X87872894Y-89968590D01*
X87872893Y-89968590D01*
X87943408Y-89974998D01*
X87943426Y-89974999D01*
X87949999Y-89974998D01*
X87950000Y-89974998D01*
X87950000Y-89250000D01*
X86949000Y-89250000D01*
X86881961Y-89230315D01*
X86836206Y-89177511D01*
X86825000Y-89126000D01*
X86825000Y-88874000D01*
X86844685Y-88806961D01*
X86897489Y-88761206D01*
X86949000Y-88750000D01*
X88076000Y-88750000D01*
X88143039Y-88769685D01*
G37*
%TD.AperFunction*%
%TD*%
%TA.AperFunction,Conductor*%
%TO.N,Net-(D6-K)*%
G36*
X110800585Y-85219685D02*
G01*
X110810202Y-85227435D01*
X110810355Y-85227232D01*
X110932664Y-85318793D01*
X110932671Y-85318797D01*
X111067517Y-85369091D01*
X111067516Y-85369091D01*
X111074444Y-85369835D01*
X111127127Y-85375500D01*
X111922872Y-85375499D01*
X111982483Y-85369091D01*
X112117331Y-85318796D01*
X112179189Y-85272489D01*
X112239645Y-85227232D01*
X112241319Y-85229468D01*
X112255700Y-85221615D01*
X112281519Y-85205023D01*
X112287719Y-85204131D01*
X112290096Y-85202834D01*
X112316454Y-85200000D01*
X112476000Y-85200000D01*
X112543039Y-85219685D01*
X112588794Y-85272489D01*
X112600000Y-85324000D01*
X112600000Y-87263897D01*
X112580315Y-87330936D01*
X112527511Y-87376691D01*
X112458353Y-87386635D01*
X112450056Y-87385153D01*
X112447711Y-87384651D01*
X112348346Y-87374500D01*
X111751662Y-87374500D01*
X111751644Y-87374501D01*
X111652292Y-87384650D01*
X111633725Y-87390803D01*
X111624964Y-87393706D01*
X111585962Y-87400000D01*
X111200000Y-87400000D01*
X111200000Y-87655615D01*
X111181538Y-87720712D01*
X111138001Y-87791294D01*
X111137996Y-87791305D01*
X111084651Y-87952290D01*
X111074500Y-88051647D01*
X111074500Y-88598337D01*
X111074501Y-88598355D01*
X111084650Y-88697707D01*
X111084651Y-88697710D01*
X111137998Y-88858700D01*
X111181538Y-88929287D01*
X111200000Y-88994385D01*
X111200000Y-89200000D01*
X111438073Y-89200000D01*
X111484278Y-89210243D01*
X111484448Y-89209731D01*
X111489459Y-89211391D01*
X111490476Y-89211617D01*
X111491299Y-89212000D01*
X111491303Y-89212003D01*
X111652292Y-89265349D01*
X111751655Y-89275500D01*
X112348344Y-89275499D01*
X112348352Y-89275498D01*
X112348355Y-89275498D01*
X112402760Y-89269940D01*
X112447708Y-89265349D01*
X112608697Y-89212003D01*
X112608703Y-89211998D01*
X112609524Y-89211617D01*
X112610540Y-89211391D01*
X112615552Y-89209731D01*
X112615721Y-89210243D01*
X112661927Y-89200000D01*
X112976000Y-89200000D01*
X113043039Y-89219685D01*
X113088794Y-89272489D01*
X113100000Y-89324000D01*
X113100000Y-93176000D01*
X113097449Y-93184685D01*
X113098738Y-93193647D01*
X113087759Y-93217687D01*
X113080315Y-93243039D01*
X113073474Y-93248966D01*
X113069713Y-93257203D01*
X113047478Y-93271492D01*
X113027511Y-93288794D01*
X113016996Y-93291081D01*
X113010935Y-93294977D01*
X112976000Y-93300000D01*
X112783913Y-93300000D01*
X112733826Y-93289434D01*
X112634759Y-93245691D01*
X112634746Y-93245687D01*
X112422584Y-93195787D01*
X112331998Y-93189500D01*
X112331994Y-93189500D01*
X109924000Y-93189500D01*
X109856961Y-93169815D01*
X109811206Y-93117011D01*
X109800000Y-93065500D01*
X109800000Y-88600000D01*
X108324000Y-88600000D01*
X108315314Y-88597449D01*
X108306353Y-88598738D01*
X108282312Y-88587759D01*
X108256961Y-88580315D01*
X108251033Y-88573474D01*
X108242797Y-88569713D01*
X108228507Y-88547478D01*
X108211206Y-88527511D01*
X108208918Y-88516996D01*
X108205023Y-88510935D01*
X108200000Y-88476000D01*
X108200000Y-88464328D01*
X108219685Y-88397289D01*
X108272489Y-88351534D01*
X108280649Y-88348152D01*
X108292331Y-88343796D01*
X108407546Y-88257546D01*
X108493796Y-88142331D01*
X108544091Y-88007483D01*
X108550500Y-87947873D01*
X108550499Y-87052128D01*
X108544091Y-86992517D01*
X108493796Y-86857669D01*
X108493795Y-86857668D01*
X108493793Y-86857664D01*
X108407547Y-86742455D01*
X108407544Y-86742452D01*
X108292334Y-86656205D01*
X108280661Y-86651851D01*
X108224729Y-86609977D01*
X108200316Y-86544511D01*
X108200000Y-86535671D01*
X108200000Y-85499500D01*
X108219685Y-85432461D01*
X108272489Y-85386706D01*
X108324000Y-85375500D01*
X108706613Y-85375500D01*
X108706616Y-85375500D01*
X108777196Y-85369086D01*
X108939606Y-85318478D01*
X108974640Y-85297298D01*
X109042192Y-85279461D01*
X109108666Y-85300976D01*
X109113066Y-85304121D01*
X109132669Y-85318796D01*
X109132670Y-85318796D01*
X109132671Y-85318797D01*
X109267517Y-85369091D01*
X109267516Y-85369091D01*
X109274444Y-85369835D01*
X109327127Y-85375500D01*
X110122872Y-85375499D01*
X110182483Y-85369091D01*
X110317331Y-85318796D01*
X110379189Y-85272489D01*
X110439645Y-85227232D01*
X110441319Y-85229468D01*
X110455700Y-85221615D01*
X110481519Y-85205023D01*
X110487719Y-85204131D01*
X110490096Y-85202834D01*
X110516454Y-85200000D01*
X110733546Y-85200000D01*
X110800585Y-85219685D01*
G37*
%TD.AperFunction*%
%TD*%
%TA.AperFunction,Conductor*%
%TO.N,BAT+*%
G36*
X99843039Y-83019685D02*
G01*
X99888794Y-83072489D01*
X99900000Y-83124000D01*
X99900000Y-87515391D01*
X99899208Y-87519964D01*
X99899796Y-87522495D01*
X99892780Y-87557084D01*
X99839185Y-87707200D01*
X99836971Y-87712947D01*
X99832137Y-87724619D01*
X99832134Y-87724630D01*
X99831849Y-87726063D01*
X99828448Y-87739292D01*
X99825300Y-87749227D01*
X99824854Y-87750836D01*
X99824853Y-87750839D01*
X99824852Y-87750839D01*
X99813015Y-87810562D01*
X99812443Y-87817742D01*
X99811764Y-87817687D01*
X99810502Y-87833380D01*
X99806411Y-87853947D01*
X99805216Y-87859960D01*
X99805216Y-87997946D01*
X99805216Y-87997948D01*
X99805215Y-87997948D01*
X99832134Y-88133275D01*
X99832137Y-88133285D01*
X99884937Y-88260756D01*
X99885353Y-88261534D01*
X99885496Y-88262106D01*
X99887272Y-88266393D01*
X99886636Y-88266656D01*
X99900000Y-88319997D01*
X99900000Y-88500000D01*
X100061867Y-88500000D01*
X100128906Y-88519685D01*
X100130759Y-88520899D01*
X100173896Y-88549723D01*
X100173911Y-88549731D01*
X100301383Y-88602531D01*
X100301388Y-88602533D01*
X100301392Y-88602533D01*
X100301393Y-88602534D01*
X100436720Y-88629453D01*
X100570500Y-88629453D01*
X100637539Y-88649138D01*
X100683294Y-88701942D01*
X100694500Y-88753453D01*
X100694500Y-92276000D01*
X100674815Y-92343039D01*
X100622011Y-92388794D01*
X100570500Y-92400000D01*
X98724000Y-92400000D01*
X98656961Y-92380315D01*
X98611206Y-92327511D01*
X98600000Y-92276000D01*
X98600000Y-88150968D01*
X98609769Y-88110281D01*
X98607630Y-88109586D01*
X98610644Y-88100307D01*
X98610646Y-88100304D01*
X98617097Y-88059577D01*
X98625499Y-88006524D01*
X98625500Y-88006519D01*
X98625499Y-86993482D01*
X98610646Y-86899696D01*
X98610644Y-86899692D01*
X98610644Y-86899691D01*
X98607630Y-86890412D01*
X98608900Y-86889999D01*
X98605023Y-86883966D01*
X98600000Y-86849031D01*
X98600000Y-86650968D01*
X98609769Y-86610281D01*
X98607630Y-86609586D01*
X98610644Y-86600307D01*
X98610646Y-86600304D01*
X98617097Y-86559577D01*
X98625499Y-86506524D01*
X98625500Y-86506519D01*
X98625499Y-85493482D01*
X98610646Y-85399696D01*
X98610644Y-85399692D01*
X98610644Y-85399691D01*
X98607630Y-85390412D01*
X98609766Y-85389717D01*
X98600000Y-85349031D01*
X98600000Y-85200000D01*
X98499097Y-85200000D01*
X98442804Y-85186485D01*
X98350304Y-85139354D01*
X98350303Y-85139353D01*
X98350300Y-85139352D01*
X98350301Y-85139352D01*
X98256524Y-85124500D01*
X97493482Y-85124500D01*
X97412519Y-85137323D01*
X97399696Y-85139354D01*
X97307195Y-85186485D01*
X97250903Y-85200000D01*
X96699097Y-85200000D01*
X96642804Y-85186485D01*
X96550304Y-85139354D01*
X96550303Y-85139353D01*
X96550300Y-85139352D01*
X96550301Y-85139352D01*
X96456524Y-85124500D01*
X95693481Y-85124500D01*
X95643396Y-85132433D01*
X95574103Y-85123477D01*
X95520651Y-85078480D01*
X95500013Y-85011728D01*
X95500000Y-85009959D01*
X95500000Y-83000000D01*
X97800000Y-83000000D01*
X99776000Y-83000000D01*
X99843039Y-83019685D01*
G37*
%TD.AperFunction*%
%TD*%
%TA.AperFunction,Conductor*%
%TO.N,VBUS*%
G36*
X93724865Y-88419685D02*
G01*
X93733424Y-88425710D01*
X94092161Y-88701662D01*
X94951604Y-89362772D01*
X94992739Y-89419249D01*
X95000000Y-89461057D01*
X95000000Y-93251587D01*
X94980315Y-93318626D01*
X94975267Y-93325898D01*
X94900203Y-93426169D01*
X94900202Y-93426171D01*
X94849908Y-93561017D01*
X94843501Y-93620616D01*
X94843500Y-93620635D01*
X94843500Y-95428060D01*
X94823815Y-95495099D01*
X94807181Y-95515741D01*
X94601770Y-95721153D01*
X94579711Y-95743212D01*
X94529348Y-95793575D01*
X94468209Y-95854713D01*
X94380609Y-95985815D01*
X94380602Y-95985828D01*
X94320264Y-96131499D01*
X94320261Y-96131511D01*
X94289500Y-96286154D01*
X94289500Y-97476000D01*
X94269815Y-97543039D01*
X94217011Y-97588794D01*
X94165500Y-97600000D01*
X93600000Y-97600000D01*
X93600000Y-96542190D01*
X93679179Y-96509394D01*
X93810289Y-96421789D01*
X93921789Y-96310289D01*
X94009394Y-96179179D01*
X94069737Y-96033497D01*
X94100500Y-95878842D01*
X94100500Y-95721158D01*
X94100500Y-95721155D01*
X94100499Y-95721153D01*
X94069738Y-95566510D01*
X94069737Y-95566503D01*
X94033667Y-95479422D01*
X94009397Y-95420827D01*
X94009390Y-95420814D01*
X93921789Y-95289711D01*
X93921786Y-95289707D01*
X93810292Y-95178213D01*
X93810288Y-95178210D01*
X93679185Y-95090609D01*
X93679171Y-95090602D01*
X93676540Y-95089512D01*
X93675374Y-95088572D01*
X93673809Y-95087736D01*
X93673967Y-95087438D01*
X93660978Y-95076970D01*
X93642797Y-95068667D01*
X93634331Y-95055494D01*
X93622139Y-95045668D01*
X93615828Y-95026702D01*
X93605023Y-95009889D01*
X93601058Y-94982315D01*
X93600079Y-94979372D01*
X93600000Y-94974954D01*
X93600000Y-94962654D01*
X93619685Y-94895615D01*
X93636319Y-94874973D01*
X93748776Y-94762515D01*
X93748779Y-94762512D01*
X93836384Y-94631402D01*
X93896727Y-94485720D01*
X93927490Y-94331065D01*
X93927490Y-94173381D01*
X93927490Y-94173378D01*
X93927489Y-94173376D01*
X93896728Y-94018733D01*
X93896727Y-94018726D01*
X93881425Y-93981784D01*
X93836387Y-93873050D01*
X93836380Y-93873037D01*
X93748779Y-93741934D01*
X93748776Y-93741930D01*
X93637282Y-93630436D01*
X93637278Y-93630433D01*
X93600000Y-93605524D01*
X93600000Y-91600000D01*
X93000000Y-91262500D01*
X92999600Y-91261817D01*
X92962581Y-91229330D01*
X92897546Y-91142454D01*
X92874709Y-91125358D01*
X92782335Y-91056206D01*
X92782328Y-91056202D01*
X92647482Y-91005908D01*
X92647483Y-91005908D01*
X92587883Y-90999501D01*
X92587881Y-90999500D01*
X92587873Y-90999500D01*
X92587865Y-90999500D01*
X92564925Y-90999500D01*
X92504134Y-90983575D01*
X92113707Y-90763960D01*
X92064928Y-90713937D01*
X92050500Y-90655885D01*
X92050500Y-90581456D01*
X92012052Y-90388171D01*
X92012051Y-90388165D01*
X92009437Y-90381855D01*
X92007811Y-90373681D01*
X92005023Y-90369342D01*
X92000000Y-90334407D01*
X92000000Y-90174249D01*
X92002383Y-90150057D01*
X92025500Y-90033844D01*
X92025500Y-89734104D01*
X92043961Y-89669009D01*
X92112003Y-89558697D01*
X92165349Y-89397708D01*
X92175500Y-89298345D01*
X92175499Y-88701656D01*
X92165349Y-88602292D01*
X92112003Y-88441303D01*
X92086527Y-88400000D01*
X93500000Y-88400000D01*
X93657826Y-88400000D01*
X93724865Y-88419685D01*
G37*
%TD.AperFunction*%
%TD*%
%TA.AperFunction,Conductor*%
%TO.N,VBUS*%
G36*
X93443039Y-85319685D02*
G01*
X93488794Y-85372489D01*
X93500000Y-85424000D01*
X93500000Y-88400000D01*
X92086527Y-88400000D01*
X92022970Y-88296959D01*
X92022967Y-88296955D01*
X91903044Y-88177032D01*
X91903040Y-88177029D01*
X91758705Y-88088001D01*
X91758699Y-88087998D01*
X91758697Y-88087997D01*
X91739157Y-88081522D01*
X91597709Y-88034651D01*
X91498346Y-88024500D01*
X90951662Y-88024500D01*
X90951644Y-88024501D01*
X90852292Y-88034650D01*
X90852289Y-88034651D01*
X90691305Y-88087996D01*
X90691294Y-88088001D01*
X90546959Y-88177029D01*
X90546955Y-88177032D01*
X90427032Y-88296955D01*
X90427029Y-88296959D01*
X90338001Y-88441294D01*
X90337996Y-88441305D01*
X90284651Y-88602290D01*
X90274500Y-88701647D01*
X90274500Y-89298337D01*
X90274501Y-89298355D01*
X90284650Y-89397707D01*
X90284651Y-89397710D01*
X90324013Y-89516496D01*
X90326415Y-89586325D01*
X90290683Y-89646366D01*
X90228162Y-89677559D01*
X90206307Y-89679500D01*
X89851457Y-89679500D01*
X89760380Y-89697617D01*
X89736188Y-89700000D01*
X89169808Y-89700000D01*
X89102769Y-89680315D01*
X89057014Y-89627511D01*
X89047070Y-89558353D01*
X89051420Y-89539118D01*
X89094086Y-89402196D01*
X89100500Y-89331616D01*
X89100500Y-88668384D01*
X89094086Y-88597804D01*
X89043478Y-88435394D01*
X89017882Y-88393054D01*
X89000000Y-88328905D01*
X89000000Y-88200000D01*
X89000000Y-85300000D01*
X93376000Y-85300000D01*
X93443039Y-85319685D01*
G37*
%TD.AperFunction*%
%TD*%
%TA.AperFunction,Conductor*%
%TO.N,VBUS*%
G36*
X89000000Y-88200000D02*
G01*
X88916870Y-88200000D01*
X88849831Y-88180315D01*
X88840401Y-88173614D01*
X88835188Y-88169530D01*
X88689606Y-88081522D01*
X88527196Y-88030914D01*
X88527194Y-88030913D01*
X88527192Y-88030913D01*
X88477778Y-88026423D01*
X88456616Y-88024500D01*
X87943384Y-88024500D01*
X87924145Y-88026248D01*
X87872807Y-88030913D01*
X87710393Y-88081522D01*
X87639849Y-88124167D01*
X87576648Y-88162374D01*
X87509096Y-88180210D01*
X87448351Y-88162374D01*
X87314606Y-88081522D01*
X87152196Y-88030914D01*
X87152194Y-88030913D01*
X87152192Y-88030913D01*
X87102778Y-88026423D01*
X87081616Y-88024500D01*
X86624000Y-88024500D01*
X86556961Y-88004815D01*
X86511206Y-87952011D01*
X86500000Y-87900500D01*
X86500000Y-85424000D01*
X86519685Y-85356961D01*
X86572489Y-85311206D01*
X86624000Y-85300000D01*
X89000000Y-85300000D01*
X89000000Y-88200000D01*
G37*
%TD.AperFunction*%
%TD*%
%TA.AperFunction,Conductor*%
%TO.N,VBUS*%
G36*
X93600000Y-93605524D02*
G01*
X93506175Y-93542832D01*
X93506162Y-93542825D01*
X93360491Y-93482487D01*
X93360479Y-93482484D01*
X93205835Y-93451723D01*
X93205832Y-93451723D01*
X93164500Y-93451723D01*
X93097461Y-93432038D01*
X93051706Y-93379234D01*
X93040500Y-93327723D01*
X93040499Y-93052130D01*
X93040498Y-93052123D01*
X93034091Y-92992516D01*
X93007818Y-92922075D01*
X93000000Y-92878742D01*
X93000000Y-92321257D01*
X93007817Y-92277926D01*
X93034091Y-92207483D01*
X93040500Y-92147873D01*
X93040499Y-91452128D01*
X93034091Y-91392517D01*
X93000000Y-91301114D01*
X93000000Y-91200000D01*
X93600000Y-91200000D01*
X93600000Y-93605524D01*
G37*
%TD.AperFunction*%
%TD*%
%TA.AperFunction,Conductor*%
%TO.N,BAT+*%
G36*
X97743039Y-76719685D02*
G01*
X97788794Y-76772489D01*
X97800000Y-76824000D01*
X97800000Y-79800000D01*
X90324000Y-79800000D01*
X90256961Y-79780315D01*
X90211206Y-79727511D01*
X90200000Y-79676000D01*
X90200000Y-76824000D01*
X90219685Y-76756961D01*
X90272489Y-76711206D01*
X90324000Y-76700000D01*
X97676000Y-76700000D01*
X97743039Y-76719685D01*
G37*
%TD.AperFunction*%
%TD*%
%TA.AperFunction,Conductor*%
%TO.N,BAT+*%
G36*
X97800000Y-83000000D02*
G01*
X95500000Y-83000000D01*
X95500000Y-82034924D01*
X95506069Y-81996606D01*
X95568476Y-81804538D01*
X95568476Y-81804537D01*
X95568477Y-81804534D01*
X95600500Y-81602352D01*
X95600500Y-81397648D01*
X95568477Y-81195466D01*
X95568476Y-81195462D01*
X95568476Y-81195461D01*
X95506069Y-81003392D01*
X95500000Y-80965074D01*
X95500000Y-79800000D01*
X97800000Y-79800000D01*
X97800000Y-83000000D01*
G37*
%TD.AperFunction*%
%TD*%
%TA.AperFunction,Conductor*%
%TO.N,VBUS*%
G36*
X90454710Y-97101896D02*
G01*
X90455867Y-97102084D01*
X90457483Y-97102347D01*
X90457498Y-97102348D01*
X90457505Y-97102350D01*
X90479435Y-97104116D01*
X90490399Y-97105000D01*
X90490400Y-97105000D01*
X90492575Y-97105000D01*
X90495069Y-97104909D01*
X90503607Y-97104599D01*
X90507306Y-97105060D01*
X91465572Y-97385255D01*
X91472549Y-97390865D01*
X91473517Y-97399768D01*
X91467906Y-97406746D01*
X91464079Y-97408046D01*
X90495153Y-97558218D01*
X90486453Y-97556099D01*
X90485972Y-97555727D01*
X90451696Y-97527733D01*
X90450824Y-97526944D01*
X90353366Y-97429486D01*
X90353361Y-97429482D01*
X90279243Y-97386690D01*
X90277692Y-97385620D01*
X90194299Y-97317511D01*
X90190059Y-97309623D01*
X90190000Y-97308449D01*
X90190000Y-97125166D01*
X90193427Y-97116893D01*
X90201153Y-97113479D01*
X90452308Y-97101758D01*
X90454710Y-97101896D01*
G37*
%TD.AperFunction*%
%TD*%
%TA.AperFunction,Conductor*%
%TO.N,VBUS*%
G36*
X98906224Y-97396284D02*
G01*
X98907374Y-97400021D01*
X99029527Y-98329424D01*
X99027208Y-98338074D01*
X99026365Y-98339054D01*
X98766847Y-98609232D01*
X98758644Y-98612825D01*
X98750304Y-98609565D01*
X98750136Y-98609400D01*
X98620206Y-98479470D01*
X98616816Y-98472122D01*
X98606189Y-98338074D01*
X98600186Y-98262350D01*
X98600738Y-98257762D01*
X98884665Y-97397876D01*
X98890512Y-97391096D01*
X98899442Y-97390436D01*
X98906224Y-97396284D01*
G37*
%TD.AperFunction*%
%TD*%
%TA.AperFunction,Conductor*%
%TO.N,Net-(U2-3V3OUT)*%
G36*
X93721282Y-100710389D02*
G01*
X94236525Y-100897204D01*
X94243134Y-100903244D01*
X94244236Y-100908202D01*
X94244236Y-101091797D01*
X94240809Y-101100070D01*
X94236524Y-101102796D01*
X93721290Y-101289608D01*
X93712344Y-101289207D01*
X93706303Y-101282597D01*
X93705837Y-101280939D01*
X93649469Y-101002318D01*
X93649469Y-100997680D01*
X93705835Y-100719067D01*
X93710834Y-100711641D01*
X93719622Y-100709922D01*
X93721282Y-100710389D01*
G37*
%TD.AperFunction*%
%TD*%
%TA.AperFunction,Conductor*%
%TO.N,Net-(U2-3V3OUT)*%
G36*
X99736362Y-99289986D02*
G01*
X99737872Y-99290835D01*
X99974734Y-99447984D01*
X99978015Y-99451265D01*
X100135164Y-99688127D01*
X100136883Y-99696915D01*
X100131883Y-99704344D01*
X100130373Y-99705193D01*
X99633953Y-99937422D01*
X99625007Y-99937823D01*
X99620722Y-99935097D01*
X99490902Y-99805277D01*
X99487475Y-99797004D01*
X99488575Y-99792051D01*
X99720806Y-99295625D01*
X99727416Y-99289585D01*
X99736362Y-99289986D01*
G37*
%TD.AperFunction*%
%TD*%
%TA.AperFunction,Conductor*%
%TO.N,Net-(D5-A)*%
G36*
X109380600Y-82055584D02*
G01*
X109717691Y-82391715D01*
X109721130Y-82399983D01*
X109717715Y-82408261D01*
X109717691Y-82408285D01*
X109380600Y-82744415D01*
X109372322Y-82747830D01*
X109367730Y-82746884D01*
X109032091Y-82603039D01*
X109025837Y-82596630D01*
X109025000Y-82592285D01*
X109025000Y-82207715D01*
X109028427Y-82199442D01*
X109032091Y-82196961D01*
X109367731Y-82053114D01*
X109376684Y-82053006D01*
X109380600Y-82055584D01*
G37*
%TD.AperFunction*%
%TD*%
%TA.AperFunction,Conductor*%
%TO.N,Net-(D5-A)*%
G36*
X108810241Y-82003506D02*
G01*
X109243074Y-82196905D01*
X109249228Y-82203408D01*
X109250000Y-82207586D01*
X109250000Y-82592413D01*
X109246573Y-82600686D01*
X109243073Y-82603095D01*
X108810242Y-82796492D01*
X108801291Y-82796738D01*
X108796701Y-82793557D01*
X108626303Y-82600686D01*
X108455843Y-82407746D01*
X108452934Y-82399278D01*
X108455844Y-82392253D01*
X108618994Y-82207586D01*
X108796702Y-82006441D01*
X108804747Y-82002511D01*
X108810241Y-82003506D01*
G37*
%TD.AperFunction*%
%TD*%
%TA.AperFunction,Conductor*%
%TO.N,GND*%
G36*
X102247147Y-103391000D02*
G01*
X102105726Y-103532421D01*
X102049441Y-103666671D01*
X101799293Y-103499293D01*
X101966671Y-103250559D01*
X102247147Y-103391000D01*
G37*
%TD.AperFunction*%
%TD*%
%TA.AperFunction,Conductor*%
%TO.N,Net-(U3-VCC)*%
G36*
X102482444Y-90156158D02*
G01*
X102489879Y-90161147D01*
X102491610Y-90169933D01*
X102491542Y-90170249D01*
X102410929Y-90521059D01*
X102407799Y-90526712D01*
X102140611Y-90793900D01*
X102132338Y-90797327D01*
X102124065Y-90793900D01*
X102121266Y-90789409D01*
X102058499Y-90605661D01*
X101910072Y-90171139D01*
X101910641Y-90162204D01*
X101917362Y-90156287D01*
X101918825Y-90155891D01*
X102196988Y-90099757D01*
X102201598Y-90099756D01*
X102482444Y-90156158D01*
G37*
%TD.AperFunction*%
%TD*%
%TA.AperFunction,Conductor*%
%TO.N,Net-(U3-VCC)*%
G36*
X104004324Y-89763552D02*
G01*
X104010172Y-89770027D01*
X104221794Y-90345384D01*
X104221433Y-90354332D01*
X104221381Y-90354443D01*
X104043884Y-90728094D01*
X104037239Y-90734097D01*
X104028296Y-90733642D01*
X104025043Y-90731347D01*
X103755466Y-90461770D01*
X103753045Y-90458244D01*
X103707211Y-90354981D01*
X103706987Y-90346029D01*
X103707385Y-90345114D01*
X103988678Y-89768931D01*
X103995386Y-89763002D01*
X104004324Y-89763552D01*
G37*
%TD.AperFunction*%
%TD*%
%TA.AperFunction,Conductor*%
%TO.N,Net-(U3-VCC)*%
G36*
X104221496Y-88248983D02*
G01*
X104225882Y-88256790D01*
X104225931Y-88257288D01*
X104299036Y-89212407D01*
X104296250Y-89220918D01*
X104288263Y-89224966D01*
X104287370Y-89225000D01*
X103706801Y-89225000D01*
X103698528Y-89221573D01*
X103696634Y-89219090D01*
X103419592Y-88732661D01*
X103418476Y-88723776D01*
X103420810Y-88719335D01*
X103772026Y-88302528D01*
X103779581Y-88298451D01*
X104212876Y-88246564D01*
X104221496Y-88248983D01*
G37*
%TD.AperFunction*%
%TD*%
%TA.AperFunction,Conductor*%
%TO.N,Net-(U3-VCC)*%
G36*
X100454845Y-87238462D02*
G01*
X100722141Y-87505758D01*
X100725323Y-87511648D01*
X100797552Y-87858891D01*
X100795882Y-87867689D01*
X100788480Y-87872729D01*
X100788401Y-87872745D01*
X100507318Y-87929196D01*
X100502700Y-87929194D01*
X100224729Y-87873099D01*
X100217297Y-87868103D01*
X100215574Y-87859316D01*
X100216021Y-87857706D01*
X100435555Y-87242798D01*
X100441562Y-87236162D01*
X100450506Y-87235716D01*
X100454845Y-87238462D01*
G37*
%TD.AperFunction*%
%TD*%
%TA.AperFunction,Conductor*%
%TO.N,Net-(U3-VCC)*%
G36*
X101044231Y-86897023D02*
G01*
X101050946Y-86902947D01*
X101051683Y-86904859D01*
X101184040Y-87365399D01*
X101183031Y-87374297D01*
X101177749Y-87379230D01*
X100708071Y-87598776D01*
X100703117Y-87599877D01*
X100323172Y-87599877D01*
X100314899Y-87596450D01*
X100311472Y-87588177D01*
X100312350Y-87583731D01*
X100398110Y-87375000D01*
X100645812Y-86772116D01*
X100652125Y-86765767D01*
X100660423Y-86765496D01*
X101044231Y-86897023D01*
G37*
%TD.AperFunction*%
%TD*%
%TA.AperFunction,Conductor*%
%TO.N,Net-(J1-CC2)*%
G36*
X90494261Y-96600623D02*
G01*
X91436813Y-96738423D01*
X91444503Y-96743011D01*
X91446697Y-96751693D01*
X91442109Y-96759383D01*
X91436813Y-96761577D01*
X90494261Y-96899377D01*
X90492568Y-96899500D01*
X90490400Y-96899500D01*
X90486700Y-96898900D01*
X90348000Y-96852666D01*
X90341235Y-96846798D01*
X90340000Y-96841566D01*
X90340000Y-96658433D01*
X90343427Y-96650160D01*
X90347998Y-96647333D01*
X90486700Y-96601100D01*
X90490400Y-96600500D01*
X90492568Y-96600500D01*
X90494261Y-96600623D01*
G37*
%TD.AperFunction*%
%TD*%
%TA.AperFunction,Conductor*%
%TO.N,Net-(J1-CC2)*%
G36*
X85220927Y-100128427D02*
G01*
X85222461Y-100130319D01*
X85547317Y-100629605D01*
X85548956Y-100638409D01*
X85545622Y-100644417D01*
X85182916Y-100993383D01*
X85174578Y-100996650D01*
X85166900Y-100993579D01*
X85166686Y-100993383D01*
X84796388Y-100654111D01*
X84792604Y-100645996D01*
X84793571Y-100640804D01*
X85015934Y-100132014D01*
X85022387Y-100125806D01*
X85026655Y-100125000D01*
X85212654Y-100125000D01*
X85220927Y-100128427D01*
G37*
%TD.AperFunction*%
%TD*%
%TA.AperFunction,Conductor*%
%TO.N,Net-(D3-A)*%
G36*
X95730600Y-85655584D02*
G01*
X96067691Y-85991715D01*
X96071130Y-85999983D01*
X96067715Y-86008261D01*
X96067691Y-86008285D01*
X95730600Y-86344415D01*
X95722322Y-86347830D01*
X95717730Y-86346884D01*
X95382091Y-86203039D01*
X95375837Y-86196630D01*
X95375000Y-86192285D01*
X95375000Y-85807715D01*
X95378427Y-85799442D01*
X95382091Y-85796961D01*
X95717731Y-85653114D01*
X95726684Y-85653006D01*
X95730600Y-85655584D01*
G37*
%TD.AperFunction*%
%TD*%
%TA.AperFunction,Conductor*%
%TO.N,Net-(D3-A)*%
G36*
X94785241Y-85603506D02*
G01*
X95218074Y-85796905D01*
X95224228Y-85803408D01*
X95225000Y-85807586D01*
X95225000Y-86192413D01*
X95221573Y-86200686D01*
X95218073Y-86203095D01*
X94785242Y-86396492D01*
X94776291Y-86396738D01*
X94771701Y-86393557D01*
X94601303Y-86200686D01*
X94430843Y-86007746D01*
X94427934Y-85999278D01*
X94430844Y-85992253D01*
X94593994Y-85807586D01*
X94771702Y-85606441D01*
X94779747Y-85602511D01*
X94785241Y-85603506D01*
G37*
%TD.AperFunction*%
%TD*%
%TA.AperFunction,Conductor*%
%TO.N,Net-(D1-A)*%
G36*
X95730600Y-87155584D02*
G01*
X96067691Y-87491715D01*
X96071130Y-87499983D01*
X96067715Y-87508261D01*
X96067691Y-87508285D01*
X95730600Y-87844415D01*
X95722322Y-87847830D01*
X95717730Y-87846884D01*
X95382091Y-87703039D01*
X95375837Y-87696630D01*
X95375000Y-87692285D01*
X95375000Y-87307715D01*
X95378427Y-87299442D01*
X95382091Y-87296961D01*
X95717731Y-87153114D01*
X95726684Y-87153006D01*
X95730600Y-87155584D01*
G37*
%TD.AperFunction*%
%TD*%
%TA.AperFunction,Conductor*%
%TO.N,Net-(D1-A)*%
G36*
X94785241Y-87103506D02*
G01*
X95218074Y-87296905D01*
X95224228Y-87303408D01*
X95225000Y-87307586D01*
X95225000Y-87692413D01*
X95221573Y-87700686D01*
X95218073Y-87703095D01*
X94785242Y-87896492D01*
X94776291Y-87896738D01*
X94771701Y-87893557D01*
X94601303Y-87700686D01*
X94430843Y-87507746D01*
X94427934Y-87499278D01*
X94430844Y-87492253D01*
X94593994Y-87307586D01*
X94771702Y-87106441D01*
X94779747Y-87102511D01*
X94785241Y-87103506D01*
G37*
%TD.AperFunction*%
%TD*%
%TA.AperFunction,Conductor*%
%TO.N,Net-(U1-PROG)*%
G36*
X96659345Y-98728427D02*
G01*
X96662356Y-98733610D01*
X96763449Y-99103042D01*
X96796905Y-99225302D01*
X96795783Y-99234186D01*
X96793842Y-99236714D01*
X96431893Y-99594192D01*
X96423598Y-99597568D01*
X96417026Y-99595498D01*
X96030418Y-99328738D01*
X96025555Y-99321219D01*
X96025383Y-99318427D01*
X96030431Y-99231905D01*
X96059357Y-98736018D01*
X96063260Y-98727959D01*
X96071037Y-98725000D01*
X96651072Y-98725000D01*
X96659345Y-98728427D01*
G37*
%TD.AperFunction*%
%TD*%
%TA.AperFunction,Conductor*%
%TO.N,Net-(J1-CC1)*%
G36*
X90494261Y-93600623D02*
G01*
X91436813Y-93738423D01*
X91444503Y-93743011D01*
X91446697Y-93751693D01*
X91442109Y-93759383D01*
X91436813Y-93761577D01*
X90494261Y-93899377D01*
X90492568Y-93899500D01*
X90490400Y-93899500D01*
X90486700Y-93898900D01*
X90348000Y-93852666D01*
X90341235Y-93846798D01*
X90340000Y-93841566D01*
X90340000Y-93658433D01*
X90343427Y-93650160D01*
X90347998Y-93647333D01*
X90486700Y-93601100D01*
X90490400Y-93600500D01*
X90492568Y-93600500D01*
X90494261Y-93600623D01*
G37*
%TD.AperFunction*%
%TD*%
%TA.AperFunction,Conductor*%
%TO.N,Net-(J1-CC1)*%
G36*
X85182916Y-89006616D02*
G01*
X85545622Y-89355581D01*
X85549208Y-89363786D01*
X85547317Y-89370393D01*
X85222461Y-89869681D01*
X85215077Y-89874746D01*
X85212654Y-89875000D01*
X85026655Y-89875000D01*
X85018382Y-89871573D01*
X85015934Y-89867985D01*
X84793571Y-89359197D01*
X84793399Y-89350246D01*
X84796386Y-89345891D01*
X85166902Y-89006419D01*
X85175315Y-89003358D01*
X85182916Y-89006616D01*
G37*
%TD.AperFunction*%
%TD*%
%TA.AperFunction,Conductor*%
%TO.N,3.3V*%
G36*
X107981644Y-103503584D02*
G01*
X108368882Y-103770779D01*
X108373745Y-103778297D01*
X108373778Y-103782331D01*
X108276630Y-104365223D01*
X108271889Y-104372821D01*
X108265089Y-104375000D01*
X107684911Y-104375000D01*
X107676638Y-104371573D01*
X107673370Y-104365223D01*
X107576221Y-103782328D01*
X107578241Y-103773608D01*
X107581112Y-103770782D01*
X107968355Y-103503584D01*
X107977111Y-103501707D01*
X107981644Y-103503584D01*
G37*
%TD.AperFunction*%
%TD*%
%TA.AperFunction,Conductor*%
%TO.N,3.3V*%
G36*
X108273362Y-104128427D02*
G01*
X108276630Y-104134777D01*
X108373778Y-104717668D01*
X108371758Y-104726391D01*
X108368882Y-104729221D01*
X107981645Y-104996414D01*
X107972889Y-104998292D01*
X107968355Y-104996414D01*
X107581117Y-104729221D01*
X107576254Y-104721702D01*
X107576221Y-104717673D01*
X107673370Y-104134775D01*
X107678111Y-104127179D01*
X107684911Y-104125000D01*
X108265089Y-104125000D01*
X108273362Y-104128427D01*
G37*
%TD.AperFunction*%
%TD*%
%TA.AperFunction,Conductor*%
%TO.N,3.3V*%
G36*
X108297944Y-102628427D02*
G01*
X108301281Y-102635249D01*
X108374119Y-103217952D01*
X108371744Y-103226586D01*
X108369154Y-103229033D01*
X107982674Y-103495704D01*
X107973918Y-103497582D01*
X107968125Y-103494701D01*
X107595139Y-103152966D01*
X107591354Y-103144850D01*
X107591592Y-103141938D01*
X107698050Y-102634299D01*
X107703102Y-102626905D01*
X107709501Y-102625000D01*
X108289671Y-102625000D01*
X108297944Y-102628427D01*
G37*
%TD.AperFunction*%
%TD*%
%TA.AperFunction,Conductor*%
%TO.N,BOOT*%
G36*
X97171282Y-105810389D02*
G01*
X97686525Y-105997204D01*
X97693134Y-106003244D01*
X97694236Y-106008202D01*
X97694236Y-106191797D01*
X97690809Y-106200070D01*
X97686524Y-106202796D01*
X97171290Y-106389608D01*
X97162344Y-106389207D01*
X97156303Y-106382597D01*
X97155837Y-106380939D01*
X97099469Y-106102318D01*
X97099469Y-106097680D01*
X97155835Y-105819067D01*
X97160834Y-105811641D01*
X97169622Y-105809922D01*
X97171282Y-105810389D01*
G37*
%TD.AperFunction*%
%TD*%
%TA.AperFunction,Conductor*%
%TO.N,BOOT*%
G36*
X115054344Y-95444116D02*
G01*
X115055193Y-95445626D01*
X115127080Y-95599293D01*
X115246791Y-95855193D01*
X115287422Y-95942046D01*
X115287823Y-95950992D01*
X115285097Y-95955277D01*
X115155277Y-96085097D01*
X115147004Y-96088524D01*
X115142047Y-96087422D01*
X114991428Y-96016961D01*
X114645626Y-95855193D01*
X114639585Y-95848583D01*
X114639986Y-95839637D01*
X114640835Y-95838127D01*
X114797985Y-95601263D01*
X114801263Y-95597985D01*
X115038127Y-95440834D01*
X115046915Y-95439116D01*
X115054344Y-95444116D01*
G37*
%TD.AperFunction*%
%TD*%
%TA.AperFunction,Conductor*%
%TO.N,RESET*%
G36*
X96904344Y-101994116D02*
G01*
X96905193Y-101995626D01*
X96977080Y-102149293D01*
X97096791Y-102405193D01*
X97137422Y-102492046D01*
X97137823Y-102500992D01*
X97135097Y-102505277D01*
X97005277Y-102635097D01*
X96997004Y-102638524D01*
X96992047Y-102637422D01*
X96841428Y-102566961D01*
X96495626Y-102405193D01*
X96489585Y-102398583D01*
X96489986Y-102389637D01*
X96490835Y-102388127D01*
X96647985Y-102151263D01*
X96651263Y-102147985D01*
X96888127Y-101990834D01*
X96896915Y-101989116D01*
X96904344Y-101994116D01*
G37*
%TD.AperFunction*%
%TD*%
%TA.AperFunction,Conductor*%
%TO.N,RESET*%
G36*
X104087655Y-104310792D02*
G01*
X104093696Y-104317402D01*
X104094165Y-104319070D01*
X104150530Y-104597680D01*
X104150530Y-104602320D01*
X104094165Y-104880929D01*
X104089165Y-104888358D01*
X104080377Y-104890077D01*
X104078709Y-104889608D01*
X103563476Y-104702796D01*
X103556866Y-104696755D01*
X103555764Y-104691797D01*
X103555764Y-104508202D01*
X103559191Y-104499929D01*
X103563473Y-104497204D01*
X104078711Y-104310391D01*
X104087655Y-104310792D01*
G37*
%TD.AperFunction*%
%TD*%
%TA.AperFunction,Conductor*%
%TO.N,Net-(D8-A)*%
G36*
X108810241Y-84003506D02*
G01*
X109243074Y-84196905D01*
X109249228Y-84203408D01*
X109250000Y-84207586D01*
X109250000Y-84592413D01*
X109246573Y-84600686D01*
X109243073Y-84603095D01*
X108810242Y-84796492D01*
X108801291Y-84796738D01*
X108796701Y-84793557D01*
X108626303Y-84600686D01*
X108455843Y-84407746D01*
X108452934Y-84399278D01*
X108455844Y-84392253D01*
X108618994Y-84207586D01*
X108796702Y-84006441D01*
X108804747Y-84002511D01*
X108810241Y-84003506D01*
G37*
%TD.AperFunction*%
%TD*%
%TA.AperFunction,Conductor*%
%TO.N,Net-(D8-A)*%
G36*
X109380600Y-84055584D02*
G01*
X109717691Y-84391715D01*
X109721130Y-84399983D01*
X109717715Y-84408261D01*
X109717691Y-84408285D01*
X109380600Y-84744415D01*
X109372322Y-84747830D01*
X109367730Y-84746884D01*
X109032091Y-84603039D01*
X109025837Y-84596630D01*
X109025000Y-84592285D01*
X109025000Y-84207715D01*
X109028427Y-84199442D01*
X109032091Y-84196961D01*
X109367731Y-84053114D01*
X109376684Y-84053006D01*
X109380600Y-84055584D01*
G37*
%TD.AperFunction*%
%TD*%
%TA.AperFunction,Conductor*%
%TO.N,Net-(SW3-A)*%
G36*
X106999995Y-81528427D02*
G01*
X107002755Y-81532806D01*
X107182200Y-82041168D01*
X107181722Y-82050110D01*
X107179071Y-82053689D01*
X106807904Y-82393758D01*
X106799489Y-82396820D01*
X106792096Y-82393758D01*
X106420928Y-82053689D01*
X106417143Y-82045573D01*
X106417799Y-82041168D01*
X106597245Y-81532806D01*
X106603230Y-81526145D01*
X106608278Y-81525000D01*
X106991722Y-81525000D01*
X106999995Y-81528427D01*
G37*
%TD.AperFunction*%
%TD*%
%TA.AperFunction,Conductor*%
%TO.N,Net-(SW3-A)*%
G36*
X107083056Y-81256265D02*
G01*
X107090485Y-81261265D01*
X107092259Y-81269760D01*
X107001702Y-81784563D01*
X106996894Y-81792117D01*
X106990179Y-81794236D01*
X106609821Y-81794236D01*
X106601548Y-81790809D01*
X106598298Y-81784563D01*
X106507740Y-81269760D01*
X106509682Y-81261018D01*
X106516942Y-81256265D01*
X106797682Y-81199469D01*
X106802318Y-81199469D01*
X107083056Y-81256265D01*
G37*
%TD.AperFunction*%
%TD*%
%TA.AperFunction,Conductor*%
%TO.N,Net-(D3-K)*%
G36*
X96559333Y-91118427D02*
G01*
X96562349Y-91123626D01*
X96653391Y-91457995D01*
X96653267Y-91464566D01*
X96371165Y-92365349D01*
X96365423Y-92372220D01*
X96356503Y-92373017D01*
X96349632Y-92367275D01*
X96348835Y-92365349D01*
X96066732Y-91464566D01*
X96066608Y-91457997D01*
X96157651Y-91123625D01*
X96163131Y-91116544D01*
X96168940Y-91115000D01*
X96551060Y-91115000D01*
X96559333Y-91118427D01*
G37*
%TD.AperFunction*%
%TD*%
%TA.AperFunction,Conductor*%
%TO.N,Net-(D3-K)*%
G36*
X97534074Y-85862856D02*
G01*
X97859046Y-85992639D01*
X97868811Y-85996539D01*
X97875223Y-86002790D01*
X97876151Y-86006705D01*
X97903804Y-86467890D01*
X97900878Y-86476353D01*
X97898110Y-86478643D01*
X97426755Y-86759251D01*
X97417893Y-86760539D01*
X97412497Y-86757471D01*
X97142675Y-86487649D01*
X97139248Y-86479376D01*
X97141027Y-86473175D01*
X97519818Y-85867518D01*
X97527110Y-85862322D01*
X97534074Y-85862856D01*
G37*
%TD.AperFunction*%
%TD*%
%TA.AperFunction,Conductor*%
%TO.N,Net-(D1-K)*%
G36*
X97537000Y-87449927D02*
G01*
X97868773Y-87498096D01*
X97876467Y-87502675D01*
X97877678Y-87504694D01*
X98095850Y-87968546D01*
X98096271Y-87977491D01*
X98094541Y-87980654D01*
X97833512Y-88320428D01*
X97825754Y-88324901D01*
X97824234Y-88325000D01*
X97443036Y-88325000D01*
X97434763Y-88321573D01*
X97431336Y-88313300D01*
X97431404Y-88312040D01*
X97468621Y-87968546D01*
X97523693Y-87460246D01*
X97527991Y-87452391D01*
X97536585Y-87449875D01*
X97537000Y-87449927D01*
G37*
%TD.AperFunction*%
%TD*%
%TA.AperFunction,Conductor*%
%TO.N,Net-(D1-K)*%
G36*
X97829333Y-91118427D02*
G01*
X97832349Y-91123626D01*
X97923391Y-91457995D01*
X97923267Y-91464566D01*
X97641165Y-92365349D01*
X97635423Y-92372220D01*
X97626503Y-92373017D01*
X97619632Y-92367275D01*
X97618835Y-92365349D01*
X97336732Y-91464566D01*
X97336608Y-91457997D01*
X97427651Y-91123625D01*
X97433131Y-91116544D01*
X97438940Y-91115000D01*
X97821060Y-91115000D01*
X97829333Y-91118427D01*
G37*
%TD.AperFunction*%
%TD*%
%TA.AperFunction,Conductor*%
%TO.N,Net-(U3-CS)*%
G36*
X103760362Y-98789986D02*
G01*
X103761872Y-98790835D01*
X103998734Y-98947984D01*
X104002015Y-98951265D01*
X104159164Y-99188127D01*
X104160883Y-99196915D01*
X104155883Y-99204344D01*
X104154373Y-99205193D01*
X103657953Y-99437422D01*
X103649007Y-99437823D01*
X103644722Y-99435097D01*
X103514902Y-99305277D01*
X103511475Y-99297004D01*
X103512575Y-99292051D01*
X103744806Y-98795625D01*
X103751416Y-98789585D01*
X103760362Y-98789986D01*
G37*
%TD.AperFunction*%
%TD*%
%TA.AperFunction,Conductor*%
%TO.N,Net-(U3-CS)*%
G36*
X104100070Y-95109191D02*
G01*
X104102796Y-95113476D01*
X104289608Y-95628709D01*
X104289207Y-95637655D01*
X104282597Y-95643696D01*
X104280929Y-95644165D01*
X104002320Y-95700530D01*
X103997680Y-95700530D01*
X103719070Y-95644165D01*
X103711641Y-95639165D01*
X103709922Y-95630377D01*
X103710387Y-95628720D01*
X103897204Y-95113476D01*
X103903245Y-95106866D01*
X103908203Y-95105764D01*
X104091797Y-95105764D01*
X104100070Y-95109191D01*
G37*
%TD.AperFunction*%
%TD*%
%TA.AperFunction,Conductor*%
%TO.N,Net-(U3-CS)*%
G36*
X104005121Y-92270211D02*
G01*
X104010520Y-92275610D01*
X104292077Y-92853997D01*
X104292617Y-92862936D01*
X104291317Y-92865570D01*
X104103469Y-93149752D01*
X104096049Y-93154764D01*
X104093709Y-93155000D01*
X103906291Y-93155000D01*
X103898018Y-93151573D01*
X103896531Y-93149752D01*
X103708682Y-92865570D01*
X103706978Y-92856778D01*
X103707922Y-92853997D01*
X103989480Y-92275610D01*
X103996183Y-92269671D01*
X104005121Y-92270211D01*
G37*
%TD.AperFunction*%
%TD*%
%TA.AperFunction,Conductor*%
%TO.N,Net-(U3-CS)*%
G36*
X101459573Y-98994596D02*
G01*
X101968891Y-99271677D01*
X101974521Y-99278640D01*
X101975000Y-99281954D01*
X101975000Y-99468045D01*
X101971573Y-99476318D01*
X101968891Y-99478323D01*
X101459573Y-99755403D01*
X101450668Y-99756346D01*
X101445355Y-99753029D01*
X101106240Y-99382902D01*
X101103179Y-99374489D01*
X101106240Y-99367097D01*
X101445357Y-98996969D01*
X101453471Y-98993185D01*
X101459573Y-98994596D01*
G37*
%TD.AperFunction*%
%TD*%
%TA.AperFunction,Conductor*%
%TO.N,DN*%
G36*
X90494261Y-95100623D02*
G01*
X91436813Y-95238423D01*
X91444503Y-95243011D01*
X91446697Y-95251693D01*
X91442109Y-95259383D01*
X91436813Y-95261577D01*
X90494261Y-95399377D01*
X90492568Y-95399500D01*
X90490400Y-95399500D01*
X90486700Y-95398900D01*
X90348000Y-95352666D01*
X90341235Y-95346798D01*
X90340000Y-95341566D01*
X90340000Y-95158433D01*
X90343427Y-95150160D01*
X90347998Y-95147333D01*
X90486700Y-95101100D01*
X90490400Y-95100500D01*
X90492568Y-95100500D01*
X90494261Y-95100623D01*
G37*
%TD.AperFunction*%
%TD*%
%TA.AperFunction,Conductor*%
%TO.N,DN*%
G36*
X90516641Y-94103894D02*
G01*
X91436815Y-94238423D01*
X91444503Y-94243010D01*
X91446697Y-94251692D01*
X91442109Y-94259382D01*
X91436813Y-94261576D01*
X90494261Y-94399377D01*
X90492568Y-94399500D01*
X90490400Y-94399500D01*
X90486700Y-94398900D01*
X90348000Y-94352666D01*
X90341235Y-94346798D01*
X90340000Y-94341566D01*
X90340000Y-94158433D01*
X90343427Y-94150160D01*
X90347998Y-94147333D01*
X90475744Y-94104751D01*
X90480368Y-94104191D01*
X90490400Y-94105000D01*
X90492577Y-94105000D01*
X90502140Y-94104652D01*
X90507459Y-94104460D01*
X90509152Y-94104337D01*
X90513687Y-94103841D01*
X90516641Y-94103894D01*
G37*
%TD.AperFunction*%
%TD*%
%TA.AperFunction,Conductor*%
%TO.N,DN*%
G36*
X92543300Y-94101100D02*
G01*
X92682000Y-94147333D01*
X92688765Y-94153201D01*
X92690000Y-94158433D01*
X92690000Y-94341566D01*
X92686573Y-94349839D01*
X92682000Y-94352666D01*
X92554262Y-94395245D01*
X92549623Y-94395807D01*
X92539602Y-94395000D01*
X92539600Y-94395000D01*
X92537432Y-94395000D01*
X92537423Y-94395000D01*
X92522546Y-94395539D01*
X92520849Y-94395662D01*
X92516314Y-94396157D01*
X92513353Y-94396103D01*
X91593186Y-94261576D01*
X91585496Y-94256988D01*
X91583302Y-94248306D01*
X91587890Y-94240616D01*
X91593181Y-94238423D01*
X92535739Y-94100623D01*
X92537432Y-94100500D01*
X92539600Y-94100500D01*
X92543300Y-94101100D01*
G37*
%TD.AperFunction*%
%TD*%
%TA.AperFunction,Conductor*%
%TO.N,DN*%
G36*
X93064674Y-93962986D02*
G01*
X93070691Y-93969617D01*
X93071145Y-93971245D01*
X93127520Y-94249903D01*
X93127520Y-94254543D01*
X93071165Y-94533102D01*
X93066165Y-94540531D01*
X93057377Y-94542250D01*
X93055669Y-94541767D01*
X92983980Y-94515476D01*
X92979735Y-94512764D01*
X92976512Y-94509541D01*
X92976511Y-94509540D01*
X92976506Y-94509537D01*
X92957389Y-94498499D01*
X92957389Y-94498500D01*
X92907989Y-94469979D01*
X92907988Y-94469978D01*
X92907985Y-94469977D01*
X92907987Y-94469977D01*
X92831565Y-94449500D01*
X92831562Y-94449500D01*
X92806151Y-94449500D01*
X92802123Y-94448785D01*
X92540426Y-94352813D01*
X92533838Y-94346747D01*
X92532754Y-94341828D01*
X92532754Y-94158235D01*
X92536181Y-94149962D01*
X92540504Y-94147222D01*
X93055729Y-93962551D01*
X93064674Y-93962986D01*
G37*
%TD.AperFunction*%
%TD*%
%TA.AperFunction,Conductor*%
%TO.N,TX*%
G36*
X114071282Y-90410389D02*
G01*
X114586525Y-90597204D01*
X114593134Y-90603244D01*
X114594236Y-90608202D01*
X114594236Y-90791797D01*
X114590809Y-90800070D01*
X114586524Y-90802796D01*
X114071290Y-90989608D01*
X114062344Y-90989207D01*
X114056303Y-90982597D01*
X114055837Y-90980939D01*
X113999469Y-90702318D01*
X113999469Y-90697680D01*
X114055835Y-90419067D01*
X114060834Y-90411641D01*
X114069622Y-90409922D01*
X114071282Y-90410389D01*
G37*
%TD.AperFunction*%
%TD*%
%TA.AperFunction,Conductor*%
%TO.N,DP*%
G36*
X92543300Y-95601100D02*
G01*
X92682000Y-95647333D01*
X92688765Y-95653201D01*
X92690000Y-95658433D01*
X92690000Y-95841566D01*
X92686573Y-95849839D01*
X92682000Y-95852666D01*
X92543300Y-95898900D01*
X92539600Y-95899500D01*
X92537432Y-95899500D01*
X92535739Y-95899377D01*
X92140311Y-95841566D01*
X91593185Y-95761576D01*
X91585496Y-95756989D01*
X91583302Y-95748307D01*
X91587890Y-95740617D01*
X91593185Y-95738423D01*
X92535739Y-95600623D01*
X92537432Y-95600500D01*
X92539600Y-95600500D01*
X92543300Y-95601100D01*
G37*
%TD.AperFunction*%
%TD*%
%TA.AperFunction,Conductor*%
%TO.N,DP*%
G36*
X93238315Y-95510163D02*
G01*
X93243775Y-95517261D01*
X93243945Y-95517983D01*
X93300030Y-95795210D01*
X93298311Y-95803998D01*
X93298272Y-95804057D01*
X93138913Y-96041133D01*
X93131454Y-96046087D01*
X93124257Y-96045209D01*
X92712518Y-95853150D01*
X92706469Y-95846547D01*
X92705764Y-95842547D01*
X92705764Y-95658966D01*
X92709191Y-95650693D01*
X92714419Y-95647669D01*
X93229435Y-95509005D01*
X93238315Y-95510163D01*
G37*
%TD.AperFunction*%
%TD*%
%TA.AperFunction,Conductor*%
%TO.N,DP*%
G36*
X92543300Y-94601100D02*
G01*
X92682000Y-94647333D01*
X92688765Y-94653201D01*
X92690000Y-94658433D01*
X92690000Y-94841566D01*
X92686573Y-94849839D01*
X92682000Y-94852666D01*
X92543300Y-94898900D01*
X92539600Y-94899500D01*
X92537432Y-94899500D01*
X92535739Y-94899377D01*
X92140311Y-94841566D01*
X91593185Y-94761576D01*
X91585496Y-94756989D01*
X91583302Y-94748307D01*
X91587890Y-94740617D01*
X91593185Y-94738423D01*
X92535739Y-94600623D01*
X92537432Y-94600500D01*
X92539600Y-94600500D01*
X92543300Y-94601100D01*
G37*
%TD.AperFunction*%
%TD*%
%TA.AperFunction,Conductor*%
%TO.N,DP*%
G36*
X92543300Y-95601100D02*
G01*
X92682000Y-95647333D01*
X92688765Y-95653201D01*
X92690000Y-95658433D01*
X92690000Y-95841566D01*
X92686573Y-95849839D01*
X92682000Y-95852666D01*
X92543300Y-95898900D01*
X92539600Y-95899500D01*
X92537432Y-95899500D01*
X92535739Y-95899377D01*
X92140311Y-95841566D01*
X91593185Y-95761576D01*
X91585496Y-95756989D01*
X91583302Y-95748307D01*
X91587890Y-95740617D01*
X91593185Y-95738423D01*
X92535739Y-95600623D01*
X92537432Y-95600500D01*
X92539600Y-95600500D01*
X92543300Y-95601100D01*
G37*
%TD.AperFunction*%
%TD*%
%TA.AperFunction,Conductor*%
%TO.N,RX*%
G36*
X114071282Y-91710389D02*
G01*
X114586525Y-91897204D01*
X114593134Y-91903244D01*
X114594236Y-91908202D01*
X114594236Y-92091797D01*
X114590809Y-92100070D01*
X114586524Y-92102796D01*
X114071290Y-92289608D01*
X114062344Y-92289207D01*
X114056303Y-92282597D01*
X114055837Y-92280939D01*
X113999469Y-92002318D01*
X113999469Y-91997680D01*
X114055835Y-91719067D01*
X114060834Y-91711641D01*
X114069622Y-91709922D01*
X114071282Y-91710389D01*
G37*
%TD.AperFunction*%
%TD*%
%TA.AperFunction,Conductor*%
%TO.N,OC*%
G36*
X103156218Y-101948787D02*
G01*
X103157349Y-101949781D01*
X103285566Y-102077998D01*
X103288993Y-102086271D01*
X103288961Y-102087135D01*
X103286891Y-102115078D01*
X103286698Y-102116496D01*
X103274500Y-102177825D01*
X103274500Y-102281958D01*
X103274468Y-102282822D01*
X103225875Y-102938875D01*
X103221846Y-102946873D01*
X103213343Y-102949679D01*
X103213191Y-102949667D01*
X103034442Y-102934091D01*
X103026498Y-102929959D01*
X103023773Y-102923032D01*
X102984667Y-102156813D01*
X102987084Y-102149077D01*
X103139810Y-101950911D01*
X103147573Y-101946451D01*
X103156218Y-101948787D01*
G37*
%TD.AperFunction*%
%TD*%
%TA.AperFunction,Conductor*%
%TO.N,OC*%
G36*
X105243929Y-92136950D02*
G01*
X105249871Y-92142487D01*
X105520506Y-92680331D01*
X105521164Y-92689262D01*
X105518328Y-92693863D01*
X105385292Y-92826899D01*
X105379561Y-92830046D01*
X105254007Y-92857994D01*
X105245187Y-92856447D01*
X105240951Y-92851707D01*
X105230015Y-92829307D01*
X104954766Y-92265505D01*
X104954217Y-92256568D01*
X104960148Y-92249859D01*
X104960835Y-92249551D01*
X105234976Y-92136924D01*
X105243929Y-92136950D01*
G37*
%TD.AperFunction*%
%TD*%
%TA.AperFunction,Conductor*%
%TO.N,OD*%
G36*
X103055121Y-92270211D02*
G01*
X103060520Y-92275610D01*
X103342941Y-92855770D01*
X103343558Y-92864477D01*
X103252613Y-93146886D01*
X103246815Y-93153711D01*
X103241476Y-93155000D01*
X102858524Y-93155000D01*
X102850251Y-93151573D01*
X102847387Y-93146886D01*
X102756441Y-92864475D01*
X102757057Y-92855772D01*
X103039480Y-92275609D01*
X103046183Y-92269671D01*
X103055121Y-92270211D01*
G37*
%TD.AperFunction*%
%TD*%
%TA.AperFunction,Conductor*%
%TO.N,GPIO2*%
G36*
X109984132Y-104601505D02*
G01*
X110415851Y-104697956D01*
X110423178Y-104703105D01*
X110425000Y-104709375D01*
X110425000Y-105290624D01*
X110421573Y-105298897D01*
X110415851Y-105302043D01*
X109984136Y-105398493D01*
X109975315Y-105396952D01*
X109972817Y-105394821D01*
X109890849Y-105302043D01*
X109630843Y-105007746D01*
X109627934Y-104999278D01*
X109630844Y-104992253D01*
X109972819Y-104605176D01*
X109980863Y-104601247D01*
X109984132Y-104601505D01*
G37*
%TD.AperFunction*%
%TD*%
%TA.AperFunction,Conductor*%
%TO.N,GPOI8*%
G36*
X109984132Y-103101505D02*
G01*
X110415851Y-103197956D01*
X110423178Y-103203105D01*
X110425000Y-103209375D01*
X110425000Y-103790624D01*
X110421573Y-103798897D01*
X110415851Y-103802043D01*
X109984136Y-103898493D01*
X109975315Y-103896952D01*
X109972817Y-103894821D01*
X109890849Y-103802043D01*
X109630843Y-103507746D01*
X109627934Y-103499278D01*
X109630844Y-103492253D01*
X109972819Y-103105176D01*
X109980863Y-103101247D01*
X109984132Y-103101505D01*
G37*
%TD.AperFunction*%
%TD*%
M02*
