%TF.GenerationSoftware,KiCad,Pcbnew,9.0.0*%
%TF.CreationDate,2025-11-29T16:16:49+09:00*%
%TF.ProjectId,ESP32_BLEKeyBorad,45535033-325f-4424-9c45-4b6579426f72,rev?*%
%TF.SameCoordinates,Original*%
%TF.FileFunction,Legend,Top*%
%TF.FilePolarity,Positive*%
%FSLAX46Y46*%
G04 Gerber Fmt 4.6, Leading zero omitted, Abs format (unit mm)*
G04 Created by KiCad (PCBNEW 9.0.0) date 2025-11-29 16:16:49*
%MOMM*%
%LPD*%
G01*
G04 APERTURE LIST*
%ADD10C,0.150000*%
%ADD11C,0.300000*%
%ADD12C,0.100000*%
%ADD13C,0.254000*%
%ADD14C,0.200000*%
%ADD15C,0.120000*%
%ADD16C,0.127000*%
G04 APERTURE END LIST*
D10*
G36*
X98016161Y-83579077D02*
G01*
X98046568Y-83609484D01*
X98080826Y-83678000D01*
X98080826Y-83785447D01*
X98046568Y-83853963D01*
X98016161Y-83884370D01*
X97947645Y-83918628D01*
X97659398Y-83918628D01*
X97659398Y-83544819D01*
X97947645Y-83544819D01*
X98016161Y-83579077D01*
G37*
G36*
X99341937Y-84655930D02*
G01*
X95303049Y-84655930D01*
X95303049Y-83898390D01*
X95414160Y-83898390D01*
X95414160Y-84041247D01*
X95414411Y-84043800D01*
X95414249Y-84044893D01*
X95415058Y-84050366D01*
X95415601Y-84055879D01*
X95416023Y-84056900D01*
X95416399Y-84059437D01*
X95464018Y-84249913D01*
X95464403Y-84250992D01*
X95464442Y-84251532D01*
X95466769Y-84257613D01*
X95468965Y-84263759D01*
X95469287Y-84264194D01*
X95469697Y-84265264D01*
X95517316Y-84360502D01*
X95521279Y-84366798D01*
X95522037Y-84368628D01*
X95523726Y-84370686D01*
X95525148Y-84372945D01*
X95526646Y-84374244D01*
X95531365Y-84379994D01*
X95626603Y-84475233D01*
X95637968Y-84484561D01*
X95640458Y-84485592D01*
X95642493Y-84487357D01*
X95655919Y-84493351D01*
X95798775Y-84540970D01*
X95806030Y-84542619D01*
X95807861Y-84543378D01*
X95810514Y-84543639D01*
X95813112Y-84544230D01*
X95815086Y-84544089D01*
X95822493Y-84544819D01*
X95917731Y-84544819D01*
X95925136Y-84544089D01*
X95927111Y-84544230D01*
X95929708Y-84543639D01*
X95932363Y-84543378D01*
X95934194Y-84542619D01*
X95941448Y-84540970D01*
X96084305Y-84493351D01*
X96097730Y-84487357D01*
X96099765Y-84485591D01*
X96102256Y-84484560D01*
X96113622Y-84475232D01*
X96161240Y-84427613D01*
X96170568Y-84416247D01*
X96181766Y-84389211D01*
X96181766Y-84359948D01*
X96170567Y-84332912D01*
X96149874Y-84312219D01*
X96122838Y-84301021D01*
X96093575Y-84301021D01*
X96066539Y-84312220D01*
X96055173Y-84321548D01*
X96020074Y-84356647D01*
X95905561Y-84394819D01*
X95834663Y-84394819D01*
X95720150Y-84356648D01*
X95646037Y-84282534D01*
X95607543Y-84205547D01*
X95564160Y-84032013D01*
X95564160Y-83907624D01*
X95607543Y-83734090D01*
X95646037Y-83657103D01*
X95720150Y-83582990D01*
X95834663Y-83544819D01*
X95905561Y-83544819D01*
X96020074Y-83582990D01*
X96055174Y-83618090D01*
X96066539Y-83627417D01*
X96093575Y-83638616D01*
X96122838Y-83638616D01*
X96149874Y-83627417D01*
X96170567Y-83606724D01*
X96181766Y-83579688D01*
X96181766Y-83550425D01*
X96170567Y-83523389D01*
X96161240Y-83512024D01*
X96119035Y-83469819D01*
X96461779Y-83469819D01*
X96461779Y-84469819D01*
X96463220Y-84484451D01*
X96474419Y-84511487D01*
X96495111Y-84532179D01*
X96522147Y-84543378D01*
X96551411Y-84543378D01*
X96578447Y-84532179D01*
X96599139Y-84511487D01*
X96610338Y-84484451D01*
X96611779Y-84469819D01*
X96611779Y-84021009D01*
X97033207Y-84021009D01*
X97033207Y-84469819D01*
X97034648Y-84484451D01*
X97045847Y-84511487D01*
X97066539Y-84532179D01*
X97093575Y-84543378D01*
X97122839Y-84543378D01*
X97149875Y-84532179D01*
X97170567Y-84511487D01*
X97181766Y-84484451D01*
X97183207Y-84469819D01*
X97183207Y-83469819D01*
X97509398Y-83469819D01*
X97509398Y-84469819D01*
X97510839Y-84484451D01*
X97522038Y-84511487D01*
X97542730Y-84532179D01*
X97569766Y-84543378D01*
X97599030Y-84543378D01*
X97626066Y-84532179D01*
X97646758Y-84511487D01*
X97657957Y-84484451D01*
X97659398Y-84469819D01*
X97659398Y-84068628D01*
X97783444Y-84068628D01*
X98094384Y-84512829D01*
X98103955Y-84523989D01*
X98128634Y-84539716D01*
X98157451Y-84544802D01*
X98186022Y-84538472D01*
X98209996Y-84521690D01*
X98225723Y-84497012D01*
X98230808Y-84468194D01*
X98224479Y-84439623D01*
X98217269Y-84426810D01*
X97966465Y-84068518D01*
X97979982Y-84067187D01*
X97982471Y-84066155D01*
X97985159Y-84065965D01*
X97998891Y-84060710D01*
X98094129Y-84013091D01*
X98100428Y-84009126D01*
X98102256Y-84008369D01*
X98104312Y-84006680D01*
X98106572Y-84005259D01*
X98107871Y-84003760D01*
X98113621Y-83999042D01*
X98161240Y-83951423D01*
X98165958Y-83945673D01*
X98167457Y-83944374D01*
X98168878Y-83942114D01*
X98170567Y-83940058D01*
X98171324Y-83938230D01*
X98175289Y-83931931D01*
X98192060Y-83898390D01*
X98461779Y-83898390D01*
X98461779Y-84041247D01*
X98462030Y-84043800D01*
X98461868Y-84044893D01*
X98462677Y-84050366D01*
X98463220Y-84055879D01*
X98463642Y-84056900D01*
X98464018Y-84059437D01*
X98511637Y-84249913D01*
X98512022Y-84250992D01*
X98512061Y-84251532D01*
X98514388Y-84257613D01*
X98516584Y-84263759D01*
X98516906Y-84264194D01*
X98517316Y-84265264D01*
X98564935Y-84360502D01*
X98568898Y-84366798D01*
X98569656Y-84368628D01*
X98571345Y-84370686D01*
X98572767Y-84372945D01*
X98574265Y-84374244D01*
X98578984Y-84379994D01*
X98674222Y-84475233D01*
X98685587Y-84484561D01*
X98688077Y-84485592D01*
X98690112Y-84487357D01*
X98703538Y-84493351D01*
X98846394Y-84540970D01*
X98853649Y-84542619D01*
X98855480Y-84543378D01*
X98858133Y-84543639D01*
X98860731Y-84544230D01*
X98862705Y-84544089D01*
X98870112Y-84544819D01*
X98965350Y-84544819D01*
X98972755Y-84544089D01*
X98974730Y-84544230D01*
X98977327Y-84543639D01*
X98979982Y-84543378D01*
X98981813Y-84542619D01*
X98989067Y-84540970D01*
X99131924Y-84493351D01*
X99145349Y-84487357D01*
X99147384Y-84485591D01*
X99149875Y-84484560D01*
X99161241Y-84475232D01*
X99208859Y-84427613D01*
X99218187Y-84416247D01*
X99225468Y-84398668D01*
X99229385Y-84389212D01*
X99230826Y-84374580D01*
X99230826Y-84041247D01*
X99229385Y-84026615D01*
X99218186Y-83999579D01*
X99197494Y-83978887D01*
X99170458Y-83967688D01*
X99155826Y-83966247D01*
X98965350Y-83966247D01*
X98950718Y-83967688D01*
X98923682Y-83978887D01*
X98902990Y-83999579D01*
X98891791Y-84026615D01*
X98891791Y-84055879D01*
X98902990Y-84082915D01*
X98923682Y-84103607D01*
X98950718Y-84114806D01*
X98965350Y-84116247D01*
X99080826Y-84116247D01*
X99080826Y-84343514D01*
X99067693Y-84356647D01*
X98953180Y-84394819D01*
X98882282Y-84394819D01*
X98767769Y-84356648D01*
X98693656Y-84282534D01*
X98655162Y-84205547D01*
X98611779Y-84032013D01*
X98611779Y-83907624D01*
X98655162Y-83734090D01*
X98693656Y-83657103D01*
X98767769Y-83582990D01*
X98882282Y-83544819D01*
X98995264Y-83544819D01*
X99074666Y-83584520D01*
X99088397Y-83589775D01*
X99117587Y-83591849D01*
X99145349Y-83582595D01*
X99167456Y-83563422D01*
X99180544Y-83537247D01*
X99182618Y-83508057D01*
X99173364Y-83480296D01*
X99154191Y-83458188D01*
X99141748Y-83450356D01*
X99046510Y-83402737D01*
X99032778Y-83397482D01*
X99030090Y-83397291D01*
X99027601Y-83396260D01*
X99012969Y-83394819D01*
X98870112Y-83394819D01*
X98862705Y-83395548D01*
X98860731Y-83395408D01*
X98858133Y-83395998D01*
X98855480Y-83396260D01*
X98853649Y-83397018D01*
X98846394Y-83398668D01*
X98703538Y-83446287D01*
X98690112Y-83452281D01*
X98688077Y-83454045D01*
X98685587Y-83455077D01*
X98674222Y-83464405D01*
X98578984Y-83559643D01*
X98574265Y-83565392D01*
X98572767Y-83566692D01*
X98571345Y-83568951D01*
X98569657Y-83571008D01*
X98568899Y-83572835D01*
X98564935Y-83579135D01*
X98517316Y-83674373D01*
X98516906Y-83675442D01*
X98516584Y-83675878D01*
X98514388Y-83682023D01*
X98512061Y-83688105D01*
X98512022Y-83688644D01*
X98511637Y-83689724D01*
X98464018Y-83880200D01*
X98463642Y-83882736D01*
X98463220Y-83883758D01*
X98462677Y-83889270D01*
X98461868Y-83894744D01*
X98462030Y-83895836D01*
X98461779Y-83898390D01*
X98192060Y-83898390D01*
X98222908Y-83836693D01*
X98228163Y-83822962D01*
X98228354Y-83820272D01*
X98229385Y-83817784D01*
X98230826Y-83803152D01*
X98230826Y-83660295D01*
X98229385Y-83645663D01*
X98228354Y-83643174D01*
X98228163Y-83640485D01*
X98222908Y-83626754D01*
X98175289Y-83531516D01*
X98171324Y-83525216D01*
X98170567Y-83523389D01*
X98168878Y-83521332D01*
X98167457Y-83519073D01*
X98165958Y-83517773D01*
X98161240Y-83512024D01*
X98113621Y-83464405D01*
X98107871Y-83459686D01*
X98106572Y-83458188D01*
X98104312Y-83456766D01*
X98102256Y-83455078D01*
X98100428Y-83454320D01*
X98094129Y-83450356D01*
X97998891Y-83402737D01*
X97985159Y-83397482D01*
X97982471Y-83397291D01*
X97979982Y-83396260D01*
X97965350Y-83394819D01*
X97584398Y-83394819D01*
X97569766Y-83396260D01*
X97542730Y-83407459D01*
X97522038Y-83428151D01*
X97510839Y-83455187D01*
X97509398Y-83469819D01*
X97183207Y-83469819D01*
X97181766Y-83455187D01*
X97170567Y-83428151D01*
X97149875Y-83407459D01*
X97122839Y-83396260D01*
X97093575Y-83396260D01*
X97066539Y-83407459D01*
X97045847Y-83428151D01*
X97034648Y-83455187D01*
X97033207Y-83469819D01*
X97033207Y-83871009D01*
X96611779Y-83871009D01*
X96611779Y-83469819D01*
X96610338Y-83455187D01*
X96599139Y-83428151D01*
X96578447Y-83407459D01*
X96551411Y-83396260D01*
X96522147Y-83396260D01*
X96495111Y-83407459D01*
X96474419Y-83428151D01*
X96463220Y-83455187D01*
X96461779Y-83469819D01*
X96119035Y-83469819D01*
X96113621Y-83464405D01*
X96102256Y-83455078D01*
X96099765Y-83454046D01*
X96097730Y-83452281D01*
X96084305Y-83446287D01*
X95941448Y-83398668D01*
X95934194Y-83397018D01*
X95932363Y-83396260D01*
X95929708Y-83395998D01*
X95927111Y-83395408D01*
X95925136Y-83395548D01*
X95917731Y-83394819D01*
X95822493Y-83394819D01*
X95815086Y-83395548D01*
X95813112Y-83395408D01*
X95810514Y-83395998D01*
X95807861Y-83396260D01*
X95806030Y-83397018D01*
X95798775Y-83398668D01*
X95655919Y-83446287D01*
X95642493Y-83452281D01*
X95640458Y-83454045D01*
X95637968Y-83455077D01*
X95626603Y-83464405D01*
X95531365Y-83559643D01*
X95526646Y-83565392D01*
X95525148Y-83566692D01*
X95523726Y-83568951D01*
X95522038Y-83571008D01*
X95521280Y-83572835D01*
X95517316Y-83579135D01*
X95469697Y-83674373D01*
X95469287Y-83675442D01*
X95468965Y-83675878D01*
X95466769Y-83682023D01*
X95464442Y-83688105D01*
X95464403Y-83688644D01*
X95464018Y-83689724D01*
X95416399Y-83880200D01*
X95416023Y-83882736D01*
X95415601Y-83883758D01*
X95415058Y-83889270D01*
X95414249Y-83894744D01*
X95414411Y-83895836D01*
X95414160Y-83898390D01*
X95303049Y-83898390D01*
X95303049Y-83283708D01*
X99341937Y-83283708D01*
X99341937Y-84655930D01*
G37*
D11*
X116454510Y-82315114D02*
X116668796Y-82386542D01*
X116668796Y-82386542D02*
X116740225Y-82457971D01*
X116740225Y-82457971D02*
X116811653Y-82600828D01*
X116811653Y-82600828D02*
X116811653Y-82815114D01*
X116811653Y-82815114D02*
X116740225Y-82957971D01*
X116740225Y-82957971D02*
X116668796Y-83029400D01*
X116668796Y-83029400D02*
X116525939Y-83100828D01*
X116525939Y-83100828D02*
X115954510Y-83100828D01*
X115954510Y-83100828D02*
X115954510Y-81600828D01*
X115954510Y-81600828D02*
X116454510Y-81600828D01*
X116454510Y-81600828D02*
X116597368Y-81672257D01*
X116597368Y-81672257D02*
X116668796Y-81743685D01*
X116668796Y-81743685D02*
X116740225Y-81886542D01*
X116740225Y-81886542D02*
X116740225Y-82029400D01*
X116740225Y-82029400D02*
X116668796Y-82172257D01*
X116668796Y-82172257D02*
X116597368Y-82243685D01*
X116597368Y-82243685D02*
X116454510Y-82315114D01*
X116454510Y-82315114D02*
X115954510Y-82315114D01*
X117383082Y-82672257D02*
X118097368Y-82672257D01*
X117240225Y-83100828D02*
X117740225Y-81600828D01*
X117740225Y-81600828D02*
X118240225Y-83100828D01*
X118525939Y-81600828D02*
X119383082Y-81600828D01*
X118954510Y-83100828D02*
X118954510Y-81600828D01*
X120597367Y-83100828D02*
X119883081Y-83100828D01*
X119883081Y-83100828D02*
X119883081Y-81600828D01*
X121097367Y-82315114D02*
X121597367Y-82315114D01*
X121811653Y-83100828D02*
X121097367Y-83100828D01*
X121097367Y-83100828D02*
X121097367Y-81600828D01*
X121097367Y-81600828D02*
X121811653Y-81600828D01*
X122454510Y-83100828D02*
X122454510Y-81600828D01*
X122454510Y-81600828D02*
X122811653Y-81600828D01*
X122811653Y-81600828D02*
X123025939Y-81672257D01*
X123025939Y-81672257D02*
X123168796Y-81815114D01*
X123168796Y-81815114D02*
X123240225Y-81957971D01*
X123240225Y-81957971D02*
X123311653Y-82243685D01*
X123311653Y-82243685D02*
X123311653Y-82457971D01*
X123311653Y-82457971D02*
X123240225Y-82743685D01*
X123240225Y-82743685D02*
X123168796Y-82886542D01*
X123168796Y-82886542D02*
X123025939Y-83029400D01*
X123025939Y-83029400D02*
X122811653Y-83100828D01*
X122811653Y-83100828D02*
X122454510Y-83100828D01*
D12*
X101875312Y-108937320D02*
X101827693Y-108984940D01*
X101827693Y-108984940D02*
X101684836Y-109032559D01*
X101684836Y-109032559D02*
X101589598Y-109032559D01*
X101589598Y-109032559D02*
X101446741Y-108984940D01*
X101446741Y-108984940D02*
X101351503Y-108889701D01*
X101351503Y-108889701D02*
X101303884Y-108794463D01*
X101303884Y-108794463D02*
X101256265Y-108603987D01*
X101256265Y-108603987D02*
X101256265Y-108461130D01*
X101256265Y-108461130D02*
X101303884Y-108270654D01*
X101303884Y-108270654D02*
X101351503Y-108175416D01*
X101351503Y-108175416D02*
X101446741Y-108080178D01*
X101446741Y-108080178D02*
X101589598Y-108032559D01*
X101589598Y-108032559D02*
X101684836Y-108032559D01*
X101684836Y-108032559D02*
X101827693Y-108080178D01*
X101827693Y-108080178D02*
X101875312Y-108127797D01*
X102303884Y-109032559D02*
X102303884Y-108032559D01*
X102732455Y-109032559D02*
X102732455Y-108508749D01*
X102732455Y-108508749D02*
X102684836Y-108413511D01*
X102684836Y-108413511D02*
X102589598Y-108365892D01*
X102589598Y-108365892D02*
X102446741Y-108365892D01*
X102446741Y-108365892D02*
X102351503Y-108413511D01*
X102351503Y-108413511D02*
X102303884Y-108461130D01*
X103637217Y-109032559D02*
X103637217Y-108508749D01*
X103637217Y-108508749D02*
X103589598Y-108413511D01*
X103589598Y-108413511D02*
X103494360Y-108365892D01*
X103494360Y-108365892D02*
X103303884Y-108365892D01*
X103303884Y-108365892D02*
X103208646Y-108413511D01*
X103637217Y-108984940D02*
X103541979Y-109032559D01*
X103541979Y-109032559D02*
X103303884Y-109032559D01*
X103303884Y-109032559D02*
X103208646Y-108984940D01*
X103208646Y-108984940D02*
X103161027Y-108889701D01*
X103161027Y-108889701D02*
X103161027Y-108794463D01*
X103161027Y-108794463D02*
X103208646Y-108699225D01*
X103208646Y-108699225D02*
X103303884Y-108651606D01*
X103303884Y-108651606D02*
X103541979Y-108651606D01*
X103541979Y-108651606D02*
X103637217Y-108603987D01*
X104113408Y-109032559D02*
X104113408Y-108365892D01*
X104113408Y-108556368D02*
X104161027Y-108461130D01*
X104161027Y-108461130D02*
X104208646Y-108413511D01*
X104208646Y-108413511D02*
X104303884Y-108365892D01*
X104303884Y-108365892D02*
X104399122Y-108365892D01*
X105161027Y-108365892D02*
X105161027Y-109175416D01*
X105161027Y-109175416D02*
X105113408Y-109270654D01*
X105113408Y-109270654D02*
X105065789Y-109318273D01*
X105065789Y-109318273D02*
X104970551Y-109365892D01*
X104970551Y-109365892D02*
X104827694Y-109365892D01*
X104827694Y-109365892D02*
X104732456Y-109318273D01*
X105161027Y-108984940D02*
X105065789Y-109032559D01*
X105065789Y-109032559D02*
X104875313Y-109032559D01*
X104875313Y-109032559D02*
X104780075Y-108984940D01*
X104780075Y-108984940D02*
X104732456Y-108937320D01*
X104732456Y-108937320D02*
X104684837Y-108842082D01*
X104684837Y-108842082D02*
X104684837Y-108556368D01*
X104684837Y-108556368D02*
X104732456Y-108461130D01*
X104732456Y-108461130D02*
X104780075Y-108413511D01*
X104780075Y-108413511D02*
X104875313Y-108365892D01*
X104875313Y-108365892D02*
X105065789Y-108365892D01*
X105065789Y-108365892D02*
X105161027Y-108413511D01*
X106018170Y-108984940D02*
X105922932Y-109032559D01*
X105922932Y-109032559D02*
X105732456Y-109032559D01*
X105732456Y-109032559D02*
X105637218Y-108984940D01*
X105637218Y-108984940D02*
X105589599Y-108889701D01*
X105589599Y-108889701D02*
X105589599Y-108508749D01*
X105589599Y-108508749D02*
X105637218Y-108413511D01*
X105637218Y-108413511D02*
X105732456Y-108365892D01*
X105732456Y-108365892D02*
X105922932Y-108365892D01*
X105922932Y-108365892D02*
X106018170Y-108413511D01*
X106018170Y-108413511D02*
X106065789Y-108508749D01*
X106065789Y-108508749D02*
X106065789Y-108603987D01*
X106065789Y-108603987D02*
X105589599Y-108699225D01*
X107065789Y-108937320D02*
X107018170Y-108984940D01*
X107018170Y-108984940D02*
X106875313Y-109032559D01*
X106875313Y-109032559D02*
X106780075Y-109032559D01*
X106780075Y-109032559D02*
X106637218Y-108984940D01*
X106637218Y-108984940D02*
X106541980Y-108889701D01*
X106541980Y-108889701D02*
X106494361Y-108794463D01*
X106494361Y-108794463D02*
X106446742Y-108603987D01*
X106446742Y-108603987D02*
X106446742Y-108461130D01*
X106446742Y-108461130D02*
X106494361Y-108270654D01*
X106494361Y-108270654D02*
X106541980Y-108175416D01*
X106541980Y-108175416D02*
X106637218Y-108080178D01*
X106637218Y-108080178D02*
X106780075Y-108032559D01*
X106780075Y-108032559D02*
X106875313Y-108032559D01*
X106875313Y-108032559D02*
X107018170Y-108080178D01*
X107018170Y-108080178D02*
X107065789Y-108127797D01*
X107922932Y-108365892D02*
X107922932Y-109032559D01*
X107494361Y-108365892D02*
X107494361Y-108889701D01*
X107494361Y-108889701D02*
X107541980Y-108984940D01*
X107541980Y-108984940D02*
X107637218Y-109032559D01*
X107637218Y-109032559D02*
X107780075Y-109032559D01*
X107780075Y-109032559D02*
X107875313Y-108984940D01*
X107875313Y-108984940D02*
X107922932Y-108937320D01*
X108399123Y-109032559D02*
X108399123Y-108365892D01*
X108399123Y-108556368D02*
X108446742Y-108461130D01*
X108446742Y-108461130D02*
X108494361Y-108413511D01*
X108494361Y-108413511D02*
X108589599Y-108365892D01*
X108589599Y-108365892D02*
X108684837Y-108365892D01*
X109018171Y-109032559D02*
X109018171Y-108365892D01*
X109018171Y-108556368D02*
X109065790Y-108461130D01*
X109065790Y-108461130D02*
X109113409Y-108413511D01*
X109113409Y-108413511D02*
X109208647Y-108365892D01*
X109208647Y-108365892D02*
X109303885Y-108365892D01*
X110018171Y-108984940D02*
X109922933Y-109032559D01*
X109922933Y-109032559D02*
X109732457Y-109032559D01*
X109732457Y-109032559D02*
X109637219Y-108984940D01*
X109637219Y-108984940D02*
X109589600Y-108889701D01*
X109589600Y-108889701D02*
X109589600Y-108508749D01*
X109589600Y-108508749D02*
X109637219Y-108413511D01*
X109637219Y-108413511D02*
X109732457Y-108365892D01*
X109732457Y-108365892D02*
X109922933Y-108365892D01*
X109922933Y-108365892D02*
X110018171Y-108413511D01*
X110018171Y-108413511D02*
X110065790Y-108508749D01*
X110065790Y-108508749D02*
X110065790Y-108603987D01*
X110065790Y-108603987D02*
X109589600Y-108699225D01*
X110494362Y-108365892D02*
X110494362Y-109032559D01*
X110494362Y-108461130D02*
X110541981Y-108413511D01*
X110541981Y-108413511D02*
X110637219Y-108365892D01*
X110637219Y-108365892D02*
X110780076Y-108365892D01*
X110780076Y-108365892D02*
X110875314Y-108413511D01*
X110875314Y-108413511D02*
X110922933Y-108508749D01*
X110922933Y-108508749D02*
X110922933Y-109032559D01*
X111256267Y-108365892D02*
X111637219Y-108365892D01*
X111399124Y-108032559D02*
X111399124Y-108889701D01*
X111399124Y-108889701D02*
X111446743Y-108984940D01*
X111446743Y-108984940D02*
X111541981Y-109032559D01*
X111541981Y-109032559D02*
X111637219Y-109032559D01*
X101875312Y-110642503D02*
X101541979Y-110166312D01*
X101303884Y-110642503D02*
X101303884Y-109642503D01*
X101303884Y-109642503D02*
X101684836Y-109642503D01*
X101684836Y-109642503D02*
X101780074Y-109690122D01*
X101780074Y-109690122D02*
X101827693Y-109737741D01*
X101827693Y-109737741D02*
X101875312Y-109832979D01*
X101875312Y-109832979D02*
X101875312Y-109975836D01*
X101875312Y-109975836D02*
X101827693Y-110071074D01*
X101827693Y-110071074D02*
X101780074Y-110118693D01*
X101780074Y-110118693D02*
X101684836Y-110166312D01*
X101684836Y-110166312D02*
X101303884Y-110166312D01*
X102256265Y-109737741D02*
X102303884Y-109690122D01*
X102303884Y-109690122D02*
X102399122Y-109642503D01*
X102399122Y-109642503D02*
X102637217Y-109642503D01*
X102637217Y-109642503D02*
X102732455Y-109690122D01*
X102732455Y-109690122D02*
X102780074Y-109737741D01*
X102780074Y-109737741D02*
X102827693Y-109832979D01*
X102827693Y-109832979D02*
X102827693Y-109928217D01*
X102827693Y-109928217D02*
X102780074Y-110071074D01*
X102780074Y-110071074D02*
X102208646Y-110642503D01*
X102208646Y-110642503D02*
X102827693Y-110642503D01*
X110827696Y-109737741D02*
X110875315Y-109690122D01*
X110875315Y-109690122D02*
X110970553Y-109642503D01*
X110970553Y-109642503D02*
X111208648Y-109642503D01*
X111208648Y-109642503D02*
X111303886Y-109690122D01*
X111303886Y-109690122D02*
X111351505Y-109737741D01*
X111351505Y-109737741D02*
X111399124Y-109832979D01*
X111399124Y-109832979D02*
X111399124Y-109928217D01*
X111399124Y-109928217D02*
X111351505Y-110071074D01*
X111351505Y-110071074D02*
X110780077Y-110642503D01*
X110780077Y-110642503D02*
X111399124Y-110642503D01*
X111827696Y-110642503D02*
X111827696Y-109642503D01*
X111922934Y-110261550D02*
X112208648Y-110642503D01*
X112208648Y-109975836D02*
X111827696Y-110356788D01*
X112637220Y-110118693D02*
X113399125Y-110118693D01*
X113399125Y-110404407D02*
X112637220Y-110404407D01*
X114351505Y-109642503D02*
X113875315Y-109642503D01*
X113875315Y-109642503D02*
X113827696Y-110118693D01*
X113827696Y-110118693D02*
X113875315Y-110071074D01*
X113875315Y-110071074D02*
X113970553Y-110023455D01*
X113970553Y-110023455D02*
X114208648Y-110023455D01*
X114208648Y-110023455D02*
X114303886Y-110071074D01*
X114303886Y-110071074D02*
X114351505Y-110118693D01*
X114351505Y-110118693D02*
X114399124Y-110213931D01*
X114399124Y-110213931D02*
X114399124Y-110452026D01*
X114399124Y-110452026D02*
X114351505Y-110547264D01*
X114351505Y-110547264D02*
X114303886Y-110594884D01*
X114303886Y-110594884D02*
X114208648Y-110642503D01*
X114208648Y-110642503D02*
X113970553Y-110642503D01*
X113970553Y-110642503D02*
X113875315Y-110594884D01*
X113875315Y-110594884D02*
X113827696Y-110547264D01*
X114970553Y-110071074D02*
X114875315Y-110023455D01*
X114875315Y-110023455D02*
X114827696Y-109975836D01*
X114827696Y-109975836D02*
X114780077Y-109880598D01*
X114780077Y-109880598D02*
X114780077Y-109832979D01*
X114780077Y-109832979D02*
X114827696Y-109737741D01*
X114827696Y-109737741D02*
X114875315Y-109690122D01*
X114875315Y-109690122D02*
X114970553Y-109642503D01*
X114970553Y-109642503D02*
X115161029Y-109642503D01*
X115161029Y-109642503D02*
X115256267Y-109690122D01*
X115256267Y-109690122D02*
X115303886Y-109737741D01*
X115303886Y-109737741D02*
X115351505Y-109832979D01*
X115351505Y-109832979D02*
X115351505Y-109880598D01*
X115351505Y-109880598D02*
X115303886Y-109975836D01*
X115303886Y-109975836D02*
X115256267Y-110023455D01*
X115256267Y-110023455D02*
X115161029Y-110071074D01*
X115161029Y-110071074D02*
X114970553Y-110071074D01*
X114970553Y-110071074D02*
X114875315Y-110118693D01*
X114875315Y-110118693D02*
X114827696Y-110166312D01*
X114827696Y-110166312D02*
X114780077Y-110261550D01*
X114780077Y-110261550D02*
X114780077Y-110452026D01*
X114780077Y-110452026D02*
X114827696Y-110547264D01*
X114827696Y-110547264D02*
X114875315Y-110594884D01*
X114875315Y-110594884D02*
X114970553Y-110642503D01*
X114970553Y-110642503D02*
X115161029Y-110642503D01*
X115161029Y-110642503D02*
X115256267Y-110594884D01*
X115256267Y-110594884D02*
X115303886Y-110547264D01*
X115303886Y-110547264D02*
X115351505Y-110452026D01*
X115351505Y-110452026D02*
X115351505Y-110261550D01*
X115351505Y-110261550D02*
X115303886Y-110166312D01*
X115303886Y-110166312D02*
X115256267Y-110118693D01*
X115256267Y-110118693D02*
X115161029Y-110071074D01*
X115970553Y-109642503D02*
X116065791Y-109642503D01*
X116065791Y-109642503D02*
X116161029Y-109690122D01*
X116161029Y-109690122D02*
X116208648Y-109737741D01*
X116208648Y-109737741D02*
X116256267Y-109832979D01*
X116256267Y-109832979D02*
X116303886Y-110023455D01*
X116303886Y-110023455D02*
X116303886Y-110261550D01*
X116303886Y-110261550D02*
X116256267Y-110452026D01*
X116256267Y-110452026D02*
X116208648Y-110547264D01*
X116208648Y-110547264D02*
X116161029Y-110594884D01*
X116161029Y-110594884D02*
X116065791Y-110642503D01*
X116065791Y-110642503D02*
X115970553Y-110642503D01*
X115970553Y-110642503D02*
X115875315Y-110594884D01*
X115875315Y-110594884D02*
X115827696Y-110547264D01*
X115827696Y-110547264D02*
X115780077Y-110452026D01*
X115780077Y-110452026D02*
X115732458Y-110261550D01*
X115732458Y-110261550D02*
X115732458Y-110023455D01*
X115732458Y-110023455D02*
X115780077Y-109832979D01*
X115780077Y-109832979D02*
X115827696Y-109737741D01*
X115827696Y-109737741D02*
X115875315Y-109690122D01*
X115875315Y-109690122D02*
X115970553Y-109642503D01*
X116732458Y-110642503D02*
X116732458Y-109975836D01*
X116732458Y-110071074D02*
X116780077Y-110023455D01*
X116780077Y-110023455D02*
X116875315Y-109975836D01*
X116875315Y-109975836D02*
X117018172Y-109975836D01*
X117018172Y-109975836D02*
X117113410Y-110023455D01*
X117113410Y-110023455D02*
X117161029Y-110118693D01*
X117161029Y-110118693D02*
X117161029Y-110642503D01*
X117161029Y-110118693D02*
X117208648Y-110023455D01*
X117208648Y-110023455D02*
X117303886Y-109975836D01*
X117303886Y-109975836D02*
X117446743Y-109975836D01*
X117446743Y-109975836D02*
X117541982Y-110023455D01*
X117541982Y-110023455D02*
X117589601Y-110118693D01*
X117589601Y-110118693D02*
X117589601Y-110642503D01*
X118018172Y-110356788D02*
X118494362Y-110356788D01*
X117922934Y-110642503D02*
X118256267Y-109642503D01*
X118256267Y-109642503D02*
X118589600Y-110642503D01*
X101827693Y-112252447D02*
X101256265Y-112252447D01*
X101541979Y-112252447D02*
X101541979Y-111252447D01*
X101541979Y-111252447D02*
X101446741Y-111395304D01*
X101446741Y-111395304D02*
X101351503Y-111490542D01*
X101351503Y-111490542D02*
X101256265Y-111538161D01*
X102446741Y-111252447D02*
X102541979Y-111252447D01*
X102541979Y-111252447D02*
X102637217Y-111300066D01*
X102637217Y-111300066D02*
X102684836Y-111347685D01*
X102684836Y-111347685D02*
X102732455Y-111442923D01*
X102732455Y-111442923D02*
X102780074Y-111633399D01*
X102780074Y-111633399D02*
X102780074Y-111871494D01*
X102780074Y-111871494D02*
X102732455Y-112061970D01*
X102732455Y-112061970D02*
X102684836Y-112157208D01*
X102684836Y-112157208D02*
X102637217Y-112204828D01*
X102637217Y-112204828D02*
X102541979Y-112252447D01*
X102541979Y-112252447D02*
X102446741Y-112252447D01*
X102446741Y-112252447D02*
X102351503Y-112204828D01*
X102351503Y-112204828D02*
X102303884Y-112157208D01*
X102303884Y-112157208D02*
X102256265Y-112061970D01*
X102256265Y-112061970D02*
X102208646Y-111871494D01*
X102208646Y-111871494D02*
X102208646Y-111633399D01*
X102208646Y-111633399D02*
X102256265Y-111442923D01*
X102256265Y-111442923D02*
X102303884Y-111347685D01*
X102303884Y-111347685D02*
X102351503Y-111300066D01*
X102351503Y-111300066D02*
X102446741Y-111252447D01*
X103208646Y-112252447D02*
X103208646Y-111252447D01*
X103303884Y-111871494D02*
X103589598Y-112252447D01*
X103589598Y-111585780D02*
X103208646Y-111966732D01*
X104018170Y-111728637D02*
X104780075Y-111728637D01*
X104780075Y-112014351D02*
X104018170Y-112014351D01*
X105780074Y-112252447D02*
X105208646Y-112252447D01*
X105494360Y-112252447D02*
X105494360Y-111252447D01*
X105494360Y-111252447D02*
X105399122Y-111395304D01*
X105399122Y-111395304D02*
X105303884Y-111490542D01*
X105303884Y-111490542D02*
X105208646Y-111538161D01*
X106113408Y-111252447D02*
X106732455Y-111252447D01*
X106732455Y-111252447D02*
X106399122Y-111633399D01*
X106399122Y-111633399D02*
X106541979Y-111633399D01*
X106541979Y-111633399D02*
X106637217Y-111681018D01*
X106637217Y-111681018D02*
X106684836Y-111728637D01*
X106684836Y-111728637D02*
X106732455Y-111823875D01*
X106732455Y-111823875D02*
X106732455Y-112061970D01*
X106732455Y-112061970D02*
X106684836Y-112157208D01*
X106684836Y-112157208D02*
X106637217Y-112204828D01*
X106637217Y-112204828D02*
X106541979Y-112252447D01*
X106541979Y-112252447D02*
X106256265Y-112252447D01*
X106256265Y-112252447D02*
X106161027Y-112204828D01*
X106161027Y-112204828D02*
X106113408Y-112157208D01*
X107351503Y-111252447D02*
X107446741Y-111252447D01*
X107446741Y-111252447D02*
X107541979Y-111300066D01*
X107541979Y-111300066D02*
X107589598Y-111347685D01*
X107589598Y-111347685D02*
X107637217Y-111442923D01*
X107637217Y-111442923D02*
X107684836Y-111633399D01*
X107684836Y-111633399D02*
X107684836Y-111871494D01*
X107684836Y-111871494D02*
X107637217Y-112061970D01*
X107637217Y-112061970D02*
X107589598Y-112157208D01*
X107589598Y-112157208D02*
X107541979Y-112204828D01*
X107541979Y-112204828D02*
X107446741Y-112252447D01*
X107446741Y-112252447D02*
X107351503Y-112252447D01*
X107351503Y-112252447D02*
X107256265Y-112204828D01*
X107256265Y-112204828D02*
X107208646Y-112157208D01*
X107208646Y-112157208D02*
X107161027Y-112061970D01*
X107161027Y-112061970D02*
X107113408Y-111871494D01*
X107113408Y-111871494D02*
X107113408Y-111633399D01*
X107113408Y-111633399D02*
X107161027Y-111442923D01*
X107161027Y-111442923D02*
X107208646Y-111347685D01*
X107208646Y-111347685D02*
X107256265Y-111300066D01*
X107256265Y-111300066D02*
X107351503Y-111252447D01*
X108113408Y-112252447D02*
X108113408Y-111585780D01*
X108113408Y-111681018D02*
X108161027Y-111633399D01*
X108161027Y-111633399D02*
X108256265Y-111585780D01*
X108256265Y-111585780D02*
X108399122Y-111585780D01*
X108399122Y-111585780D02*
X108494360Y-111633399D01*
X108494360Y-111633399D02*
X108541979Y-111728637D01*
X108541979Y-111728637D02*
X108541979Y-112252447D01*
X108541979Y-111728637D02*
X108589598Y-111633399D01*
X108589598Y-111633399D02*
X108684836Y-111585780D01*
X108684836Y-111585780D02*
X108827693Y-111585780D01*
X108827693Y-111585780D02*
X108922932Y-111633399D01*
X108922932Y-111633399D02*
X108970551Y-111728637D01*
X108970551Y-111728637D02*
X108970551Y-112252447D01*
X109399122Y-111966732D02*
X109875312Y-111966732D01*
X109303884Y-112252447D02*
X109637217Y-111252447D01*
X109637217Y-111252447D02*
X109970550Y-112252447D01*
X111589598Y-112252447D02*
X111018170Y-112252447D01*
X111303884Y-112252447D02*
X111303884Y-111252447D01*
X111303884Y-111252447D02*
X111208646Y-111395304D01*
X111208646Y-111395304D02*
X111113408Y-111490542D01*
X111113408Y-111490542D02*
X111018170Y-111538161D01*
X112018170Y-112157208D02*
X112065789Y-112204828D01*
X112065789Y-112204828D02*
X112018170Y-112252447D01*
X112018170Y-112252447D02*
X111970551Y-112204828D01*
X111970551Y-112204828D02*
X112018170Y-112157208D01*
X112018170Y-112157208D02*
X112018170Y-112252447D01*
X112922931Y-111252447D02*
X112732455Y-111252447D01*
X112732455Y-111252447D02*
X112637217Y-111300066D01*
X112637217Y-111300066D02*
X112589598Y-111347685D01*
X112589598Y-111347685D02*
X112494360Y-111490542D01*
X112494360Y-111490542D02*
X112446741Y-111681018D01*
X112446741Y-111681018D02*
X112446741Y-112061970D01*
X112446741Y-112061970D02*
X112494360Y-112157208D01*
X112494360Y-112157208D02*
X112541979Y-112204828D01*
X112541979Y-112204828D02*
X112637217Y-112252447D01*
X112637217Y-112252447D02*
X112827693Y-112252447D01*
X112827693Y-112252447D02*
X112922931Y-112204828D01*
X112922931Y-112204828D02*
X112970550Y-112157208D01*
X112970550Y-112157208D02*
X113018169Y-112061970D01*
X113018169Y-112061970D02*
X113018169Y-111823875D01*
X113018169Y-111823875D02*
X112970550Y-111728637D01*
X112970550Y-111728637D02*
X112922931Y-111681018D01*
X112922931Y-111681018D02*
X112827693Y-111633399D01*
X112827693Y-111633399D02*
X112637217Y-111633399D01*
X112637217Y-111633399D02*
X112541979Y-111681018D01*
X112541979Y-111681018D02*
X112494360Y-111728637D01*
X112494360Y-111728637D02*
X112446741Y-111823875D01*
X113875312Y-111252447D02*
X113684836Y-111252447D01*
X113684836Y-111252447D02*
X113589598Y-111300066D01*
X113589598Y-111300066D02*
X113541979Y-111347685D01*
X113541979Y-111347685D02*
X113446741Y-111490542D01*
X113446741Y-111490542D02*
X113399122Y-111681018D01*
X113399122Y-111681018D02*
X113399122Y-112061970D01*
X113399122Y-112061970D02*
X113446741Y-112157208D01*
X113446741Y-112157208D02*
X113494360Y-112204828D01*
X113494360Y-112204828D02*
X113589598Y-112252447D01*
X113589598Y-112252447D02*
X113780074Y-112252447D01*
X113780074Y-112252447D02*
X113875312Y-112204828D01*
X113875312Y-112204828D02*
X113922931Y-112157208D01*
X113922931Y-112157208D02*
X113970550Y-112061970D01*
X113970550Y-112061970D02*
X113970550Y-111823875D01*
X113970550Y-111823875D02*
X113922931Y-111728637D01*
X113922931Y-111728637D02*
X113875312Y-111681018D01*
X113875312Y-111681018D02*
X113780074Y-111633399D01*
X113780074Y-111633399D02*
X113589598Y-111633399D01*
X113589598Y-111633399D02*
X113494360Y-111681018D01*
X113494360Y-111681018D02*
X113446741Y-111728637D01*
X113446741Y-111728637D02*
X113399122Y-111823875D01*
X114399122Y-112252447D02*
X114399122Y-111252447D01*
X114494360Y-111871494D02*
X114780074Y-112252447D01*
X114780074Y-111585780D02*
X114399122Y-111966732D01*
X115208646Y-111728637D02*
X115970551Y-111728637D01*
X115970551Y-112014351D02*
X115208646Y-112014351D01*
X116875312Y-111252447D02*
X116684836Y-111252447D01*
X116684836Y-111252447D02*
X116589598Y-111300066D01*
X116589598Y-111300066D02*
X116541979Y-111347685D01*
X116541979Y-111347685D02*
X116446741Y-111490542D01*
X116446741Y-111490542D02*
X116399122Y-111681018D01*
X116399122Y-111681018D02*
X116399122Y-112061970D01*
X116399122Y-112061970D02*
X116446741Y-112157208D01*
X116446741Y-112157208D02*
X116494360Y-112204828D01*
X116494360Y-112204828D02*
X116589598Y-112252447D01*
X116589598Y-112252447D02*
X116780074Y-112252447D01*
X116780074Y-112252447D02*
X116875312Y-112204828D01*
X116875312Y-112204828D02*
X116922931Y-112157208D01*
X116922931Y-112157208D02*
X116970550Y-112061970D01*
X116970550Y-112061970D02*
X116970550Y-111823875D01*
X116970550Y-111823875D02*
X116922931Y-111728637D01*
X116922931Y-111728637D02*
X116875312Y-111681018D01*
X116875312Y-111681018D02*
X116780074Y-111633399D01*
X116780074Y-111633399D02*
X116589598Y-111633399D01*
X116589598Y-111633399D02*
X116494360Y-111681018D01*
X116494360Y-111681018D02*
X116446741Y-111728637D01*
X116446741Y-111728637D02*
X116399122Y-111823875D01*
X117446741Y-112252447D02*
X117637217Y-112252447D01*
X117637217Y-112252447D02*
X117732455Y-112204828D01*
X117732455Y-112204828D02*
X117780074Y-112157208D01*
X117780074Y-112157208D02*
X117875312Y-112014351D01*
X117875312Y-112014351D02*
X117922931Y-111823875D01*
X117922931Y-111823875D02*
X117922931Y-111442923D01*
X117922931Y-111442923D02*
X117875312Y-111347685D01*
X117875312Y-111347685D02*
X117827693Y-111300066D01*
X117827693Y-111300066D02*
X117732455Y-111252447D01*
X117732455Y-111252447D02*
X117541979Y-111252447D01*
X117541979Y-111252447D02*
X117446741Y-111300066D01*
X117446741Y-111300066D02*
X117399122Y-111347685D01*
X117399122Y-111347685D02*
X117351503Y-111442923D01*
X117351503Y-111442923D02*
X117351503Y-111681018D01*
X117351503Y-111681018D02*
X117399122Y-111776256D01*
X117399122Y-111776256D02*
X117446741Y-111823875D01*
X117446741Y-111823875D02*
X117541979Y-111871494D01*
X117541979Y-111871494D02*
X117732455Y-111871494D01*
X117732455Y-111871494D02*
X117827693Y-111823875D01*
X117827693Y-111823875D02*
X117875312Y-111776256D01*
X117875312Y-111776256D02*
X117922931Y-111681018D01*
X118541979Y-111252447D02*
X118637217Y-111252447D01*
X118637217Y-111252447D02*
X118732455Y-111300066D01*
X118732455Y-111300066D02*
X118780074Y-111347685D01*
X118780074Y-111347685D02*
X118827693Y-111442923D01*
X118827693Y-111442923D02*
X118875312Y-111633399D01*
X118875312Y-111633399D02*
X118875312Y-111871494D01*
X118875312Y-111871494D02*
X118827693Y-112061970D01*
X118827693Y-112061970D02*
X118780074Y-112157208D01*
X118780074Y-112157208D02*
X118732455Y-112204828D01*
X118732455Y-112204828D02*
X118637217Y-112252447D01*
X118637217Y-112252447D02*
X118541979Y-112252447D01*
X118541979Y-112252447D02*
X118446741Y-112204828D01*
X118446741Y-112204828D02*
X118399122Y-112157208D01*
X118399122Y-112157208D02*
X118351503Y-112061970D01*
X118351503Y-112061970D02*
X118303884Y-111871494D01*
X118303884Y-111871494D02*
X118303884Y-111633399D01*
X118303884Y-111633399D02*
X118351503Y-111442923D01*
X118351503Y-111442923D02*
X118399122Y-111347685D01*
X118399122Y-111347685D02*
X118446741Y-111300066D01*
X118446741Y-111300066D02*
X118541979Y-111252447D01*
X119303884Y-112252447D02*
X119303884Y-111585780D01*
X119303884Y-111681018D02*
X119351503Y-111633399D01*
X119351503Y-111633399D02*
X119446741Y-111585780D01*
X119446741Y-111585780D02*
X119589598Y-111585780D01*
X119589598Y-111585780D02*
X119684836Y-111633399D01*
X119684836Y-111633399D02*
X119732455Y-111728637D01*
X119732455Y-111728637D02*
X119732455Y-112252447D01*
X119732455Y-111728637D02*
X119780074Y-111633399D01*
X119780074Y-111633399D02*
X119875312Y-111585780D01*
X119875312Y-111585780D02*
X120018169Y-111585780D01*
X120018169Y-111585780D02*
X120113408Y-111633399D01*
X120113408Y-111633399D02*
X120161027Y-111728637D01*
X120161027Y-111728637D02*
X120161027Y-112252447D01*
X120589598Y-111966732D02*
X121065788Y-111966732D01*
X120494360Y-112252447D02*
X120827693Y-111252447D01*
X120827693Y-111252447D02*
X121161026Y-112252447D01*
X101780074Y-112862391D02*
X101303884Y-112862391D01*
X101303884Y-112862391D02*
X101256265Y-113338581D01*
X101256265Y-113338581D02*
X101303884Y-113290962D01*
X101303884Y-113290962D02*
X101399122Y-113243343D01*
X101399122Y-113243343D02*
X101637217Y-113243343D01*
X101637217Y-113243343D02*
X101732455Y-113290962D01*
X101732455Y-113290962D02*
X101780074Y-113338581D01*
X101780074Y-113338581D02*
X101827693Y-113433819D01*
X101827693Y-113433819D02*
X101827693Y-113671914D01*
X101827693Y-113671914D02*
X101780074Y-113767152D01*
X101780074Y-113767152D02*
X101732455Y-113814772D01*
X101732455Y-113814772D02*
X101637217Y-113862391D01*
X101637217Y-113862391D02*
X101399122Y-113862391D01*
X101399122Y-113862391D02*
X101303884Y-113814772D01*
X101303884Y-113814772D02*
X101256265Y-113767152D01*
X102256265Y-113862391D02*
X102256265Y-112862391D01*
X102351503Y-113481438D02*
X102637217Y-113862391D01*
X102637217Y-113195724D02*
X102256265Y-113576676D01*
X103065789Y-113338581D02*
X103827694Y-113338581D01*
X103827694Y-113624295D02*
X103065789Y-113624295D01*
X104256265Y-112957629D02*
X104303884Y-112910010D01*
X104303884Y-112910010D02*
X104399122Y-112862391D01*
X104399122Y-112862391D02*
X104637217Y-112862391D01*
X104637217Y-112862391D02*
X104732455Y-112910010D01*
X104732455Y-112910010D02*
X104780074Y-112957629D01*
X104780074Y-112957629D02*
X104827693Y-113052867D01*
X104827693Y-113052867D02*
X104827693Y-113148105D01*
X104827693Y-113148105D02*
X104780074Y-113290962D01*
X104780074Y-113290962D02*
X104208646Y-113862391D01*
X104208646Y-113862391D02*
X104827693Y-113862391D01*
X105732455Y-112862391D02*
X105256265Y-112862391D01*
X105256265Y-112862391D02*
X105208646Y-113338581D01*
X105208646Y-113338581D02*
X105256265Y-113290962D01*
X105256265Y-113290962D02*
X105351503Y-113243343D01*
X105351503Y-113243343D02*
X105589598Y-113243343D01*
X105589598Y-113243343D02*
X105684836Y-113290962D01*
X105684836Y-113290962D02*
X105732455Y-113338581D01*
X105732455Y-113338581D02*
X105780074Y-113433819D01*
X105780074Y-113433819D02*
X105780074Y-113671914D01*
X105780074Y-113671914D02*
X105732455Y-113767152D01*
X105732455Y-113767152D02*
X105684836Y-113814772D01*
X105684836Y-113814772D02*
X105589598Y-113862391D01*
X105589598Y-113862391D02*
X105351503Y-113862391D01*
X105351503Y-113862391D02*
X105256265Y-113814772D01*
X105256265Y-113814772D02*
X105208646Y-113767152D01*
X106399122Y-112862391D02*
X106494360Y-112862391D01*
X106494360Y-112862391D02*
X106589598Y-112910010D01*
X106589598Y-112910010D02*
X106637217Y-112957629D01*
X106637217Y-112957629D02*
X106684836Y-113052867D01*
X106684836Y-113052867D02*
X106732455Y-113243343D01*
X106732455Y-113243343D02*
X106732455Y-113481438D01*
X106732455Y-113481438D02*
X106684836Y-113671914D01*
X106684836Y-113671914D02*
X106637217Y-113767152D01*
X106637217Y-113767152D02*
X106589598Y-113814772D01*
X106589598Y-113814772D02*
X106494360Y-113862391D01*
X106494360Y-113862391D02*
X106399122Y-113862391D01*
X106399122Y-113862391D02*
X106303884Y-113814772D01*
X106303884Y-113814772D02*
X106256265Y-113767152D01*
X106256265Y-113767152D02*
X106208646Y-113671914D01*
X106208646Y-113671914D02*
X106161027Y-113481438D01*
X106161027Y-113481438D02*
X106161027Y-113243343D01*
X106161027Y-113243343D02*
X106208646Y-113052867D01*
X106208646Y-113052867D02*
X106256265Y-112957629D01*
X106256265Y-112957629D02*
X106303884Y-112910010D01*
X106303884Y-112910010D02*
X106399122Y-112862391D01*
X107161027Y-113862391D02*
X107161027Y-113195724D01*
X107161027Y-113290962D02*
X107208646Y-113243343D01*
X107208646Y-113243343D02*
X107303884Y-113195724D01*
X107303884Y-113195724D02*
X107446741Y-113195724D01*
X107446741Y-113195724D02*
X107541979Y-113243343D01*
X107541979Y-113243343D02*
X107589598Y-113338581D01*
X107589598Y-113338581D02*
X107589598Y-113862391D01*
X107589598Y-113338581D02*
X107637217Y-113243343D01*
X107637217Y-113243343D02*
X107732455Y-113195724D01*
X107732455Y-113195724D02*
X107875312Y-113195724D01*
X107875312Y-113195724D02*
X107970551Y-113243343D01*
X107970551Y-113243343D02*
X108018170Y-113338581D01*
X108018170Y-113338581D02*
X108018170Y-113862391D01*
X108446741Y-113576676D02*
X108922931Y-113576676D01*
X108351503Y-113862391D02*
X108684836Y-112862391D01*
X108684836Y-112862391D02*
X109018169Y-113862391D01*
X111399122Y-113862391D02*
X110827694Y-113862391D01*
X111113408Y-113862391D02*
X111113408Y-112862391D01*
X111113408Y-112862391D02*
X111018170Y-113005248D01*
X111018170Y-113005248D02*
X110922932Y-113100486D01*
X110922932Y-113100486D02*
X110827694Y-113148105D01*
X111827694Y-113767152D02*
X111875313Y-113814772D01*
X111875313Y-113814772D02*
X111827694Y-113862391D01*
X111827694Y-113862391D02*
X111780075Y-113814772D01*
X111780075Y-113814772D02*
X111827694Y-113767152D01*
X111827694Y-113767152D02*
X111827694Y-113862391D01*
X112780074Y-112862391D02*
X112303884Y-112862391D01*
X112303884Y-112862391D02*
X112256265Y-113338581D01*
X112256265Y-113338581D02*
X112303884Y-113290962D01*
X112303884Y-113290962D02*
X112399122Y-113243343D01*
X112399122Y-113243343D02*
X112637217Y-113243343D01*
X112637217Y-113243343D02*
X112732455Y-113290962D01*
X112732455Y-113290962D02*
X112780074Y-113338581D01*
X112780074Y-113338581D02*
X112827693Y-113433819D01*
X112827693Y-113433819D02*
X112827693Y-113671914D01*
X112827693Y-113671914D02*
X112780074Y-113767152D01*
X112780074Y-113767152D02*
X112732455Y-113814772D01*
X112732455Y-113814772D02*
X112637217Y-113862391D01*
X112637217Y-113862391D02*
X112399122Y-113862391D01*
X112399122Y-113862391D02*
X112303884Y-113814772D01*
X112303884Y-113814772D02*
X112256265Y-113767152D01*
X113256265Y-113862391D02*
X113256265Y-112862391D01*
X113351503Y-113481438D02*
X113637217Y-113862391D01*
X113637217Y-113195724D02*
X113256265Y-113576676D01*
X114065789Y-113338581D02*
X114827694Y-113338581D01*
X114827694Y-113624295D02*
X114065789Y-113624295D01*
X115208646Y-112862391D02*
X115875312Y-112862391D01*
X115875312Y-112862391D02*
X115446741Y-113862391D01*
X116399122Y-113290962D02*
X116303884Y-113243343D01*
X116303884Y-113243343D02*
X116256265Y-113195724D01*
X116256265Y-113195724D02*
X116208646Y-113100486D01*
X116208646Y-113100486D02*
X116208646Y-113052867D01*
X116208646Y-113052867D02*
X116256265Y-112957629D01*
X116256265Y-112957629D02*
X116303884Y-112910010D01*
X116303884Y-112910010D02*
X116399122Y-112862391D01*
X116399122Y-112862391D02*
X116589598Y-112862391D01*
X116589598Y-112862391D02*
X116684836Y-112910010D01*
X116684836Y-112910010D02*
X116732455Y-112957629D01*
X116732455Y-112957629D02*
X116780074Y-113052867D01*
X116780074Y-113052867D02*
X116780074Y-113100486D01*
X116780074Y-113100486D02*
X116732455Y-113195724D01*
X116732455Y-113195724D02*
X116684836Y-113243343D01*
X116684836Y-113243343D02*
X116589598Y-113290962D01*
X116589598Y-113290962D02*
X116399122Y-113290962D01*
X116399122Y-113290962D02*
X116303884Y-113338581D01*
X116303884Y-113338581D02*
X116256265Y-113386200D01*
X116256265Y-113386200D02*
X116208646Y-113481438D01*
X116208646Y-113481438D02*
X116208646Y-113671914D01*
X116208646Y-113671914D02*
X116256265Y-113767152D01*
X116256265Y-113767152D02*
X116303884Y-113814772D01*
X116303884Y-113814772D02*
X116399122Y-113862391D01*
X116399122Y-113862391D02*
X116589598Y-113862391D01*
X116589598Y-113862391D02*
X116684836Y-113814772D01*
X116684836Y-113814772D02*
X116732455Y-113767152D01*
X116732455Y-113767152D02*
X116780074Y-113671914D01*
X116780074Y-113671914D02*
X116780074Y-113481438D01*
X116780074Y-113481438D02*
X116732455Y-113386200D01*
X116732455Y-113386200D02*
X116684836Y-113338581D01*
X116684836Y-113338581D02*
X116589598Y-113290962D01*
X117399122Y-112862391D02*
X117494360Y-112862391D01*
X117494360Y-112862391D02*
X117589598Y-112910010D01*
X117589598Y-112910010D02*
X117637217Y-112957629D01*
X117637217Y-112957629D02*
X117684836Y-113052867D01*
X117684836Y-113052867D02*
X117732455Y-113243343D01*
X117732455Y-113243343D02*
X117732455Y-113481438D01*
X117732455Y-113481438D02*
X117684836Y-113671914D01*
X117684836Y-113671914D02*
X117637217Y-113767152D01*
X117637217Y-113767152D02*
X117589598Y-113814772D01*
X117589598Y-113814772D02*
X117494360Y-113862391D01*
X117494360Y-113862391D02*
X117399122Y-113862391D01*
X117399122Y-113862391D02*
X117303884Y-113814772D01*
X117303884Y-113814772D02*
X117256265Y-113767152D01*
X117256265Y-113767152D02*
X117208646Y-113671914D01*
X117208646Y-113671914D02*
X117161027Y-113481438D01*
X117161027Y-113481438D02*
X117161027Y-113243343D01*
X117161027Y-113243343D02*
X117208646Y-113052867D01*
X117208646Y-113052867D02*
X117256265Y-112957629D01*
X117256265Y-112957629D02*
X117303884Y-112910010D01*
X117303884Y-112910010D02*
X117399122Y-112862391D01*
X118161027Y-113862391D02*
X118161027Y-113195724D01*
X118161027Y-113290962D02*
X118208646Y-113243343D01*
X118208646Y-113243343D02*
X118303884Y-113195724D01*
X118303884Y-113195724D02*
X118446741Y-113195724D01*
X118446741Y-113195724D02*
X118541979Y-113243343D01*
X118541979Y-113243343D02*
X118589598Y-113338581D01*
X118589598Y-113338581D02*
X118589598Y-113862391D01*
X118589598Y-113338581D02*
X118637217Y-113243343D01*
X118637217Y-113243343D02*
X118732455Y-113195724D01*
X118732455Y-113195724D02*
X118875312Y-113195724D01*
X118875312Y-113195724D02*
X118970551Y-113243343D01*
X118970551Y-113243343D02*
X119018170Y-113338581D01*
X119018170Y-113338581D02*
X119018170Y-113862391D01*
X119446741Y-113576676D02*
X119922931Y-113576676D01*
X119351503Y-113862391D02*
X119684836Y-112862391D01*
X119684836Y-112862391D02*
X120018169Y-113862391D01*
X101732455Y-114805668D02*
X101732455Y-115472335D01*
X101494360Y-114424716D02*
X101256265Y-115139001D01*
X101256265Y-115139001D02*
X101875312Y-115139001D01*
X102256265Y-115472335D02*
X102256265Y-114472335D01*
X102351503Y-115091382D02*
X102637217Y-115472335D01*
X102637217Y-114805668D02*
X102256265Y-115186620D01*
X103065789Y-114948525D02*
X103827694Y-114948525D01*
X103827694Y-115234239D02*
X103065789Y-115234239D01*
X104208646Y-114472335D02*
X104827693Y-114472335D01*
X104827693Y-114472335D02*
X104494360Y-114853287D01*
X104494360Y-114853287D02*
X104637217Y-114853287D01*
X104637217Y-114853287D02*
X104732455Y-114900906D01*
X104732455Y-114900906D02*
X104780074Y-114948525D01*
X104780074Y-114948525D02*
X104827693Y-115043763D01*
X104827693Y-115043763D02*
X104827693Y-115281858D01*
X104827693Y-115281858D02*
X104780074Y-115377096D01*
X104780074Y-115377096D02*
X104732455Y-115424716D01*
X104732455Y-115424716D02*
X104637217Y-115472335D01*
X104637217Y-115472335D02*
X104351503Y-115472335D01*
X104351503Y-115472335D02*
X104256265Y-115424716D01*
X104256265Y-115424716D02*
X104208646Y-115377096D01*
X105446741Y-114472335D02*
X105541979Y-114472335D01*
X105541979Y-114472335D02*
X105637217Y-114519954D01*
X105637217Y-114519954D02*
X105684836Y-114567573D01*
X105684836Y-114567573D02*
X105732455Y-114662811D01*
X105732455Y-114662811D02*
X105780074Y-114853287D01*
X105780074Y-114853287D02*
X105780074Y-115091382D01*
X105780074Y-115091382D02*
X105732455Y-115281858D01*
X105732455Y-115281858D02*
X105684836Y-115377096D01*
X105684836Y-115377096D02*
X105637217Y-115424716D01*
X105637217Y-115424716D02*
X105541979Y-115472335D01*
X105541979Y-115472335D02*
X105446741Y-115472335D01*
X105446741Y-115472335D02*
X105351503Y-115424716D01*
X105351503Y-115424716D02*
X105303884Y-115377096D01*
X105303884Y-115377096D02*
X105256265Y-115281858D01*
X105256265Y-115281858D02*
X105208646Y-115091382D01*
X105208646Y-115091382D02*
X105208646Y-114853287D01*
X105208646Y-114853287D02*
X105256265Y-114662811D01*
X105256265Y-114662811D02*
X105303884Y-114567573D01*
X105303884Y-114567573D02*
X105351503Y-114519954D01*
X105351503Y-114519954D02*
X105446741Y-114472335D01*
X106399122Y-114472335D02*
X106494360Y-114472335D01*
X106494360Y-114472335D02*
X106589598Y-114519954D01*
X106589598Y-114519954D02*
X106637217Y-114567573D01*
X106637217Y-114567573D02*
X106684836Y-114662811D01*
X106684836Y-114662811D02*
X106732455Y-114853287D01*
X106732455Y-114853287D02*
X106732455Y-115091382D01*
X106732455Y-115091382D02*
X106684836Y-115281858D01*
X106684836Y-115281858D02*
X106637217Y-115377096D01*
X106637217Y-115377096D02*
X106589598Y-115424716D01*
X106589598Y-115424716D02*
X106494360Y-115472335D01*
X106494360Y-115472335D02*
X106399122Y-115472335D01*
X106399122Y-115472335D02*
X106303884Y-115424716D01*
X106303884Y-115424716D02*
X106256265Y-115377096D01*
X106256265Y-115377096D02*
X106208646Y-115281858D01*
X106208646Y-115281858D02*
X106161027Y-115091382D01*
X106161027Y-115091382D02*
X106161027Y-114853287D01*
X106161027Y-114853287D02*
X106208646Y-114662811D01*
X106208646Y-114662811D02*
X106256265Y-114567573D01*
X106256265Y-114567573D02*
X106303884Y-114519954D01*
X106303884Y-114519954D02*
X106399122Y-114472335D01*
X107161027Y-115472335D02*
X107161027Y-114805668D01*
X107161027Y-114900906D02*
X107208646Y-114853287D01*
X107208646Y-114853287D02*
X107303884Y-114805668D01*
X107303884Y-114805668D02*
X107446741Y-114805668D01*
X107446741Y-114805668D02*
X107541979Y-114853287D01*
X107541979Y-114853287D02*
X107589598Y-114948525D01*
X107589598Y-114948525D02*
X107589598Y-115472335D01*
X107589598Y-114948525D02*
X107637217Y-114853287D01*
X107637217Y-114853287D02*
X107732455Y-114805668D01*
X107732455Y-114805668D02*
X107875312Y-114805668D01*
X107875312Y-114805668D02*
X107970551Y-114853287D01*
X107970551Y-114853287D02*
X108018170Y-114948525D01*
X108018170Y-114948525D02*
X108018170Y-115472335D01*
X108446741Y-115186620D02*
X108922931Y-115186620D01*
X108351503Y-115472335D02*
X108684836Y-114472335D01*
X108684836Y-114472335D02*
X109018169Y-115472335D01*
X111399122Y-115472335D02*
X110827694Y-115472335D01*
X111113408Y-115472335D02*
X111113408Y-114472335D01*
X111113408Y-114472335D02*
X111018170Y-114615192D01*
X111018170Y-114615192D02*
X110922932Y-114710430D01*
X110922932Y-114710430D02*
X110827694Y-114758049D01*
X111827694Y-115377096D02*
X111875313Y-115424716D01*
X111875313Y-115424716D02*
X111827694Y-115472335D01*
X111827694Y-115472335D02*
X111780075Y-115424716D01*
X111780075Y-115424716D02*
X111827694Y-115377096D01*
X111827694Y-115377096D02*
X111827694Y-115472335D01*
X112208646Y-114472335D02*
X112827693Y-114472335D01*
X112827693Y-114472335D02*
X112494360Y-114853287D01*
X112494360Y-114853287D02*
X112637217Y-114853287D01*
X112637217Y-114853287D02*
X112732455Y-114900906D01*
X112732455Y-114900906D02*
X112780074Y-114948525D01*
X112780074Y-114948525D02*
X112827693Y-115043763D01*
X112827693Y-115043763D02*
X112827693Y-115281858D01*
X112827693Y-115281858D02*
X112780074Y-115377096D01*
X112780074Y-115377096D02*
X112732455Y-115424716D01*
X112732455Y-115424716D02*
X112637217Y-115472335D01*
X112637217Y-115472335D02*
X112351503Y-115472335D01*
X112351503Y-115472335D02*
X112256265Y-115424716D01*
X112256265Y-115424716D02*
X112208646Y-115377096D01*
X113161027Y-114472335D02*
X113780074Y-114472335D01*
X113780074Y-114472335D02*
X113446741Y-114853287D01*
X113446741Y-114853287D02*
X113589598Y-114853287D01*
X113589598Y-114853287D02*
X113684836Y-114900906D01*
X113684836Y-114900906D02*
X113732455Y-114948525D01*
X113732455Y-114948525D02*
X113780074Y-115043763D01*
X113780074Y-115043763D02*
X113780074Y-115281858D01*
X113780074Y-115281858D02*
X113732455Y-115377096D01*
X113732455Y-115377096D02*
X113684836Y-115424716D01*
X113684836Y-115424716D02*
X113589598Y-115472335D01*
X113589598Y-115472335D02*
X113303884Y-115472335D01*
X113303884Y-115472335D02*
X113208646Y-115424716D01*
X113208646Y-115424716D02*
X113161027Y-115377096D01*
X114208646Y-115472335D02*
X114208646Y-114472335D01*
X114303884Y-115091382D02*
X114589598Y-115472335D01*
X114589598Y-114805668D02*
X114208646Y-115186620D01*
X115018170Y-114948525D02*
X115780075Y-114948525D01*
X115780075Y-115234239D02*
X115018170Y-115234239D01*
X116303884Y-115472335D02*
X116494360Y-115472335D01*
X116494360Y-115472335D02*
X116589598Y-115424716D01*
X116589598Y-115424716D02*
X116637217Y-115377096D01*
X116637217Y-115377096D02*
X116732455Y-115234239D01*
X116732455Y-115234239D02*
X116780074Y-115043763D01*
X116780074Y-115043763D02*
X116780074Y-114662811D01*
X116780074Y-114662811D02*
X116732455Y-114567573D01*
X116732455Y-114567573D02*
X116684836Y-114519954D01*
X116684836Y-114519954D02*
X116589598Y-114472335D01*
X116589598Y-114472335D02*
X116399122Y-114472335D01*
X116399122Y-114472335D02*
X116303884Y-114519954D01*
X116303884Y-114519954D02*
X116256265Y-114567573D01*
X116256265Y-114567573D02*
X116208646Y-114662811D01*
X116208646Y-114662811D02*
X116208646Y-114900906D01*
X116208646Y-114900906D02*
X116256265Y-114996144D01*
X116256265Y-114996144D02*
X116303884Y-115043763D01*
X116303884Y-115043763D02*
X116399122Y-115091382D01*
X116399122Y-115091382D02*
X116589598Y-115091382D01*
X116589598Y-115091382D02*
X116684836Y-115043763D01*
X116684836Y-115043763D02*
X116732455Y-114996144D01*
X116732455Y-114996144D02*
X116780074Y-114900906D01*
X117399122Y-114472335D02*
X117494360Y-114472335D01*
X117494360Y-114472335D02*
X117589598Y-114519954D01*
X117589598Y-114519954D02*
X117637217Y-114567573D01*
X117637217Y-114567573D02*
X117684836Y-114662811D01*
X117684836Y-114662811D02*
X117732455Y-114853287D01*
X117732455Y-114853287D02*
X117732455Y-115091382D01*
X117732455Y-115091382D02*
X117684836Y-115281858D01*
X117684836Y-115281858D02*
X117637217Y-115377096D01*
X117637217Y-115377096D02*
X117589598Y-115424716D01*
X117589598Y-115424716D02*
X117494360Y-115472335D01*
X117494360Y-115472335D02*
X117399122Y-115472335D01*
X117399122Y-115472335D02*
X117303884Y-115424716D01*
X117303884Y-115424716D02*
X117256265Y-115377096D01*
X117256265Y-115377096D02*
X117208646Y-115281858D01*
X117208646Y-115281858D02*
X117161027Y-115091382D01*
X117161027Y-115091382D02*
X117161027Y-114853287D01*
X117161027Y-114853287D02*
X117208646Y-114662811D01*
X117208646Y-114662811D02*
X117256265Y-114567573D01*
X117256265Y-114567573D02*
X117303884Y-114519954D01*
X117303884Y-114519954D02*
X117399122Y-114472335D01*
X118351503Y-114472335D02*
X118446741Y-114472335D01*
X118446741Y-114472335D02*
X118541979Y-114519954D01*
X118541979Y-114519954D02*
X118589598Y-114567573D01*
X118589598Y-114567573D02*
X118637217Y-114662811D01*
X118637217Y-114662811D02*
X118684836Y-114853287D01*
X118684836Y-114853287D02*
X118684836Y-115091382D01*
X118684836Y-115091382D02*
X118637217Y-115281858D01*
X118637217Y-115281858D02*
X118589598Y-115377096D01*
X118589598Y-115377096D02*
X118541979Y-115424716D01*
X118541979Y-115424716D02*
X118446741Y-115472335D01*
X118446741Y-115472335D02*
X118351503Y-115472335D01*
X118351503Y-115472335D02*
X118256265Y-115424716D01*
X118256265Y-115424716D02*
X118208646Y-115377096D01*
X118208646Y-115377096D02*
X118161027Y-115281858D01*
X118161027Y-115281858D02*
X118113408Y-115091382D01*
X118113408Y-115091382D02*
X118113408Y-114853287D01*
X118113408Y-114853287D02*
X118161027Y-114662811D01*
X118161027Y-114662811D02*
X118208646Y-114567573D01*
X118208646Y-114567573D02*
X118256265Y-114519954D01*
X118256265Y-114519954D02*
X118351503Y-114472335D01*
X119113408Y-115472335D02*
X119113408Y-114805668D01*
X119113408Y-114900906D02*
X119161027Y-114853287D01*
X119161027Y-114853287D02*
X119256265Y-114805668D01*
X119256265Y-114805668D02*
X119399122Y-114805668D01*
X119399122Y-114805668D02*
X119494360Y-114853287D01*
X119494360Y-114853287D02*
X119541979Y-114948525D01*
X119541979Y-114948525D02*
X119541979Y-115472335D01*
X119541979Y-114948525D02*
X119589598Y-114853287D01*
X119589598Y-114853287D02*
X119684836Y-114805668D01*
X119684836Y-114805668D02*
X119827693Y-114805668D01*
X119827693Y-114805668D02*
X119922932Y-114853287D01*
X119922932Y-114853287D02*
X119970551Y-114948525D01*
X119970551Y-114948525D02*
X119970551Y-115472335D01*
X120399122Y-115186620D02*
X120875312Y-115186620D01*
X120303884Y-115472335D02*
X120637217Y-114472335D01*
X120637217Y-114472335D02*
X120970550Y-115472335D01*
X101208646Y-116082279D02*
X101827693Y-116082279D01*
X101827693Y-116082279D02*
X101494360Y-116463231D01*
X101494360Y-116463231D02*
X101637217Y-116463231D01*
X101637217Y-116463231D02*
X101732455Y-116510850D01*
X101732455Y-116510850D02*
X101780074Y-116558469D01*
X101780074Y-116558469D02*
X101827693Y-116653707D01*
X101827693Y-116653707D02*
X101827693Y-116891802D01*
X101827693Y-116891802D02*
X101780074Y-116987040D01*
X101780074Y-116987040D02*
X101732455Y-117034660D01*
X101732455Y-117034660D02*
X101637217Y-117082279D01*
X101637217Y-117082279D02*
X101351503Y-117082279D01*
X101351503Y-117082279D02*
X101256265Y-117034660D01*
X101256265Y-117034660D02*
X101208646Y-116987040D01*
X102256265Y-117082279D02*
X102256265Y-116082279D01*
X102351503Y-116701326D02*
X102637217Y-117082279D01*
X102637217Y-116415612D02*
X102256265Y-116796564D01*
X103065789Y-116558469D02*
X103827694Y-116558469D01*
X103827694Y-116844183D02*
X103065789Y-116844183D01*
X104732455Y-116415612D02*
X104732455Y-117082279D01*
X104494360Y-116034660D02*
X104256265Y-116748945D01*
X104256265Y-116748945D02*
X104875312Y-116748945D01*
X105446741Y-116082279D02*
X105541979Y-116082279D01*
X105541979Y-116082279D02*
X105637217Y-116129898D01*
X105637217Y-116129898D02*
X105684836Y-116177517D01*
X105684836Y-116177517D02*
X105732455Y-116272755D01*
X105732455Y-116272755D02*
X105780074Y-116463231D01*
X105780074Y-116463231D02*
X105780074Y-116701326D01*
X105780074Y-116701326D02*
X105732455Y-116891802D01*
X105732455Y-116891802D02*
X105684836Y-116987040D01*
X105684836Y-116987040D02*
X105637217Y-117034660D01*
X105637217Y-117034660D02*
X105541979Y-117082279D01*
X105541979Y-117082279D02*
X105446741Y-117082279D01*
X105446741Y-117082279D02*
X105351503Y-117034660D01*
X105351503Y-117034660D02*
X105303884Y-116987040D01*
X105303884Y-116987040D02*
X105256265Y-116891802D01*
X105256265Y-116891802D02*
X105208646Y-116701326D01*
X105208646Y-116701326D02*
X105208646Y-116463231D01*
X105208646Y-116463231D02*
X105256265Y-116272755D01*
X105256265Y-116272755D02*
X105303884Y-116177517D01*
X105303884Y-116177517D02*
X105351503Y-116129898D01*
X105351503Y-116129898D02*
X105446741Y-116082279D01*
X106399122Y-116082279D02*
X106494360Y-116082279D01*
X106494360Y-116082279D02*
X106589598Y-116129898D01*
X106589598Y-116129898D02*
X106637217Y-116177517D01*
X106637217Y-116177517D02*
X106684836Y-116272755D01*
X106684836Y-116272755D02*
X106732455Y-116463231D01*
X106732455Y-116463231D02*
X106732455Y-116701326D01*
X106732455Y-116701326D02*
X106684836Y-116891802D01*
X106684836Y-116891802D02*
X106637217Y-116987040D01*
X106637217Y-116987040D02*
X106589598Y-117034660D01*
X106589598Y-117034660D02*
X106494360Y-117082279D01*
X106494360Y-117082279D02*
X106399122Y-117082279D01*
X106399122Y-117082279D02*
X106303884Y-117034660D01*
X106303884Y-117034660D02*
X106256265Y-116987040D01*
X106256265Y-116987040D02*
X106208646Y-116891802D01*
X106208646Y-116891802D02*
X106161027Y-116701326D01*
X106161027Y-116701326D02*
X106161027Y-116463231D01*
X106161027Y-116463231D02*
X106208646Y-116272755D01*
X106208646Y-116272755D02*
X106256265Y-116177517D01*
X106256265Y-116177517D02*
X106303884Y-116129898D01*
X106303884Y-116129898D02*
X106399122Y-116082279D01*
X107161027Y-117082279D02*
X107161027Y-116415612D01*
X107161027Y-116510850D02*
X107208646Y-116463231D01*
X107208646Y-116463231D02*
X107303884Y-116415612D01*
X107303884Y-116415612D02*
X107446741Y-116415612D01*
X107446741Y-116415612D02*
X107541979Y-116463231D01*
X107541979Y-116463231D02*
X107589598Y-116558469D01*
X107589598Y-116558469D02*
X107589598Y-117082279D01*
X107589598Y-116558469D02*
X107637217Y-116463231D01*
X107637217Y-116463231D02*
X107732455Y-116415612D01*
X107732455Y-116415612D02*
X107875312Y-116415612D01*
X107875312Y-116415612D02*
X107970551Y-116463231D01*
X107970551Y-116463231D02*
X108018170Y-116558469D01*
X108018170Y-116558469D02*
X108018170Y-117082279D01*
X108446741Y-116796564D02*
X108922931Y-116796564D01*
X108351503Y-117082279D02*
X108684836Y-116082279D01*
X108684836Y-116082279D02*
X109018169Y-117082279D01*
X111399122Y-117082279D02*
X110827694Y-117082279D01*
X111113408Y-117082279D02*
X111113408Y-116082279D01*
X111113408Y-116082279D02*
X111018170Y-116225136D01*
X111018170Y-116225136D02*
X110922932Y-116320374D01*
X110922932Y-116320374D02*
X110827694Y-116367993D01*
X111827694Y-116987040D02*
X111875313Y-117034660D01*
X111875313Y-117034660D02*
X111827694Y-117082279D01*
X111827694Y-117082279D02*
X111780075Y-117034660D01*
X111780075Y-117034660D02*
X111827694Y-116987040D01*
X111827694Y-116987040D02*
X111827694Y-117082279D01*
X112256265Y-116177517D02*
X112303884Y-116129898D01*
X112303884Y-116129898D02*
X112399122Y-116082279D01*
X112399122Y-116082279D02*
X112637217Y-116082279D01*
X112637217Y-116082279D02*
X112732455Y-116129898D01*
X112732455Y-116129898D02*
X112780074Y-116177517D01*
X112780074Y-116177517D02*
X112827693Y-116272755D01*
X112827693Y-116272755D02*
X112827693Y-116367993D01*
X112827693Y-116367993D02*
X112780074Y-116510850D01*
X112780074Y-116510850D02*
X112208646Y-117082279D01*
X112208646Y-117082279D02*
X112827693Y-117082279D01*
X113256265Y-117082279D02*
X113256265Y-116082279D01*
X113351503Y-116701326D02*
X113637217Y-117082279D01*
X113637217Y-116415612D02*
X113256265Y-116796564D01*
X114065789Y-116558469D02*
X114827694Y-116558469D01*
X114827694Y-116844183D02*
X114065789Y-116844183D01*
X115827693Y-117082279D02*
X115256265Y-117082279D01*
X115541979Y-117082279D02*
X115541979Y-116082279D01*
X115541979Y-116082279D02*
X115446741Y-116225136D01*
X115446741Y-116225136D02*
X115351503Y-116320374D01*
X115351503Y-116320374D02*
X115256265Y-116367993D01*
X116446741Y-116082279D02*
X116541979Y-116082279D01*
X116541979Y-116082279D02*
X116637217Y-116129898D01*
X116637217Y-116129898D02*
X116684836Y-116177517D01*
X116684836Y-116177517D02*
X116732455Y-116272755D01*
X116732455Y-116272755D02*
X116780074Y-116463231D01*
X116780074Y-116463231D02*
X116780074Y-116701326D01*
X116780074Y-116701326D02*
X116732455Y-116891802D01*
X116732455Y-116891802D02*
X116684836Y-116987040D01*
X116684836Y-116987040D02*
X116637217Y-117034660D01*
X116637217Y-117034660D02*
X116541979Y-117082279D01*
X116541979Y-117082279D02*
X116446741Y-117082279D01*
X116446741Y-117082279D02*
X116351503Y-117034660D01*
X116351503Y-117034660D02*
X116303884Y-116987040D01*
X116303884Y-116987040D02*
X116256265Y-116891802D01*
X116256265Y-116891802D02*
X116208646Y-116701326D01*
X116208646Y-116701326D02*
X116208646Y-116463231D01*
X116208646Y-116463231D02*
X116256265Y-116272755D01*
X116256265Y-116272755D02*
X116303884Y-116177517D01*
X116303884Y-116177517D02*
X116351503Y-116129898D01*
X116351503Y-116129898D02*
X116446741Y-116082279D01*
X117399122Y-116082279D02*
X117494360Y-116082279D01*
X117494360Y-116082279D02*
X117589598Y-116129898D01*
X117589598Y-116129898D02*
X117637217Y-116177517D01*
X117637217Y-116177517D02*
X117684836Y-116272755D01*
X117684836Y-116272755D02*
X117732455Y-116463231D01*
X117732455Y-116463231D02*
X117732455Y-116701326D01*
X117732455Y-116701326D02*
X117684836Y-116891802D01*
X117684836Y-116891802D02*
X117637217Y-116987040D01*
X117637217Y-116987040D02*
X117589598Y-117034660D01*
X117589598Y-117034660D02*
X117494360Y-117082279D01*
X117494360Y-117082279D02*
X117399122Y-117082279D01*
X117399122Y-117082279D02*
X117303884Y-117034660D01*
X117303884Y-117034660D02*
X117256265Y-116987040D01*
X117256265Y-116987040D02*
X117208646Y-116891802D01*
X117208646Y-116891802D02*
X117161027Y-116701326D01*
X117161027Y-116701326D02*
X117161027Y-116463231D01*
X117161027Y-116463231D02*
X117208646Y-116272755D01*
X117208646Y-116272755D02*
X117256265Y-116177517D01*
X117256265Y-116177517D02*
X117303884Y-116129898D01*
X117303884Y-116129898D02*
X117399122Y-116082279D01*
X118351503Y-116082279D02*
X118446741Y-116082279D01*
X118446741Y-116082279D02*
X118541979Y-116129898D01*
X118541979Y-116129898D02*
X118589598Y-116177517D01*
X118589598Y-116177517D02*
X118637217Y-116272755D01*
X118637217Y-116272755D02*
X118684836Y-116463231D01*
X118684836Y-116463231D02*
X118684836Y-116701326D01*
X118684836Y-116701326D02*
X118637217Y-116891802D01*
X118637217Y-116891802D02*
X118589598Y-116987040D01*
X118589598Y-116987040D02*
X118541979Y-117034660D01*
X118541979Y-117034660D02*
X118446741Y-117082279D01*
X118446741Y-117082279D02*
X118351503Y-117082279D01*
X118351503Y-117082279D02*
X118256265Y-117034660D01*
X118256265Y-117034660D02*
X118208646Y-116987040D01*
X118208646Y-116987040D02*
X118161027Y-116891802D01*
X118161027Y-116891802D02*
X118113408Y-116701326D01*
X118113408Y-116701326D02*
X118113408Y-116463231D01*
X118113408Y-116463231D02*
X118161027Y-116272755D01*
X118161027Y-116272755D02*
X118208646Y-116177517D01*
X118208646Y-116177517D02*
X118256265Y-116129898D01*
X118256265Y-116129898D02*
X118351503Y-116082279D01*
X119113408Y-117082279D02*
X119113408Y-116415612D01*
X119113408Y-116510850D02*
X119161027Y-116463231D01*
X119161027Y-116463231D02*
X119256265Y-116415612D01*
X119256265Y-116415612D02*
X119399122Y-116415612D01*
X119399122Y-116415612D02*
X119494360Y-116463231D01*
X119494360Y-116463231D02*
X119541979Y-116558469D01*
X119541979Y-116558469D02*
X119541979Y-117082279D01*
X119541979Y-116558469D02*
X119589598Y-116463231D01*
X119589598Y-116463231D02*
X119684836Y-116415612D01*
X119684836Y-116415612D02*
X119827693Y-116415612D01*
X119827693Y-116415612D02*
X119922932Y-116463231D01*
X119922932Y-116463231D02*
X119970551Y-116558469D01*
X119970551Y-116558469D02*
X119970551Y-117082279D01*
X120399122Y-116796564D02*
X120875312Y-116796564D01*
X120303884Y-117082279D02*
X120637217Y-116082279D01*
X120637217Y-116082279D02*
X120970550Y-117082279D01*
D11*
G36*
X113587769Y-77817647D02*
G01*
X113616946Y-77846824D01*
X113661653Y-77936237D01*
X113661653Y-78079704D01*
X113616946Y-78169117D01*
X113579941Y-78206122D01*
X113490529Y-78250828D01*
X113104510Y-78250828D01*
X113104510Y-77765114D01*
X113430167Y-77765114D01*
X113587769Y-77817647D01*
G37*
G36*
X113508514Y-77095535D02*
G01*
X113545518Y-77132539D01*
X113590225Y-77221952D01*
X113590225Y-77293989D01*
X113545518Y-77383402D01*
X113508514Y-77420407D01*
X113419100Y-77465114D01*
X113104510Y-77465114D01*
X113104510Y-77050828D01*
X113419100Y-77050828D01*
X113508514Y-77095535D01*
G37*
G36*
X120128422Y-77584060D02*
G01*
X120154597Y-77636411D01*
X119747368Y-77717857D01*
X119747368Y-77650523D01*
X119780599Y-77584060D01*
X119847064Y-77550828D01*
X120061958Y-77550828D01*
X120128422Y-77584060D01*
G37*
G36*
X122730626Y-77817647D02*
G01*
X122759803Y-77846824D01*
X122804510Y-77936237D01*
X122804510Y-78079704D01*
X122759803Y-78169117D01*
X122722798Y-78206122D01*
X122633386Y-78250828D01*
X122247367Y-78250828D01*
X122247367Y-77765114D01*
X122573024Y-77765114D01*
X122730626Y-77817647D01*
G37*
G36*
X122651371Y-77095535D02*
G01*
X122688375Y-77132539D01*
X122733082Y-77221952D01*
X122733082Y-77293989D01*
X122688375Y-77383402D01*
X122651371Y-77420407D01*
X122561957Y-77465114D01*
X122247367Y-77465114D01*
X122247367Y-77050828D01*
X122561957Y-77050828D01*
X122651371Y-77095535D01*
G37*
G36*
X124079943Y-77595535D02*
G01*
X124116947Y-77632539D01*
X124161653Y-77721951D01*
X124161653Y-78079704D01*
X124116946Y-78169117D01*
X124079941Y-78206122D01*
X123990529Y-78250828D01*
X123847063Y-78250828D01*
X123757649Y-78206121D01*
X123720644Y-78169116D01*
X123675939Y-78079704D01*
X123675939Y-77721951D01*
X123720644Y-77632540D01*
X123757649Y-77595535D01*
X123847063Y-77550828D01*
X123990529Y-77550828D01*
X124079943Y-77595535D01*
G37*
G36*
X126375939Y-78236694D02*
G01*
X126347672Y-78250828D01*
X126061348Y-78250828D01*
X125994885Y-78217597D01*
X125961653Y-78151133D01*
X125961653Y-78079094D01*
X125994884Y-78012631D01*
X126061348Y-77979400D01*
X126375939Y-77979400D01*
X126375939Y-78236694D01*
G37*
G36*
X127733082Y-77564962D02*
G01*
X127733082Y-78236694D01*
X127704815Y-78250828D01*
X127489920Y-78250828D01*
X127400506Y-78206121D01*
X127363501Y-78169116D01*
X127318796Y-78079704D01*
X127318796Y-77721951D01*
X127363501Y-77632540D01*
X127400506Y-77595535D01*
X127489920Y-77550828D01*
X127704814Y-77550828D01*
X127733082Y-77564962D01*
G37*
G36*
X128199749Y-79216317D02*
G01*
X112637843Y-79216317D01*
X112637843Y-78882066D01*
X120662831Y-78882066D01*
X120666979Y-78940446D01*
X120693154Y-78992795D01*
X120737369Y-79031142D01*
X120792891Y-79049650D01*
X120851271Y-79045502D01*
X120878735Y-79034992D01*
X121021592Y-78963564D01*
X121034185Y-78955636D01*
X121037845Y-78954121D01*
X121041964Y-78950739D01*
X121046478Y-78947899D01*
X121049074Y-78944905D01*
X121060576Y-78935466D01*
X121132005Y-78864037D01*
X121150660Y-78841306D01*
X121151016Y-78840445D01*
X121151666Y-78839780D01*
X121165211Y-78813680D01*
X121308068Y-78456536D01*
X121308854Y-78453824D01*
X121310057Y-78451278D01*
X121667200Y-77451279D01*
X121674329Y-77422750D01*
X121671422Y-77364295D01*
X121646368Y-77311403D01*
X121602979Y-77272123D01*
X121547861Y-77252438D01*
X121489406Y-77255345D01*
X121436514Y-77280399D01*
X121397234Y-77323788D01*
X121384678Y-77350378D01*
X121168796Y-77954847D01*
X120952914Y-77350378D01*
X120940358Y-77323788D01*
X120901078Y-77280399D01*
X120848186Y-77255345D01*
X120789731Y-77252438D01*
X120734613Y-77272123D01*
X120691224Y-77311403D01*
X120666170Y-77364295D01*
X120663263Y-77422750D01*
X120670392Y-77451278D01*
X121008443Y-78397822D01*
X120898101Y-78673676D01*
X120865655Y-78706122D01*
X120744571Y-78766664D01*
X120719686Y-78782329D01*
X120681339Y-78826544D01*
X120662831Y-78882066D01*
X112637843Y-78882066D01*
X112637843Y-76900828D01*
X112804510Y-76900828D01*
X112804510Y-78400828D01*
X112807392Y-78430092D01*
X112829790Y-78484164D01*
X112871174Y-78525548D01*
X112925246Y-78547946D01*
X112954510Y-78550828D01*
X113525939Y-78550828D01*
X113555203Y-78547946D01*
X113560181Y-78545883D01*
X113565557Y-78545502D01*
X113593021Y-78534992D01*
X113735878Y-78463564D01*
X113748471Y-78455636D01*
X113752131Y-78454121D01*
X113756250Y-78450739D01*
X113760764Y-78447899D01*
X113763360Y-78444905D01*
X113774862Y-78435466D01*
X113846291Y-78364037D01*
X113855732Y-78352532D01*
X113858724Y-78349938D01*
X113861562Y-78345428D01*
X113864946Y-78341306D01*
X113866462Y-78337644D01*
X113874389Y-78325053D01*
X113945817Y-78182195D01*
X113956327Y-78154732D01*
X113956708Y-78149356D01*
X113958771Y-78144378D01*
X113961653Y-78115114D01*
X113961653Y-77900828D01*
X113958771Y-77871564D01*
X113956708Y-77866585D01*
X113956327Y-77861210D01*
X113945817Y-77833747D01*
X113874389Y-77690889D01*
X113866462Y-77678297D01*
X113864946Y-77674636D01*
X113861562Y-77670513D01*
X113858724Y-77666004D01*
X113855732Y-77663409D01*
X113846291Y-77651905D01*
X113774862Y-77580476D01*
X113773679Y-77579505D01*
X113774862Y-77578323D01*
X113784302Y-77566820D01*
X113787295Y-77564225D01*
X113790133Y-77559715D01*
X113793517Y-77555593D01*
X113795033Y-77551930D01*
X113802960Y-77539339D01*
X113874389Y-77396483D01*
X113884898Y-77369019D01*
X113885279Y-77363644D01*
X113887343Y-77358664D01*
X113890225Y-77329400D01*
X113890225Y-77186542D01*
X113887343Y-77157278D01*
X113885279Y-77152297D01*
X113884898Y-77146923D01*
X113874389Y-77119459D01*
X113802960Y-76976603D01*
X113795033Y-76964011D01*
X113793517Y-76960349D01*
X113790133Y-76956226D01*
X113787295Y-76951717D01*
X113784302Y-76949121D01*
X113774862Y-76937619D01*
X113738071Y-76900828D01*
X114304510Y-76900828D01*
X114304510Y-78400828D01*
X114307392Y-78430092D01*
X114329790Y-78484164D01*
X114371174Y-78525548D01*
X114425246Y-78547946D01*
X114454510Y-78550828D01*
X115168796Y-78550828D01*
X115198060Y-78547946D01*
X115252132Y-78525548D01*
X115293516Y-78484164D01*
X115315914Y-78430092D01*
X115315914Y-78371564D01*
X115293516Y-78317492D01*
X115252132Y-78276108D01*
X115198060Y-78253710D01*
X115168796Y-78250828D01*
X114604510Y-78250828D01*
X114604510Y-76900828D01*
X115518796Y-76900828D01*
X115518796Y-78400828D01*
X115521678Y-78430092D01*
X115544076Y-78484164D01*
X115585460Y-78525548D01*
X115639532Y-78547946D01*
X115668796Y-78550828D01*
X116383082Y-78550828D01*
X116412346Y-78547946D01*
X116466418Y-78525548D01*
X116477545Y-78514421D01*
X116521679Y-78514421D01*
X116521679Y-78572949D01*
X116544077Y-78627021D01*
X116585461Y-78668405D01*
X116639533Y-78690803D01*
X116668797Y-78693685D01*
X117811654Y-78693685D01*
X117840918Y-78690803D01*
X117894990Y-78668405D01*
X117936374Y-78627021D01*
X117958772Y-78572949D01*
X117958772Y-78514421D01*
X117936374Y-78460349D01*
X117894990Y-78418965D01*
X117840918Y-78396567D01*
X117811654Y-78393685D01*
X116668797Y-78393685D01*
X116639533Y-78396567D01*
X116585461Y-78418965D01*
X116544077Y-78460349D01*
X116521679Y-78514421D01*
X116477545Y-78514421D01*
X116507802Y-78484164D01*
X116530200Y-78430092D01*
X116530200Y-78371564D01*
X116507802Y-78317492D01*
X116466418Y-78276108D01*
X116412346Y-78253710D01*
X116383082Y-78250828D01*
X115818796Y-78250828D01*
X115818796Y-77765114D01*
X116168796Y-77765114D01*
X116198060Y-77762232D01*
X116252132Y-77739834D01*
X116293516Y-77698450D01*
X116315914Y-77644378D01*
X116315914Y-77585850D01*
X116293516Y-77531778D01*
X116252132Y-77490394D01*
X116198060Y-77467996D01*
X116168796Y-77465114D01*
X115818796Y-77465114D01*
X115818796Y-77050828D01*
X116383082Y-77050828D01*
X116412346Y-77047946D01*
X116466418Y-77025548D01*
X116507802Y-76984164D01*
X116530200Y-76930092D01*
X116530200Y-76900828D01*
X118018796Y-76900828D01*
X118018796Y-78400828D01*
X118021678Y-78430092D01*
X118044076Y-78484164D01*
X118085460Y-78525548D01*
X118139532Y-78547946D01*
X118198060Y-78547946D01*
X118252132Y-78525548D01*
X118293516Y-78484164D01*
X118315914Y-78430092D01*
X118318796Y-78400828D01*
X118318796Y-77820103D01*
X118366852Y-77772046D01*
X118905939Y-78490828D01*
X118925803Y-78512510D01*
X118976165Y-78542329D01*
X119034102Y-78550606D01*
X119090799Y-78536081D01*
X119137621Y-78500964D01*
X119167440Y-78450603D01*
X119175717Y-78392665D01*
X119161192Y-78335969D01*
X119145939Y-78310828D01*
X118624153Y-77615114D01*
X119447368Y-77615114D01*
X119447368Y-78186542D01*
X119450250Y-78215806D01*
X119452312Y-78220784D01*
X119452694Y-78226160D01*
X119463204Y-78253623D01*
X119534632Y-78396482D01*
X119537711Y-78401374D01*
X119538482Y-78403685D01*
X119540977Y-78406562D01*
X119550297Y-78421367D01*
X119564503Y-78433688D01*
X119576829Y-78447900D01*
X119591633Y-78457218D01*
X119594511Y-78459714D01*
X119596822Y-78460484D01*
X119601715Y-78463564D01*
X119744573Y-78534993D01*
X119772036Y-78545502D01*
X119777411Y-78545883D01*
X119782390Y-78547946D01*
X119811654Y-78550828D01*
X120097368Y-78550828D01*
X120126632Y-78547946D01*
X120131610Y-78545883D01*
X120136986Y-78545502D01*
X120164450Y-78534992D01*
X120307307Y-78463564D01*
X120332193Y-78447899D01*
X120370539Y-78403684D01*
X120389047Y-78348162D01*
X120384899Y-78289782D01*
X120358725Y-78237433D01*
X120314510Y-78199086D01*
X120258987Y-78180578D01*
X120200607Y-78184726D01*
X120173144Y-78195236D01*
X120061958Y-78250828D01*
X119847063Y-78250828D01*
X119780600Y-78217597D01*
X119747368Y-78151133D01*
X119747368Y-78023798D01*
X120340917Y-77905089D01*
X120340918Y-77905089D01*
X120340918Y-77905088D01*
X120341072Y-77905058D01*
X120369202Y-77896493D01*
X120381413Y-77888314D01*
X120394990Y-77882691D01*
X120405491Y-77872189D01*
X120417832Y-77863925D01*
X120425984Y-77851697D01*
X120436374Y-77841307D01*
X120442056Y-77827587D01*
X120450296Y-77815229D01*
X120453148Y-77800811D01*
X120458772Y-77787235D01*
X120461654Y-77757971D01*
X120461654Y-77757819D01*
X120461655Y-77757814D01*
X120461654Y-77757809D01*
X120461654Y-77615114D01*
X120458772Y-77585850D01*
X120456708Y-77580869D01*
X120456327Y-77575495D01*
X120445818Y-77548031D01*
X120374389Y-77405175D01*
X120371308Y-77400280D01*
X120370539Y-77397973D01*
X120368046Y-77395098D01*
X120358724Y-77380289D01*
X120344514Y-77367965D01*
X120332193Y-77353758D01*
X120317387Y-77344438D01*
X120314509Y-77341942D01*
X120312197Y-77341171D01*
X120307307Y-77338093D01*
X120164450Y-77266664D01*
X120136987Y-77256155D01*
X120131612Y-77255773D01*
X120126632Y-77253710D01*
X120097368Y-77250828D01*
X119811654Y-77250828D01*
X119782390Y-77253710D01*
X119777412Y-77255771D01*
X119772035Y-77256154D01*
X119744572Y-77266664D01*
X119601714Y-77338093D01*
X119596819Y-77341173D01*
X119594512Y-77341943D01*
X119591637Y-77344435D01*
X119576828Y-77353758D01*
X119564505Y-77367966D01*
X119550297Y-77380289D01*
X119540974Y-77395098D01*
X119538482Y-77397973D01*
X119537712Y-77400280D01*
X119534632Y-77405175D01*
X119463204Y-77548032D01*
X119452694Y-77575496D01*
X119452312Y-77580871D01*
X119450250Y-77585850D01*
X119447368Y-77615114D01*
X118624153Y-77615114D01*
X118581138Y-77557760D01*
X119132005Y-77006894D01*
X119150660Y-76984164D01*
X119173057Y-76930091D01*
X119173057Y-76900828D01*
X121947367Y-76900828D01*
X121947367Y-78400828D01*
X121950249Y-78430092D01*
X121972647Y-78484164D01*
X122014031Y-78525548D01*
X122068103Y-78547946D01*
X122097367Y-78550828D01*
X122668796Y-78550828D01*
X122698060Y-78547946D01*
X122703038Y-78545883D01*
X122708414Y-78545502D01*
X122735878Y-78534992D01*
X122878735Y-78463564D01*
X122891328Y-78455636D01*
X122894988Y-78454121D01*
X122899107Y-78450739D01*
X122903621Y-78447899D01*
X122906217Y-78444905D01*
X122917719Y-78435466D01*
X122989148Y-78364037D01*
X122998589Y-78352532D01*
X123001581Y-78349938D01*
X123004419Y-78345428D01*
X123007803Y-78341306D01*
X123009319Y-78337644D01*
X123017246Y-78325053D01*
X123088674Y-78182195D01*
X123099184Y-78154732D01*
X123099565Y-78149356D01*
X123101628Y-78144378D01*
X123104510Y-78115114D01*
X123104510Y-77900828D01*
X123101628Y-77871564D01*
X123099565Y-77866585D01*
X123099184Y-77861210D01*
X123088674Y-77833747D01*
X123017246Y-77690889D01*
X123014509Y-77686542D01*
X123375939Y-77686542D01*
X123375939Y-78115114D01*
X123378821Y-78144378D01*
X123380883Y-78149356D01*
X123381265Y-78154732D01*
X123391775Y-78182196D01*
X123463203Y-78325053D01*
X123471130Y-78337646D01*
X123472646Y-78341306D01*
X123476027Y-78345425D01*
X123478868Y-78349939D01*
X123481861Y-78352535D01*
X123491301Y-78364037D01*
X123562730Y-78435466D01*
X123574234Y-78444907D01*
X123576829Y-78447899D01*
X123581338Y-78450737D01*
X123585461Y-78454121D01*
X123589122Y-78455637D01*
X123601714Y-78463564D01*
X123744572Y-78534992D01*
X123772035Y-78545502D01*
X123777410Y-78545883D01*
X123782389Y-78547946D01*
X123811653Y-78550828D01*
X124025939Y-78550828D01*
X124055203Y-78547946D01*
X124060181Y-78545883D01*
X124065557Y-78545502D01*
X124093021Y-78534992D01*
X124235878Y-78463564D01*
X124248471Y-78455636D01*
X124252131Y-78454121D01*
X124256250Y-78450739D01*
X124260764Y-78447899D01*
X124263360Y-78444905D01*
X124274862Y-78435466D01*
X124346291Y-78364037D01*
X124355732Y-78352532D01*
X124358724Y-78349938D01*
X124361562Y-78345428D01*
X124364946Y-78341306D01*
X124366462Y-78337644D01*
X124374389Y-78325053D01*
X124445817Y-78182195D01*
X124456327Y-78154732D01*
X124456708Y-78149356D01*
X124458771Y-78144378D01*
X124461653Y-78115114D01*
X124461653Y-77686542D01*
X124458771Y-77657278D01*
X124456708Y-77652299D01*
X124456327Y-77646924D01*
X124445817Y-77619461D01*
X124374389Y-77476603D01*
X124366460Y-77464008D01*
X124364945Y-77460349D01*
X124361563Y-77456228D01*
X124358724Y-77451718D01*
X124355732Y-77449123D01*
X124346290Y-77437618D01*
X124309499Y-77400828D01*
X124804510Y-77400828D01*
X124804510Y-78400828D01*
X124807392Y-78430092D01*
X124829790Y-78484164D01*
X124871174Y-78525548D01*
X124925246Y-78547946D01*
X124983774Y-78547946D01*
X125037846Y-78525548D01*
X125079230Y-78484164D01*
X125101628Y-78430092D01*
X125104510Y-78400828D01*
X125104510Y-78043685D01*
X125661653Y-78043685D01*
X125661653Y-78186542D01*
X125664535Y-78215806D01*
X125666597Y-78220784D01*
X125666979Y-78226160D01*
X125677489Y-78253623D01*
X125748917Y-78396482D01*
X125751996Y-78401374D01*
X125752767Y-78403685D01*
X125755262Y-78406562D01*
X125764582Y-78421367D01*
X125778788Y-78433688D01*
X125791114Y-78447900D01*
X125805918Y-78457218D01*
X125808796Y-78459714D01*
X125811107Y-78460484D01*
X125816000Y-78463564D01*
X125958858Y-78534993D01*
X125986321Y-78545502D01*
X125991696Y-78545883D01*
X125996675Y-78547946D01*
X126025939Y-78550828D01*
X126383081Y-78550828D01*
X126412345Y-78547946D01*
X126417323Y-78545883D01*
X126422699Y-78545502D01*
X126450162Y-78534992D01*
X126457067Y-78531539D01*
X126496675Y-78547946D01*
X126555203Y-78547946D01*
X126609275Y-78525548D01*
X126650659Y-78484164D01*
X126673057Y-78430092D01*
X126675939Y-78400828D01*
X126675939Y-77686542D01*
X127018796Y-77686542D01*
X127018796Y-78115114D01*
X127021678Y-78144378D01*
X127023740Y-78149356D01*
X127024122Y-78154732D01*
X127034632Y-78182196D01*
X127106060Y-78325053D01*
X127113987Y-78337646D01*
X127115503Y-78341306D01*
X127118884Y-78345425D01*
X127121725Y-78349939D01*
X127124718Y-78352535D01*
X127134158Y-78364037D01*
X127205587Y-78435466D01*
X127217091Y-78444907D01*
X127219686Y-78447899D01*
X127224195Y-78450737D01*
X127228318Y-78454121D01*
X127231979Y-78455637D01*
X127244571Y-78463564D01*
X127387429Y-78534992D01*
X127414892Y-78545502D01*
X127420267Y-78545883D01*
X127425246Y-78547946D01*
X127454510Y-78550828D01*
X127740224Y-78550828D01*
X127769488Y-78547946D01*
X127774466Y-78545883D01*
X127779842Y-78545502D01*
X127807305Y-78534992D01*
X127814210Y-78531539D01*
X127853818Y-78547946D01*
X127912346Y-78547946D01*
X127966418Y-78525548D01*
X128007802Y-78484164D01*
X128030200Y-78430092D01*
X128033082Y-78400828D01*
X128033082Y-76900828D01*
X128030200Y-76871564D01*
X128007802Y-76817492D01*
X127966418Y-76776108D01*
X127912346Y-76753710D01*
X127853818Y-76753710D01*
X127799746Y-76776108D01*
X127758362Y-76817492D01*
X127735964Y-76871564D01*
X127733082Y-76900828D01*
X127733082Y-77250828D01*
X127454510Y-77250828D01*
X127425246Y-77253710D01*
X127420265Y-77255773D01*
X127414891Y-77256155D01*
X127387427Y-77266664D01*
X127244571Y-77338093D01*
X127231977Y-77346020D01*
X127228318Y-77347536D01*
X127224197Y-77350917D01*
X127219685Y-77353758D01*
X127217088Y-77356751D01*
X127205588Y-77366190D01*
X127134159Y-77437618D01*
X127124719Y-77449120D01*
X127121725Y-77451717D01*
X127118883Y-77456231D01*
X127115504Y-77460349D01*
X127113988Y-77464007D01*
X127106060Y-77476603D01*
X127034632Y-77619460D01*
X127024122Y-77646924D01*
X127023740Y-77652299D01*
X127021678Y-77657278D01*
X127018796Y-77686542D01*
X126675939Y-77686542D01*
X126675939Y-77615114D01*
X126673057Y-77585850D01*
X126670993Y-77580869D01*
X126670612Y-77575495D01*
X126660103Y-77548031D01*
X126588674Y-77405175D01*
X126585593Y-77400280D01*
X126584824Y-77397973D01*
X126582331Y-77395098D01*
X126573009Y-77380289D01*
X126558799Y-77367965D01*
X126546478Y-77353758D01*
X126531672Y-77344438D01*
X126528794Y-77341942D01*
X126526482Y-77341171D01*
X126521592Y-77338093D01*
X126378735Y-77266664D01*
X126351272Y-77256155D01*
X126345897Y-77255773D01*
X126340917Y-77253710D01*
X126311653Y-77250828D01*
X126025939Y-77250828D01*
X125996675Y-77253710D01*
X125991697Y-77255771D01*
X125986320Y-77256154D01*
X125958857Y-77266664D01*
X125815999Y-77338093D01*
X125791113Y-77353758D01*
X125752767Y-77397973D01*
X125734259Y-77453495D01*
X125738407Y-77511876D01*
X125764582Y-77564225D01*
X125808797Y-77602571D01*
X125864319Y-77621079D01*
X125922700Y-77616931D01*
X125950163Y-77606421D01*
X126061349Y-77550828D01*
X126276243Y-77550828D01*
X126342707Y-77584060D01*
X126375939Y-77650524D01*
X126375939Y-77665266D01*
X126347671Y-77679400D01*
X126025939Y-77679400D01*
X125996675Y-77682282D01*
X125991696Y-77684344D01*
X125986321Y-77684726D01*
X125958858Y-77695235D01*
X125816000Y-77766664D01*
X125811106Y-77769744D01*
X125808797Y-77770514D01*
X125805921Y-77773007D01*
X125791114Y-77782328D01*
X125778789Y-77796538D01*
X125764582Y-77808860D01*
X125755261Y-77823666D01*
X125752767Y-77826543D01*
X125751996Y-77828853D01*
X125748917Y-77833746D01*
X125677489Y-77976603D01*
X125666979Y-78004067D01*
X125666597Y-78009442D01*
X125664535Y-78014421D01*
X125661653Y-78043685D01*
X125104510Y-78043685D01*
X125104510Y-77721952D01*
X125149217Y-77632538D01*
X125186221Y-77595535D01*
X125275635Y-77550828D01*
X125383082Y-77550828D01*
X125412346Y-77547946D01*
X125466418Y-77525548D01*
X125507802Y-77484164D01*
X125530200Y-77430092D01*
X125530200Y-77371564D01*
X125507802Y-77317492D01*
X125466418Y-77276108D01*
X125412346Y-77253710D01*
X125383082Y-77250828D01*
X125240225Y-77250828D01*
X125210961Y-77253710D01*
X125205980Y-77255773D01*
X125200606Y-77256155D01*
X125173142Y-77266664D01*
X125076649Y-77314911D01*
X125037846Y-77276108D01*
X124983774Y-77253710D01*
X124925246Y-77253710D01*
X124871174Y-77276108D01*
X124829790Y-77317492D01*
X124807392Y-77371564D01*
X124804510Y-77400828D01*
X124309499Y-77400828D01*
X124274861Y-77366190D01*
X124263361Y-77356752D01*
X124260764Y-77353758D01*
X124256247Y-77350915D01*
X124252130Y-77347536D01*
X124248473Y-77346021D01*
X124235878Y-77338093D01*
X124093021Y-77266664D01*
X124065558Y-77256155D01*
X124060183Y-77255773D01*
X124055203Y-77253710D01*
X124025939Y-77250828D01*
X123811653Y-77250828D01*
X123782389Y-77253710D01*
X123777408Y-77255773D01*
X123772034Y-77256155D01*
X123744570Y-77266664D01*
X123601714Y-77338093D01*
X123589120Y-77346020D01*
X123585461Y-77347536D01*
X123581340Y-77350917D01*
X123576828Y-77353758D01*
X123574231Y-77356751D01*
X123562731Y-77366190D01*
X123491302Y-77437618D01*
X123481862Y-77449120D01*
X123478868Y-77451717D01*
X123476026Y-77456231D01*
X123472647Y-77460349D01*
X123471131Y-77464007D01*
X123463203Y-77476603D01*
X123391775Y-77619460D01*
X123381265Y-77646924D01*
X123380883Y-77652299D01*
X123378821Y-77657278D01*
X123375939Y-77686542D01*
X123014509Y-77686542D01*
X123009319Y-77678297D01*
X123007803Y-77674636D01*
X123004419Y-77670513D01*
X123001581Y-77666004D01*
X122998589Y-77663409D01*
X122989148Y-77651905D01*
X122917719Y-77580476D01*
X122916536Y-77579505D01*
X122917719Y-77578323D01*
X122927159Y-77566820D01*
X122930152Y-77564225D01*
X122932990Y-77559715D01*
X122936374Y-77555593D01*
X122937890Y-77551930D01*
X122945817Y-77539339D01*
X123017246Y-77396483D01*
X123027755Y-77369019D01*
X123028136Y-77363644D01*
X123030200Y-77358664D01*
X123033082Y-77329400D01*
X123033082Y-77186542D01*
X123030200Y-77157278D01*
X123028136Y-77152297D01*
X123027755Y-77146923D01*
X123017246Y-77119459D01*
X122945817Y-76976603D01*
X122937890Y-76964011D01*
X122936374Y-76960349D01*
X122932990Y-76956226D01*
X122930152Y-76951717D01*
X122927159Y-76949121D01*
X122917719Y-76937619D01*
X122846291Y-76866191D01*
X122834789Y-76856751D01*
X122832193Y-76853758D01*
X122827679Y-76850917D01*
X122823560Y-76847536D01*
X122819900Y-76846020D01*
X122807307Y-76838093D01*
X122664449Y-76766664D01*
X122636986Y-76756154D01*
X122631608Y-76755771D01*
X122626631Y-76753710D01*
X122597367Y-76750828D01*
X122097367Y-76750828D01*
X122068103Y-76753710D01*
X122014031Y-76776108D01*
X121972647Y-76817492D01*
X121950249Y-76871564D01*
X121947367Y-76900828D01*
X119173057Y-76900828D01*
X119173057Y-76871565D01*
X119150660Y-76817493D01*
X119109274Y-76776107D01*
X119055202Y-76753710D01*
X118996676Y-76753710D01*
X118942603Y-76776107D01*
X118919873Y-76794762D01*
X118318796Y-77395839D01*
X118318796Y-76900828D01*
X118315914Y-76871564D01*
X118293516Y-76817492D01*
X118252132Y-76776108D01*
X118198060Y-76753710D01*
X118139532Y-76753710D01*
X118085460Y-76776108D01*
X118044076Y-76817492D01*
X118021678Y-76871564D01*
X118018796Y-76900828D01*
X116530200Y-76900828D01*
X116530200Y-76871564D01*
X116507802Y-76817492D01*
X116466418Y-76776108D01*
X116412346Y-76753710D01*
X116383082Y-76750828D01*
X115668796Y-76750828D01*
X115639532Y-76753710D01*
X115585460Y-76776108D01*
X115544076Y-76817492D01*
X115521678Y-76871564D01*
X115518796Y-76900828D01*
X114604510Y-76900828D01*
X114601628Y-76871564D01*
X114579230Y-76817492D01*
X114537846Y-76776108D01*
X114483774Y-76753710D01*
X114425246Y-76753710D01*
X114371174Y-76776108D01*
X114329790Y-76817492D01*
X114307392Y-76871564D01*
X114304510Y-76900828D01*
X113738071Y-76900828D01*
X113703434Y-76866191D01*
X113691932Y-76856751D01*
X113689336Y-76853758D01*
X113684822Y-76850917D01*
X113680703Y-76847536D01*
X113677043Y-76846020D01*
X113664450Y-76838093D01*
X113521592Y-76766664D01*
X113494129Y-76756154D01*
X113488751Y-76755771D01*
X113483774Y-76753710D01*
X113454510Y-76750828D01*
X112954510Y-76750828D01*
X112925246Y-76753710D01*
X112871174Y-76776108D01*
X112829790Y-76817492D01*
X112807392Y-76871564D01*
X112804510Y-76900828D01*
X112637843Y-76900828D01*
X112637843Y-76584161D01*
X128199749Y-76584161D01*
X128199749Y-79216317D01*
G37*
X115811653Y-83700828D02*
X116740225Y-83700828D01*
X116740225Y-83700828D02*
X116240225Y-84272257D01*
X116240225Y-84272257D02*
X116454510Y-84272257D01*
X116454510Y-84272257D02*
X116597368Y-84343685D01*
X116597368Y-84343685D02*
X116668796Y-84415114D01*
X116668796Y-84415114D02*
X116740225Y-84557971D01*
X116740225Y-84557971D02*
X116740225Y-84915114D01*
X116740225Y-84915114D02*
X116668796Y-85057971D01*
X116668796Y-85057971D02*
X116597368Y-85129400D01*
X116597368Y-85129400D02*
X116454510Y-85200828D01*
X116454510Y-85200828D02*
X116025939Y-85200828D01*
X116025939Y-85200828D02*
X115883082Y-85129400D01*
X115883082Y-85129400D02*
X115811653Y-85057971D01*
X117383081Y-85057971D02*
X117454510Y-85129400D01*
X117454510Y-85129400D02*
X117383081Y-85200828D01*
X117383081Y-85200828D02*
X117311653Y-85129400D01*
X117311653Y-85129400D02*
X117383081Y-85057971D01*
X117383081Y-85057971D02*
X117383081Y-85200828D01*
X117954510Y-83700828D02*
X118883082Y-83700828D01*
X118883082Y-83700828D02*
X118383082Y-84272257D01*
X118383082Y-84272257D02*
X118597367Y-84272257D01*
X118597367Y-84272257D02*
X118740225Y-84343685D01*
X118740225Y-84343685D02*
X118811653Y-84415114D01*
X118811653Y-84415114D02*
X118883082Y-84557971D01*
X118883082Y-84557971D02*
X118883082Y-84915114D01*
X118883082Y-84915114D02*
X118811653Y-85057971D01*
X118811653Y-85057971D02*
X118740225Y-85129400D01*
X118740225Y-85129400D02*
X118597367Y-85200828D01*
X118597367Y-85200828D02*
X118168796Y-85200828D01*
X118168796Y-85200828D02*
X118025939Y-85129400D01*
X118025939Y-85129400D02*
X117954510Y-85057971D01*
X119311653Y-83700828D02*
X119811653Y-85200828D01*
X119811653Y-85200828D02*
X120311653Y-83700828D01*
X121525938Y-85200828D02*
X120811652Y-85200828D01*
X120811652Y-85200828D02*
X120811652Y-83700828D01*
X122025938Y-84415114D02*
X122525938Y-84415114D01*
X122740224Y-85200828D02*
X122025938Y-85200828D01*
X122025938Y-85200828D02*
X122025938Y-83700828D01*
X122025938Y-83700828D02*
X122740224Y-83700828D01*
X123383081Y-85200828D02*
X123383081Y-83700828D01*
X123383081Y-83700828D02*
X123740224Y-83700828D01*
X123740224Y-83700828D02*
X123954510Y-83772257D01*
X123954510Y-83772257D02*
X124097367Y-83915114D01*
X124097367Y-83915114D02*
X124168796Y-84057971D01*
X124168796Y-84057971D02*
X124240224Y-84343685D01*
X124240224Y-84343685D02*
X124240224Y-84557971D01*
X124240224Y-84557971D02*
X124168796Y-84843685D01*
X124168796Y-84843685D02*
X124097367Y-84986542D01*
X124097367Y-84986542D02*
X123954510Y-85129400D01*
X123954510Y-85129400D02*
X123740224Y-85200828D01*
X123740224Y-85200828D02*
X123383081Y-85200828D01*
D10*
G36*
X97991503Y-89082990D02*
G01*
X98065616Y-89157103D01*
X98104109Y-89234090D01*
X98147493Y-89407624D01*
X98147493Y-89532013D01*
X98104109Y-89705547D01*
X98065615Y-89782534D01*
X97991503Y-89856647D01*
X97876990Y-89894819D01*
X97726065Y-89894819D01*
X97726065Y-89044819D01*
X97876990Y-89044819D01*
X97991503Y-89082990D01*
G37*
G36*
X99086741Y-89559180D02*
G01*
X99113235Y-89585674D01*
X99147493Y-89654190D01*
X99147493Y-89761637D01*
X99113234Y-89830153D01*
X99082827Y-89860561D01*
X99014312Y-89894819D01*
X98726065Y-89894819D01*
X98726065Y-89521009D01*
X98972228Y-89521009D01*
X99086741Y-89559180D01*
G37*
G36*
X99035209Y-89079077D02*
G01*
X99065616Y-89109484D01*
X99099874Y-89178000D01*
X99099874Y-89237828D01*
X99065616Y-89306344D01*
X99035209Y-89336751D01*
X98966693Y-89371009D01*
X98726065Y-89371009D01*
X98726065Y-89044819D01*
X98966693Y-89044819D01*
X99035209Y-89079077D01*
G37*
G36*
X100360966Y-90155930D02*
G01*
X95703049Y-90155930D01*
X95703049Y-89160295D01*
X95814160Y-89160295D01*
X95814160Y-89255533D01*
X95815601Y-89270165D01*
X95816632Y-89272654D01*
X95816823Y-89275342D01*
X95822078Y-89289074D01*
X95869697Y-89384312D01*
X95873661Y-89390611D01*
X95874419Y-89392439D01*
X95876107Y-89394495D01*
X95877529Y-89396755D01*
X95879027Y-89398054D01*
X95883746Y-89403804D01*
X95931365Y-89451423D01*
X95937114Y-89456141D01*
X95938414Y-89457640D01*
X95940673Y-89459061D01*
X95942730Y-89460750D01*
X95944557Y-89461507D01*
X95950857Y-89465472D01*
X96046095Y-89513091D01*
X96047164Y-89513500D01*
X96047600Y-89513823D01*
X96053736Y-89516015D01*
X96059826Y-89518346D01*
X96060366Y-89518384D01*
X96061446Y-89518770D01*
X96243936Y-89564392D01*
X96320923Y-89602886D01*
X96351330Y-89633293D01*
X96385588Y-89701809D01*
X96385588Y-89761637D01*
X96351329Y-89830153D01*
X96320922Y-89860561D01*
X96252407Y-89894819D01*
X96044187Y-89894819D01*
X95912877Y-89851049D01*
X95898540Y-89847789D01*
X95869350Y-89849864D01*
X95843177Y-89862950D01*
X95824003Y-89885057D01*
X95814749Y-89912820D01*
X95816824Y-89942010D01*
X95829910Y-89968183D01*
X95852017Y-89987357D01*
X95865443Y-89993351D01*
X96008299Y-90040970D01*
X96015554Y-90042619D01*
X96017385Y-90043378D01*
X96020038Y-90043639D01*
X96022636Y-90044230D01*
X96024610Y-90044089D01*
X96032017Y-90044819D01*
X96270112Y-90044819D01*
X96284744Y-90043378D01*
X96287233Y-90042346D01*
X96289921Y-90042156D01*
X96303653Y-90036901D01*
X96398891Y-89989282D01*
X96405190Y-89985317D01*
X96407018Y-89984560D01*
X96409074Y-89982872D01*
X96411334Y-89981450D01*
X96412634Y-89979950D01*
X96418384Y-89975232D01*
X96466002Y-89927613D01*
X96470720Y-89921863D01*
X96472219Y-89920564D01*
X96473640Y-89918305D01*
X96475330Y-89916247D01*
X96476087Y-89914417D01*
X96480051Y-89908121D01*
X96527670Y-89812883D01*
X96532925Y-89799152D01*
X96533116Y-89796462D01*
X96534147Y-89793974D01*
X96535588Y-89779342D01*
X96535588Y-89684104D01*
X96534147Y-89669472D01*
X96533116Y-89666983D01*
X96532925Y-89664294D01*
X96527670Y-89650563D01*
X96480051Y-89555325D01*
X96476086Y-89549025D01*
X96475329Y-89547198D01*
X96473640Y-89545141D01*
X96472219Y-89542882D01*
X96470720Y-89541582D01*
X96466002Y-89535833D01*
X96418383Y-89488214D01*
X96412633Y-89483495D01*
X96411334Y-89481997D01*
X96409074Y-89480575D01*
X96407018Y-89478887D01*
X96405190Y-89478129D01*
X96398891Y-89474165D01*
X96303653Y-89426546D01*
X96302583Y-89426136D01*
X96302148Y-89425814D01*
X96296002Y-89423618D01*
X96289921Y-89421291D01*
X96289381Y-89421252D01*
X96288302Y-89420867D01*
X96105812Y-89375244D01*
X96028825Y-89336751D01*
X95998418Y-89306344D01*
X95964160Y-89237828D01*
X95964160Y-89178000D01*
X95998418Y-89109484D01*
X96028825Y-89079077D01*
X96097341Y-89044819D01*
X96305561Y-89044819D01*
X96436870Y-89088589D01*
X96451207Y-89091849D01*
X96480397Y-89089774D01*
X96506571Y-89076688D01*
X96525745Y-89054580D01*
X96534999Y-89026818D01*
X96532924Y-88997628D01*
X96519837Y-88971455D01*
X96501081Y-88955187D01*
X96672744Y-88955187D01*
X96672744Y-88984451D01*
X96683943Y-89011487D01*
X96704635Y-89032179D01*
X96731671Y-89043378D01*
X96746303Y-89044819D01*
X96957017Y-89044819D01*
X96957017Y-89969819D01*
X96958458Y-89984451D01*
X96969657Y-90011487D01*
X96990349Y-90032179D01*
X97017385Y-90043378D01*
X97046649Y-90043378D01*
X97073685Y-90032179D01*
X97094377Y-90011487D01*
X97105576Y-89984451D01*
X97107017Y-89969819D01*
X97107017Y-89044819D01*
X97317731Y-89044819D01*
X97332363Y-89043378D01*
X97359399Y-89032179D01*
X97380091Y-89011487D01*
X97391290Y-88984451D01*
X97391290Y-88969819D01*
X97576065Y-88969819D01*
X97576065Y-89969819D01*
X97577506Y-89984451D01*
X97588705Y-90011487D01*
X97609397Y-90032179D01*
X97636433Y-90043378D01*
X97651065Y-90044819D01*
X97889160Y-90044819D01*
X97896565Y-90044089D01*
X97898540Y-90044230D01*
X97901137Y-90043639D01*
X97903792Y-90043378D01*
X97905623Y-90042619D01*
X97912877Y-90040970D01*
X98055734Y-89993351D01*
X98069159Y-89987357D01*
X98071194Y-89985591D01*
X98073685Y-89984560D01*
X98085050Y-89975233D01*
X98180289Y-89879993D01*
X98185006Y-89874244D01*
X98186505Y-89872945D01*
X98187926Y-89870686D01*
X98189616Y-89868628D01*
X98190373Y-89866798D01*
X98194337Y-89860502D01*
X98241956Y-89765264D01*
X98242365Y-89764194D01*
X98242688Y-89763759D01*
X98244880Y-89757622D01*
X98247211Y-89751533D01*
X98247249Y-89750992D01*
X98247635Y-89749913D01*
X98295254Y-89559437D01*
X98295629Y-89556900D01*
X98296052Y-89555879D01*
X98296594Y-89550366D01*
X98297404Y-89544893D01*
X98297241Y-89543800D01*
X98297493Y-89541247D01*
X98297493Y-89398390D01*
X98297241Y-89395836D01*
X98297404Y-89394744D01*
X98296594Y-89389270D01*
X98296052Y-89383758D01*
X98295629Y-89382736D01*
X98295254Y-89380200D01*
X98247635Y-89189724D01*
X98247249Y-89188644D01*
X98247211Y-89188104D01*
X98244880Y-89182014D01*
X98242688Y-89175878D01*
X98242365Y-89175442D01*
X98241956Y-89174373D01*
X98194337Y-89079135D01*
X98190374Y-89072840D01*
X98189616Y-89071008D01*
X98187924Y-89068946D01*
X98186505Y-89066692D01*
X98185008Y-89065393D01*
X98180288Y-89059643D01*
X98090464Y-88969819D01*
X98576065Y-88969819D01*
X98576065Y-89969819D01*
X98577506Y-89984451D01*
X98588705Y-90011487D01*
X98609397Y-90032179D01*
X98636433Y-90043378D01*
X98651065Y-90044819D01*
X99032017Y-90044819D01*
X99046649Y-90043378D01*
X99049138Y-90042346D01*
X99051826Y-90042156D01*
X99065558Y-90036901D01*
X99160796Y-89989282D01*
X99167095Y-89985317D01*
X99168923Y-89984560D01*
X99170979Y-89982872D01*
X99173239Y-89981450D01*
X99174539Y-89979950D01*
X99180289Y-89975232D01*
X99227907Y-89927613D01*
X99232625Y-89921863D01*
X99234124Y-89920564D01*
X99235545Y-89918305D01*
X99237235Y-89916247D01*
X99237992Y-89914417D01*
X99241956Y-89908121D01*
X99289575Y-89812883D01*
X99294830Y-89799152D01*
X99295021Y-89796462D01*
X99296052Y-89793974D01*
X99297493Y-89779342D01*
X99297493Y-89636485D01*
X99296052Y-89621853D01*
X99295021Y-89619364D01*
X99294830Y-89616675D01*
X99289575Y-89602944D01*
X99241956Y-89507706D01*
X99237991Y-89501406D01*
X99237234Y-89499579D01*
X99235545Y-89497522D01*
X99234124Y-89495263D01*
X99232625Y-89493963D01*
X99227907Y-89488214D01*
X99180288Y-89440595D01*
X99168923Y-89431268D01*
X99166432Y-89430236D01*
X99164397Y-89428471D01*
X99158329Y-89425762D01*
X99180288Y-89403804D01*
X99185006Y-89398054D01*
X99186505Y-89396755D01*
X99187926Y-89394495D01*
X99189615Y-89392439D01*
X99190372Y-89390611D01*
X99194337Y-89384312D01*
X99241956Y-89289074D01*
X99247211Y-89275343D01*
X99247402Y-89272653D01*
X99248433Y-89270165D01*
X99249874Y-89255533D01*
X99249874Y-89160295D01*
X99248433Y-89145663D01*
X99247402Y-89143174D01*
X99247211Y-89140485D01*
X99241956Y-89126754D01*
X99194337Y-89031516D01*
X99190372Y-89025216D01*
X99189615Y-89023389D01*
X99187926Y-89021332D01*
X99186505Y-89019073D01*
X99185006Y-89017773D01*
X99180288Y-89012024D01*
X99136409Y-88968145D01*
X99433227Y-88968145D01*
X99438294Y-88996967D01*
X99444933Y-89010085D01*
X99766541Y-89515469D01*
X99766541Y-89969819D01*
X99767982Y-89984451D01*
X99779181Y-90011487D01*
X99799873Y-90032179D01*
X99826909Y-90043378D01*
X99856173Y-90043378D01*
X99883209Y-90032179D01*
X99903901Y-90011487D01*
X99915100Y-89984451D01*
X99916541Y-89969819D01*
X99916541Y-89515468D01*
X100238149Y-89010084D01*
X100244789Y-88996966D01*
X100249855Y-88968145D01*
X100243507Y-88939579D01*
X100226711Y-88915615D01*
X100202022Y-88899904D01*
X100173200Y-88894838D01*
X100144634Y-88901186D01*
X100120671Y-88917982D01*
X100111599Y-88929553D01*
X99841540Y-89353930D01*
X99571483Y-88929553D01*
X99562411Y-88917983D01*
X99538448Y-88901186D01*
X99509882Y-88894838D01*
X99481060Y-88899905D01*
X99456372Y-88915616D01*
X99439575Y-88939579D01*
X99433227Y-88968145D01*
X99136409Y-88968145D01*
X99132669Y-88964405D01*
X99126919Y-88959686D01*
X99125620Y-88958188D01*
X99123360Y-88956766D01*
X99121304Y-88955078D01*
X99119476Y-88954320D01*
X99113177Y-88950356D01*
X99017939Y-88902737D01*
X99004207Y-88897482D01*
X99001519Y-88897291D01*
X98999030Y-88896260D01*
X98984398Y-88894819D01*
X98651065Y-88894819D01*
X98636433Y-88896260D01*
X98609397Y-88907459D01*
X98588705Y-88928151D01*
X98577506Y-88955187D01*
X98576065Y-88969819D01*
X98090464Y-88969819D01*
X98085050Y-88964405D01*
X98073685Y-88955078D01*
X98071194Y-88954046D01*
X98069159Y-88952281D01*
X98055734Y-88946287D01*
X97912877Y-88898668D01*
X97905623Y-88897018D01*
X97903792Y-88896260D01*
X97901137Y-88895998D01*
X97898540Y-88895408D01*
X97896565Y-88895548D01*
X97889160Y-88894819D01*
X97651065Y-88894819D01*
X97636433Y-88896260D01*
X97609397Y-88907459D01*
X97588705Y-88928151D01*
X97577506Y-88955187D01*
X97576065Y-88969819D01*
X97391290Y-88969819D01*
X97391290Y-88955187D01*
X97380091Y-88928151D01*
X97359399Y-88907459D01*
X97332363Y-88896260D01*
X97317731Y-88894819D01*
X96746303Y-88894819D01*
X96731671Y-88896260D01*
X96704635Y-88907459D01*
X96683943Y-88928151D01*
X96672744Y-88955187D01*
X96501081Y-88955187D01*
X96497730Y-88952281D01*
X96484305Y-88946287D01*
X96341448Y-88898668D01*
X96334194Y-88897018D01*
X96332363Y-88896260D01*
X96329708Y-88895998D01*
X96327111Y-88895408D01*
X96325136Y-88895548D01*
X96317731Y-88894819D01*
X96079636Y-88894819D01*
X96065004Y-88896260D01*
X96062515Y-88897290D01*
X96059826Y-88897482D01*
X96046095Y-88902737D01*
X95950857Y-88950356D01*
X95944557Y-88954320D01*
X95942730Y-88955078D01*
X95940673Y-88956766D01*
X95938414Y-88958188D01*
X95937114Y-88959686D01*
X95931365Y-88964405D01*
X95883746Y-89012024D01*
X95879027Y-89017773D01*
X95877529Y-89019073D01*
X95876107Y-89021332D01*
X95874419Y-89023389D01*
X95873661Y-89025216D01*
X95869697Y-89031516D01*
X95822078Y-89126754D01*
X95816823Y-89140486D01*
X95816632Y-89143173D01*
X95815601Y-89145663D01*
X95814160Y-89160295D01*
X95703049Y-89160295D01*
X95703049Y-88783708D01*
X100360966Y-88783708D01*
X100360966Y-90155930D01*
G37*
D12*
X87466667Y-81909800D02*
X87609524Y-81957419D01*
X87609524Y-81957419D02*
X87847619Y-81957419D01*
X87847619Y-81957419D02*
X87942857Y-81909800D01*
X87942857Y-81909800D02*
X87990476Y-81862180D01*
X87990476Y-81862180D02*
X88038095Y-81766942D01*
X88038095Y-81766942D02*
X88038095Y-81671704D01*
X88038095Y-81671704D02*
X87990476Y-81576466D01*
X87990476Y-81576466D02*
X87942857Y-81528847D01*
X87942857Y-81528847D02*
X87847619Y-81481228D01*
X87847619Y-81481228D02*
X87657143Y-81433609D01*
X87657143Y-81433609D02*
X87561905Y-81385990D01*
X87561905Y-81385990D02*
X87514286Y-81338371D01*
X87514286Y-81338371D02*
X87466667Y-81243133D01*
X87466667Y-81243133D02*
X87466667Y-81147895D01*
X87466667Y-81147895D02*
X87514286Y-81052657D01*
X87514286Y-81052657D02*
X87561905Y-81005038D01*
X87561905Y-81005038D02*
X87657143Y-80957419D01*
X87657143Y-80957419D02*
X87895238Y-80957419D01*
X87895238Y-80957419D02*
X88038095Y-81005038D01*
X88371429Y-80957419D02*
X88609524Y-81957419D01*
X88609524Y-81957419D02*
X88800000Y-81243133D01*
X88800000Y-81243133D02*
X88990476Y-81957419D01*
X88990476Y-81957419D02*
X89228572Y-80957419D01*
X89514286Y-80957419D02*
X90133333Y-80957419D01*
X90133333Y-80957419D02*
X89800000Y-81338371D01*
X89800000Y-81338371D02*
X89942857Y-81338371D01*
X89942857Y-81338371D02*
X90038095Y-81385990D01*
X90038095Y-81385990D02*
X90085714Y-81433609D01*
X90085714Y-81433609D02*
X90133333Y-81528847D01*
X90133333Y-81528847D02*
X90133333Y-81766942D01*
X90133333Y-81766942D02*
X90085714Y-81862180D01*
X90085714Y-81862180D02*
X90038095Y-81909800D01*
X90038095Y-81909800D02*
X89942857Y-81957419D01*
X89942857Y-81957419D02*
X89657143Y-81957419D01*
X89657143Y-81957419D02*
X89561905Y-81909800D01*
X89561905Y-81909800D02*
X89514286Y-81862180D01*
D10*
G36*
X105945200Y-77644180D02*
G01*
X105971694Y-77670674D01*
X106005952Y-77739190D01*
X106005952Y-77846637D01*
X105971693Y-77915153D01*
X105941286Y-77945561D01*
X105872771Y-77979819D01*
X105584524Y-77979819D01*
X105584524Y-77606009D01*
X105830687Y-77606009D01*
X105945200Y-77644180D01*
G37*
G36*
X105893668Y-77164077D02*
G01*
X105924075Y-77194484D01*
X105958333Y-77263000D01*
X105958333Y-77322828D01*
X105924075Y-77391344D01*
X105893668Y-77421751D01*
X105825152Y-77456009D01*
X105584524Y-77456009D01*
X105584524Y-77129819D01*
X105825152Y-77129819D01*
X105893668Y-77164077D01*
G37*
G36*
X106834038Y-77694104D02*
G01*
X106565962Y-77694104D01*
X106700000Y-77291989D01*
X106834038Y-77694104D01*
G37*
G36*
X109075147Y-78240930D02*
G01*
X105323413Y-78240930D01*
X105323413Y-77054819D01*
X105434524Y-77054819D01*
X105434524Y-78054819D01*
X105435965Y-78069451D01*
X105447164Y-78096487D01*
X105467856Y-78117179D01*
X105494892Y-78128378D01*
X105509524Y-78129819D01*
X105890476Y-78129819D01*
X105905108Y-78128378D01*
X105907597Y-78127346D01*
X105910285Y-78127156D01*
X105924017Y-78121901D01*
X106019255Y-78074282D01*
X106025554Y-78070317D01*
X106027382Y-78069560D01*
X106029438Y-78067872D01*
X106031698Y-78066450D01*
X106032998Y-78064950D01*
X106038748Y-78060232D01*
X106053541Y-78045439D01*
X106292256Y-78045439D01*
X106294331Y-78074629D01*
X106307417Y-78100802D01*
X106329524Y-78119976D01*
X106357287Y-78129230D01*
X106386477Y-78127155D01*
X106412650Y-78114069D01*
X106431824Y-78091962D01*
X106437818Y-78078536D01*
X106515962Y-77844104D01*
X106884038Y-77844104D01*
X106962182Y-78078536D01*
X106968176Y-78091961D01*
X106987350Y-78114068D01*
X107013523Y-78127155D01*
X107042713Y-78129230D01*
X107070475Y-78119976D01*
X107092583Y-78100802D01*
X107105669Y-78074628D01*
X107107744Y-78045438D01*
X107104484Y-78031102D01*
X106774179Y-77040187D01*
X107150251Y-77040187D01*
X107150251Y-77069451D01*
X107161450Y-77096487D01*
X107182142Y-77117179D01*
X107209178Y-77128378D01*
X107223810Y-77129819D01*
X107434524Y-77129819D01*
X107434524Y-78054819D01*
X107435965Y-78069451D01*
X107447164Y-78096487D01*
X107467856Y-78117179D01*
X107494892Y-78128378D01*
X107524156Y-78128378D01*
X107551192Y-78117179D01*
X107571884Y-78096487D01*
X107583083Y-78069451D01*
X107584524Y-78054819D01*
X107584524Y-77659234D01*
X108055013Y-77659234D01*
X108055013Y-77688498D01*
X108066212Y-77715534D01*
X108086904Y-77736226D01*
X108113940Y-77747425D01*
X108128572Y-77748866D01*
X108890477Y-77748866D01*
X108905109Y-77747425D01*
X108932145Y-77736226D01*
X108952837Y-77715534D01*
X108964036Y-77688498D01*
X108964036Y-77659234D01*
X108952837Y-77632198D01*
X108932145Y-77611506D01*
X108905109Y-77600307D01*
X108890477Y-77598866D01*
X108128572Y-77598866D01*
X108113940Y-77600307D01*
X108086904Y-77611506D01*
X108066212Y-77632198D01*
X108055013Y-77659234D01*
X107584524Y-77659234D01*
X107584524Y-77129819D01*
X107795238Y-77129819D01*
X107809870Y-77128378D01*
X107836906Y-77117179D01*
X107857598Y-77096487D01*
X107868797Y-77069451D01*
X107868797Y-77040187D01*
X107857598Y-77013151D01*
X107836906Y-76992459D01*
X107809870Y-76981260D01*
X107795238Y-76979819D01*
X107223810Y-76979819D01*
X107209178Y-76981260D01*
X107182142Y-76992459D01*
X107161450Y-77013151D01*
X107150251Y-77040187D01*
X106774179Y-77040187D01*
X106771151Y-77031102D01*
X106765157Y-77017676D01*
X106761645Y-77013627D01*
X106759250Y-77008836D01*
X106752146Y-77002674D01*
X106745983Y-76995569D01*
X106741189Y-76993172D01*
X106737142Y-76989662D01*
X106728220Y-76986688D01*
X106719810Y-76982483D01*
X106714465Y-76982103D01*
X106709380Y-76980408D01*
X106700000Y-76981074D01*
X106690620Y-76980408D01*
X106685534Y-76982103D01*
X106680190Y-76982483D01*
X106671782Y-76986687D01*
X106662857Y-76989662D01*
X106658806Y-76993175D01*
X106654017Y-76995570D01*
X106647858Y-77002670D01*
X106640750Y-77008836D01*
X106638353Y-77013629D01*
X106634843Y-77017677D01*
X106628849Y-77031102D01*
X106295516Y-78031102D01*
X106292256Y-78045439D01*
X106053541Y-78045439D01*
X106086366Y-78012613D01*
X106091084Y-78006863D01*
X106092583Y-78005564D01*
X106094004Y-78003305D01*
X106095694Y-78001247D01*
X106096451Y-77999417D01*
X106100415Y-77993121D01*
X106148034Y-77897883D01*
X106153289Y-77884152D01*
X106153480Y-77881462D01*
X106154511Y-77878974D01*
X106155952Y-77864342D01*
X106155952Y-77721485D01*
X106154511Y-77706853D01*
X106153480Y-77704364D01*
X106153289Y-77701675D01*
X106148034Y-77687944D01*
X106100415Y-77592706D01*
X106096450Y-77586406D01*
X106095693Y-77584579D01*
X106094004Y-77582522D01*
X106092583Y-77580263D01*
X106091084Y-77578963D01*
X106086366Y-77573214D01*
X106038747Y-77525595D01*
X106027382Y-77516268D01*
X106024891Y-77515236D01*
X106022856Y-77513471D01*
X106016788Y-77510762D01*
X106038747Y-77488804D01*
X106043465Y-77483054D01*
X106044964Y-77481755D01*
X106046385Y-77479495D01*
X106048074Y-77477439D01*
X106048831Y-77475611D01*
X106052796Y-77469312D01*
X106100415Y-77374074D01*
X106105670Y-77360343D01*
X106105861Y-77357653D01*
X106106892Y-77355165D01*
X106108333Y-77340533D01*
X106108333Y-77245295D01*
X106106892Y-77230663D01*
X106105861Y-77228174D01*
X106105670Y-77225485D01*
X106100415Y-77211754D01*
X106052796Y-77116516D01*
X106048831Y-77110216D01*
X106048074Y-77108389D01*
X106046385Y-77106332D01*
X106044964Y-77104073D01*
X106043465Y-77102773D01*
X106038747Y-77097024D01*
X105991128Y-77049405D01*
X105985378Y-77044686D01*
X105984079Y-77043188D01*
X105981819Y-77041766D01*
X105979763Y-77040078D01*
X105977935Y-77039320D01*
X105971636Y-77035356D01*
X105876398Y-76987737D01*
X105862666Y-76982482D01*
X105859978Y-76982291D01*
X105857489Y-76981260D01*
X105842857Y-76979819D01*
X105509524Y-76979819D01*
X105494892Y-76981260D01*
X105467856Y-76992459D01*
X105447164Y-77013151D01*
X105435965Y-77040187D01*
X105434524Y-77054819D01*
X105323413Y-77054819D01*
X105323413Y-76868708D01*
X109075147Y-76868708D01*
X109075147Y-78240930D01*
G37*
G36*
X94745200Y-78244180D02*
G01*
X94771694Y-78270674D01*
X94805952Y-78339190D01*
X94805952Y-78446637D01*
X94771693Y-78515153D01*
X94741286Y-78545561D01*
X94672771Y-78579819D01*
X94384524Y-78579819D01*
X94384524Y-78206009D01*
X94630687Y-78206009D01*
X94745200Y-78244180D01*
G37*
G36*
X94693668Y-77764077D02*
G01*
X94724075Y-77794484D01*
X94758333Y-77863000D01*
X94758333Y-77922828D01*
X94724075Y-77991344D01*
X94693668Y-78021751D01*
X94625152Y-78056009D01*
X94384524Y-78056009D01*
X94384524Y-77729819D01*
X94625152Y-77729819D01*
X94693668Y-77764077D01*
G37*
G36*
X95634038Y-78294104D02*
G01*
X95365962Y-78294104D01*
X95500000Y-77891989D01*
X95634038Y-78294104D01*
G37*
G36*
X97875147Y-78840930D02*
G01*
X94123413Y-78840930D01*
X94123413Y-77654819D01*
X94234524Y-77654819D01*
X94234524Y-78654819D01*
X94235965Y-78669451D01*
X94247164Y-78696487D01*
X94267856Y-78717179D01*
X94294892Y-78728378D01*
X94309524Y-78729819D01*
X94690476Y-78729819D01*
X94705108Y-78728378D01*
X94707597Y-78727346D01*
X94710285Y-78727156D01*
X94724017Y-78721901D01*
X94819255Y-78674282D01*
X94825554Y-78670317D01*
X94827382Y-78669560D01*
X94829438Y-78667872D01*
X94831698Y-78666450D01*
X94832998Y-78664950D01*
X94838748Y-78660232D01*
X94853541Y-78645439D01*
X95092256Y-78645439D01*
X95094331Y-78674629D01*
X95107417Y-78700802D01*
X95129524Y-78719976D01*
X95157287Y-78729230D01*
X95186477Y-78727155D01*
X95212650Y-78714069D01*
X95231824Y-78691962D01*
X95237818Y-78678536D01*
X95315962Y-78444104D01*
X95684038Y-78444104D01*
X95762182Y-78678536D01*
X95768176Y-78691961D01*
X95787350Y-78714068D01*
X95813523Y-78727155D01*
X95842713Y-78729230D01*
X95870475Y-78719976D01*
X95892583Y-78700802D01*
X95905669Y-78674628D01*
X95907744Y-78645438D01*
X95904484Y-78631102D01*
X95574179Y-77640187D01*
X95950251Y-77640187D01*
X95950251Y-77669451D01*
X95961450Y-77696487D01*
X95982142Y-77717179D01*
X96009178Y-77728378D01*
X96023810Y-77729819D01*
X96234524Y-77729819D01*
X96234524Y-78654819D01*
X96235965Y-78669451D01*
X96247164Y-78696487D01*
X96267856Y-78717179D01*
X96294892Y-78728378D01*
X96324156Y-78728378D01*
X96351192Y-78717179D01*
X96371884Y-78696487D01*
X96383083Y-78669451D01*
X96384524Y-78654819D01*
X96384524Y-78259234D01*
X96855013Y-78259234D01*
X96855013Y-78288498D01*
X96866212Y-78315534D01*
X96886904Y-78336226D01*
X96913940Y-78347425D01*
X96928572Y-78348866D01*
X97234524Y-78348866D01*
X97234524Y-78654819D01*
X97235965Y-78669451D01*
X97247164Y-78696487D01*
X97267856Y-78717179D01*
X97294892Y-78728378D01*
X97324156Y-78728378D01*
X97351192Y-78717179D01*
X97371884Y-78696487D01*
X97383083Y-78669451D01*
X97384524Y-78654819D01*
X97384524Y-78348866D01*
X97690477Y-78348866D01*
X97705109Y-78347425D01*
X97732145Y-78336226D01*
X97752837Y-78315534D01*
X97764036Y-78288498D01*
X97764036Y-78259234D01*
X97752837Y-78232198D01*
X97732145Y-78211506D01*
X97705109Y-78200307D01*
X97690477Y-78198866D01*
X97384524Y-78198866D01*
X97384524Y-77892914D01*
X97383083Y-77878282D01*
X97371884Y-77851246D01*
X97351192Y-77830554D01*
X97324156Y-77819355D01*
X97294892Y-77819355D01*
X97267856Y-77830554D01*
X97247164Y-77851246D01*
X97235965Y-77878282D01*
X97234524Y-77892914D01*
X97234524Y-78198866D01*
X96928572Y-78198866D01*
X96913940Y-78200307D01*
X96886904Y-78211506D01*
X96866212Y-78232198D01*
X96855013Y-78259234D01*
X96384524Y-78259234D01*
X96384524Y-77729819D01*
X96595238Y-77729819D01*
X96609870Y-77728378D01*
X96636906Y-77717179D01*
X96657598Y-77696487D01*
X96668797Y-77669451D01*
X96668797Y-77640187D01*
X96657598Y-77613151D01*
X96636906Y-77592459D01*
X96609870Y-77581260D01*
X96595238Y-77579819D01*
X96023810Y-77579819D01*
X96009178Y-77581260D01*
X95982142Y-77592459D01*
X95961450Y-77613151D01*
X95950251Y-77640187D01*
X95574179Y-77640187D01*
X95571151Y-77631102D01*
X95565157Y-77617676D01*
X95561645Y-77613627D01*
X95559250Y-77608836D01*
X95552146Y-77602674D01*
X95545983Y-77595569D01*
X95541189Y-77593172D01*
X95537142Y-77589662D01*
X95528220Y-77586688D01*
X95519810Y-77582483D01*
X95514465Y-77582103D01*
X95509380Y-77580408D01*
X95500000Y-77581074D01*
X95490620Y-77580408D01*
X95485534Y-77582103D01*
X95480190Y-77582483D01*
X95471782Y-77586687D01*
X95462857Y-77589662D01*
X95458806Y-77593175D01*
X95454017Y-77595570D01*
X95447858Y-77602670D01*
X95440750Y-77608836D01*
X95438353Y-77613629D01*
X95434843Y-77617677D01*
X95428849Y-77631102D01*
X95095516Y-78631102D01*
X95092256Y-78645439D01*
X94853541Y-78645439D01*
X94886366Y-78612613D01*
X94891084Y-78606863D01*
X94892583Y-78605564D01*
X94894004Y-78603305D01*
X94895694Y-78601247D01*
X94896451Y-78599417D01*
X94900415Y-78593121D01*
X94948034Y-78497883D01*
X94953289Y-78484152D01*
X94953480Y-78481462D01*
X94954511Y-78478974D01*
X94955952Y-78464342D01*
X94955952Y-78321485D01*
X94954511Y-78306853D01*
X94953480Y-78304364D01*
X94953289Y-78301675D01*
X94948034Y-78287944D01*
X94900415Y-78192706D01*
X94896450Y-78186406D01*
X94895693Y-78184579D01*
X94894004Y-78182522D01*
X94892583Y-78180263D01*
X94891084Y-78178963D01*
X94886366Y-78173214D01*
X94838747Y-78125595D01*
X94827382Y-78116268D01*
X94824891Y-78115236D01*
X94822856Y-78113471D01*
X94816788Y-78110762D01*
X94838747Y-78088804D01*
X94843465Y-78083054D01*
X94844964Y-78081755D01*
X94846385Y-78079495D01*
X94848074Y-78077439D01*
X94848831Y-78075611D01*
X94852796Y-78069312D01*
X94900415Y-77974074D01*
X94905670Y-77960343D01*
X94905861Y-77957653D01*
X94906892Y-77955165D01*
X94908333Y-77940533D01*
X94908333Y-77845295D01*
X94906892Y-77830663D01*
X94905861Y-77828174D01*
X94905670Y-77825485D01*
X94900415Y-77811754D01*
X94852796Y-77716516D01*
X94848831Y-77710216D01*
X94848074Y-77708389D01*
X94846385Y-77706332D01*
X94844964Y-77704073D01*
X94843465Y-77702773D01*
X94838747Y-77697024D01*
X94791128Y-77649405D01*
X94785378Y-77644686D01*
X94784079Y-77643188D01*
X94781819Y-77641766D01*
X94779763Y-77640078D01*
X94777935Y-77639320D01*
X94771636Y-77635356D01*
X94676398Y-77587737D01*
X94662666Y-77582482D01*
X94659978Y-77582291D01*
X94657489Y-77581260D01*
X94642857Y-77579819D01*
X94309524Y-77579819D01*
X94294892Y-77581260D01*
X94267856Y-77592459D01*
X94247164Y-77613151D01*
X94235965Y-77640187D01*
X94234524Y-77654819D01*
X94123413Y-77654819D01*
X94123413Y-77468708D01*
X97875147Y-77468708D01*
X97875147Y-78840930D01*
G37*
X89207142Y-86654819D02*
X88873809Y-86178628D01*
X88635714Y-86654819D02*
X88635714Y-85654819D01*
X88635714Y-85654819D02*
X89016666Y-85654819D01*
X89016666Y-85654819D02*
X89111904Y-85702438D01*
X89111904Y-85702438D02*
X89159523Y-85750057D01*
X89159523Y-85750057D02*
X89207142Y-85845295D01*
X89207142Y-85845295D02*
X89207142Y-85988152D01*
X89207142Y-85988152D02*
X89159523Y-86083390D01*
X89159523Y-86083390D02*
X89111904Y-86131009D01*
X89111904Y-86131009D02*
X89016666Y-86178628D01*
X89016666Y-86178628D02*
X88635714Y-86178628D01*
X90159523Y-86654819D02*
X89588095Y-86654819D01*
X89873809Y-86654819D02*
X89873809Y-85654819D01*
X89873809Y-85654819D02*
X89778571Y-85797676D01*
X89778571Y-85797676D02*
X89683333Y-85892914D01*
X89683333Y-85892914D02*
X89588095Y-85940533D01*
X90492857Y-85654819D02*
X91111904Y-85654819D01*
X91111904Y-85654819D02*
X90778571Y-86035771D01*
X90778571Y-86035771D02*
X90921428Y-86035771D01*
X90921428Y-86035771D02*
X91016666Y-86083390D01*
X91016666Y-86083390D02*
X91064285Y-86131009D01*
X91064285Y-86131009D02*
X91111904Y-86226247D01*
X91111904Y-86226247D02*
X91111904Y-86464342D01*
X91111904Y-86464342D02*
X91064285Y-86559580D01*
X91064285Y-86559580D02*
X91016666Y-86607200D01*
X91016666Y-86607200D02*
X90921428Y-86654819D01*
X90921428Y-86654819D02*
X90635714Y-86654819D01*
X90635714Y-86654819D02*
X90540476Y-86607200D01*
X90540476Y-86607200D02*
X90492857Y-86559580D01*
X123238095Y-103534819D02*
X123238095Y-104344342D01*
X123238095Y-104344342D02*
X123285714Y-104439580D01*
X123285714Y-104439580D02*
X123333333Y-104487200D01*
X123333333Y-104487200D02*
X123428571Y-104534819D01*
X123428571Y-104534819D02*
X123619047Y-104534819D01*
X123619047Y-104534819D02*
X123714285Y-104487200D01*
X123714285Y-104487200D02*
X123761904Y-104439580D01*
X123761904Y-104439580D02*
X123809523Y-104344342D01*
X123809523Y-104344342D02*
X123809523Y-103534819D01*
X124714285Y-103868152D02*
X124714285Y-104534819D01*
X124476190Y-103487200D02*
X124238095Y-104201485D01*
X124238095Y-104201485D02*
X124857142Y-104201485D01*
X102059580Y-92666666D02*
X102107200Y-92714285D01*
X102107200Y-92714285D02*
X102154819Y-92857142D01*
X102154819Y-92857142D02*
X102154819Y-92952380D01*
X102154819Y-92952380D02*
X102107200Y-93095237D01*
X102107200Y-93095237D02*
X102011961Y-93190475D01*
X102011961Y-93190475D02*
X101916723Y-93238094D01*
X101916723Y-93238094D02*
X101726247Y-93285713D01*
X101726247Y-93285713D02*
X101583390Y-93285713D01*
X101583390Y-93285713D02*
X101392914Y-93238094D01*
X101392914Y-93238094D02*
X101297676Y-93190475D01*
X101297676Y-93190475D02*
X101202438Y-93095237D01*
X101202438Y-93095237D02*
X101154819Y-92952380D01*
X101154819Y-92952380D02*
X101154819Y-92857142D01*
X101154819Y-92857142D02*
X101202438Y-92714285D01*
X101202438Y-92714285D02*
X101250057Y-92666666D01*
X101583390Y-92095237D02*
X101535771Y-92190475D01*
X101535771Y-92190475D02*
X101488152Y-92238094D01*
X101488152Y-92238094D02*
X101392914Y-92285713D01*
X101392914Y-92285713D02*
X101345295Y-92285713D01*
X101345295Y-92285713D02*
X101250057Y-92238094D01*
X101250057Y-92238094D02*
X101202438Y-92190475D01*
X101202438Y-92190475D02*
X101154819Y-92095237D01*
X101154819Y-92095237D02*
X101154819Y-91904761D01*
X101154819Y-91904761D02*
X101202438Y-91809523D01*
X101202438Y-91809523D02*
X101250057Y-91761904D01*
X101250057Y-91761904D02*
X101345295Y-91714285D01*
X101345295Y-91714285D02*
X101392914Y-91714285D01*
X101392914Y-91714285D02*
X101488152Y-91761904D01*
X101488152Y-91761904D02*
X101535771Y-91809523D01*
X101535771Y-91809523D02*
X101583390Y-91904761D01*
X101583390Y-91904761D02*
X101583390Y-92095237D01*
X101583390Y-92095237D02*
X101631009Y-92190475D01*
X101631009Y-92190475D02*
X101678628Y-92238094D01*
X101678628Y-92238094D02*
X101773866Y-92285713D01*
X101773866Y-92285713D02*
X101964342Y-92285713D01*
X101964342Y-92285713D02*
X102059580Y-92238094D01*
X102059580Y-92238094D02*
X102107200Y-92190475D01*
X102107200Y-92190475D02*
X102154819Y-92095237D01*
X102154819Y-92095237D02*
X102154819Y-91904761D01*
X102154819Y-91904761D02*
X102107200Y-91809523D01*
X102107200Y-91809523D02*
X102059580Y-91761904D01*
X102059580Y-91761904D02*
X101964342Y-91714285D01*
X101964342Y-91714285D02*
X101773866Y-91714285D01*
X101773866Y-91714285D02*
X101678628Y-91761904D01*
X101678628Y-91761904D02*
X101631009Y-91809523D01*
X101631009Y-91809523D02*
X101583390Y-91904761D01*
X113839580Y-87716666D02*
X113887200Y-87764285D01*
X113887200Y-87764285D02*
X113934819Y-87907142D01*
X113934819Y-87907142D02*
X113934819Y-88002380D01*
X113934819Y-88002380D02*
X113887200Y-88145237D01*
X113887200Y-88145237D02*
X113791961Y-88240475D01*
X113791961Y-88240475D02*
X113696723Y-88288094D01*
X113696723Y-88288094D02*
X113506247Y-88335713D01*
X113506247Y-88335713D02*
X113363390Y-88335713D01*
X113363390Y-88335713D02*
X113172914Y-88288094D01*
X113172914Y-88288094D02*
X113077676Y-88240475D01*
X113077676Y-88240475D02*
X112982438Y-88145237D01*
X112982438Y-88145237D02*
X112934819Y-88002380D01*
X112934819Y-88002380D02*
X112934819Y-87907142D01*
X112934819Y-87907142D02*
X112982438Y-87764285D01*
X112982438Y-87764285D02*
X113030057Y-87716666D01*
X113934819Y-87240475D02*
X113934819Y-87049999D01*
X113934819Y-87049999D02*
X113887200Y-86954761D01*
X113887200Y-86954761D02*
X113839580Y-86907142D01*
X113839580Y-86907142D02*
X113696723Y-86811904D01*
X113696723Y-86811904D02*
X113506247Y-86764285D01*
X113506247Y-86764285D02*
X113125295Y-86764285D01*
X113125295Y-86764285D02*
X113030057Y-86811904D01*
X113030057Y-86811904D02*
X112982438Y-86859523D01*
X112982438Y-86859523D02*
X112934819Y-86954761D01*
X112934819Y-86954761D02*
X112934819Y-87145237D01*
X112934819Y-87145237D02*
X112982438Y-87240475D01*
X112982438Y-87240475D02*
X113030057Y-87288094D01*
X113030057Y-87288094D02*
X113125295Y-87335713D01*
X113125295Y-87335713D02*
X113363390Y-87335713D01*
X113363390Y-87335713D02*
X113458628Y-87288094D01*
X113458628Y-87288094D02*
X113506247Y-87240475D01*
X113506247Y-87240475D02*
X113553866Y-87145237D01*
X113553866Y-87145237D02*
X113553866Y-86954761D01*
X113553866Y-86954761D02*
X113506247Y-86859523D01*
X113506247Y-86859523D02*
X113458628Y-86811904D01*
X113458628Y-86811904D02*
X113363390Y-86764285D01*
X100054819Y-101016666D02*
X99578628Y-101349999D01*
X100054819Y-101588094D02*
X99054819Y-101588094D01*
X99054819Y-101588094D02*
X99054819Y-101207142D01*
X99054819Y-101207142D02*
X99102438Y-101111904D01*
X99102438Y-101111904D02*
X99150057Y-101064285D01*
X99150057Y-101064285D02*
X99245295Y-101016666D01*
X99245295Y-101016666D02*
X99388152Y-101016666D01*
X99388152Y-101016666D02*
X99483390Y-101064285D01*
X99483390Y-101064285D02*
X99531009Y-101111904D01*
X99531009Y-101111904D02*
X99578628Y-101207142D01*
X99578628Y-101207142D02*
X99578628Y-101588094D01*
X100054819Y-100540475D02*
X100054819Y-100349999D01*
X100054819Y-100349999D02*
X100007200Y-100254761D01*
X100007200Y-100254761D02*
X99959580Y-100207142D01*
X99959580Y-100207142D02*
X99816723Y-100111904D01*
X99816723Y-100111904D02*
X99626247Y-100064285D01*
X99626247Y-100064285D02*
X99245295Y-100064285D01*
X99245295Y-100064285D02*
X99150057Y-100111904D01*
X99150057Y-100111904D02*
X99102438Y-100159523D01*
X99102438Y-100159523D02*
X99054819Y-100254761D01*
X99054819Y-100254761D02*
X99054819Y-100445237D01*
X99054819Y-100445237D02*
X99102438Y-100540475D01*
X99102438Y-100540475D02*
X99150057Y-100588094D01*
X99150057Y-100588094D02*
X99245295Y-100635713D01*
X99245295Y-100635713D02*
X99483390Y-100635713D01*
X99483390Y-100635713D02*
X99578628Y-100588094D01*
X99578628Y-100588094D02*
X99626247Y-100540475D01*
X99626247Y-100540475D02*
X99673866Y-100445237D01*
X99673866Y-100445237D02*
X99673866Y-100254761D01*
X99673866Y-100254761D02*
X99626247Y-100159523D01*
X99626247Y-100159523D02*
X99578628Y-100111904D01*
X99578628Y-100111904D02*
X99483390Y-100064285D01*
X104459580Y-85242857D02*
X104507200Y-85290476D01*
X104507200Y-85290476D02*
X104554819Y-85433333D01*
X104554819Y-85433333D02*
X104554819Y-85528571D01*
X104554819Y-85528571D02*
X104507200Y-85671428D01*
X104507200Y-85671428D02*
X104411961Y-85766666D01*
X104411961Y-85766666D02*
X104316723Y-85814285D01*
X104316723Y-85814285D02*
X104126247Y-85861904D01*
X104126247Y-85861904D02*
X103983390Y-85861904D01*
X103983390Y-85861904D02*
X103792914Y-85814285D01*
X103792914Y-85814285D02*
X103697676Y-85766666D01*
X103697676Y-85766666D02*
X103602438Y-85671428D01*
X103602438Y-85671428D02*
X103554819Y-85528571D01*
X103554819Y-85528571D02*
X103554819Y-85433333D01*
X103554819Y-85433333D02*
X103602438Y-85290476D01*
X103602438Y-85290476D02*
X103650057Y-85242857D01*
X104554819Y-84290476D02*
X104554819Y-84861904D01*
X104554819Y-84576190D02*
X103554819Y-84576190D01*
X103554819Y-84576190D02*
X103697676Y-84671428D01*
X103697676Y-84671428D02*
X103792914Y-84766666D01*
X103792914Y-84766666D02*
X103840533Y-84861904D01*
X104554819Y-83338095D02*
X104554819Y-83909523D01*
X104554819Y-83623809D02*
X103554819Y-83623809D01*
X103554819Y-83623809D02*
X103697676Y-83719047D01*
X103697676Y-83719047D02*
X103792914Y-83814285D01*
X103792914Y-83814285D02*
X103840533Y-83909523D01*
X89666666Y-100654819D02*
X89666666Y-101369104D01*
X89666666Y-101369104D02*
X89619047Y-101511961D01*
X89619047Y-101511961D02*
X89523809Y-101607200D01*
X89523809Y-101607200D02*
X89380952Y-101654819D01*
X89380952Y-101654819D02*
X89285714Y-101654819D01*
X90666666Y-101654819D02*
X90095238Y-101654819D01*
X90380952Y-101654819D02*
X90380952Y-100654819D01*
X90380952Y-100654819D02*
X90285714Y-100797676D01*
X90285714Y-100797676D02*
X90190476Y-100892914D01*
X90190476Y-100892914D02*
X90095238Y-100940533D01*
X95433333Y-101484819D02*
X95100000Y-101008628D01*
X94861905Y-101484819D02*
X94861905Y-100484819D01*
X94861905Y-100484819D02*
X95242857Y-100484819D01*
X95242857Y-100484819D02*
X95338095Y-100532438D01*
X95338095Y-100532438D02*
X95385714Y-100580057D01*
X95385714Y-100580057D02*
X95433333Y-100675295D01*
X95433333Y-100675295D02*
X95433333Y-100818152D01*
X95433333Y-100818152D02*
X95385714Y-100913390D01*
X95385714Y-100913390D02*
X95338095Y-100961009D01*
X95338095Y-100961009D02*
X95242857Y-101008628D01*
X95242857Y-101008628D02*
X94861905Y-101008628D01*
X95814286Y-100580057D02*
X95861905Y-100532438D01*
X95861905Y-100532438D02*
X95957143Y-100484819D01*
X95957143Y-100484819D02*
X96195238Y-100484819D01*
X96195238Y-100484819D02*
X96290476Y-100532438D01*
X96290476Y-100532438D02*
X96338095Y-100580057D01*
X96338095Y-100580057D02*
X96385714Y-100675295D01*
X96385714Y-100675295D02*
X96385714Y-100770533D01*
X96385714Y-100770533D02*
X96338095Y-100913390D01*
X96338095Y-100913390D02*
X95766667Y-101484819D01*
X95766667Y-101484819D02*
X96385714Y-101484819D01*
X94333333Y-89454819D02*
X94000000Y-88978628D01*
X93761905Y-89454819D02*
X93761905Y-88454819D01*
X93761905Y-88454819D02*
X94142857Y-88454819D01*
X94142857Y-88454819D02*
X94238095Y-88502438D01*
X94238095Y-88502438D02*
X94285714Y-88550057D01*
X94285714Y-88550057D02*
X94333333Y-88645295D01*
X94333333Y-88645295D02*
X94333333Y-88788152D01*
X94333333Y-88788152D02*
X94285714Y-88883390D01*
X94285714Y-88883390D02*
X94238095Y-88931009D01*
X94238095Y-88931009D02*
X94142857Y-88978628D01*
X94142857Y-88978628D02*
X93761905Y-88978628D01*
X95190476Y-88788152D02*
X95190476Y-89454819D01*
X94952381Y-88407200D02*
X94714286Y-89121485D01*
X94714286Y-89121485D02*
X95333333Y-89121485D01*
X104854819Y-88661904D02*
X105664342Y-88661904D01*
X105664342Y-88661904D02*
X105759580Y-88614285D01*
X105759580Y-88614285D02*
X105807200Y-88566666D01*
X105807200Y-88566666D02*
X105854819Y-88471428D01*
X105854819Y-88471428D02*
X105854819Y-88280952D01*
X105854819Y-88280952D02*
X105807200Y-88185714D01*
X105807200Y-88185714D02*
X105759580Y-88138095D01*
X105759580Y-88138095D02*
X105664342Y-88090476D01*
X105664342Y-88090476D02*
X104854819Y-88090476D01*
X104854819Y-87709523D02*
X104854819Y-87090476D01*
X104854819Y-87090476D02*
X105235771Y-87423809D01*
X105235771Y-87423809D02*
X105235771Y-87280952D01*
X105235771Y-87280952D02*
X105283390Y-87185714D01*
X105283390Y-87185714D02*
X105331009Y-87138095D01*
X105331009Y-87138095D02*
X105426247Y-87090476D01*
X105426247Y-87090476D02*
X105664342Y-87090476D01*
X105664342Y-87090476D02*
X105759580Y-87138095D01*
X105759580Y-87138095D02*
X105807200Y-87185714D01*
X105807200Y-87185714D02*
X105854819Y-87280952D01*
X105854819Y-87280952D02*
X105854819Y-87566666D01*
X105854819Y-87566666D02*
X105807200Y-87661904D01*
X105807200Y-87661904D02*
X105759580Y-87709523D01*
X91033333Y-87859580D02*
X90985714Y-87907200D01*
X90985714Y-87907200D02*
X90842857Y-87954819D01*
X90842857Y-87954819D02*
X90747619Y-87954819D01*
X90747619Y-87954819D02*
X90604762Y-87907200D01*
X90604762Y-87907200D02*
X90509524Y-87811961D01*
X90509524Y-87811961D02*
X90461905Y-87716723D01*
X90461905Y-87716723D02*
X90414286Y-87526247D01*
X90414286Y-87526247D02*
X90414286Y-87383390D01*
X90414286Y-87383390D02*
X90461905Y-87192914D01*
X90461905Y-87192914D02*
X90509524Y-87097676D01*
X90509524Y-87097676D02*
X90604762Y-87002438D01*
X90604762Y-87002438D02*
X90747619Y-86954819D01*
X90747619Y-86954819D02*
X90842857Y-86954819D01*
X90842857Y-86954819D02*
X90985714Y-87002438D01*
X90985714Y-87002438D02*
X91033333Y-87050057D01*
X91414286Y-87050057D02*
X91461905Y-87002438D01*
X91461905Y-87002438D02*
X91557143Y-86954819D01*
X91557143Y-86954819D02*
X91795238Y-86954819D01*
X91795238Y-86954819D02*
X91890476Y-87002438D01*
X91890476Y-87002438D02*
X91938095Y-87050057D01*
X91938095Y-87050057D02*
X91985714Y-87145295D01*
X91985714Y-87145295D02*
X91985714Y-87240533D01*
X91985714Y-87240533D02*
X91938095Y-87383390D01*
X91938095Y-87383390D02*
X91366667Y-87954819D01*
X91366667Y-87954819D02*
X91985714Y-87954819D01*
X123338095Y-87454819D02*
X123338095Y-88264342D01*
X123338095Y-88264342D02*
X123385714Y-88359580D01*
X123385714Y-88359580D02*
X123433333Y-88407200D01*
X123433333Y-88407200D02*
X123528571Y-88454819D01*
X123528571Y-88454819D02*
X123719047Y-88454819D01*
X123719047Y-88454819D02*
X123814285Y-88407200D01*
X123814285Y-88407200D02*
X123861904Y-88359580D01*
X123861904Y-88359580D02*
X123909523Y-88264342D01*
X123909523Y-88264342D02*
X123909523Y-87454819D01*
X124861904Y-87454819D02*
X124385714Y-87454819D01*
X124385714Y-87454819D02*
X124338095Y-87931009D01*
X124338095Y-87931009D02*
X124385714Y-87883390D01*
X124385714Y-87883390D02*
X124480952Y-87835771D01*
X124480952Y-87835771D02*
X124719047Y-87835771D01*
X124719047Y-87835771D02*
X124814285Y-87883390D01*
X124814285Y-87883390D02*
X124861904Y-87931009D01*
X124861904Y-87931009D02*
X124909523Y-88026247D01*
X124909523Y-88026247D02*
X124909523Y-88264342D01*
X124909523Y-88264342D02*
X124861904Y-88359580D01*
X124861904Y-88359580D02*
X124814285Y-88407200D01*
X124814285Y-88407200D02*
X124719047Y-88454819D01*
X124719047Y-88454819D02*
X124480952Y-88454819D01*
X124480952Y-88454819D02*
X124385714Y-88407200D01*
X124385714Y-88407200D02*
X124338095Y-88359580D01*
X102833333Y-87159580D02*
X102785714Y-87207200D01*
X102785714Y-87207200D02*
X102642857Y-87254819D01*
X102642857Y-87254819D02*
X102547619Y-87254819D01*
X102547619Y-87254819D02*
X102404762Y-87207200D01*
X102404762Y-87207200D02*
X102309524Y-87111961D01*
X102309524Y-87111961D02*
X102261905Y-87016723D01*
X102261905Y-87016723D02*
X102214286Y-86826247D01*
X102214286Y-86826247D02*
X102214286Y-86683390D01*
X102214286Y-86683390D02*
X102261905Y-86492914D01*
X102261905Y-86492914D02*
X102309524Y-86397676D01*
X102309524Y-86397676D02*
X102404762Y-86302438D01*
X102404762Y-86302438D02*
X102547619Y-86254819D01*
X102547619Y-86254819D02*
X102642857Y-86254819D01*
X102642857Y-86254819D02*
X102785714Y-86302438D01*
X102785714Y-86302438D02*
X102833333Y-86350057D01*
X103166667Y-86254819D02*
X103833333Y-86254819D01*
X103833333Y-86254819D02*
X103404762Y-87254819D01*
D13*
X108862618Y-89674318D02*
X108862618Y-88404318D01*
X108862618Y-88404318D02*
X109164999Y-88404318D01*
X109164999Y-88404318D02*
X109346428Y-88464794D01*
X109346428Y-88464794D02*
X109467380Y-88585746D01*
X109467380Y-88585746D02*
X109527857Y-88706699D01*
X109527857Y-88706699D02*
X109588333Y-88948603D01*
X109588333Y-88948603D02*
X109588333Y-89130032D01*
X109588333Y-89130032D02*
X109527857Y-89371937D01*
X109527857Y-89371937D02*
X109467380Y-89492889D01*
X109467380Y-89492889D02*
X109346428Y-89613842D01*
X109346428Y-89613842D02*
X109164999Y-89674318D01*
X109164999Y-89674318D02*
X108862618Y-89674318D01*
X110011666Y-88404318D02*
X110858333Y-88404318D01*
X110858333Y-88404318D02*
X110314047Y-89674318D01*
X112862618Y-82974318D02*
X112862618Y-81704318D01*
X112862618Y-81704318D02*
X113164999Y-81704318D01*
X113164999Y-81704318D02*
X113346428Y-81764794D01*
X113346428Y-81764794D02*
X113467380Y-81885746D01*
X113467380Y-81885746D02*
X113527857Y-82006699D01*
X113527857Y-82006699D02*
X113588333Y-82248603D01*
X113588333Y-82248603D02*
X113588333Y-82430032D01*
X113588333Y-82430032D02*
X113527857Y-82671937D01*
X113527857Y-82671937D02*
X113467380Y-82792889D01*
X113467380Y-82792889D02*
X113346428Y-82913842D01*
X113346428Y-82913842D02*
X113164999Y-82974318D01*
X113164999Y-82974318D02*
X112862618Y-82974318D01*
X114737380Y-81704318D02*
X114132618Y-81704318D01*
X114132618Y-81704318D02*
X114072142Y-82309080D01*
X114072142Y-82309080D02*
X114132618Y-82248603D01*
X114132618Y-82248603D02*
X114253571Y-82188127D01*
X114253571Y-82188127D02*
X114555952Y-82188127D01*
X114555952Y-82188127D02*
X114676904Y-82248603D01*
X114676904Y-82248603D02*
X114737380Y-82309080D01*
X114737380Y-82309080D02*
X114797857Y-82430032D01*
X114797857Y-82430032D02*
X114797857Y-82732413D01*
X114797857Y-82732413D02*
X114737380Y-82853365D01*
X114737380Y-82853365D02*
X114676904Y-82913842D01*
X114676904Y-82913842D02*
X114555952Y-82974318D01*
X114555952Y-82974318D02*
X114253571Y-82974318D01*
X114253571Y-82974318D02*
X114132618Y-82913842D01*
X114132618Y-82913842D02*
X114072142Y-82853365D01*
D10*
X93087819Y-93261904D02*
X93897342Y-93261904D01*
X93897342Y-93261904D02*
X93992580Y-93214285D01*
X93992580Y-93214285D02*
X94040200Y-93166666D01*
X94040200Y-93166666D02*
X94087819Y-93071428D01*
X94087819Y-93071428D02*
X94087819Y-92880952D01*
X94087819Y-92880952D02*
X94040200Y-92785714D01*
X94040200Y-92785714D02*
X93992580Y-92738095D01*
X93992580Y-92738095D02*
X93897342Y-92690476D01*
X93897342Y-92690476D02*
X93087819Y-92690476D01*
X94087819Y-91690476D02*
X94087819Y-92261904D01*
X94087819Y-91976190D02*
X93087819Y-91976190D01*
X93087819Y-91976190D02*
X93230676Y-92071428D01*
X93230676Y-92071428D02*
X93325914Y-92166666D01*
X93325914Y-92166666D02*
X93373533Y-92261904D01*
X106877057Y-102995238D02*
X106829438Y-103090476D01*
X106829438Y-103090476D02*
X106734200Y-103185714D01*
X106734200Y-103185714D02*
X106591342Y-103328571D01*
X106591342Y-103328571D02*
X106543723Y-103423809D01*
X106543723Y-103423809D02*
X106543723Y-103519047D01*
X106781819Y-103471428D02*
X106734200Y-103566666D01*
X106734200Y-103566666D02*
X106638961Y-103661904D01*
X106638961Y-103661904D02*
X106448485Y-103709523D01*
X106448485Y-103709523D02*
X106115152Y-103709523D01*
X106115152Y-103709523D02*
X105924676Y-103661904D01*
X105924676Y-103661904D02*
X105829438Y-103566666D01*
X105829438Y-103566666D02*
X105781819Y-103471428D01*
X105781819Y-103471428D02*
X105781819Y-103280952D01*
X105781819Y-103280952D02*
X105829438Y-103185714D01*
X105829438Y-103185714D02*
X105924676Y-103090476D01*
X105924676Y-103090476D02*
X106115152Y-103042857D01*
X106115152Y-103042857D02*
X106448485Y-103042857D01*
X106448485Y-103042857D02*
X106638961Y-103090476D01*
X106638961Y-103090476D02*
X106734200Y-103185714D01*
X106734200Y-103185714D02*
X106781819Y-103280952D01*
X106781819Y-103280952D02*
X106781819Y-103471428D01*
X106781819Y-102090476D02*
X106781819Y-102661904D01*
X106781819Y-102376190D02*
X105781819Y-102376190D01*
X105781819Y-102376190D02*
X105924676Y-102471428D01*
X105924676Y-102471428D02*
X106019914Y-102566666D01*
X106019914Y-102566666D02*
X106067533Y-102661904D01*
X109057142Y-102554819D02*
X108723809Y-102078628D01*
X108485714Y-102554819D02*
X108485714Y-101554819D01*
X108485714Y-101554819D02*
X108866666Y-101554819D01*
X108866666Y-101554819D02*
X108961904Y-101602438D01*
X108961904Y-101602438D02*
X109009523Y-101650057D01*
X109009523Y-101650057D02*
X109057142Y-101745295D01*
X109057142Y-101745295D02*
X109057142Y-101888152D01*
X109057142Y-101888152D02*
X109009523Y-101983390D01*
X109009523Y-101983390D02*
X108961904Y-102031009D01*
X108961904Y-102031009D02*
X108866666Y-102078628D01*
X108866666Y-102078628D02*
X108485714Y-102078628D01*
X110009523Y-102554819D02*
X109438095Y-102554819D01*
X109723809Y-102554819D02*
X109723809Y-101554819D01*
X109723809Y-101554819D02*
X109628571Y-101697676D01*
X109628571Y-101697676D02*
X109533333Y-101792914D01*
X109533333Y-101792914D02*
X109438095Y-101840533D01*
X110580952Y-101983390D02*
X110485714Y-101935771D01*
X110485714Y-101935771D02*
X110438095Y-101888152D01*
X110438095Y-101888152D02*
X110390476Y-101792914D01*
X110390476Y-101792914D02*
X110390476Y-101745295D01*
X110390476Y-101745295D02*
X110438095Y-101650057D01*
X110438095Y-101650057D02*
X110485714Y-101602438D01*
X110485714Y-101602438D02*
X110580952Y-101554819D01*
X110580952Y-101554819D02*
X110771428Y-101554819D01*
X110771428Y-101554819D02*
X110866666Y-101602438D01*
X110866666Y-101602438D02*
X110914285Y-101650057D01*
X110914285Y-101650057D02*
X110961904Y-101745295D01*
X110961904Y-101745295D02*
X110961904Y-101792914D01*
X110961904Y-101792914D02*
X110914285Y-101888152D01*
X110914285Y-101888152D02*
X110866666Y-101935771D01*
X110866666Y-101935771D02*
X110771428Y-101983390D01*
X110771428Y-101983390D02*
X110580952Y-101983390D01*
X110580952Y-101983390D02*
X110485714Y-102031009D01*
X110485714Y-102031009D02*
X110438095Y-102078628D01*
X110438095Y-102078628D02*
X110390476Y-102173866D01*
X110390476Y-102173866D02*
X110390476Y-102364342D01*
X110390476Y-102364342D02*
X110438095Y-102459580D01*
X110438095Y-102459580D02*
X110485714Y-102507200D01*
X110485714Y-102507200D02*
X110580952Y-102554819D01*
X110580952Y-102554819D02*
X110771428Y-102554819D01*
X110771428Y-102554819D02*
X110866666Y-102507200D01*
X110866666Y-102507200D02*
X110914285Y-102459580D01*
X110914285Y-102459580D02*
X110961904Y-102364342D01*
X110961904Y-102364342D02*
X110961904Y-102173866D01*
X110961904Y-102173866D02*
X110914285Y-102078628D01*
X110914285Y-102078628D02*
X110866666Y-102031009D01*
X110866666Y-102031009D02*
X110771428Y-101983390D01*
X93433333Y-85024819D02*
X93100000Y-84548628D01*
X92861905Y-85024819D02*
X92861905Y-84024819D01*
X92861905Y-84024819D02*
X93242857Y-84024819D01*
X93242857Y-84024819D02*
X93338095Y-84072438D01*
X93338095Y-84072438D02*
X93385714Y-84120057D01*
X93385714Y-84120057D02*
X93433333Y-84215295D01*
X93433333Y-84215295D02*
X93433333Y-84358152D01*
X93433333Y-84358152D02*
X93385714Y-84453390D01*
X93385714Y-84453390D02*
X93338095Y-84501009D01*
X93338095Y-84501009D02*
X93242857Y-84548628D01*
X93242857Y-84548628D02*
X92861905Y-84548628D01*
X94290476Y-84024819D02*
X94100000Y-84024819D01*
X94100000Y-84024819D02*
X94004762Y-84072438D01*
X94004762Y-84072438D02*
X93957143Y-84120057D01*
X93957143Y-84120057D02*
X93861905Y-84262914D01*
X93861905Y-84262914D02*
X93814286Y-84453390D01*
X93814286Y-84453390D02*
X93814286Y-84834342D01*
X93814286Y-84834342D02*
X93861905Y-84929580D01*
X93861905Y-84929580D02*
X93909524Y-84977200D01*
X93909524Y-84977200D02*
X94004762Y-85024819D01*
X94004762Y-85024819D02*
X94195238Y-85024819D01*
X94195238Y-85024819D02*
X94290476Y-84977200D01*
X94290476Y-84977200D02*
X94338095Y-84929580D01*
X94338095Y-84929580D02*
X94385714Y-84834342D01*
X94385714Y-84834342D02*
X94385714Y-84596247D01*
X94385714Y-84596247D02*
X94338095Y-84501009D01*
X94338095Y-84501009D02*
X94290476Y-84453390D01*
X94290476Y-84453390D02*
X94195238Y-84405771D01*
X94195238Y-84405771D02*
X94004762Y-84405771D01*
X94004762Y-84405771D02*
X93909524Y-84453390D01*
X93909524Y-84453390D02*
X93861905Y-84501009D01*
X93861905Y-84501009D02*
X93814286Y-84596247D01*
X114109606Y-94551681D02*
X114109606Y-95200225D01*
X114109606Y-95200225D02*
X114147755Y-95276524D01*
X114147755Y-95276524D02*
X114185905Y-95314674D01*
X114185905Y-95314674D02*
X114262204Y-95352823D01*
X114262204Y-95352823D02*
X114414803Y-95352823D01*
X114414803Y-95352823D02*
X114491102Y-95314674D01*
X114491102Y-95314674D02*
X114529251Y-95276524D01*
X114529251Y-95276524D02*
X114567401Y-95200225D01*
X114567401Y-95200225D02*
X114567401Y-94551681D01*
X114872598Y-94551681D02*
X115406693Y-94551681D01*
X115406693Y-94551681D02*
X115063346Y-95352823D01*
D13*
X112762618Y-84974318D02*
X112762618Y-83704318D01*
X112762618Y-83704318D02*
X113064999Y-83704318D01*
X113064999Y-83704318D02*
X113246428Y-83764794D01*
X113246428Y-83764794D02*
X113367380Y-83885746D01*
X113367380Y-83885746D02*
X113427857Y-84006699D01*
X113427857Y-84006699D02*
X113488333Y-84248603D01*
X113488333Y-84248603D02*
X113488333Y-84430032D01*
X113488333Y-84430032D02*
X113427857Y-84671937D01*
X113427857Y-84671937D02*
X113367380Y-84792889D01*
X113367380Y-84792889D02*
X113246428Y-84913842D01*
X113246428Y-84913842D02*
X113064999Y-84974318D01*
X113064999Y-84974318D02*
X112762618Y-84974318D01*
X114214047Y-84248603D02*
X114093095Y-84188127D01*
X114093095Y-84188127D02*
X114032618Y-84127651D01*
X114032618Y-84127651D02*
X113972142Y-84006699D01*
X113972142Y-84006699D02*
X113972142Y-83946222D01*
X113972142Y-83946222D02*
X114032618Y-83825270D01*
X114032618Y-83825270D02*
X114093095Y-83764794D01*
X114093095Y-83764794D02*
X114214047Y-83704318D01*
X114214047Y-83704318D02*
X114455952Y-83704318D01*
X114455952Y-83704318D02*
X114576904Y-83764794D01*
X114576904Y-83764794D02*
X114637380Y-83825270D01*
X114637380Y-83825270D02*
X114697857Y-83946222D01*
X114697857Y-83946222D02*
X114697857Y-84006699D01*
X114697857Y-84006699D02*
X114637380Y-84127651D01*
X114637380Y-84127651D02*
X114576904Y-84188127D01*
X114576904Y-84188127D02*
X114455952Y-84248603D01*
X114455952Y-84248603D02*
X114214047Y-84248603D01*
X114214047Y-84248603D02*
X114093095Y-84309080D01*
X114093095Y-84309080D02*
X114032618Y-84369556D01*
X114032618Y-84369556D02*
X113972142Y-84490508D01*
X113972142Y-84490508D02*
X113972142Y-84732413D01*
X113972142Y-84732413D02*
X114032618Y-84853365D01*
X114032618Y-84853365D02*
X114093095Y-84913842D01*
X114093095Y-84913842D02*
X114214047Y-84974318D01*
X114214047Y-84974318D02*
X114455952Y-84974318D01*
X114455952Y-84974318D02*
X114576904Y-84913842D01*
X114576904Y-84913842D02*
X114637380Y-84853365D01*
X114637380Y-84853365D02*
X114697857Y-84732413D01*
X114697857Y-84732413D02*
X114697857Y-84490508D01*
X114697857Y-84490508D02*
X114637380Y-84369556D01*
X114637380Y-84369556D02*
X114576904Y-84309080D01*
X114576904Y-84309080D02*
X114455952Y-84248603D01*
D10*
X108157142Y-106954819D02*
X107823809Y-106478628D01*
X107585714Y-106954819D02*
X107585714Y-105954819D01*
X107585714Y-105954819D02*
X107966666Y-105954819D01*
X107966666Y-105954819D02*
X108061904Y-106002438D01*
X108061904Y-106002438D02*
X108109523Y-106050057D01*
X108109523Y-106050057D02*
X108157142Y-106145295D01*
X108157142Y-106145295D02*
X108157142Y-106288152D01*
X108157142Y-106288152D02*
X108109523Y-106383390D01*
X108109523Y-106383390D02*
X108061904Y-106431009D01*
X108061904Y-106431009D02*
X107966666Y-106478628D01*
X107966666Y-106478628D02*
X107585714Y-106478628D01*
X109109523Y-106954819D02*
X108538095Y-106954819D01*
X108823809Y-106954819D02*
X108823809Y-105954819D01*
X108823809Y-105954819D02*
X108728571Y-106097676D01*
X108728571Y-106097676D02*
X108633333Y-106192914D01*
X108633333Y-106192914D02*
X108538095Y-106240533D01*
X109442857Y-105954819D02*
X110109523Y-105954819D01*
X110109523Y-105954819D02*
X109680952Y-106954819D01*
X107957142Y-81354819D02*
X107623809Y-80878628D01*
X107385714Y-81354819D02*
X107385714Y-80354819D01*
X107385714Y-80354819D02*
X107766666Y-80354819D01*
X107766666Y-80354819D02*
X107861904Y-80402438D01*
X107861904Y-80402438D02*
X107909523Y-80450057D01*
X107909523Y-80450057D02*
X107957142Y-80545295D01*
X107957142Y-80545295D02*
X107957142Y-80688152D01*
X107957142Y-80688152D02*
X107909523Y-80783390D01*
X107909523Y-80783390D02*
X107861904Y-80831009D01*
X107861904Y-80831009D02*
X107766666Y-80878628D01*
X107766666Y-80878628D02*
X107385714Y-80878628D01*
X108909523Y-81354819D02*
X108338095Y-81354819D01*
X108623809Y-81354819D02*
X108623809Y-80354819D01*
X108623809Y-80354819D02*
X108528571Y-80497676D01*
X108528571Y-80497676D02*
X108433333Y-80592914D01*
X108433333Y-80592914D02*
X108338095Y-80640533D01*
X109766666Y-80354819D02*
X109576190Y-80354819D01*
X109576190Y-80354819D02*
X109480952Y-80402438D01*
X109480952Y-80402438D02*
X109433333Y-80450057D01*
X109433333Y-80450057D02*
X109338095Y-80592914D01*
X109338095Y-80592914D02*
X109290476Y-80783390D01*
X109290476Y-80783390D02*
X109290476Y-81164342D01*
X109290476Y-81164342D02*
X109338095Y-81259580D01*
X109338095Y-81259580D02*
X109385714Y-81307200D01*
X109385714Y-81307200D02*
X109480952Y-81354819D01*
X109480952Y-81354819D02*
X109671428Y-81354819D01*
X109671428Y-81354819D02*
X109766666Y-81307200D01*
X109766666Y-81307200D02*
X109814285Y-81259580D01*
X109814285Y-81259580D02*
X109861904Y-81164342D01*
X109861904Y-81164342D02*
X109861904Y-80926247D01*
X109861904Y-80926247D02*
X109814285Y-80831009D01*
X109814285Y-80831009D02*
X109766666Y-80783390D01*
X109766666Y-80783390D02*
X109671428Y-80735771D01*
X109671428Y-80735771D02*
X109480952Y-80735771D01*
X109480952Y-80735771D02*
X109385714Y-80783390D01*
X109385714Y-80783390D02*
X109338095Y-80831009D01*
X109338095Y-80831009D02*
X109290476Y-80926247D01*
X85833333Y-102954819D02*
X85500000Y-102478628D01*
X85261905Y-102954819D02*
X85261905Y-101954819D01*
X85261905Y-101954819D02*
X85642857Y-101954819D01*
X85642857Y-101954819D02*
X85738095Y-102002438D01*
X85738095Y-102002438D02*
X85785714Y-102050057D01*
X85785714Y-102050057D02*
X85833333Y-102145295D01*
X85833333Y-102145295D02*
X85833333Y-102288152D01*
X85833333Y-102288152D02*
X85785714Y-102383390D01*
X85785714Y-102383390D02*
X85738095Y-102431009D01*
X85738095Y-102431009D02*
X85642857Y-102478628D01*
X85642857Y-102478628D02*
X85261905Y-102478628D01*
X86166667Y-101954819D02*
X86785714Y-101954819D01*
X86785714Y-101954819D02*
X86452381Y-102335771D01*
X86452381Y-102335771D02*
X86595238Y-102335771D01*
X86595238Y-102335771D02*
X86690476Y-102383390D01*
X86690476Y-102383390D02*
X86738095Y-102431009D01*
X86738095Y-102431009D02*
X86785714Y-102526247D01*
X86785714Y-102526247D02*
X86785714Y-102764342D01*
X86785714Y-102764342D02*
X86738095Y-102859580D01*
X86738095Y-102859580D02*
X86690476Y-102907200D01*
X86690476Y-102907200D02*
X86595238Y-102954819D01*
X86595238Y-102954819D02*
X86309524Y-102954819D01*
X86309524Y-102954819D02*
X86214286Y-102907200D01*
X86214286Y-102907200D02*
X86166667Y-102859580D01*
X107907142Y-80054819D02*
X107573809Y-79578628D01*
X107335714Y-80054819D02*
X107335714Y-79054819D01*
X107335714Y-79054819D02*
X107716666Y-79054819D01*
X107716666Y-79054819D02*
X107811904Y-79102438D01*
X107811904Y-79102438D02*
X107859523Y-79150057D01*
X107859523Y-79150057D02*
X107907142Y-79245295D01*
X107907142Y-79245295D02*
X107907142Y-79388152D01*
X107907142Y-79388152D02*
X107859523Y-79483390D01*
X107859523Y-79483390D02*
X107811904Y-79531009D01*
X107811904Y-79531009D02*
X107716666Y-79578628D01*
X107716666Y-79578628D02*
X107335714Y-79578628D01*
X108859523Y-80054819D02*
X108288095Y-80054819D01*
X108573809Y-80054819D02*
X108573809Y-79054819D01*
X108573809Y-79054819D02*
X108478571Y-79197676D01*
X108478571Y-79197676D02*
X108383333Y-79292914D01*
X108383333Y-79292914D02*
X108288095Y-79340533D01*
X109240476Y-79150057D02*
X109288095Y-79102438D01*
X109288095Y-79102438D02*
X109383333Y-79054819D01*
X109383333Y-79054819D02*
X109621428Y-79054819D01*
X109621428Y-79054819D02*
X109716666Y-79102438D01*
X109716666Y-79102438D02*
X109764285Y-79150057D01*
X109764285Y-79150057D02*
X109811904Y-79245295D01*
X109811904Y-79245295D02*
X109811904Y-79340533D01*
X109811904Y-79340533D02*
X109764285Y-79483390D01*
X109764285Y-79483390D02*
X109192857Y-80054819D01*
X109192857Y-80054819D02*
X109811904Y-80054819D01*
X100457142Y-85654819D02*
X100123809Y-85178628D01*
X99885714Y-85654819D02*
X99885714Y-84654819D01*
X99885714Y-84654819D02*
X100266666Y-84654819D01*
X100266666Y-84654819D02*
X100361904Y-84702438D01*
X100361904Y-84702438D02*
X100409523Y-84750057D01*
X100409523Y-84750057D02*
X100457142Y-84845295D01*
X100457142Y-84845295D02*
X100457142Y-84988152D01*
X100457142Y-84988152D02*
X100409523Y-85083390D01*
X100409523Y-85083390D02*
X100361904Y-85131009D01*
X100361904Y-85131009D02*
X100266666Y-85178628D01*
X100266666Y-85178628D02*
X99885714Y-85178628D01*
X101409523Y-85654819D02*
X100838095Y-85654819D01*
X101123809Y-85654819D02*
X101123809Y-84654819D01*
X101123809Y-84654819D02*
X101028571Y-84797676D01*
X101028571Y-84797676D02*
X100933333Y-84892914D01*
X100933333Y-84892914D02*
X100838095Y-84940533D01*
X102361904Y-85654819D02*
X101790476Y-85654819D01*
X102076190Y-85654819D02*
X102076190Y-84654819D01*
X102076190Y-84654819D02*
X101980952Y-84797676D01*
X101980952Y-84797676D02*
X101885714Y-84892914D01*
X101885714Y-84892914D02*
X101790476Y-84940533D01*
X85833333Y-88024819D02*
X85500000Y-87548628D01*
X85261905Y-88024819D02*
X85261905Y-87024819D01*
X85261905Y-87024819D02*
X85642857Y-87024819D01*
X85642857Y-87024819D02*
X85738095Y-87072438D01*
X85738095Y-87072438D02*
X85785714Y-87120057D01*
X85785714Y-87120057D02*
X85833333Y-87215295D01*
X85833333Y-87215295D02*
X85833333Y-87358152D01*
X85833333Y-87358152D02*
X85785714Y-87453390D01*
X85785714Y-87453390D02*
X85738095Y-87501009D01*
X85738095Y-87501009D02*
X85642857Y-87548628D01*
X85642857Y-87548628D02*
X85261905Y-87548628D01*
X86785714Y-88024819D02*
X86214286Y-88024819D01*
X86500000Y-88024819D02*
X86500000Y-87024819D01*
X86500000Y-87024819D02*
X86404762Y-87167676D01*
X86404762Y-87167676D02*
X86309524Y-87262914D01*
X86309524Y-87262914D02*
X86214286Y-87310533D01*
D14*
%TO.C,D3*%
X96075000Y-86825000D02*
X98575000Y-86825000D01*
X98575000Y-85175000D02*
X96075000Y-85175000D01*
X98575000Y-86825000D02*
X98575000Y-85175000D01*
D15*
%TO.C,R13*%
X89262258Y-88477500D02*
X88787742Y-88477500D01*
X89262258Y-89522500D02*
X88787742Y-89522500D01*
D16*
%TO.C,U4*%
X125490000Y-96460000D02*
X140730000Y-96460000D01*
X125490000Y-111700000D02*
X125490000Y-96460000D01*
X140730000Y-96460000D02*
X140730000Y-111700000D01*
X140730000Y-111700000D02*
X125490000Y-111700000D01*
D15*
%TO.C,C8*%
X99690000Y-92359420D02*
X99690000Y-92640580D01*
X100710000Y-92359420D02*
X100710000Y-92640580D01*
%TO.C,C9*%
X111540000Y-87409420D02*
X111540000Y-87690580D01*
X112560000Y-87409420D02*
X112560000Y-87690580D01*
%TO.C,R9*%
X100577500Y-99962742D02*
X100577500Y-100437258D01*
X101622500Y-99962742D02*
X101622500Y-100437258D01*
%TO.C,C11*%
X104990000Y-84859420D02*
X104990000Y-85140580D01*
X106010000Y-84859420D02*
X106010000Y-85140580D01*
D16*
%TO.C,J1*%
X83720000Y-90530000D02*
X85100000Y-90530000D01*
X83720000Y-99470000D02*
X83720000Y-90530000D01*
X83720000Y-99470000D02*
X85100000Y-99470000D01*
X87540000Y-90530000D02*
X89130000Y-90530000D01*
X87540000Y-99470000D02*
X89130000Y-99470000D01*
D14*
X92420000Y-91000000D02*
G75*
G02*
X92220000Y-91000000I-100000J0D01*
G01*
X92220000Y-91000000D02*
G75*
G02*
X92420000Y-91000000I100000J0D01*
G01*
D15*
%TO.C,R2*%
X95837258Y-99077500D02*
X95362742Y-99077500D01*
X95837258Y-100122500D02*
X95362742Y-100122500D01*
%TO.C,R4*%
X93362742Y-86977500D02*
X93837258Y-86977500D01*
X93362742Y-88022500D02*
X93837258Y-88022500D01*
D14*
%TO.C,U3*%
X103150000Y-93555000D02*
G75*
G02*
X102950000Y-93555000I-100000J0D01*
G01*
X102950000Y-93555000D02*
G75*
G02*
X103150000Y-93555000I100000J0D01*
G01*
D15*
%TO.C,C2*%
X92140580Y-88490000D02*
X91859420Y-88490000D01*
X92140580Y-89510000D02*
X91859420Y-89510000D01*
D16*
%TO.C,U5*%
X125490000Y-80380000D02*
X140730000Y-80380000D01*
X125490000Y-95620000D02*
X125490000Y-80380000D01*
X140730000Y-80380000D02*
X140730000Y-95620000D01*
X140730000Y-95620000D02*
X125490000Y-95620000D01*
D15*
%TO.C,C7*%
X103140580Y-87790000D02*
X102859420Y-87790000D01*
X103140580Y-88810000D02*
X102859420Y-88810000D01*
D12*
%TO.C,D7*%
X106800000Y-87500000D02*
X106800000Y-87500000D01*
X106900000Y-87500000D02*
X106900000Y-87500000D01*
X106800000Y-87500000D02*
G75*
G02*
X106900000Y-87500000I50000J0D01*
G01*
X106900000Y-87500000D02*
G75*
G02*
X106800000Y-87500000I-50000J0D01*
G01*
D14*
%TO.C,D5*%
X109725000Y-83225000D02*
X112225000Y-83225000D01*
X112225000Y-81575000D02*
X109725000Y-81575000D01*
X112225000Y-83225000D02*
X112225000Y-81575000D01*
D16*
%TO.C,U1*%
X94445000Y-96875000D02*
X94445000Y-92875000D01*
X99545000Y-96875000D02*
X99545000Y-92875000D01*
D14*
X94595000Y-98875000D02*
G75*
G02*
X94395000Y-98875000I-100000J0D01*
G01*
X94395000Y-98875000D02*
G75*
G02*
X94595000Y-98875000I100000J0D01*
G01*
D16*
%TO.C,Q1*%
X102485000Y-97802500D02*
X102485000Y-102302500D01*
X105515000Y-97802500D02*
X105515000Y-102302500D01*
D14*
X105475000Y-95612500D02*
G75*
G02*
X105275000Y-95612500I-100000J0D01*
G01*
X105275000Y-95612500D02*
G75*
G02*
X105475000Y-95612500I100000J0D01*
G01*
D15*
%TO.C,R18*%
X108562742Y-102977500D02*
X109037258Y-102977500D01*
X108562742Y-104022500D02*
X109037258Y-104022500D01*
D14*
%TO.C,D1*%
X96075000Y-88325000D02*
X98575000Y-88325000D01*
X98575000Y-86675000D02*
X96075000Y-86675000D01*
X98575000Y-88325000D02*
X98575000Y-86675000D01*
D15*
%TO.C,R6*%
X93362742Y-85477500D02*
X93837258Y-85477500D01*
X93362742Y-86522500D02*
X93837258Y-86522500D01*
D16*
%TO.C,U7*%
X106750000Y-92785000D02*
X106750000Y-98885000D01*
X106750000Y-98885000D02*
X106998000Y-98885000D01*
X113242000Y-98885000D02*
X113490000Y-98885000D01*
X113490000Y-92785000D02*
X106750000Y-92785000D01*
X113490000Y-98885000D02*
X113490000Y-92785000D01*
D14*
X113520000Y-90390000D02*
G75*
G02*
X113320000Y-90390000I-100000J0D01*
G01*
X113320000Y-90390000D02*
G75*
G02*
X113520000Y-90390000I100000J0D01*
G01*
%TO.C,D8*%
X109725000Y-85225000D02*
X112225000Y-85225000D01*
X112225000Y-83575000D02*
X109725000Y-83575000D01*
X112225000Y-85225000D02*
X112225000Y-83575000D01*
D15*
%TO.C,R17*%
X108562742Y-104477500D02*
X109037258Y-104477500D01*
X108562742Y-105522500D02*
X109037258Y-105522500D01*
%TO.C,R16*%
X107387742Y-83877500D02*
X107862258Y-83877500D01*
X107387742Y-84922500D02*
X107862258Y-84922500D01*
%TO.C,R3*%
X85762742Y-100477500D02*
X86237258Y-100477500D01*
X85762742Y-101522500D02*
X86237258Y-101522500D01*
%TO.C,R12*%
X107387742Y-81877500D02*
X107862258Y-81877500D01*
X107387742Y-82922500D02*
X107862258Y-82922500D01*
%TO.C,R11*%
X99987742Y-86377500D02*
X100462258Y-86377500D01*
X99987742Y-87422500D02*
X100462258Y-87422500D01*
%TO.C,R1*%
X85762742Y-88477500D02*
X86237258Y-88477500D01*
X85762742Y-89522500D02*
X86237258Y-89522500D01*
%TD*%
M02*
